G04*
G04 #@! TF.GenerationSoftware,Altium Limited,Altium Designer,23.0.1 (38)*
G04*
G04 Layer_Physical_Order=5*
G04 Layer_Color=16737945*
%FSLAX25Y25*%
%MOIN*%
G70*
G04*
G04 #@! TF.SameCoordinates,78B848BC-93E4-4EEF-81BE-5096D5435DE8*
G04*
G04*
G04 #@! TF.FilePolarity,Positive*
G04*
G01*
G75*
%ADD14C,0.00500*%
%ADD17C,0.00400*%
%ADD40C,0.00900*%
%ADD103C,0.01000*%
%ADD108C,0.01000*%
%ADD109C,0.02000*%
%ADD110C,0.01600*%
%ADD111C,0.01200*%
G36*
X65256Y83757D02*
X65329Y83386D01*
X65539Y83072D01*
Y82867D01*
X65329Y82553D01*
X65256Y82182D01*
X65329Y81811D01*
X65356Y81771D01*
X65500Y81394D01*
X65356Y81018D01*
X65329Y80978D01*
X65256Y80607D01*
X65329Y80236D01*
X65410Y80116D01*
X65487Y79729D01*
X65401Y79414D01*
X65305Y79271D01*
X65231Y78900D01*
X65305Y78529D01*
X65515Y78215D01*
X65829Y78005D01*
X66200Y77931D01*
X66571Y78005D01*
X66885Y78215D01*
X67095Y78529D01*
X67169Y78900D01*
X67095Y79271D01*
X67014Y79391D01*
X66938Y79778D01*
X67024Y80093D01*
X67119Y80236D01*
X67193Y80607D01*
X67139Y80879D01*
X67294Y81098D01*
X67309Y81112D01*
X67527Y81267D01*
X67799Y81213D01*
X68170Y81287D01*
X68208Y81313D01*
X68708Y81046D01*
Y71097D01*
X82400D01*
Y28226D01*
X81900Y27959D01*
X81883Y27970D01*
X81513Y28043D01*
X81142Y27970D01*
X80828Y27760D01*
X80618Y27446D01*
X80544Y27075D01*
X80618Y26704D01*
X80828Y26390D01*
X81142Y26180D01*
X81513Y26106D01*
X81785Y26160D01*
X82003Y26005D01*
X82018Y25991D01*
X82173Y25772D01*
X82119Y25500D01*
X82192Y25129D01*
X82402Y24815D01*
X82717Y24605D01*
X83087Y24531D01*
X83458Y24605D01*
X83772Y24815D01*
X83982Y25129D01*
X84056Y25500D01*
X83982Y25871D01*
X83896Y26000D01*
X84132Y26500D01*
X94492D01*
X94748Y26070D01*
X94310Y25268D01*
X92638Y22667D01*
X92170Y22023D01*
X91080Y20569D01*
X89110Y18205D01*
X88250Y17274D01*
X86701Y15648D01*
X84190Y13340D01*
X81531Y11205D01*
X78736Y9251D01*
X75818Y7487D01*
X72788Y5921D01*
X69661Y4559D01*
X66451Y3409D01*
X63172Y2474D01*
X59837Y1759D01*
X56463Y1267D01*
X53063Y1001D01*
X51358Y981D01*
X50601D01*
X48244Y1073D01*
X46572Y1199D01*
X41944Y1837D01*
X40213Y2234D01*
X36979Y3082D01*
X34721Y3781D01*
X31216Y5161D01*
X28808Y6324D01*
X26990Y7283D01*
X24564Y8688D01*
X24382Y8813D01*
X20999Y11181D01*
X18514Y13170D01*
X15758Y15739D01*
X13202Y18506D01*
X10861Y21458D01*
X8915Y24329D01*
X9001Y24487D01*
X9245Y24734D01*
X9516Y24680D01*
X9887Y24754D01*
X10201Y24964D01*
X10411Y25278D01*
X10484Y25649D01*
X10411Y26019D01*
X10201Y26334D01*
X10165Y26357D01*
Y27344D01*
X15821Y33000D01*
X34657D01*
X34993Y32775D01*
X35500Y32675D01*
X36007Y32775D01*
X36343Y33000D01*
X54208D01*
Y37992D01*
X54290Y38008D01*
X54621Y38229D01*
X54842Y38560D01*
X54920Y38950D01*
X54842Y39340D01*
X54621Y39671D01*
X54290Y39892D01*
X54208Y39908D01*
Y44922D01*
X54708Y45238D01*
X54898Y45200D01*
X55288Y45278D01*
X55619Y45499D01*
X55840Y45830D01*
X55917Y46220D01*
X55840Y46610D01*
X55619Y46941D01*
X55288Y47162D01*
X54898Y47239D01*
X54708Y47202D01*
X54208Y47517D01*
Y71097D01*
Y84176D01*
X56955D01*
X57382Y83757D01*
X57455Y83386D01*
X57665Y83072D01*
Y82867D01*
X57455Y82553D01*
X57382Y82182D01*
X57455Y81811D01*
X57482Y81771D01*
X57626Y81394D01*
X57482Y81018D01*
X57455Y80978D01*
X57382Y80607D01*
X57455Y80236D01*
X57665Y79922D01*
X57980Y79712D01*
X58350Y79638D01*
X58721Y79712D01*
X59035Y79922D01*
X59245Y80236D01*
X59319Y80607D01*
X59265Y80879D01*
X59420Y81098D01*
X59435Y81112D01*
X59653Y81267D01*
X59925Y81213D01*
X60296Y81287D01*
X60610Y81497D01*
X60820Y81811D01*
X60894Y82182D01*
X60820Y82553D01*
X60610Y82867D01*
Y83072D01*
X60820Y83386D01*
X60894Y83757D01*
X61320Y84176D01*
X64829D01*
X65256Y83757D01*
D02*
G37*
G36*
X53086Y101375D02*
X55386Y101216D01*
X55750Y100789D01*
Y100411D01*
X55895Y100062D01*
X56162Y99795D01*
X56511Y99650D01*
X56889D01*
X57100Y99737D01*
X57200Y99730D01*
X57547Y99602D01*
X57674Y99523D01*
X57752Y99334D01*
X58034Y99052D01*
X58401Y98900D01*
X58799D01*
X59166Y99052D01*
X59448Y99334D01*
X59600Y99701D01*
Y100099D01*
X59552Y100214D01*
X59897Y100671D01*
X59959Y100662D01*
X60738Y100499D01*
X61081Y100021D01*
Y99643D01*
X61226Y99294D01*
X61493Y99027D01*
X61842Y98882D01*
X62220D01*
X62569Y99027D01*
X62837Y99294D01*
X62981Y99643D01*
X63000Y99660D01*
X63481Y99914D01*
X65686Y99291D01*
X65797Y98740D01*
X65695Y98638D01*
X65550Y98289D01*
Y97911D01*
X65695Y97562D01*
X65962Y97295D01*
X65970Y97291D01*
Y96750D01*
X65862Y96705D01*
X65595Y96438D01*
X65450Y96089D01*
Y95711D01*
X65595Y95362D01*
X65862Y95095D01*
X66211Y94950D01*
X66356Y94733D01*
X66300Y94599D01*
Y94201D01*
X66001Y93800D01*
X65634Y93648D01*
X65352Y93366D01*
X65200Y92999D01*
Y92601D01*
X65352Y92234D01*
X65634Y91952D01*
X66001Y91800D01*
X66399D01*
X66766Y91952D01*
X67048Y92234D01*
X67200Y92601D01*
Y92999D01*
X67499Y93400D01*
X67866Y93552D01*
X68148Y93834D01*
X68300Y94201D01*
Y94599D01*
X68148Y94966D01*
X67866Y95248D01*
X67724Y95307D01*
X67350Y95711D01*
Y96089D01*
X67205Y96438D01*
X66938Y96705D01*
X66930Y96709D01*
Y97250D01*
X67038Y97295D01*
X67305Y97562D01*
X67450Y97911D01*
Y98202D01*
X67683Y98453D01*
X67869Y98583D01*
X68172Y98475D01*
X70101Y97769D01*
X70791Y97466D01*
X73270Y96365D01*
X74202Y95877D01*
X78904Y93127D01*
X81547Y91267D01*
X83608Y89599D01*
X85272Y88131D01*
X87538Y85865D01*
X89799Y83407D01*
X91855Y80763D01*
X94409Y76932D01*
X94646Y76478D01*
X94502Y76305D01*
X94259Y76138D01*
X93989Y76250D01*
X93611D01*
X93250Y76611D01*
Y76989D01*
X93105Y77338D01*
X92838Y77605D01*
X92489Y77750D01*
X92111D01*
X91762Y77605D01*
X91495Y77338D01*
X91350Y76989D01*
Y76924D01*
X91089Y76750D01*
X90711D01*
X90362Y76605D01*
X90095Y76338D01*
X89950Y75989D01*
Y75800D01*
X82400D01*
Y73883D01*
X73364D01*
X73236Y74179D01*
X73210Y74383D01*
X73448Y74621D01*
X73600Y74988D01*
Y75386D01*
X73448Y75754D01*
X73166Y76035D01*
X72799Y76187D01*
X72401D01*
X72163Y76346D01*
Y78405D01*
X72600Y78765D01*
X72998D01*
X73365Y78917D01*
X73647Y79198D01*
X73799Y79566D01*
Y79964D01*
X73647Y80331D01*
X73365Y80613D01*
X72998Y80765D01*
X72600D01*
X72163Y81125D01*
Y84883D01*
X67348D01*
X67174Y85142D01*
Y85520D01*
X67030Y85870D01*
X66781Y86119D01*
X67030Y86368D01*
X67174Y86717D01*
Y87095D01*
X67030Y87444D01*
X66781Y87694D01*
X67030Y87943D01*
X67174Y88292D01*
Y88670D01*
X67030Y89019D01*
X66763Y89287D01*
X66413Y89431D01*
X66035D01*
X65686Y89287D01*
X65419Y89019D01*
X65274Y88670D01*
Y88292D01*
X65419Y87943D01*
X65668Y87694D01*
X65419Y87444D01*
X65274Y87095D01*
Y86717D01*
X65312Y86627D01*
X64929Y86244D01*
X64839Y86282D01*
X64461D01*
X64370Y86244D01*
X63987Y86627D01*
X64025Y86717D01*
Y87095D01*
X63880Y87444D01*
X63631Y87694D01*
X63880Y87943D01*
X64025Y88292D01*
Y88670D01*
X63880Y89019D01*
X63634Y89266D01*
X63880Y89512D01*
X64025Y89861D01*
Y90239D01*
X63880Y90588D01*
X63613Y90855D01*
X63264Y91000D01*
X62886D01*
X62537Y90855D01*
X62269Y90588D01*
X62125Y90239D01*
Y89861D01*
X62159Y89777D01*
X61777Y89395D01*
X61689Y89431D01*
X61311D01*
X61223Y89395D01*
X60841Y89777D01*
X60875Y89861D01*
Y90239D01*
X60731Y90588D01*
X60463Y90855D01*
X60114Y91000D01*
X59736D01*
X59387Y90855D01*
X59120Y90588D01*
X58975Y90239D01*
Y89861D01*
X59010Y89777D01*
X58627Y89395D01*
X58539Y89431D01*
X58161D01*
X58071Y89394D01*
X57688Y89776D01*
X57726Y89867D01*
Y90245D01*
X57581Y90594D01*
X57314Y90861D01*
X56965Y91006D01*
X56587D01*
X56408Y90932D01*
X55905Y90838D01*
X55638Y91105D01*
X55289Y91250D01*
X54911D01*
X54562Y91105D01*
X54295Y90838D01*
X54150Y90489D01*
Y90111D01*
X54295Y89762D01*
X54562Y89495D01*
X54911Y89350D01*
X55289D01*
X55468Y89424D01*
X55970Y89518D01*
X56238Y89250D01*
X56587Y89106D01*
X56965D01*
X57055Y89144D01*
X57438Y88761D01*
X57400Y88670D01*
Y88292D01*
X57545Y87943D01*
X57797Y87691D01*
X57545Y87438D01*
X57400Y87089D01*
Y86711D01*
X57545Y86362D01*
X57791Y86116D01*
X57545Y85870D01*
X57400Y85520D01*
Y85142D01*
X57227Y84883D01*
X52750D01*
Y84989D01*
X52605Y85338D01*
X52394Y85550D01*
X52605Y85762D01*
X52750Y86111D01*
Y86489D01*
X52605Y86838D01*
X52338Y87105D01*
X51989Y87250D01*
X51611D01*
X51262Y87105D01*
X50995Y86838D01*
X50850Y86489D01*
Y86111D01*
X50995Y85762D01*
X51206Y85550D01*
X50995Y85338D01*
X50850Y84989D01*
Y84611D01*
X50995Y84262D01*
X51257Y84000D01*
X50995Y83738D01*
X50850Y83389D01*
Y83011D01*
X50995Y82662D01*
X51262Y82395D01*
X51174Y81890D01*
X51050Y81589D01*
Y81211D01*
X51174Y80912D01*
X51102Y80733D01*
X50899Y80450D01*
X50611D01*
X50262Y80305D01*
X49995Y80038D01*
X49850Y79689D01*
Y79311D01*
X49995Y78962D01*
X50262Y78695D01*
X50611Y78550D01*
X50779D01*
X51112Y78145D01*
X51129Y78088D01*
X51100Y78019D01*
Y77581D01*
X51267Y77177D01*
X51577Y76868D01*
X51863Y76749D01*
Y73883D01*
X38655D01*
X38436Y74102D01*
X37959Y74300D01*
X37441D01*
X36964Y74102D01*
X36745Y73883D01*
X28963D01*
Y78819D01*
X29105Y78962D01*
X29250Y79311D01*
Y79689D01*
X29105Y80038D01*
X28838Y80305D01*
X28563Y80419D01*
X28435Y80714D01*
X28387Y80950D01*
X32274Y84837D01*
X34019D01*
X34162Y84695D01*
X34511Y84550D01*
X34889D01*
X35238Y84695D01*
X35505Y84962D01*
X35650Y85311D01*
Y85689D01*
X35505Y86038D01*
X35238Y86305D01*
X34889Y86450D01*
X34511D01*
X34162Y86305D01*
X34019Y86163D01*
X32000D01*
X31746Y86112D01*
X31531Y85969D01*
X30301Y84738D01*
X29748Y84767D01*
X29466Y85048D01*
X29099Y85200D01*
X28701D01*
X28334Y85048D01*
X28052Y84766D01*
X27900Y84399D01*
Y84001D01*
X28052Y83634D01*
X28334Y83352D01*
X28362Y82799D01*
X25031Y79469D01*
X24888Y79254D01*
X24837Y79000D01*
Y77791D01*
X24396Y77679D01*
X24337Y77677D01*
X24067Y77948D01*
X23840Y78041D01*
X23779Y78466D01*
X23777Y78544D01*
X23780Y78566D01*
X24048Y78834D01*
X24200Y79201D01*
Y79599D01*
X24048Y79966D01*
X23766Y80248D01*
X23399Y80400D01*
X23001D01*
X22634Y80248D01*
X22352Y79966D01*
X22200Y79599D01*
Y79201D01*
X22352Y78834D01*
X22634Y78552D01*
X22860Y78458D01*
X22921Y78034D01*
X22923Y77956D01*
X22920Y77934D01*
X22652Y77666D01*
X22500Y77299D01*
Y76901D01*
X22652Y76534D01*
X22930Y76256D01*
X22930Y76206D01*
X22915Y76012D01*
X22659Y75600D01*
X22141D01*
X21664Y75402D01*
X21298Y75036D01*
X21100Y74559D01*
Y74041D01*
X20994Y73883D01*
X14900D01*
Y65810D01*
X14828Y65731D01*
X14400Y65517D01*
X14249Y65579D01*
X13801Y65801D01*
X13800Y66062D01*
Y66199D01*
X13648Y66566D01*
X13366Y66848D01*
X12999Y67000D01*
X12601D01*
X12234Y66848D01*
X11952Y66566D01*
X11800Y66199D01*
Y65801D01*
X11952Y65434D01*
X12234Y65152D01*
X12551Y65021D01*
X12999Y64799D01*
X13000Y64538D01*
Y64401D01*
X13152Y64034D01*
X13386Y63800D01*
X13356Y63577D01*
X13232Y63300D01*
X10244Y63300D01*
X10138Y63405D01*
X9789Y63550D01*
X9411D01*
X9062Y63405D01*
X8957Y63300D01*
X3052Y63300D01*
X2744Y63694D01*
X3149Y65321D01*
X3400Y66061D01*
X3900Y65978D01*
Y65741D01*
X4098Y65264D01*
X4464Y64898D01*
X4941Y64700D01*
X5459D01*
X5936Y64898D01*
X6302Y65264D01*
X6500Y65741D01*
Y66259D01*
X6302Y66736D01*
X5936Y67102D01*
X5459Y67300D01*
X4941D01*
X4464Y67102D01*
X4187Y66826D01*
X3751Y67097D01*
X4486Y69266D01*
X6146Y73086D01*
X8116Y76756D01*
X10383Y80250D01*
X12932Y83544D01*
X14651Y85421D01*
X15029Y85234D01*
X15100Y85171D01*
Y84801D01*
X15252Y84434D01*
X15533Y84152D01*
X15752Y84062D01*
Y83538D01*
X15533Y83448D01*
X15252Y83166D01*
X15100Y82799D01*
Y82401D01*
X15252Y82034D01*
X15533Y81752D01*
X15901Y81600D01*
X16299D01*
X16667Y81752D01*
X16948Y82034D01*
X17100Y82401D01*
Y82799D01*
X16948Y83166D01*
X16667Y83448D01*
X16448Y83538D01*
Y84062D01*
X16667Y84152D01*
X16948Y84434D01*
X17100Y84801D01*
Y85199D01*
X16948Y85566D01*
X16667Y85848D01*
X16299Y86000D01*
X15901D01*
X15834Y85972D01*
X15540Y86392D01*
X15745Y86616D01*
X18803Y89444D01*
X22085Y92010D01*
X25568Y94294D01*
X29228Y96282D01*
X33041Y97960D01*
X36979Y99317D01*
X41016Y100342D01*
X45124Y101030D01*
X49275Y101375D01*
X53086Y101375D01*
D02*
G37*
%LPC*%
G36*
X63075Y83151D02*
X62704Y83077D01*
X62390Y82867D01*
X62180Y82553D01*
X62106Y82182D01*
X62180Y81811D01*
X62390Y81497D01*
X62704Y81287D01*
X63075Y81213D01*
X63446Y81287D01*
X63760Y81497D01*
X63970Y81811D01*
X64043Y82182D01*
X63970Y82553D01*
X63760Y82867D01*
X63446Y83077D01*
X63075Y83151D01*
D02*
G37*
G36*
X56700Y79769D02*
X56329Y79695D01*
X56015Y79485D01*
X55805Y79171D01*
X55731Y78800D01*
X55805Y78429D01*
X56015Y78115D01*
X56329Y77905D01*
X56700Y77831D01*
X56816Y77854D01*
X56948Y77761D01*
X57198Y77435D01*
X57131Y77097D01*
X57224Y76629D01*
X57489Y76232D01*
X57886Y75967D01*
X58355Y75874D01*
X58823Y75967D01*
X59220Y76232D01*
X59485Y76629D01*
X59578Y77097D01*
X59485Y77566D01*
X59220Y77963D01*
X58823Y78228D01*
X58355Y78321D01*
X58036Y78258D01*
X57691Y78561D01*
X57639Y78650D01*
X57669Y78800D01*
X57595Y79171D01*
X57385Y79485D01*
X57071Y79695D01*
X56700Y79769D01*
D02*
G37*
G36*
X58750Y74020D02*
X58360Y73942D01*
X58029Y73721D01*
X57808Y73390D01*
X57730Y73000D01*
X57742Y72941D01*
X57292Y72641D01*
X57290Y72642D01*
X56900Y72720D01*
X56510Y72642D01*
X56179Y72421D01*
X55958Y72090D01*
X55880Y71700D01*
X55958Y71310D01*
X56179Y70979D01*
X56510Y70758D01*
X56900Y70680D01*
X57290Y70758D01*
X57621Y70979D01*
X57842Y71310D01*
X57920Y71700D01*
X57908Y71759D01*
X58358Y72059D01*
X58360Y72058D01*
X58750Y71980D01*
X59140Y72058D01*
X59471Y72279D01*
X59692Y72610D01*
X59770Y73000D01*
X59692Y73390D01*
X59471Y73721D01*
X59140Y73942D01*
X58750Y74020D01*
D02*
G37*
G36*
X69918Y34644D02*
X69527Y34567D01*
X69196Y34346D01*
X68976Y34015D01*
X68898Y33625D01*
X68976Y33235D01*
X69196Y32904D01*
X69527Y32683D01*
X69918Y32605D01*
X70308Y32683D01*
X70638Y32904D01*
X70859Y33235D01*
X70937Y33625D01*
X70859Y34015D01*
X70638Y34346D01*
X70308Y34567D01*
X69918Y34644D01*
D02*
G37*
G36*
X23000Y29825D02*
X22493Y29725D01*
X22063Y29437D01*
X21937D01*
X21507Y29725D01*
X21000Y29825D01*
X20493Y29725D01*
X20063Y29437D01*
X19775Y29007D01*
X19674Y28500D01*
X19775Y27993D01*
X20063Y27563D01*
X20493Y27275D01*
X21000Y27174D01*
X21507Y27275D01*
X21937Y27563D01*
X22063D01*
X22493Y27275D01*
X23000Y27174D01*
X23507Y27275D01*
X23937Y27563D01*
X24225Y27993D01*
X24326Y28500D01*
X24225Y29007D01*
X23937Y29437D01*
X23507Y29725D01*
X23000Y29825D01*
D02*
G37*
G36*
X74200Y31420D02*
X73810Y31342D01*
X73479Y31121D01*
X73258Y30790D01*
X73180Y30400D01*
X73258Y30010D01*
X73479Y29679D01*
X73810Y29458D01*
X74200Y29380D01*
X74590Y29458D01*
X74921Y29679D01*
X75142Y30010D01*
X75220Y30400D01*
X75142Y30790D01*
X74921Y31121D01*
X74590Y31342D01*
X74200Y31420D01*
D02*
G37*
G36*
X45300Y30920D02*
X44910Y30842D01*
X44579Y30621D01*
X44358Y30290D01*
X44280Y29900D01*
X44358Y29510D01*
X44579Y29179D01*
X44910Y28958D01*
X45300Y28880D01*
X45690Y28958D01*
X46021Y29179D01*
X46242Y29510D01*
X46320Y29900D01*
X46242Y30290D01*
X46021Y30621D01*
X45690Y30842D01*
X45300Y30920D01*
D02*
G37*
G36*
X77400Y30620D02*
X77010Y30542D01*
X76679Y30321D01*
X76458Y29990D01*
X76380Y29600D01*
X76458Y29210D01*
X76679Y28879D01*
X77010Y28658D01*
X77400Y28580D01*
X77790Y28658D01*
X78121Y28879D01*
X78342Y29210D01*
X78420Y29600D01*
X78342Y29990D01*
X78121Y30321D01*
X77790Y30542D01*
X77400Y30620D01*
D02*
G37*
G36*
X67944Y30587D02*
X67554Y30509D01*
X67223Y30288D01*
X67002Y29958D01*
X66925Y29568D01*
X67002Y29177D01*
X67223Y28846D01*
X67554Y28626D01*
X67944Y28548D01*
X68334Y28626D01*
X68665Y28846D01*
X68886Y29177D01*
X68964Y29568D01*
X68886Y29958D01*
X68665Y30288D01*
X68334Y30509D01*
X67944Y30587D01*
D02*
G37*
G36*
X40300Y30520D02*
X39910Y30442D01*
X39579Y30221D01*
X39358Y29890D01*
X39280Y29500D01*
X39358Y29110D01*
X39579Y28779D01*
X39910Y28558D01*
X40300Y28480D01*
X40690Y28558D01*
X41021Y28779D01*
X41242Y29110D01*
X41320Y29500D01*
X41242Y29890D01*
X41021Y30221D01*
X40690Y30442D01*
X40300Y30520D01*
D02*
G37*
G36*
X64600Y29920D02*
X64210Y29842D01*
X63879Y29621D01*
X63658Y29290D01*
X63580Y28900D01*
X63658Y28510D01*
X63879Y28179D01*
X64210Y27958D01*
X64600Y27880D01*
X64990Y27958D01*
X65321Y28179D01*
X65542Y28510D01*
X65620Y28900D01*
X65542Y29290D01*
X65321Y29621D01*
X64990Y29842D01*
X64600Y29920D01*
D02*
G37*
G36*
X56870Y29508D02*
X56500Y29435D01*
X56185Y29225D01*
X55975Y28910D01*
X55902Y28540D01*
X55975Y28169D01*
X56185Y27855D01*
X56500Y27645D01*
X56870Y27571D01*
X57241Y27645D01*
X57555Y27855D01*
X57765Y28169D01*
X57839Y28540D01*
X57765Y28910D01*
X57555Y29225D01*
X57241Y29435D01*
X56870Y29508D01*
D02*
G37*
G36*
X59400Y29469D02*
X59029Y29395D01*
X58715Y29185D01*
X58505Y28871D01*
X58431Y28500D01*
X58505Y28129D01*
X58715Y27815D01*
X59029Y27605D01*
X59400Y27531D01*
X59771Y27605D01*
X59852Y27660D01*
X60026Y27637D01*
X60427Y27508D01*
X60440Y27497D01*
X60663Y27163D01*
X61093Y26875D01*
X61600Y26774D01*
X62107Y26875D01*
X62537Y27163D01*
X62825Y27593D01*
X62925Y28100D01*
X62825Y28607D01*
X62537Y29037D01*
X62107Y29325D01*
X61600Y29425D01*
X61093Y29325D01*
X60716Y29072D01*
X60647Y29040D01*
X60123Y29129D01*
X60085Y29185D01*
X59771Y29395D01*
X59400Y29469D01*
D02*
G37*
G36*
X49700Y28320D02*
X49310Y28242D01*
X48979Y28021D01*
X48758Y27690D01*
X48680Y27300D01*
X48758Y26910D01*
X48979Y26579D01*
X49310Y26358D01*
X49700Y26280D01*
X50090Y26358D01*
X50421Y26579D01*
X50642Y26910D01*
X50720Y27300D01*
X50642Y27690D01*
X50421Y28021D01*
X50090Y28242D01*
X49700Y28320D01*
D02*
G37*
G36*
X60500Y26320D02*
X60110Y26242D01*
X59779Y26021D01*
X59558Y25690D01*
X59480Y25300D01*
X59558Y24910D01*
X59779Y24579D01*
X60110Y24358D01*
X60500Y24280D01*
X60890Y24358D01*
X61221Y24579D01*
X61442Y24910D01*
X61520Y25300D01*
X61442Y25690D01*
X61221Y26021D01*
X60890Y26242D01*
X60500Y26320D01*
D02*
G37*
G36*
X42713Y27831D02*
X42342Y27757D01*
X42028Y27547D01*
X41818Y27233D01*
X41744Y26862D01*
X41818Y26491D01*
X41835Y26466D01*
X42015Y25985D01*
X41805Y25671D01*
X41731Y25300D01*
X41805Y24929D01*
X41844Y24872D01*
X41974Y24500D01*
X41844Y24128D01*
X41805Y24071D01*
X41731Y23700D01*
X41805Y23329D01*
X42015Y23015D01*
X42329Y22805D01*
X42700Y22731D01*
X43071Y22805D01*
X43128Y22844D01*
X43500Y22975D01*
X43872Y22844D01*
X43929Y22805D01*
X44300Y22731D01*
X44671Y22805D01*
X44985Y23015D01*
X45195Y23329D01*
X45269Y23700D01*
X45195Y24071D01*
X44985Y24385D01*
Y24615D01*
X45195Y24929D01*
X45269Y25300D01*
X45195Y25671D01*
X44985Y25985D01*
X44671Y26195D01*
X44300Y26269D01*
X44023Y26213D01*
X43814Y26354D01*
X43800Y26367D01*
X43628Y26595D01*
X43681Y26862D01*
X43608Y27233D01*
X43398Y27547D01*
X43083Y27757D01*
X42713Y27831D01*
D02*
G37*
G36*
X36680Y31247D02*
X36172Y31146D01*
X35742Y30858D01*
X35455Y30428D01*
X35354Y29921D01*
X35455Y29414D01*
X35742Y28984D01*
Y28659D01*
X35455Y28229D01*
X35354Y27721D01*
X35455Y27214D01*
X35742Y26784D01*
X35805Y26742D01*
Y26141D01*
X35723Y26086D01*
X35435Y25656D01*
X35334Y25149D01*
X35435Y24641D01*
X35723Y24211D01*
X35627Y23674D01*
X35438Y23390D01*
X35337Y22883D01*
X35438Y22376D01*
X35726Y21946D01*
X36156Y21658D01*
X36663Y21557D01*
X37170Y21658D01*
X37600Y21946D01*
X37887Y22376D01*
X37988Y22883D01*
X37887Y23390D01*
X37600Y23820D01*
X37695Y24358D01*
X37884Y24641D01*
X37985Y25149D01*
X37884Y25656D01*
X37597Y26086D01*
X37534Y26128D01*
Y26729D01*
X37617Y26784D01*
X37904Y27214D01*
X38005Y27721D01*
X37904Y28229D01*
X37617Y28659D01*
Y28984D01*
X37904Y29414D01*
X38005Y29921D01*
X37904Y30428D01*
X37617Y30858D01*
X37187Y31146D01*
X36680Y31247D01*
D02*
G37*
G36*
X76000Y23220D02*
X75610Y23142D01*
X75279Y22921D01*
X75058Y22590D01*
X74980Y22200D01*
X75058Y21810D01*
X75279Y21479D01*
X75610Y21258D01*
X76000Y21180D01*
X76390Y21258D01*
X76721Y21479D01*
X76942Y21810D01*
X77020Y22200D01*
X76942Y22590D01*
X76721Y22921D01*
X76390Y23142D01*
X76000Y23220D01*
D02*
G37*
G36*
X79600Y22369D02*
X79229Y22295D01*
X78915Y22085D01*
X78705Y21771D01*
X78631Y21400D01*
X78705Y21029D01*
X78915Y20715D01*
X79229Y20505D01*
X79600Y20431D01*
X79971Y20505D01*
X80285Y20715D01*
X80495Y21029D01*
X80569Y21400D01*
X80495Y21771D01*
X80285Y22085D01*
X79971Y22295D01*
X79600Y22369D01*
D02*
G37*
G36*
X14200Y20820D02*
X13810Y20742D01*
X13479Y20521D01*
X13258Y20190D01*
X13180Y19800D01*
X13258Y19410D01*
X13479Y19079D01*
X13810Y18858D01*
X14200Y18780D01*
X14590Y18858D01*
X14921Y19079D01*
X15142Y19410D01*
X15220Y19800D01*
X15142Y20190D01*
X14921Y20521D01*
X14590Y20742D01*
X14200Y20820D01*
D02*
G37*
G36*
X32600Y21326D02*
X32093Y21225D01*
X31663Y20937D01*
X31375Y20507D01*
X31275Y20000D01*
X31375Y19493D01*
X31663Y19063D01*
X32093Y18775D01*
X32600Y18675D01*
X33107Y18775D01*
X33537Y19063D01*
X33825Y19493D01*
X33926Y20000D01*
X33825Y20507D01*
X33537Y20937D01*
X33107Y21225D01*
X32600Y21326D01*
D02*
G37*
G36*
X28500D02*
X27993Y21225D01*
X27563Y20937D01*
X27275Y20507D01*
X27174Y20000D01*
X27275Y19493D01*
X27563Y19063D01*
X27993Y18775D01*
X28500Y18675D01*
X29007Y18775D01*
X29437Y19063D01*
X29725Y19493D01*
X29825Y20000D01*
X29725Y20507D01*
X29437Y20937D01*
X29007Y21225D01*
X28500Y21326D01*
D02*
G37*
G36*
X46200Y20621D02*
X45771Y20536D01*
X45407Y20293D01*
X45164Y19929D01*
X45078Y19500D01*
X45164Y19071D01*
X45407Y18707D01*
X45771Y18464D01*
X46200Y18379D01*
X46629Y18464D01*
X46993Y18707D01*
X47236Y19071D01*
X47322Y19500D01*
X47236Y19929D01*
X46993Y20293D01*
X46629Y20536D01*
X46200Y20621D01*
D02*
G37*
G36*
X85044Y19845D02*
X84673Y19771D01*
X84359Y19562D01*
X84149Y19247D01*
X84075Y18877D01*
X84149Y18506D01*
X84359Y18192D01*
X84673Y17982D01*
X85044Y17908D01*
X85414Y17982D01*
X85729Y18192D01*
X85939Y18506D01*
X86013Y18877D01*
X85939Y19247D01*
X85729Y19562D01*
X85414Y19771D01*
X85044Y19845D01*
D02*
G37*
G36*
X41685Y19221D02*
X41256Y19136D01*
X40892Y18893D01*
X40649Y18529D01*
X40563Y18100D01*
X40649Y17671D01*
X40892Y17307D01*
X41256Y17064D01*
X41685Y16978D01*
X42114Y17064D01*
X42478Y17307D01*
X42721Y17671D01*
X42806Y18100D01*
X42721Y18529D01*
X42478Y18893D01*
X42114Y19136D01*
X41685Y19221D01*
D02*
G37*
G36*
X67500Y16529D02*
X66915Y16413D01*
X66419Y16081D01*
X66087Y15585D01*
X65971Y15000D01*
X66087Y14415D01*
X66419Y13919D01*
X66915Y13587D01*
X67500Y13471D01*
X68085Y13587D01*
X68581Y13919D01*
X68913Y14415D01*
X69029Y15000D01*
X68913Y15585D01*
X68581Y16081D01*
X68085Y16413D01*
X67500Y16529D01*
D02*
G37*
G36*
X39500Y14221D02*
X39071Y14136D01*
X38707Y13893D01*
X38464Y13529D01*
X38378Y13100D01*
X38464Y12671D01*
X38707Y12307D01*
X39071Y12064D01*
X39500Y11978D01*
X39929Y12064D01*
X40293Y12307D01*
X40536Y12671D01*
X40622Y13100D01*
X40536Y13529D01*
X40293Y13893D01*
X39929Y14136D01*
X39500Y14221D01*
D02*
G37*
G36*
X46200Y13822D02*
X45771Y13736D01*
X45407Y13493D01*
X45164Y13129D01*
X45078Y12700D01*
X45164Y12271D01*
X45407Y11907D01*
X45771Y11664D01*
X46200Y11578D01*
X46629Y11664D01*
X46993Y11907D01*
X47236Y12271D01*
X47322Y12700D01*
X47236Y13129D01*
X46993Y13493D01*
X46629Y13736D01*
X46200Y13822D01*
D02*
G37*
G36*
X55200Y14129D02*
X54615Y14013D01*
X54119Y13681D01*
X53787Y13185D01*
X53671Y12600D01*
X53787Y12015D01*
X54119Y11519D01*
X54615Y11187D01*
X55200Y11071D01*
X55785Y11187D01*
X56281Y11519D01*
X56613Y12015D01*
X56729Y12600D01*
X56613Y13185D01*
X56281Y13681D01*
X55785Y14013D01*
X55200Y14129D01*
D02*
G37*
G36*
X71000Y11529D02*
X70415Y11413D01*
X69919Y11081D01*
X69587Y10585D01*
X69471Y10000D01*
X69587Y9415D01*
X69919Y8919D01*
X70415Y8587D01*
X71000Y8471D01*
X71585Y8587D01*
X72081Y8919D01*
X72413Y9415D01*
X72529Y10000D01*
X72413Y10585D01*
X72081Y11081D01*
X71585Y11413D01*
X71000Y11529D01*
D02*
G37*
G36*
X55500Y8922D02*
X55071Y8836D01*
X54707Y8593D01*
X54464Y8229D01*
X54378Y7800D01*
X54464Y7371D01*
X54707Y7007D01*
X55071Y6764D01*
X55500Y6678D01*
X55929Y6764D01*
X56293Y7007D01*
X56536Y7371D01*
X56622Y7800D01*
X56536Y8229D01*
X56293Y8593D01*
X55929Y8836D01*
X55500Y8922D01*
D02*
G37*
G36*
X50401Y4820D02*
X50011Y4742D01*
X49680Y4521D01*
X49459Y4190D01*
X49382Y3800D01*
X49459Y3410D01*
X49680Y3079D01*
X50011Y2858D01*
X50401Y2780D01*
X50792Y2858D01*
X51122Y3079D01*
X51343Y3410D01*
X51421Y3800D01*
X51343Y4190D01*
X51122Y4521D01*
X50792Y4742D01*
X50401Y4820D01*
D02*
G37*
G36*
X40699Y98100D02*
X40301D01*
X39934Y97948D01*
X39652Y97666D01*
X39500Y97299D01*
Y96901D01*
X39652Y96534D01*
X39934Y96252D01*
X40301Y96100D01*
X40699D01*
X41066Y96252D01*
X41348Y96534D01*
X41500Y96901D01*
Y97299D01*
X41348Y97666D01*
X41066Y97948D01*
X40699Y98100D01*
D02*
G37*
G36*
X54739Y97000D02*
X54261D01*
X53820Y96817D01*
X53483Y96480D01*
X53300Y96039D01*
Y95561D01*
X53483Y95120D01*
X53820Y94783D01*
X54261Y94600D01*
X54739D01*
X55180Y94783D01*
X55517Y95120D01*
X55700Y95561D01*
Y96039D01*
X55517Y96480D01*
X55180Y96817D01*
X54739Y97000D01*
D02*
G37*
G36*
X58789Y94950D02*
X58411D01*
X58062Y94805D01*
X57795Y94538D01*
X57650Y94189D01*
Y93811D01*
X57795Y93462D01*
X58062Y93195D01*
X58411Y93050D01*
X58789D01*
X59138Y93195D01*
X59405Y93462D01*
X59550Y93811D01*
Y94189D01*
X59405Y94538D01*
X59138Y94805D01*
X58789Y94950D01*
D02*
G37*
G36*
X62799Y94924D02*
X62401D01*
X62034Y94771D01*
X61752Y94490D01*
X61600Y94122D01*
Y93725D01*
X61752Y93357D01*
X62034Y93076D01*
X62401Y92923D01*
X62799D01*
X63166Y93076D01*
X63448Y93357D01*
X63600Y93725D01*
Y94122D01*
X63448Y94490D01*
X63166Y94771D01*
X62799Y94924D01*
D02*
G37*
G36*
X51289Y93850D02*
X50911D01*
X50562Y93705D01*
X50295Y93438D01*
X50150Y93089D01*
Y92711D01*
X50295Y92362D01*
X50562Y92095D01*
X50911Y91950D01*
X51289D01*
X51638Y92095D01*
X51905Y92362D01*
X52050Y92711D01*
Y93089D01*
X51905Y93438D01*
X51638Y93705D01*
X51289Y93850D01*
D02*
G37*
G36*
X69799Y92600D02*
X69401D01*
X69034Y92448D01*
X68752Y92166D01*
X68600Y91799D01*
Y91401D01*
X68752Y91034D01*
X69034Y90752D01*
X69401Y90600D01*
X69799D01*
X70166Y90752D01*
X70448Y91034D01*
X70600Y91401D01*
Y91799D01*
X70448Y92166D01*
X70166Y92448D01*
X69799Y92600D01*
D02*
G37*
G36*
X38699Y92200D02*
X38301D01*
X37934Y92048D01*
X37652Y91766D01*
X37500Y91399D01*
Y91001D01*
X37652Y90634D01*
X37934Y90352D01*
X38301Y90200D01*
X38699D01*
X39066Y90352D01*
X39348Y90634D01*
X39500Y91001D01*
Y91399D01*
X39348Y91766D01*
X39066Y92048D01*
X38699Y92200D01*
D02*
G37*
G36*
X28099Y92600D02*
X27701D01*
X27334Y92448D01*
X27052Y92166D01*
X26900Y91799D01*
Y91401D01*
X27051Y91037D01*
X27052Y91034D01*
X26934Y90448D01*
X26932Y90446D01*
X26652Y90166D01*
X26500Y89799D01*
Y89401D01*
X26652Y89034D01*
X26934Y88752D01*
X27301Y88600D01*
X27699D01*
X28066Y88752D01*
X28348Y89034D01*
X28500Y89401D01*
Y89799D01*
X28349Y90162D01*
X28348Y90166D01*
X28466Y90752D01*
X28468Y90754D01*
X28748Y91034D01*
X28900Y91401D01*
Y91799D01*
X28748Y92166D01*
X28466Y92448D01*
X28099Y92600D01*
D02*
G37*
G36*
X84099Y87600D02*
X83701D01*
X83334Y87448D01*
X83052Y87166D01*
X82900Y86799D01*
Y86401D01*
X83052Y86034D01*
X83334Y85752D01*
X83701Y85600D01*
X84099D01*
X84466Y85752D01*
X84748Y86034D01*
X84900Y86401D01*
Y86799D01*
X84748Y87166D01*
X84466Y87448D01*
X84099Y87600D01*
D02*
G37*
G36*
X13099Y81800D02*
X12701D01*
X12333Y81648D01*
X12052Y81366D01*
X11900Y80999D01*
Y80601D01*
X12052Y80234D01*
X12333Y79952D01*
X12701Y79800D01*
X13099D01*
X13466Y79952D01*
X13748Y80234D01*
X13900Y80601D01*
Y80999D01*
X13748Y81366D01*
X13466Y81648D01*
X13099Y81800D01*
D02*
G37*
G36*
X38199Y80900D02*
X37801D01*
X37434Y80748D01*
X37152Y80466D01*
X37000Y80099D01*
Y79701D01*
X37152Y79334D01*
X37434Y79052D01*
X37801Y78900D01*
X38199D01*
X38566Y79052D01*
X38848Y79334D01*
X39000Y79701D01*
Y80099D01*
X38848Y80466D01*
X38566Y80748D01*
X38199Y80900D01*
D02*
G37*
%LPD*%
D14*
X15900Y55400D02*
Y60000D01*
X28300Y72400D01*
Y79500D01*
X25500Y73100D02*
Y79000D01*
X32000Y85500D02*
X34700D01*
X25500Y79000D02*
X32000Y85500D01*
X13700Y61300D02*
X25500Y73100D01*
X13700Y55800D02*
Y61300D01*
X64600Y86857D02*
Y87100D01*
X63075Y85331D02*
X64600Y86857D01*
D17*
X20902Y39000D02*
X37700D01*
X9516Y27613D02*
X20902Y39000D01*
X9516Y25649D02*
Y27613D01*
X37700Y39000D02*
X44515Y45815D01*
X46385D01*
D40*
X9516Y25649D02*
D03*
X28300Y79500D02*
D03*
X34700Y85500D02*
D03*
X60678Y21114D02*
D03*
X13575Y30187D02*
D03*
X41100Y26862D02*
D03*
X61500Y83757D02*
D03*
X38200Y81800D02*
D03*
X44900Y90000D02*
D03*
X63075Y85331D02*
D03*
X71865Y16984D02*
D03*
X68959Y39075D02*
D03*
X66059D02*
D03*
X74700Y39300D02*
D03*
X76946Y39739D02*
D03*
X78446Y40839D02*
D03*
X78346Y48239D02*
D03*
X87414Y83255D02*
D03*
X72100Y96300D02*
D03*
X80965Y49584D02*
D03*
X81065Y45784D02*
D03*
X81365Y62084D02*
D03*
Y64684D02*
D03*
D103*
X77400Y69900D02*
X77485Y69985D01*
Y71585D01*
X77600Y71700D01*
X50400Y75900D02*
X50500Y76000D01*
X52200D01*
D108*
X46385Y45815D02*
D03*
X15900Y55400D02*
D03*
X38124Y98931D02*
D03*
X79021Y75058D02*
D03*
X13700Y55800D02*
D03*
X52200Y76000D02*
D03*
X33167Y90207D02*
D03*
X55200Y78100D02*
D03*
X63831Y72983D02*
D03*
X78300Y92400D02*
D03*
X77540Y66944D02*
D03*
X60171Y100051D02*
D03*
X55000Y100735D02*
D03*
X81300Y66600D02*
D03*
X40442Y99700D02*
D03*
X87400Y79732D02*
D03*
D109*
X72200Y22200D02*
D03*
X76700Y15000D02*
D03*
D110*
X57000Y38900D02*
D03*
X9200Y65200D02*
D03*
X62800Y38842D02*
D03*
X77600Y71700D02*
D03*
X32406Y96283D02*
D03*
X12500Y21100D02*
D03*
X28100Y33500D02*
D03*
X31100Y6900D02*
D03*
X35900Y4900D02*
D03*
X43800Y19100D02*
D03*
X20633Y89070D02*
D03*
X90876Y22893D02*
D03*
X81300Y30100D02*
D03*
D111*
X9300Y76000D02*
D03*
X12308Y69040D02*
D03*
M02*
