G04*
G04 #@! TF.GenerationSoftware,Altium Limited,Altium Designer,23.0.1 (38)*
G04*
G04 Layer_Physical_Order=2*
G04 Layer_Color=36540*
%FSLAX25Y25*%
%MOIN*%
G70*
G04*
G04 #@! TF.SameCoordinates,78B848BC-93E4-4EEF-81BE-5096D5435DE8*
G04*
G04*
G04 #@! TF.FilePolarity,Positive*
G04*
G01*
G75*
%ADD14C,0.00500*%
%ADD40C,0.00900*%
%ADD102C,0.00800*%
%ADD103C,0.01000*%
%ADD108C,0.01000*%
%ADD109C,0.02000*%
%ADD110C,0.01600*%
%ADD111C,0.01200*%
G36*
X65256Y83757D02*
X65329Y83386D01*
X65539Y83072D01*
Y82867D01*
X65329Y82553D01*
X65256Y82182D01*
X65329Y81811D01*
X65356Y81771D01*
X65500Y81394D01*
X65356Y81018D01*
X65329Y80978D01*
X65256Y80607D01*
X65329Y80236D01*
X65410Y80116D01*
X65487Y79729D01*
X65401Y79414D01*
X65305Y79271D01*
X65231Y78900D01*
X65305Y78529D01*
X65515Y78215D01*
X65829Y78005D01*
X66200Y77931D01*
X66571Y78005D01*
X66885Y78215D01*
X67095Y78529D01*
X67169Y78900D01*
X67095Y79271D01*
X67014Y79391D01*
X66938Y79778D01*
X67024Y80093D01*
X67119Y80236D01*
X67193Y80607D01*
X67139Y80879D01*
X67294Y81098D01*
X67309Y81112D01*
X67527Y81267D01*
X67799Y81213D01*
X68170Y81287D01*
X68200Y81308D01*
X68700Y81040D01*
Y71105D01*
X82400D01*
Y28226D01*
X81900Y27959D01*
X81883Y27970D01*
X81513Y28043D01*
X81142Y27970D01*
X80828Y27760D01*
X80618Y27446D01*
X80544Y27075D01*
X80618Y26704D01*
X80828Y26390D01*
X81142Y26180D01*
X81513Y26106D01*
X81785Y26160D01*
X82003Y26005D01*
X82018Y25991D01*
X82173Y25772D01*
X82119Y25500D01*
X82192Y25129D01*
X82402Y24815D01*
X82717Y24605D01*
X83087Y24531D01*
X83458Y24605D01*
X83772Y24815D01*
X83982Y25129D01*
X84056Y25500D01*
X83982Y25871D01*
X83896Y26000D01*
X84132Y26500D01*
X94492D01*
X94748Y26070D01*
X94310Y25268D01*
X92748Y22838D01*
X91719Y21422D01*
X91080Y20569D01*
X89110Y18205D01*
X88756Y17822D01*
X86693Y15656D01*
X84182Y13349D01*
X81523Y11214D01*
X78728Y9259D01*
X75810Y7495D01*
X72780Y5929D01*
X69654Y4568D01*
X66443Y3417D01*
X63164Y2482D01*
X59829Y1767D01*
X56455Y1276D01*
X53055Y1010D01*
X51350Y990D01*
X50380Y990D01*
X48481Y1064D01*
X46453Y1216D01*
X42081Y1819D01*
X42048Y1823D01*
X40017Y2285D01*
X37138Y3040D01*
X34824Y3751D01*
X31339Y5113D01*
X28770Y6344D01*
X27150Y7198D01*
X24722Y8593D01*
X23873Y9169D01*
X21100Y11111D01*
X18694Y13018D01*
X15944Y15554D01*
X13390Y18288D01*
X11047Y21205D01*
X8927Y24288D01*
X8902Y24331D01*
X8998Y24498D01*
X9246Y24734D01*
X9516Y24680D01*
X9887Y24754D01*
X10201Y24964D01*
X10411Y25278D01*
X10484Y25649D01*
X10411Y26019D01*
X10201Y26334D01*
X9887Y26544D01*
X9516Y26617D01*
X9145Y26544D01*
X8831Y26334D01*
X8621Y26019D01*
X8589Y25860D01*
X8062Y25772D01*
X7043Y27520D01*
X5404Y30883D01*
X4021Y34359D01*
X2899Y37928D01*
X2047Y41571D01*
X1468Y45267D01*
X1166Y48996D01*
X1142Y52737D01*
X1397Y56470D01*
X1929Y60173D01*
X2332Y62000D01*
X8858Y62000D01*
X8915Y61915D01*
X9229Y61705D01*
X9600Y61631D01*
X9971Y61705D01*
X10285Y61915D01*
X10342Y62000D01*
X18300Y62000D01*
Y70920D01*
X18490Y70958D01*
X18711Y71105D01*
X20061D01*
X20079Y71079D01*
X20410Y70858D01*
X20800Y70780D01*
X21190Y70858D01*
X21521Y71079D01*
X21539Y71105D01*
X54201D01*
Y84185D01*
X56957D01*
X57382Y83757D01*
X57455Y83386D01*
X57665Y83072D01*
Y82867D01*
X57455Y82553D01*
X57382Y82182D01*
X57455Y81811D01*
X57482Y81771D01*
X57626Y81394D01*
X57482Y81018D01*
X57455Y80978D01*
X57382Y80607D01*
X57455Y80236D01*
X57665Y79922D01*
X57980Y79712D01*
X58350Y79638D01*
X58721Y79712D01*
X59035Y79922D01*
X59245Y80236D01*
X59319Y80607D01*
X59265Y80879D01*
X59420Y81098D01*
X59435Y81112D01*
X59653Y81267D01*
X59925Y81213D01*
X60296Y81287D01*
X60610Y81497D01*
X60820Y81811D01*
X60894Y82182D01*
X60820Y82553D01*
X60610Y82867D01*
Y83072D01*
X60820Y83386D01*
X60894Y83757D01*
X61318Y84185D01*
X64831D01*
X65256Y83757D01*
D02*
G37*
G36*
X51349Y101399D02*
X53078Y101399D01*
X55427Y101236D01*
X55754Y100713D01*
X55731Y100600D01*
X55805Y100229D01*
X56015Y99915D01*
X56329Y99705D01*
X56700Y99631D01*
X57071Y99705D01*
X57105Y99728D01*
X57657Y99510D01*
X57664Y99501D01*
X57879Y99179D01*
X58210Y98958D01*
X58600Y98880D01*
X58990Y98958D01*
X59321Y99179D01*
X59542Y99510D01*
X59620Y99900D01*
X59553Y100237D01*
X59558Y100260D01*
X59667Y100440D01*
X59876Y100690D01*
X60144Y100646D01*
X61032Y100460D01*
X61137Y100203D01*
X61063Y99832D01*
X61137Y99462D01*
X61347Y99147D01*
X61661Y98937D01*
X62031Y98864D01*
X62402Y98937D01*
X62716Y99147D01*
X62926Y99462D01*
X62944Y99548D01*
X63155Y99781D01*
X63392Y99913D01*
X63490Y99933D01*
X65699Y99309D01*
X65815Y98787D01*
X65799Y98761D01*
X65605Y98471D01*
X65531Y98100D01*
X65605Y97729D01*
X65815Y97415D01*
X65992Y97297D01*
X66011Y97034D01*
X65986Y96799D01*
X65971Y96756D01*
X65715Y96585D01*
X65505Y96271D01*
X65431Y95900D01*
X65505Y95529D01*
X65715Y95215D01*
X66029Y95005D01*
X66358Y94790D01*
X66280Y94400D01*
X66298Y94310D01*
X66223Y93932D01*
X65935Y93767D01*
X65810Y93742D01*
X65479Y93521D01*
X65258Y93190D01*
X65180Y92800D01*
X65258Y92410D01*
X65479Y92079D01*
X65810Y91858D01*
X66200Y91780D01*
X66590Y91858D01*
X66921Y92079D01*
X67142Y92410D01*
X67220Y92800D01*
X67202Y92890D01*
X67277Y93268D01*
X67565Y93433D01*
X67690Y93458D01*
X68021Y93679D01*
X68242Y94010D01*
X68320Y94400D01*
X68242Y94790D01*
X68021Y95121D01*
X67690Y95342D01*
X67369Y95900D01*
X67295Y96271D01*
X67085Y96585D01*
X66908Y96703D01*
X66889Y96966D01*
X66914Y97201D01*
X66929Y97244D01*
X67185Y97415D01*
X67395Y97729D01*
X67469Y98100D01*
X67447Y98207D01*
X67875Y98583D01*
X70156Y97749D01*
X73521Y96253D01*
X73883Y96064D01*
X78904Y93127D01*
X81547Y91267D01*
X83608Y89599D01*
X85272Y88131D01*
X87538Y85865D01*
X89799Y83407D01*
X91855Y80763D01*
X94409Y76932D01*
X94645Y76479D01*
X94261Y76135D01*
X94171Y76195D01*
X93800Y76269D01*
X93627Y76234D01*
X93609Y76242D01*
X93242Y76609D01*
X93234Y76627D01*
X93269Y76800D01*
X93195Y77171D01*
X92985Y77485D01*
X92671Y77695D01*
X92300Y77769D01*
X91929Y77695D01*
X91615Y77485D01*
X91405Y77171D01*
X91399Y77140D01*
X91300Y76798D01*
X90900Y76769D01*
X90529Y76695D01*
X90215Y76485D01*
X90005Y76171D01*
X89931Y75800D01*
X82400D01*
Y73907D01*
X73384D01*
X73233Y74407D01*
X73321Y74466D01*
X73542Y74797D01*
X73620Y75187D01*
X73542Y75577D01*
X73321Y75908D01*
X72990Y76129D01*
X72600Y76207D01*
X72155Y76628D01*
Y78437D01*
X72655Y78774D01*
X72799Y78745D01*
X73189Y78823D01*
X73520Y79044D01*
X73741Y79375D01*
X73819Y79765D01*
X73741Y80155D01*
X73520Y80486D01*
X73189Y80707D01*
X72799Y80784D01*
X72655Y80756D01*
X72155Y81093D01*
Y84907D01*
X67618D01*
X67193Y85331D01*
X67119Y85702D01*
X67092Y85742D01*
X66948Y86119D01*
X67092Y86495D01*
X67119Y86536D01*
X67193Y86906D01*
X67119Y87277D01*
X66909Y87591D01*
Y87796D01*
X67119Y88110D01*
X67193Y88481D01*
X67119Y88852D01*
X66909Y89166D01*
X66595Y89376D01*
X66224Y89450D01*
X65854Y89376D01*
X65539Y89166D01*
X65329Y88852D01*
X65256Y88481D01*
X65329Y88110D01*
X65539Y87796D01*
Y87591D01*
X65329Y87277D01*
X65256Y86906D01*
X65310Y86634D01*
X65155Y86416D01*
X65140Y86401D01*
X64922Y86246D01*
X64650Y86300D01*
X64377Y86246D01*
X64159Y86401D01*
X64144Y86416D01*
X63989Y86634D01*
X64043Y86906D01*
X63970Y87277D01*
X63760Y87591D01*
Y87796D01*
X63970Y88110D01*
X64043Y88481D01*
X63970Y88852D01*
X63760Y89166D01*
Y89365D01*
X63970Y89679D01*
X64043Y90050D01*
X63970Y90421D01*
X63760Y90735D01*
X63446Y90945D01*
X63075Y91019D01*
X62704Y90945D01*
X62390Y90735D01*
X62180Y90421D01*
X62106Y90050D01*
X62159Y89785D01*
X62011Y89575D01*
X61974Y89538D01*
X61768Y89397D01*
X61500Y89450D01*
X61232Y89397D01*
X61027Y89538D01*
X60989Y89575D01*
X60841Y89785D01*
X60894Y90050D01*
X60820Y90421D01*
X60610Y90735D01*
X60296Y90945D01*
X59925Y91019D01*
X59554Y90945D01*
X59240Y90735D01*
X59030Y90421D01*
X58957Y90050D01*
X59009Y89785D01*
X58861Y89575D01*
X58824Y89538D01*
X58618Y89397D01*
X58350Y89450D01*
X58078Y89396D01*
X57860Y89551D01*
X57845Y89565D01*
X57690Y89784D01*
X57744Y90056D01*
X57670Y90427D01*
X57460Y90741D01*
X57146Y90951D01*
X56776Y91025D01*
X56405Y90951D01*
X56091Y90741D01*
X55785Y90985D01*
X55471Y91195D01*
X55100Y91269D01*
X54729Y91195D01*
X54415Y90985D01*
X54205Y90671D01*
X54131Y90300D01*
X54205Y89929D01*
X54415Y89615D01*
X54729Y89405D01*
X55100Y89331D01*
X55471Y89405D01*
X55785Y89615D01*
X56091Y89371D01*
X56405Y89161D01*
X56776Y89087D01*
X57048Y89141D01*
X57266Y88986D01*
X57281Y88972D01*
X57436Y88753D01*
X57382Y88481D01*
X57455Y88110D01*
X57485Y88066D01*
X57626Y87691D01*
X57485Y87315D01*
X57455Y87271D01*
X57382Y86900D01*
X57455Y86529D01*
X57480Y86493D01*
X57627Y86116D01*
X57480Y85738D01*
X57455Y85702D01*
X57382Y85331D01*
X56956Y84907D01*
X52747D01*
X52695Y85171D01*
X52485Y85485D01*
Y85615D01*
X52695Y85929D01*
X52769Y86300D01*
X52695Y86671D01*
X52485Y86985D01*
X52171Y87195D01*
X51800Y87269D01*
X51429Y87195D01*
X51115Y86985D01*
X50905Y86671D01*
X50831Y86300D01*
X50905Y85929D01*
X51115Y85615D01*
Y85485D01*
X50905Y85171D01*
X50831Y84800D01*
X50905Y84429D01*
X51115Y84115D01*
Y83885D01*
X50905Y83571D01*
X50831Y83200D01*
X50905Y82829D01*
X51115Y82515D01*
X51309Y82099D01*
X51195Y81906D01*
X51105Y81771D01*
X51031Y81400D01*
X51105Y81029D01*
X51191Y80901D01*
X50890Y80451D01*
X50800Y80469D01*
X50429Y80395D01*
X50115Y80185D01*
X49905Y79871D01*
X49831Y79500D01*
X49905Y79129D01*
X50115Y78815D01*
X50429Y78605D01*
X50800Y78531D01*
X50834Y78503D01*
X51136Y78088D01*
X51078Y77800D01*
X51164Y77371D01*
X51407Y77007D01*
X51771Y76764D01*
X51855Y76747D01*
Y73907D01*
X38657D01*
X38637Y73937D01*
X38207Y74225D01*
X37700Y74326D01*
X37193Y74225D01*
X36763Y73937D01*
X36743Y73907D01*
X24544D01*
X24107Y74407D01*
X24132Y74586D01*
X24173Y74615D01*
X24390Y74658D01*
X24721Y74879D01*
X24942Y75210D01*
X25020Y75600D01*
X24942Y75990D01*
X24721Y76321D01*
X24442Y76710D01*
X24520Y77100D01*
X24442Y77490D01*
X24221Y77821D01*
X23890Y78042D01*
X23873Y78045D01*
X23767Y78576D01*
X23921Y78679D01*
X24142Y79010D01*
X24220Y79400D01*
X24142Y79790D01*
X23921Y80121D01*
X23590Y80342D01*
X23200Y80420D01*
X22810Y80342D01*
X22479Y80121D01*
X22258Y79790D01*
X22180Y79400D01*
X22258Y79010D01*
X22479Y78679D01*
X22810Y78458D01*
X22827Y78455D01*
X22933Y77924D01*
X22779Y77821D01*
X22558Y77490D01*
X22480Y77100D01*
X22558Y76710D01*
X22779Y76379D01*
X22711Y76024D01*
X22400Y75625D01*
X21893Y75525D01*
X21463Y75237D01*
X21175Y74807D01*
X21075Y74300D01*
X21076Y74294D01*
X20759Y73907D01*
X14900D01*
Y65803D01*
X14465Y65570D01*
X13953Y65719D01*
X13820Y66000D01*
X13742Y66390D01*
X13521Y66721D01*
X13190Y66942D01*
X12800Y67020D01*
X12410Y66942D01*
X12079Y66721D01*
X11858Y66390D01*
X11780Y66000D01*
X11858Y65610D01*
X12079Y65279D01*
X12410Y65058D01*
X12721Y64996D01*
X12905Y64530D01*
X12550Y64200D01*
X5377Y64200D01*
X5328Y64700D01*
X5707Y64775D01*
X6137Y65063D01*
X6425Y65493D01*
X6526Y66000D01*
X6425Y66507D01*
X6137Y66937D01*
X5707Y67225D01*
X5200Y67326D01*
X4693Y67225D01*
X4263Y66937D01*
X4121Y66725D01*
X3671Y66951D01*
X4781Y70052D01*
X6477Y73795D01*
X8473Y77386D01*
X10756Y80802D01*
X13310Y84020D01*
X14663Y85464D01*
X15125Y85226D01*
X15080Y85000D01*
X15158Y84610D01*
X15379Y84279D01*
X15710Y84058D01*
X15725Y84055D01*
Y83545D01*
X15710Y83542D01*
X15379Y83321D01*
X15158Y82990D01*
X15080Y82600D01*
X15158Y82210D01*
X15379Y81879D01*
X15710Y81658D01*
X16100Y81580D01*
X16490Y81658D01*
X16821Y81879D01*
X17042Y82210D01*
X17120Y82600D01*
X17042Y82990D01*
X16821Y83321D01*
X16490Y83542D01*
X16475Y83545D01*
Y84055D01*
X16490Y84058D01*
X16821Y84279D01*
X17042Y84610D01*
X17120Y85000D01*
X17042Y85390D01*
X16821Y85721D01*
X16490Y85942D01*
X16100Y86020D01*
X15815Y85963D01*
X15554Y86289D01*
X15516Y86374D01*
X16119Y87019D01*
X19164Y89777D01*
X22423Y92278D01*
X25877Y94505D01*
X29500Y96441D01*
X33270Y98075D01*
X36899Y99307D01*
X37644Y99517D01*
X41146Y100394D01*
X45200Y101063D01*
X49295Y101399D01*
X51349Y101399D01*
D02*
G37*
%LPC*%
G36*
X63075Y83151D02*
X62704Y83077D01*
X62390Y82867D01*
X62180Y82553D01*
X62106Y82182D01*
X62180Y81811D01*
X62390Y81497D01*
X62704Y81287D01*
X63075Y81213D01*
X63446Y81287D01*
X63760Y81497D01*
X63970Y81811D01*
X64043Y82182D01*
X63970Y82553D01*
X63760Y82867D01*
X63446Y83077D01*
X63075Y83151D01*
D02*
G37*
G36*
X56700Y79769D02*
X56329Y79695D01*
X56015Y79485D01*
X55805Y79171D01*
X55731Y78800D01*
X55805Y78429D01*
X56015Y78115D01*
X56329Y77905D01*
X56700Y77831D01*
X56816Y77854D01*
X56948Y77761D01*
X57198Y77435D01*
X57131Y77097D01*
X57224Y76629D01*
X57489Y76232D01*
X57886Y75967D01*
X58355Y75874D01*
X58823Y75967D01*
X59220Y76232D01*
X59485Y76629D01*
X59578Y77097D01*
X59485Y77566D01*
X59220Y77963D01*
X58823Y78228D01*
X58355Y78321D01*
X58036Y78258D01*
X57691Y78561D01*
X57639Y78650D01*
X57669Y78800D01*
X57595Y79171D01*
X57385Y79485D01*
X57071Y79695D01*
X56700Y79769D01*
D02*
G37*
G36*
X58750Y74020D02*
X58360Y73942D01*
X58029Y73721D01*
X57808Y73390D01*
X57730Y73000D01*
X57742Y72941D01*
X57292Y72641D01*
X57290Y72642D01*
X56900Y72720D01*
X56510Y72642D01*
X56179Y72421D01*
X55958Y72090D01*
X55880Y71700D01*
X55958Y71310D01*
X56179Y70979D01*
X56510Y70758D01*
X56900Y70680D01*
X57290Y70758D01*
X57621Y70979D01*
X57842Y71310D01*
X57920Y71700D01*
X57908Y71759D01*
X58358Y72059D01*
X58360Y72058D01*
X58750Y71980D01*
X59140Y72058D01*
X59471Y72279D01*
X59692Y72610D01*
X59770Y73000D01*
X59692Y73390D01*
X59471Y73721D01*
X59140Y73942D01*
X58750Y74020D01*
D02*
G37*
G36*
X27100Y67125D02*
X26593Y67025D01*
X26163Y66737D01*
X25875Y66307D01*
X25774Y65800D01*
X25875Y65293D01*
X26163Y64863D01*
X26593Y64575D01*
X27100Y64474D01*
X27607Y64575D01*
X28037Y64863D01*
X28325Y65293D01*
X28425Y65800D01*
X28325Y66307D01*
X28037Y66737D01*
X27607Y67025D01*
X27100Y67125D01*
D02*
G37*
G36*
X35300Y68569D02*
X34929Y68495D01*
X34615Y68285D01*
X34405Y67971D01*
X34331Y67600D01*
X34405Y67229D01*
X34530Y67042D01*
X34517Y66850D01*
X34453Y66577D01*
X34396Y66460D01*
X34063Y66237D01*
X33775Y65807D01*
X33674Y65300D01*
X33775Y64793D01*
X34063Y64363D01*
X34493Y64075D01*
X35000Y63974D01*
X35507Y64075D01*
X35937Y64363D01*
X36225Y64793D01*
X36325Y65300D01*
X36225Y65807D01*
X35937Y66237D01*
X35880Y66276D01*
X35904Y66861D01*
X35985Y66915D01*
X36195Y67229D01*
X36269Y67600D01*
X36195Y67971D01*
X35985Y68285D01*
X35671Y68495D01*
X35300Y68569D01*
D02*
G37*
G36*
X47613Y60053D02*
X47223Y59975D01*
X46892Y59754D01*
X46672Y59423D01*
X46594Y59033D01*
X46672Y58643D01*
X46892Y58312D01*
X47223Y58091D01*
X47613Y58013D01*
X48004Y58091D01*
X48335Y58312D01*
X48555Y58643D01*
X48633Y59033D01*
X48555Y59423D01*
X48335Y59754D01*
X48004Y59975D01*
X47613Y60053D01*
D02*
G37*
G36*
X35400Y59369D02*
X35029Y59295D01*
X34715Y59085D01*
X34505Y58771D01*
X34431Y58400D01*
X34505Y58029D01*
X34715Y57715D01*
X35029Y57505D01*
X35400Y57431D01*
X35771Y57505D01*
X36085Y57715D01*
X36295Y58029D01*
X36369Y58400D01*
X36295Y58771D01*
X36085Y59085D01*
X35771Y59295D01*
X35400Y59369D01*
D02*
G37*
G36*
X13700Y56820D02*
X13310Y56742D01*
X12979Y56521D01*
X12758Y56190D01*
X12680Y55800D01*
X12758Y55410D01*
X12979Y55079D01*
X13310Y54858D01*
X13700Y54780D01*
X14090Y54858D01*
X14421Y55079D01*
X14431Y55095D01*
X14958Y55010D01*
X15179Y54679D01*
X15510Y54458D01*
X15900Y54380D01*
X16290Y54458D01*
X16621Y54679D01*
X16842Y55010D01*
X16920Y55400D01*
X16842Y55790D01*
X16621Y56121D01*
X16290Y56342D01*
X15900Y56420D01*
X15510Y56342D01*
X15179Y56121D01*
X15169Y56105D01*
X14642Y56190D01*
X14421Y56521D01*
X14090Y56742D01*
X13700Y56820D01*
D02*
G37*
G36*
X49669Y55788D02*
X49278Y55711D01*
X48948Y55490D01*
X48727Y55159D01*
X48649Y54769D01*
X48727Y54378D01*
X48948Y54048D01*
X49278Y53827D01*
X49669Y53749D01*
X50059Y53827D01*
X50390Y54048D01*
X50611Y54378D01*
X50688Y54769D01*
X50611Y55159D01*
X50390Y55490D01*
X50059Y55711D01*
X49669Y55788D01*
D02*
G37*
G36*
X3400Y56025D02*
X2893Y55925D01*
X2463Y55637D01*
X2175Y55207D01*
X2074Y54700D01*
X2175Y54193D01*
X2463Y53763D01*
X2893Y53475D01*
X3400Y53374D01*
X3907Y53475D01*
X4337Y53763D01*
X4625Y54193D01*
X4725Y54700D01*
X4625Y55207D01*
X4337Y55637D01*
X3907Y55925D01*
X3400Y56025D01*
D02*
G37*
G36*
X15150Y53426D02*
X14643Y53325D01*
X14213Y53037D01*
X13925Y52607D01*
X13825Y52100D01*
X13925Y51593D01*
X14213Y51163D01*
X14643Y50875D01*
X15150Y50775D01*
X15657Y50875D01*
X16087Y51163D01*
X16375Y51593D01*
X16476Y52100D01*
X16375Y52607D01*
X16087Y53037D01*
X15657Y53325D01*
X15150Y53426D01*
D02*
G37*
G36*
X24700Y52069D02*
X24329Y51995D01*
X24015Y51785D01*
X23805Y51471D01*
X23731Y51100D01*
X23805Y50729D01*
X24015Y50415D01*
X24329Y50205D01*
X24700Y50131D01*
X25071Y50205D01*
X25385Y50415D01*
X25595Y50729D01*
X25669Y51100D01*
X25595Y51471D01*
X25385Y51785D01*
X25071Y51995D01*
X24700Y52069D01*
D02*
G37*
G36*
X45800Y55520D02*
X45410Y55442D01*
X45079Y55221D01*
X44858Y54890D01*
X44780Y54500D01*
X44858Y54110D01*
X44998Y53901D01*
X45073Y53701D01*
X45036Y53207D01*
X44958Y53090D01*
X44880Y52700D01*
X44958Y52310D01*
X45179Y51979D01*
X45510Y51758D01*
X45900Y51680D01*
X46134Y51727D01*
X46217Y51680D01*
X46481Y51417D01*
X46527Y51334D01*
X46480Y51100D01*
X46558Y50710D01*
X46779Y50379D01*
X47110Y50158D01*
X47500Y50080D01*
X47890Y50158D01*
X48221Y50379D01*
X48442Y50710D01*
X48520Y51100D01*
X48442Y51490D01*
X48221Y51821D01*
X47890Y52042D01*
X47500Y52120D01*
X47266Y52073D01*
X47183Y52119D01*
X46920Y52383D01*
X46873Y52466D01*
X46920Y52700D01*
X46842Y53090D01*
X46703Y53299D01*
X46627Y53499D01*
X46664Y53993D01*
X46742Y54110D01*
X46820Y54500D01*
X46742Y54890D01*
X46521Y55221D01*
X46190Y55442D01*
X45800Y55520D01*
D02*
G37*
G36*
X51600Y50520D02*
X51210Y50442D01*
X50879Y50221D01*
X50658Y49890D01*
X50580Y49500D01*
X50658Y49110D01*
X50879Y48779D01*
X51210Y48558D01*
X51600Y48480D01*
X51990Y48558D01*
X52321Y48779D01*
X52542Y49110D01*
X52620Y49500D01*
X52542Y49890D01*
X52321Y50221D01*
X51990Y50442D01*
X51600Y50520D01*
D02*
G37*
G36*
X54898Y47239D02*
X54508Y47162D01*
X54177Y46941D01*
X53956Y46610D01*
X53878Y46220D01*
X53956Y45830D01*
X54177Y45499D01*
X54508Y45278D01*
X54898Y45200D01*
X55288Y45278D01*
X55619Y45499D01*
X55840Y45830D01*
X55917Y46220D01*
X55840Y46610D01*
X55619Y46941D01*
X55288Y47162D01*
X54898Y47239D01*
D02*
G37*
G36*
X46385Y46834D02*
X45995Y46757D01*
X45664Y46536D01*
X45443Y46205D01*
X45366Y45815D01*
X45443Y45425D01*
X45664Y45094D01*
X45995Y44873D01*
X46385Y44795D01*
X46775Y44873D01*
X47106Y45094D01*
X47327Y45425D01*
X47405Y45815D01*
X47327Y46205D01*
X47106Y46536D01*
X46775Y46757D01*
X46385Y46834D01*
D02*
G37*
G36*
X52300Y44520D02*
X51910Y44442D01*
X51579Y44221D01*
X51358Y43890D01*
X51280Y43500D01*
X51318Y43311D01*
X51099Y43151D01*
X50858Y43063D01*
X50590Y43242D01*
X50200Y43320D01*
X49810Y43242D01*
X49479Y43021D01*
X49258Y42690D01*
X49180Y42300D01*
X49258Y41910D01*
X49479Y41579D01*
X49810Y41358D01*
X50200Y41280D01*
X50590Y41358D01*
X50921Y41579D01*
X51142Y41910D01*
X51220Y42300D01*
X51182Y42489D01*
X51402Y42649D01*
X51643Y42737D01*
X51910Y42558D01*
X52300Y42480D01*
X52690Y42558D01*
X53021Y42779D01*
X53242Y43110D01*
X53320Y43500D01*
X53242Y43890D01*
X53021Y44221D01*
X52690Y44442D01*
X52300Y44520D01*
D02*
G37*
G36*
X35700Y42726D02*
X35193Y42625D01*
X34763Y42337D01*
X34475Y41907D01*
X34374Y41400D01*
X34475Y40893D01*
X34763Y40463D01*
X35193Y40175D01*
X35700Y40075D01*
X36207Y40175D01*
X36637Y40463D01*
X36925Y40893D01*
X37025Y41400D01*
X36925Y41907D01*
X36637Y42337D01*
X36207Y42625D01*
X35700Y42726D01*
D02*
G37*
G36*
X52200Y40020D02*
X51810Y39942D01*
X51479Y39721D01*
X51258Y39390D01*
X51180Y39000D01*
X51258Y38610D01*
X51479Y38279D01*
X51810Y38058D01*
X52200Y37980D01*
X52590Y38058D01*
X52921Y38279D01*
X53393Y38086D01*
X53510Y38008D01*
X53900Y37930D01*
X54290Y38008D01*
X54621Y38229D01*
X54842Y38560D01*
X54920Y38950D01*
X54842Y39340D01*
X54621Y39671D01*
X54290Y39892D01*
X53900Y39970D01*
X53510Y39892D01*
X53179Y39671D01*
X52707Y39864D01*
X52590Y39942D01*
X52200Y40020D01*
D02*
G37*
G36*
X42400Y42020D02*
X42010Y41942D01*
X41679Y41721D01*
X41458Y41390D01*
X41380Y41000D01*
X41458Y40610D01*
X41679Y40279D01*
X42010Y40058D01*
X42400Y39980D01*
X42790Y40058D01*
X43282Y39785D01*
X43297Y39715D01*
X43269Y39692D01*
X43125Y39595D01*
X42904Y39264D01*
X42826Y38874D01*
X42904Y38484D01*
X43125Y38153D01*
X43455Y37932D01*
X43845Y37854D01*
X44236Y37932D01*
X44567Y38153D01*
X44787Y38484D01*
X44865Y38874D01*
X44787Y39264D01*
X45176Y39582D01*
X45321Y39679D01*
X45542Y40010D01*
X45620Y40400D01*
X45542Y40790D01*
X45321Y41121D01*
X44990Y41342D01*
X44600Y41420D01*
X44210Y41342D01*
X43879Y41121D01*
X43369Y41257D01*
X43342Y41390D01*
X43121Y41721D01*
X42790Y41942D01*
X42400Y42020D01*
D02*
G37*
G36*
X47600Y39620D02*
X47210Y39542D01*
X46879Y39321D01*
X46658Y38990D01*
X46580Y38600D01*
X46658Y38210D01*
X46879Y37879D01*
X47210Y37658D01*
X47600Y37580D01*
X47990Y37658D01*
X48321Y37879D01*
X48542Y38210D01*
X48620Y38600D01*
X48542Y38990D01*
X48321Y39321D01*
X47990Y39542D01*
X47600Y39620D01*
D02*
G37*
G36*
X35700Y38925D02*
X35193Y38825D01*
X34763Y38537D01*
X34475Y38107D01*
X34374Y37600D01*
X34475Y37093D01*
X34763Y36663D01*
X35193Y36375D01*
X35700Y36274D01*
X36207Y36375D01*
X36637Y36663D01*
X36925Y37093D01*
X37025Y37600D01*
X36925Y38107D01*
X36637Y38537D01*
X36207Y38825D01*
X35700Y38925D01*
D02*
G37*
G36*
X28000Y36922D02*
X27571Y36836D01*
X27207Y36593D01*
X26964Y36229D01*
X26878Y35800D01*
X26964Y35371D01*
X27207Y35007D01*
X27571Y34764D01*
X28000Y34678D01*
X28429Y34764D01*
X28793Y35007D01*
X29036Y35371D01*
X29122Y35800D01*
X29036Y36229D01*
X28793Y36593D01*
X28429Y36836D01*
X28000Y36922D01*
D02*
G37*
G36*
X35500Y35326D02*
X34993Y35225D01*
X34563Y34937D01*
X34275Y34507D01*
X34174Y34000D01*
X34275Y33493D01*
X34563Y33063D01*
X34993Y32775D01*
X35500Y32675D01*
X36007Y32775D01*
X36437Y33063D01*
X36725Y33493D01*
X36825Y34000D01*
X36725Y34507D01*
X36437Y34937D01*
X36007Y35225D01*
X35500Y35326D01*
D02*
G37*
G36*
X69918Y34644D02*
X69527Y34567D01*
X69196Y34346D01*
X68976Y34015D01*
X68898Y33625D01*
X68976Y33235D01*
X69196Y32904D01*
X69527Y32683D01*
X69918Y32605D01*
X70308Y32683D01*
X70638Y32904D01*
X70859Y33235D01*
X70937Y33625D01*
X70859Y34015D01*
X70638Y34346D01*
X70308Y34567D01*
X69918Y34644D01*
D02*
G37*
G36*
X23000Y29825D02*
X22493Y29725D01*
X22063Y29437D01*
X21937D01*
X21507Y29725D01*
X21000Y29825D01*
X20493Y29725D01*
X20063Y29437D01*
X19775Y29007D01*
X19674Y28500D01*
X19775Y27993D01*
X20063Y27563D01*
X20493Y27275D01*
X21000Y27174D01*
X21507Y27275D01*
X21937Y27563D01*
X22063D01*
X22493Y27275D01*
X23000Y27174D01*
X23507Y27275D01*
X23937Y27563D01*
X24225Y27993D01*
X24326Y28500D01*
X24225Y29007D01*
X23937Y29437D01*
X23507Y29725D01*
X23000Y29825D01*
D02*
G37*
G36*
X74200Y31420D02*
X73810Y31342D01*
X73479Y31121D01*
X73258Y30790D01*
X73180Y30400D01*
X73258Y30010D01*
X73479Y29679D01*
X73810Y29458D01*
X74200Y29380D01*
X74590Y29458D01*
X74921Y29679D01*
X75142Y30010D01*
X75220Y30400D01*
X75142Y30790D01*
X74921Y31121D01*
X74590Y31342D01*
X74200Y31420D01*
D02*
G37*
G36*
X45300Y30920D02*
X44910Y30842D01*
X44579Y30621D01*
X44358Y30290D01*
X44280Y29900D01*
X44358Y29510D01*
X44579Y29179D01*
X44910Y28958D01*
X45300Y28880D01*
X45690Y28958D01*
X46021Y29179D01*
X46242Y29510D01*
X46320Y29900D01*
X46242Y30290D01*
X46021Y30621D01*
X45690Y30842D01*
X45300Y30920D01*
D02*
G37*
G36*
X77400Y30620D02*
X77010Y30542D01*
X76679Y30321D01*
X76458Y29990D01*
X76380Y29600D01*
X76458Y29210D01*
X76679Y28879D01*
X77010Y28658D01*
X77400Y28580D01*
X77790Y28658D01*
X78121Y28879D01*
X78342Y29210D01*
X78420Y29600D01*
X78342Y29990D01*
X78121Y30321D01*
X77790Y30542D01*
X77400Y30620D01*
D02*
G37*
G36*
X67944Y30587D02*
X67554Y30509D01*
X67223Y30288D01*
X67002Y29958D01*
X66925Y29568D01*
X67002Y29177D01*
X67223Y28846D01*
X67554Y28626D01*
X67944Y28548D01*
X68334Y28626D01*
X68665Y28846D01*
X68886Y29177D01*
X68964Y29568D01*
X68886Y29958D01*
X68665Y30288D01*
X68334Y30509D01*
X67944Y30587D01*
D02*
G37*
G36*
X40300Y30520D02*
X39910Y30442D01*
X39579Y30221D01*
X39358Y29890D01*
X39280Y29500D01*
X39358Y29110D01*
X39579Y28779D01*
X39910Y28558D01*
X40300Y28480D01*
X40690Y28558D01*
X41021Y28779D01*
X41242Y29110D01*
X41320Y29500D01*
X41242Y29890D01*
X41021Y30221D01*
X40690Y30442D01*
X40300Y30520D01*
D02*
G37*
G36*
X64600Y29920D02*
X64210Y29842D01*
X63879Y29621D01*
X63658Y29290D01*
X63580Y28900D01*
X63658Y28510D01*
X63879Y28179D01*
X64210Y27958D01*
X64600Y27880D01*
X64990Y27958D01*
X65321Y28179D01*
X65542Y28510D01*
X65620Y28900D01*
X65542Y29290D01*
X65321Y29621D01*
X64990Y29842D01*
X64600Y29920D01*
D02*
G37*
G36*
X56870Y29508D02*
X56500Y29435D01*
X56185Y29225D01*
X55975Y28910D01*
X55902Y28540D01*
X55975Y28169D01*
X56185Y27855D01*
X56500Y27645D01*
X56870Y27571D01*
X57241Y27645D01*
X57555Y27855D01*
X57765Y28169D01*
X57839Y28540D01*
X57765Y28910D01*
X57555Y29225D01*
X57241Y29435D01*
X56870Y29508D01*
D02*
G37*
G36*
X59400Y29469D02*
X59029Y29395D01*
X58715Y29185D01*
X58505Y28871D01*
X58431Y28500D01*
X58505Y28129D01*
X58715Y27815D01*
X59029Y27605D01*
X59400Y27531D01*
X59771Y27605D01*
X59852Y27660D01*
X60026Y27637D01*
X60427Y27508D01*
X60440Y27497D01*
X60663Y27163D01*
X61093Y26875D01*
X61600Y26774D01*
X62107Y26875D01*
X62537Y27163D01*
X62825Y27593D01*
X62925Y28100D01*
X62825Y28607D01*
X62537Y29037D01*
X62107Y29325D01*
X61600Y29425D01*
X61093Y29325D01*
X60716Y29072D01*
X60647Y29040D01*
X60123Y29129D01*
X60085Y29185D01*
X59771Y29395D01*
X59400Y29469D01*
D02*
G37*
G36*
X49700Y28320D02*
X49310Y28242D01*
X48979Y28021D01*
X48758Y27690D01*
X48680Y27300D01*
X48758Y26910D01*
X48979Y26579D01*
X49310Y26358D01*
X49700Y26280D01*
X50090Y26358D01*
X50421Y26579D01*
X50642Y26910D01*
X50720Y27300D01*
X50642Y27690D01*
X50421Y28021D01*
X50090Y28242D01*
X49700Y28320D01*
D02*
G37*
G36*
X60500Y26320D02*
X60110Y26242D01*
X59779Y26021D01*
X59558Y25690D01*
X59480Y25300D01*
X59558Y24910D01*
X59779Y24579D01*
X60110Y24358D01*
X60500Y24280D01*
X60890Y24358D01*
X61221Y24579D01*
X61442Y24910D01*
X61520Y25300D01*
X61442Y25690D01*
X61221Y26021D01*
X60890Y26242D01*
X60500Y26320D01*
D02*
G37*
G36*
X42713Y27831D02*
X42342Y27757D01*
X42028Y27547D01*
X41818Y27233D01*
X41744Y26862D01*
X41818Y26491D01*
X41835Y26466D01*
X42015Y25985D01*
X41805Y25671D01*
X41731Y25300D01*
X41805Y24929D01*
X42015Y24615D01*
Y24385D01*
X41805Y24071D01*
X41731Y23700D01*
X41805Y23329D01*
X42015Y23015D01*
X42329Y22805D01*
X42700Y22731D01*
X43071Y22805D01*
X43128Y22844D01*
X43500Y22975D01*
X43872Y22844D01*
X43929Y22805D01*
X44300Y22731D01*
X44671Y22805D01*
X44985Y23015D01*
X45195Y23329D01*
X45269Y23700D01*
X45195Y24071D01*
X44985Y24385D01*
Y24615D01*
X45195Y24929D01*
X45269Y25300D01*
X45195Y25671D01*
X44985Y25985D01*
X44671Y26195D01*
X44300Y26269D01*
X44023Y26213D01*
X43814Y26354D01*
X43800Y26367D01*
X43628Y26595D01*
X43681Y26862D01*
X43608Y27233D01*
X43398Y27547D01*
X43083Y27757D01*
X42713Y27831D01*
D02*
G37*
G36*
X36680Y31247D02*
X36172Y31146D01*
X35742Y30858D01*
X35455Y30428D01*
X35354Y29921D01*
X35455Y29414D01*
X35742Y28984D01*
Y28659D01*
X35455Y28229D01*
X35354Y27721D01*
X35455Y27214D01*
X35742Y26784D01*
X35805Y26742D01*
Y26141D01*
X35723Y26086D01*
X35435Y25656D01*
X35334Y25149D01*
X35435Y24641D01*
X35626Y24355D01*
X35726Y23820D01*
X35438Y23390D01*
X35337Y22883D01*
X35438Y22376D01*
X35726Y21946D01*
X36156Y21658D01*
X36663Y21557D01*
X37170Y21658D01*
X37600Y21946D01*
X37887Y22376D01*
X37988Y22883D01*
X37887Y23390D01*
X37600Y23820D01*
X37695Y24358D01*
X37884Y24641D01*
X37985Y25149D01*
X37884Y25656D01*
X37597Y26086D01*
X37534Y26128D01*
Y26729D01*
X37617Y26784D01*
X37904Y27214D01*
X38005Y27721D01*
X37904Y28229D01*
X37617Y28659D01*
Y28984D01*
X37904Y29414D01*
X38005Y29921D01*
X37904Y30428D01*
X37617Y30858D01*
X37187Y31146D01*
X36680Y31247D01*
D02*
G37*
G36*
X76000Y23220D02*
X75610Y23142D01*
X75279Y22921D01*
X75058Y22590D01*
X74980Y22200D01*
X75058Y21810D01*
X75279Y21479D01*
X75610Y21258D01*
X76000Y21180D01*
X76390Y21258D01*
X76721Y21479D01*
X76942Y21810D01*
X77020Y22200D01*
X76942Y22590D01*
X76721Y22921D01*
X76390Y23142D01*
X76000Y23220D01*
D02*
G37*
G36*
X79600Y22369D02*
X79229Y22295D01*
X78915Y22085D01*
X78705Y21771D01*
X78631Y21400D01*
X78705Y21029D01*
X78915Y20715D01*
X79229Y20505D01*
X79600Y20431D01*
X79971Y20505D01*
X80285Y20715D01*
X80495Y21029D01*
X80569Y21400D01*
X80495Y21771D01*
X80285Y22085D01*
X79971Y22295D01*
X79600Y22369D01*
D02*
G37*
G36*
X14200Y20820D02*
X13810Y20742D01*
X13479Y20521D01*
X13258Y20190D01*
X13180Y19800D01*
X13258Y19410D01*
X13479Y19079D01*
X13810Y18858D01*
X14200Y18780D01*
X14590Y18858D01*
X14921Y19079D01*
X15142Y19410D01*
X15220Y19800D01*
X15142Y20190D01*
X14921Y20521D01*
X14590Y20742D01*
X14200Y20820D01*
D02*
G37*
G36*
X32600Y21326D02*
X32093Y21225D01*
X31663Y20937D01*
X31375Y20507D01*
X31275Y20000D01*
X31375Y19493D01*
X31663Y19063D01*
X32093Y18775D01*
X32600Y18675D01*
X33107Y18775D01*
X33537Y19063D01*
X33825Y19493D01*
X33926Y20000D01*
X33825Y20507D01*
X33537Y20937D01*
X33107Y21225D01*
X32600Y21326D01*
D02*
G37*
G36*
X28500D02*
X27993Y21225D01*
X27563Y20937D01*
X27275Y20507D01*
X27174Y20000D01*
X27275Y19493D01*
X27563Y19063D01*
X27993Y18775D01*
X28500Y18675D01*
X29007Y18775D01*
X29437Y19063D01*
X29725Y19493D01*
X29825Y20000D01*
X29725Y20507D01*
X29437Y20937D01*
X29007Y21225D01*
X28500Y21326D01*
D02*
G37*
G36*
X46200Y20621D02*
X45771Y20536D01*
X45407Y20293D01*
X45164Y19929D01*
X45078Y19500D01*
X45164Y19071D01*
X45407Y18707D01*
X45771Y18464D01*
X46200Y18379D01*
X46629Y18464D01*
X46993Y18707D01*
X47236Y19071D01*
X47322Y19500D01*
X47236Y19929D01*
X46993Y20293D01*
X46629Y20536D01*
X46200Y20621D01*
D02*
G37*
G36*
X85044Y19845D02*
X84673Y19771D01*
X84359Y19562D01*
X84149Y19247D01*
X84075Y18877D01*
X84149Y18506D01*
X84359Y18192D01*
X84673Y17982D01*
X85044Y17908D01*
X85414Y17982D01*
X85729Y18192D01*
X85939Y18506D01*
X86013Y18877D01*
X85939Y19247D01*
X85729Y19562D01*
X85414Y19771D01*
X85044Y19845D01*
D02*
G37*
G36*
X41685Y19221D02*
X41256Y19136D01*
X40892Y18893D01*
X40649Y18529D01*
X40563Y18100D01*
X40649Y17671D01*
X40892Y17307D01*
X41256Y17064D01*
X41685Y16978D01*
X42114Y17064D01*
X42478Y17307D01*
X42721Y17671D01*
X42806Y18100D01*
X42721Y18529D01*
X42478Y18893D01*
X42114Y19136D01*
X41685Y19221D01*
D02*
G37*
G36*
X67500Y16529D02*
X66915Y16413D01*
X66419Y16081D01*
X66087Y15585D01*
X65971Y15000D01*
X66087Y14415D01*
X66419Y13919D01*
X66915Y13587D01*
X67500Y13471D01*
X68085Y13587D01*
X68581Y13919D01*
X68913Y14415D01*
X69029Y15000D01*
X68913Y15585D01*
X68581Y16081D01*
X68085Y16413D01*
X67500Y16529D01*
D02*
G37*
G36*
X39500Y14221D02*
X39071Y14136D01*
X38707Y13893D01*
X38464Y13529D01*
X38378Y13100D01*
X38464Y12671D01*
X38707Y12307D01*
X39071Y12064D01*
X39500Y11978D01*
X39929Y12064D01*
X40293Y12307D01*
X40536Y12671D01*
X40622Y13100D01*
X40536Y13529D01*
X40293Y13893D01*
X39929Y14136D01*
X39500Y14221D01*
D02*
G37*
G36*
X46200Y13822D02*
X45771Y13736D01*
X45407Y13493D01*
X45164Y13129D01*
X45078Y12700D01*
X45164Y12271D01*
X45407Y11907D01*
X45771Y11664D01*
X46200Y11578D01*
X46629Y11664D01*
X46993Y11907D01*
X47236Y12271D01*
X47322Y12700D01*
X47236Y13129D01*
X46993Y13493D01*
X46629Y13736D01*
X46200Y13822D01*
D02*
G37*
G36*
X55200Y14129D02*
X54615Y14013D01*
X54119Y13681D01*
X53787Y13185D01*
X53671Y12600D01*
X53787Y12015D01*
X54119Y11519D01*
X54615Y11187D01*
X55200Y11071D01*
X55785Y11187D01*
X56281Y11519D01*
X56613Y12015D01*
X56729Y12600D01*
X56613Y13185D01*
X56281Y13681D01*
X55785Y14013D01*
X55200Y14129D01*
D02*
G37*
G36*
X71000Y11529D02*
X70415Y11413D01*
X69919Y11081D01*
X69587Y10585D01*
X69471Y10000D01*
X69587Y9415D01*
X69919Y8919D01*
X70415Y8587D01*
X71000Y8471D01*
X71585Y8587D01*
X72081Y8919D01*
X72413Y9415D01*
X72529Y10000D01*
X72413Y10585D01*
X72081Y11081D01*
X71585Y11413D01*
X71000Y11529D01*
D02*
G37*
G36*
X55500Y8922D02*
X55071Y8836D01*
X54707Y8593D01*
X54464Y8229D01*
X54378Y7800D01*
X54464Y7371D01*
X54707Y7007D01*
X55071Y6764D01*
X55500Y6678D01*
X55929Y6764D01*
X56293Y7007D01*
X56536Y7371D01*
X56622Y7800D01*
X56536Y8229D01*
X56293Y8593D01*
X55929Y8836D01*
X55500Y8922D01*
D02*
G37*
G36*
X50401Y4820D02*
X50011Y4742D01*
X49680Y4521D01*
X49459Y4190D01*
X49382Y3800D01*
X49459Y3410D01*
X49680Y3079D01*
X50011Y2858D01*
X50401Y2780D01*
X50792Y2858D01*
X51122Y3079D01*
X51343Y3410D01*
X51421Y3800D01*
X51343Y4190D01*
X51122Y4521D01*
X50792Y4742D01*
X50401Y4820D01*
D02*
G37*
G36*
X40500Y98120D02*
X40110Y98042D01*
X39779Y97821D01*
X39558Y97490D01*
X39480Y97100D01*
X39558Y96710D01*
X39779Y96379D01*
X40110Y96158D01*
X40500Y96080D01*
X40890Y96158D01*
X41221Y96379D01*
X41442Y96710D01*
X41520Y97100D01*
X41442Y97490D01*
X41221Y97821D01*
X40890Y98042D01*
X40500Y98120D01*
D02*
G37*
G36*
X54500Y97023D02*
X54032Y96930D01*
X53635Y96665D01*
X53370Y96268D01*
X53276Y95800D01*
X53370Y95332D01*
X53635Y94935D01*
X54032Y94670D01*
X54500Y94577D01*
X54968Y94670D01*
X55365Y94935D01*
X55630Y95332D01*
X55724Y95800D01*
X55630Y96268D01*
X55365Y96665D01*
X54968Y96930D01*
X54500Y97023D01*
D02*
G37*
G36*
X58600Y94969D02*
X58229Y94895D01*
X57915Y94685D01*
X57705Y94371D01*
X57631Y94000D01*
X57705Y93629D01*
X57915Y93315D01*
X58229Y93105D01*
X58600Y93031D01*
X58971Y93105D01*
X59285Y93315D01*
X59495Y93629D01*
X59569Y94000D01*
X59495Y94371D01*
X59285Y94685D01*
X58971Y94895D01*
X58600Y94969D01*
D02*
G37*
G36*
X62600Y94943D02*
X62210Y94865D01*
X61879Y94644D01*
X61658Y94314D01*
X61580Y93923D01*
X61658Y93533D01*
X61879Y93203D01*
X62210Y92981D01*
X62600Y92904D01*
X62990Y92981D01*
X63321Y93203D01*
X63542Y93533D01*
X63620Y93923D01*
X63542Y94314D01*
X63321Y94644D01*
X62990Y94865D01*
X62600Y94943D01*
D02*
G37*
G36*
X51100Y93869D02*
X50729Y93795D01*
X50415Y93585D01*
X50205Y93271D01*
X50131Y92900D01*
X50205Y92529D01*
X50415Y92215D01*
X50729Y92005D01*
X51100Y91931D01*
X51471Y92005D01*
X51785Y92215D01*
X51995Y92529D01*
X52069Y92900D01*
X51995Y93271D01*
X51785Y93585D01*
X51471Y93795D01*
X51100Y93869D01*
D02*
G37*
G36*
X69600Y92620D02*
X69210Y92542D01*
X68879Y92321D01*
X68658Y91990D01*
X68580Y91600D01*
X68658Y91210D01*
X68879Y90879D01*
X69210Y90658D01*
X69600Y90580D01*
X69990Y90658D01*
X70321Y90879D01*
X70542Y91210D01*
X70620Y91600D01*
X70542Y91990D01*
X70321Y92321D01*
X69990Y92542D01*
X69600Y92620D01*
D02*
G37*
G36*
X38500Y92220D02*
X38110Y92142D01*
X37779Y91921D01*
X37558Y91590D01*
X37480Y91200D01*
X37558Y90810D01*
X37779Y90479D01*
X38110Y90258D01*
X38500Y90180D01*
X38890Y90258D01*
X39221Y90479D01*
X39442Y90810D01*
X39520Y91200D01*
X39442Y91590D01*
X39221Y91921D01*
X38890Y92142D01*
X38500Y92220D01*
D02*
G37*
G36*
X27900Y92620D02*
X27510Y92542D01*
X27179Y92321D01*
X26958Y91990D01*
X26880Y91600D01*
X26958Y91210D01*
X27069Y91044D01*
X27095Y90719D01*
X26947Y90433D01*
X26779Y90321D01*
X26558Y89990D01*
X26480Y89600D01*
X26558Y89210D01*
X26779Y88879D01*
X27110Y88658D01*
X27500Y88580D01*
X27890Y88658D01*
X28221Y88879D01*
X28442Y89210D01*
X28520Y89600D01*
X28442Y89990D01*
X28331Y90156D01*
X28304Y90481D01*
X28453Y90767D01*
X28621Y90879D01*
X28842Y91210D01*
X28920Y91600D01*
X28842Y91990D01*
X28621Y92321D01*
X28290Y92542D01*
X27900Y92620D01*
D02*
G37*
G36*
X83900Y87620D02*
X83510Y87542D01*
X83179Y87321D01*
X82958Y86990D01*
X82880Y86600D01*
X82958Y86210D01*
X83179Y85879D01*
X83510Y85658D01*
X83900Y85580D01*
X84290Y85658D01*
X84621Y85879D01*
X84842Y86210D01*
X84920Y86600D01*
X84842Y86990D01*
X84621Y87321D01*
X84290Y87542D01*
X83900Y87620D01*
D02*
G37*
G36*
X34700Y86469D02*
X34329Y86395D01*
X34015Y86185D01*
X33805Y85871D01*
X33731Y85500D01*
X33805Y85129D01*
X34015Y84815D01*
X34329Y84605D01*
X34700Y84531D01*
X35071Y84605D01*
X35385Y84815D01*
X35595Y85129D01*
X35669Y85500D01*
X35595Y85871D01*
X35385Y86185D01*
X35071Y86395D01*
X34700Y86469D01*
D02*
G37*
G36*
X28900Y85220D02*
X28510Y85142D01*
X28179Y84921D01*
X27958Y84590D01*
X27880Y84200D01*
X27958Y83810D01*
X28179Y83479D01*
X28510Y83258D01*
X28900Y83180D01*
X29290Y83258D01*
X29621Y83479D01*
X29842Y83810D01*
X29920Y84200D01*
X29842Y84590D01*
X29621Y84921D01*
X29290Y85142D01*
X28900Y85220D01*
D02*
G37*
G36*
X12900Y81820D02*
X12510Y81742D01*
X12179Y81521D01*
X11958Y81190D01*
X11880Y80800D01*
X11958Y80410D01*
X12179Y80079D01*
X12510Y79858D01*
X12900Y79780D01*
X13290Y79858D01*
X13621Y80079D01*
X13842Y80410D01*
X13920Y80800D01*
X13842Y81190D01*
X13621Y81521D01*
X13290Y81742D01*
X12900Y81820D01*
D02*
G37*
G36*
X38000Y80920D02*
X37610Y80842D01*
X37279Y80621D01*
X37058Y80290D01*
X36980Y79900D01*
X37058Y79510D01*
X37279Y79179D01*
X37610Y78958D01*
X38000Y78880D01*
X38390Y78958D01*
X38721Y79179D01*
X38942Y79510D01*
X39020Y79900D01*
X38942Y80290D01*
X38721Y80621D01*
X38390Y80842D01*
X38000Y80920D01*
D02*
G37*
G36*
X28300Y80469D02*
X27929Y80395D01*
X27615Y80185D01*
X27405Y79871D01*
X27331Y79500D01*
X27405Y79129D01*
X27615Y78815D01*
X27929Y78605D01*
X28300Y78531D01*
X28671Y78605D01*
X28985Y78815D01*
X29195Y79129D01*
X29269Y79500D01*
X29195Y79871D01*
X28985Y80185D01*
X28671Y80395D01*
X28300Y80469D01*
D02*
G37*
%LPD*%
D14*
X63075Y85331D02*
X64643Y86900D01*
X64700D01*
D40*
X60678Y21114D02*
D03*
X9600Y60600D02*
D03*
X13575Y30187D02*
D03*
X41100Y26862D02*
D03*
X61500Y83757D02*
D03*
X38200Y81800D02*
D03*
X44900Y90000D02*
D03*
X63075Y85331D02*
D03*
X59925Y83757D02*
D03*
X71865Y16984D02*
D03*
X68959Y39075D02*
D03*
X66059D02*
D03*
X74700Y39300D02*
D03*
X76946Y39739D02*
D03*
X78446Y40839D02*
D03*
X78346Y48239D02*
D03*
X87414Y83255D02*
D03*
X72100Y96300D02*
D03*
X80965Y49584D02*
D03*
X81065Y45784D02*
D03*
X81365Y62084D02*
D03*
Y64684D02*
D03*
D102*
X60632Y85331D02*
X63075D01*
X59944Y84644D02*
X60632Y85331D01*
X59944Y83776D02*
Y84644D01*
X59925Y83757D02*
X59944Y83776D01*
D103*
X77400Y70000D02*
X77485Y70085D01*
Y71585D01*
X77600Y71700D01*
X50100Y76000D02*
X52200D01*
D108*
X15000Y54100D02*
D03*
X38124Y98931D02*
D03*
X79021Y75058D02*
D03*
X52200Y76000D02*
D03*
X33167Y90207D02*
D03*
X55200Y78100D02*
D03*
X63831Y72983D02*
D03*
X78300Y92400D02*
D03*
X77540Y66944D02*
D03*
X60171Y100051D02*
D03*
X55000Y100735D02*
D03*
X81300Y66600D02*
D03*
X40442Y99700D02*
D03*
X87400Y79732D02*
D03*
D109*
X72200Y22200D02*
D03*
X76700Y15000D02*
D03*
D110*
X57000Y38900D02*
D03*
X9200Y65200D02*
D03*
X62800Y38842D02*
D03*
X48177Y64000D02*
D03*
X50677D02*
D03*
X77600Y71700D02*
D03*
X32406Y96283D02*
D03*
X12500Y21100D02*
D03*
X3600Y60800D02*
D03*
X28100Y33500D02*
D03*
X31100Y6900D02*
D03*
X35900Y4900D02*
D03*
X43800Y19100D02*
D03*
X20633Y89070D02*
D03*
X90876Y22893D02*
D03*
X81300Y30100D02*
D03*
D111*
X36453Y46694D02*
D03*
X8453Y43894D02*
D03*
X9300Y76000D02*
D03*
X12308Y69040D02*
D03*
M02*
