M48
;Layer_Color=9474304
;FILE_FORMAT=2:5
INCH,LZ
;TYPE=PLATED
T1F00S00C0.00500
T2F00S00C0.00600
T3F00S00C0.00700
T4F00S00C0.00800
T5F00S00C0.00900
T6F00S00C0.01000
;TYPE=NON_PLATED
T7F00S00C0.04200
%
T01
X0009516Y0025649
X0013575Y0030187
X0015Y00541
X00159Y00554
X00137Y00558
X00096Y00606
Y00626
X0014Y00646
X00128Y0066
X00181Y00719
X00208Y00718
X0024Y00756
X00235Y00771
X00232Y00794
X00283Y00795
X00289Y00842
X00275Y00896
X00279Y00916
X0033167Y0090207
X00347Y00855
X00382Y00818
X0038Y00799
X00385Y00912
X00449Y009
X00511Y00929
X00551Y00903
X0056776Y0090056
X005835Y0088481
X0059925
Y009005
X00615Y0088481
X0063075
Y009005
Y0086906
Y0085331
X006465
X0066224
Y0086906
Y0088481
X00662Y00928
X00673Y00944
X00664Y00959
X00665Y00981
X0062031Y0099832
X0060171Y0100051
X00586Y00999
X00567Y01006
X0055Y0100735
X00586Y0094
X00626Y0093923
X00696Y00916
X00721Y00963
X00783Y00924
X00839Y00866
X0087414Y0083255
X00874Y0079732
X00909Y00758
X00923Y00768
X00938Y00753
X0079021Y0075058
X00726Y0075187
X0072799Y0079765
X0066224Y0080607
Y0082182
X0067799
Y0083757
X0066224
X00615
X0059925
X005835
Y0085331
Y00869
Y0082182
Y0080607
X0059925Y0082182
X0063075
X00662Y00789
X0063831Y0072983
X00567Y00788
X00552Y00781
X00522Y0076
X00508Y00795
X0052Y00814
X00518Y00832
Y00848
Y00863
X00405Y00971
X0040442Y00997
X0038124Y0098931
X00353Y00676
X00354Y00584
X0047613Y0059033
X0049669Y0054769
X00458Y00545
X00459Y00527
X00475Y00511
X0046385Y0045815
X00523Y00435
X0054898Y004622
X0066059Y0039075
X0068959
X00747Y00393
X0076946Y0039739
X0078446Y0040839
X0078346Y0048239
X0080965Y0049584
X0081065Y0045784
X0081365Y0062084
Y0064684
X00813Y00666
X007754Y0066944
X0081513Y0027075
X0083087Y00255
X00796Y00214
X0085044Y0018877
X0071865Y0016984
X0060678Y0021114
X00594Y00285
X005687Y002854
X00443Y00253
Y00237
X00427
Y00253
X0042713Y0026862
X00411
X00247Y00511
X00161Y00826
Y0085
X00129Y00808
T02
X00142Y00198
X0041685Y00181
X00462Y00195
Y00127
X00395Y00131
X00403Y00295
X00453Y00299
X00497Y00273
X00605Y00253
X00646Y00289
X0067944Y0029568
X0069918Y0033625
X00742Y00304
X00774Y00296
X0076Y00222
X00555Y00078
X0050401Y00038
X00522Y0039
X00539Y003895
X00476Y00386
X0043845Y0038874
X00446Y00404
X00424Y0041
X00502Y00423
X00516Y00495
X0036453Y0046694
X0028Y00358
X0008453Y0043894
X0012308Y006904
X00093Y0076
X00522Y00778
X00569Y00717
X005875Y0073
T03
X0058355Y0077097
T04
X00125Y00211
X0021Y00285
X0023
X00281Y00335
X00355Y0034
X00357Y00376
Y00414
X003668Y0029921
Y0027721
X003666Y0025149
X0036663Y0022883
X00326Y002
X00285
X00311Y00069
X00359Y00049
X00616Y00281
X00628Y0038842
X0057Y00389
X0050677Y0064
X0048177
X0035Y00653
X00271Y00658
X00224Y00743
X0020633Y008907
X0032406Y0096283
X00545Y00958
X00377Y0073
X00092Y00652
X00052Y0066
X00036Y00608
X00034Y00547
X001515Y00521
X00776Y00717
X00813Y00301
X0090876Y0022893
T05
X00438Y00191
T06
X00552Y00126
X00675Y0015
X0071Y001
X00767Y0015
X00722Y00222
T07
X0085451Y00363
Y0065917
M30
