G04*
G04 #@! TF.GenerationSoftware,Altium Limited,Altium Designer,23.0.1 (38)*
G04*
G04 Layer_Color=255*
%FSLAX25Y25*%
%MOIN*%
G70*
G04*
G04 #@! TF.SameCoordinates,78B848BC-93E4-4EEF-81BE-5096D5435DE8*
G04*
G04*
G04 #@! TF.FilePolarity,Positive*
G04*
G01*
G75*
%ADD21R,0.08740X0.03682*%
%ADD22R,0.01181X0.01260*%
%ADD23R,0.01378X0.01260*%
%ADD24R,0.01181X0.01378*%
%ADD25R,0.05500X0.02400*%
%ADD26R,0.01575X0.02756*%
%ADD27R,0.01575X0.00984*%
%ADD28R,0.02362X0.01300*%
%ADD29R,0.01130X0.02165*%
%ADD30R,0.00900X0.02165*%
%ADD31R,0.01614X0.02565*%
%ADD32R,0.01693X0.00987*%
%ADD33R,0.03524X0.01525*%
%ADD34R,0.02362X0.03347*%
%ADD35R,0.02756X0.03150*%
%ADD36C,0.00850*%
%ADD37C,0.00850*%
%ADD38C,0.01199*%
%ADD39C,0.00984*%
%ADD40C,0.00900*%
%ADD41R,0.04100X0.04100*%
%ADD42R,0.01800X0.01700*%
%ADD43R,0.03150X0.07087*%
%ADD47R,0.03937X0.03150*%
%ADD48R,0.03150X0.03937*%
%ADD49R,0.02362X0.02165*%
%ADD50R,0.02165X0.02362*%
%ADD51R,0.01260X0.01378*%
%ADD52R,0.01378X0.01181*%
%ADD53R,0.01260X0.01181*%
%ADD54R,0.02362X0.01575*%
%ADD55R,0.01575X0.02362*%
%ADD95R,0.01000X0.01700*%
%ADD96C,0.01098*%
%ADD97C,0.00988*%
%ADD98P,0.03229X4X180.0*%
%ADD107C,0.05000*%
D21*
X21400Y24509D02*
D03*
Y33091D02*
D03*
D22*
X14000Y23700D02*
D03*
X11400D02*
D03*
X30700Y73800D02*
D03*
X33300D02*
D03*
X67909Y75100D02*
D03*
X70509D02*
D03*
X55209D02*
D03*
X57810D02*
D03*
X64509D02*
D03*
X61910D02*
D03*
X74610D02*
D03*
X77210D02*
D03*
X73700Y93300D02*
D03*
X76300D02*
D03*
X49500Y89300D02*
D03*
X46900D02*
D03*
X81109Y75100D02*
D03*
X83710D02*
D03*
X30500Y37600D02*
D03*
X33100D02*
D03*
X30500Y45700D02*
D03*
X33100D02*
D03*
X30500Y34000D02*
D03*
X33100D02*
D03*
X54600Y20800D02*
D03*
X52000D02*
D03*
X47000Y92900D02*
D03*
X49600D02*
D03*
X25500Y90800D02*
D03*
X22900D02*
D03*
X47000Y85600D02*
D03*
X49600D02*
D03*
X11200Y74200D02*
D03*
X13800D02*
D03*
X47000Y81700D02*
D03*
X49600D02*
D03*
X10809Y54007D02*
D03*
X13409D02*
D03*
X30600Y60200D02*
D03*
X33200D02*
D03*
D23*
X24800Y73700D02*
D03*
X30600Y41200D02*
D03*
X35600Y97000D02*
D03*
X54500Y27300D02*
D03*
X40600Y92800D02*
D03*
Y85600D02*
D03*
Y89400D02*
D03*
X54500Y24100D02*
D03*
X13300Y34500D02*
D03*
X18600Y82600D02*
D03*
X11300Y78200D02*
D03*
X21100Y86400D02*
D03*
X40600Y81700D02*
D03*
X13300Y50100D02*
D03*
X10800Y46000D02*
D03*
X23800Y54200D02*
D03*
X30600Y63800D02*
D03*
X33200Y56700D02*
D03*
X23800Y63700D02*
D03*
D24*
X27400Y73700D02*
D03*
X33200Y41200D02*
D03*
X38200Y97000D02*
D03*
X51900Y27300D02*
D03*
X43200Y92800D02*
D03*
Y85600D02*
D03*
Y89400D02*
D03*
X51900Y24100D02*
D03*
X10700Y34500D02*
D03*
X21200Y82600D02*
D03*
X13900Y78200D02*
D03*
X18500Y86400D02*
D03*
X43200Y81700D02*
D03*
X10700Y50100D02*
D03*
X13400Y46000D02*
D03*
X26400Y54200D02*
D03*
X33200Y63800D02*
D03*
X30600Y56700D02*
D03*
X26400Y63700D02*
D03*
D25*
X4800Y47079D02*
D03*
Y57721D02*
D03*
D26*
X26462Y68500D02*
D03*
X30338D02*
D03*
D27*
X23706Y67614D02*
D03*
Y69386D02*
D03*
X33094Y67614D02*
D03*
Y69386D02*
D03*
D28*
X30641Y90700D02*
D03*
X35759D02*
D03*
Y80400D02*
D03*
X30641D02*
D03*
D29*
X35168Y93357D02*
D03*
X31231D02*
D03*
Y88042D02*
D03*
X35168D02*
D03*
Y77742D02*
D03*
X31231D02*
D03*
Y83057D02*
D03*
X35168D02*
D03*
D30*
X33200Y93357D02*
D03*
Y88042D02*
D03*
Y77742D02*
D03*
Y83057D02*
D03*
D31*
X26500Y58900D02*
D03*
D32*
X23700Y58100D02*
D03*
Y59700D02*
D03*
D33*
X18360Y38041D02*
D03*
Y43159D02*
D03*
X25840D02*
D03*
Y40600D02*
D03*
Y38041D02*
D03*
D34*
X67438Y25931D02*
D03*
X72162D02*
D03*
D35*
X62910Y11069D02*
D03*
X76690D02*
D03*
D36*
X13575Y28613D02*
D03*
X12000D02*
D03*
X10425D02*
D03*
X13575Y30187D02*
D03*
X12000D02*
D03*
X10425D02*
D03*
D37*
X45862Y26862D02*
D03*
Y25287D02*
D03*
Y23713D02*
D03*
Y22138D02*
D03*
X44287Y26862D02*
D03*
Y25287D02*
D03*
Y23713D02*
D03*
Y22138D02*
D03*
X42713Y26862D02*
D03*
Y25287D02*
D03*
Y22138D02*
D03*
X41138Y26862D02*
D03*
Y25287D02*
D03*
Y23713D02*
D03*
Y22138D02*
D03*
X42713Y23713D02*
D03*
D38*
X13984Y62568D02*
D03*
Y58631D02*
D03*
X12016Y62568D02*
D03*
Y60600D02*
D03*
Y58631D02*
D03*
D39*
X20384Y78268D02*
D03*
Y76300D02*
D03*
Y74331D02*
D03*
X18416Y78268D02*
D03*
Y76300D02*
D03*
Y74331D02*
D03*
D40*
X81513Y27075D02*
D03*
X83087D02*
D03*
X81513Y25500D02*
D03*
X83087D02*
D03*
X81513Y23925D02*
D03*
X83087D02*
D03*
X67799Y80607D02*
D03*
X66224D02*
D03*
X64650D02*
D03*
X63075D02*
D03*
X61500D02*
D03*
X59925D02*
D03*
X58350D02*
D03*
X56776D02*
D03*
X67799Y82182D02*
D03*
X66224D02*
D03*
X64650D02*
D03*
X63075D02*
D03*
X61500D02*
D03*
X59925D02*
D03*
X58350D02*
D03*
X56776D02*
D03*
X67799Y83757D02*
D03*
X66224D02*
D03*
X64650D02*
D03*
X63075D02*
D03*
X61500D02*
D03*
X59925D02*
D03*
X58350D02*
D03*
X56776D02*
D03*
X67799Y85331D02*
D03*
X66224D02*
D03*
X64650D02*
D03*
X63075D02*
D03*
X61500D02*
D03*
X59925D02*
D03*
X58350D02*
D03*
X56776D02*
D03*
X67799Y86906D02*
D03*
X66224D02*
D03*
X64650D02*
D03*
X63075D02*
D03*
X61500D02*
D03*
X59925D02*
D03*
X58350D02*
D03*
X56776D02*
D03*
X67799Y88481D02*
D03*
X66224D02*
D03*
X64650D02*
D03*
X63075D02*
D03*
X61500D02*
D03*
X59925D02*
D03*
X58350D02*
D03*
X56776D02*
D03*
X67799Y90056D02*
D03*
X66224D02*
D03*
X64650D02*
D03*
X63075D02*
D03*
X61500D02*
D03*
X59925D02*
D03*
X58350D02*
D03*
X56776D02*
D03*
D41*
X54900Y4200D02*
D03*
Y15900D02*
D03*
D42*
X60631Y98200D02*
D03*
Y95562D02*
D03*
D43*
X40650Y7300D02*
D03*
X46950D02*
D03*
D47*
X34100Y10353D02*
D03*
Y17047D02*
D03*
X27100Y10353D02*
D03*
Y17047D02*
D03*
D48*
X5853Y40200D02*
D03*
X12547D02*
D03*
D49*
X82400Y18868D02*
D03*
Y14931D02*
D03*
X87500Y24069D02*
D03*
Y20132D02*
D03*
X18800Y64863D02*
D03*
Y68800D02*
D03*
Y55831D02*
D03*
Y59768D02*
D03*
X20900Y17868D02*
D03*
Y13931D02*
D03*
X83900Y83675D02*
D03*
Y79738D02*
D03*
X32100Y53268D02*
D03*
Y49332D02*
D03*
D50*
X79194Y89131D02*
D03*
X75257D02*
D03*
X62231Y5500D02*
D03*
X66168D02*
D03*
X75231Y79732D02*
D03*
X79168D02*
D03*
X75257Y84632D02*
D03*
X79194D02*
D03*
X44232Y16500D02*
D03*
X48169D02*
D03*
X29417Y28800D02*
D03*
X33354D02*
D03*
X29417Y24000D02*
D03*
X33354D02*
D03*
D51*
X45900Y97200D02*
D03*
X16400Y19700D02*
D03*
X58300Y22700D02*
D03*
X26000Y77100D02*
D03*
X6700Y31900D02*
D03*
X40100Y75109D02*
D03*
X22700Y49900D02*
D03*
X26700Y47400D02*
D03*
X7100Y61900D02*
D03*
D52*
X45900Y99800D02*
D03*
X16400Y17100D02*
D03*
X58300Y25300D02*
D03*
X26000Y79700D02*
D03*
X6700Y34500D02*
D03*
X40100Y77710D02*
D03*
X22700Y47300D02*
D03*
X26700Y50000D02*
D03*
X7100Y64500D02*
D03*
D53*
X50200Y75209D02*
D03*
Y77810D02*
D03*
X46900Y75209D02*
D03*
Y77810D02*
D03*
X52800Y100200D02*
D03*
Y97600D02*
D03*
X42600Y99700D02*
D03*
Y97100D02*
D03*
X39500Y18100D02*
D03*
Y15500D02*
D03*
X26000Y85900D02*
D03*
Y83300D02*
D03*
X49600Y97600D02*
D03*
Y100200D02*
D03*
X7000Y70400D02*
D03*
Y67800D02*
D03*
X91800Y24900D02*
D03*
Y27500D02*
D03*
X43600Y75109D02*
D03*
Y77710D02*
D03*
X18800Y50000D02*
D03*
Y47400D02*
D03*
D54*
X38816Y66873D02*
D03*
X42359Y52700D02*
D03*
Y46401D02*
D03*
Y43251D02*
D03*
X38816Y47976D02*
D03*
X64800Y49550D02*
D03*
Y58999D02*
D03*
Y55850D02*
D03*
X38816Y70023D02*
D03*
X42359Y58999D02*
D03*
Y49550D02*
D03*
Y55850D02*
D03*
X38816Y60574D02*
D03*
Y41676D02*
D03*
Y44826D02*
D03*
Y57424D02*
D03*
Y54275D02*
D03*
Y51125D02*
D03*
Y63724D02*
D03*
Y35377D02*
D03*
Y32228D02*
D03*
X64800Y52700D02*
D03*
Y46401D02*
D03*
Y43251D02*
D03*
X38816Y38527D02*
D03*
D55*
X55351Y69432D02*
D03*
X60076Y65889D02*
D03*
X50627Y36361D02*
D03*
X64800Y69432D02*
D03*
X77398D02*
D03*
X74249D02*
D03*
X58501D02*
D03*
X75824Y36361D02*
D03*
X69524D02*
D03*
X67950Y69432D02*
D03*
X53776Y36361D02*
D03*
X63225D02*
D03*
X56926D02*
D03*
X49052Y32818D02*
D03*
X52201Y69432D02*
D03*
X64800Y32818D02*
D03*
X42753D02*
D03*
X52201D02*
D03*
X66375Y65889D02*
D03*
X63225D02*
D03*
X47477Y36361D02*
D03*
X45902Y32818D02*
D03*
X55351D02*
D03*
X61650D02*
D03*
X60075Y36361D02*
D03*
X66375D02*
D03*
X67950Y32818D02*
D03*
X56926Y65889D02*
D03*
X77398Y32818D02*
D03*
X74249D02*
D03*
X72674Y36361D02*
D03*
X78973D02*
D03*
X81729Y32818D02*
D03*
X61650Y69432D02*
D03*
X53776Y65889D02*
D03*
X81729Y69432D02*
D03*
D95*
X64569Y98200D02*
D03*
X62600D02*
D03*
X56693D02*
D03*
Y95562D02*
D03*
X58662D02*
D03*
X62600D02*
D03*
X64569D02*
D03*
X58662Y98200D02*
D03*
D96*
X14296Y67740D02*
D03*
Y70339D02*
D03*
D97*
X10500Y70400D02*
D03*
Y67679D02*
D03*
D98*
X12308Y69040D02*
D03*
D107*
X85451Y65917D02*
D03*
Y36300D02*
D03*
M02*
