G04*
G04 #@! TF.GenerationSoftware,Altium Limited,Altium Designer,23.0.1 (38)*
G04*
G04 Layer_Physical_Order=4*
G04 Layer_Color=6736896*
%FSLAX25Y25*%
%MOIN*%
G70*
G04*
G04 #@! TF.SameCoordinates,78B848BC-93E4-4EEF-81BE-5096D5435DE8*
G04*
G04*
G04 #@! TF.FilePolarity,Positive*
G04*
G01*
G75*
%ADD17C,0.00400*%
%ADD40C,0.00900*%
%ADD100C,0.01500*%
%ADD101C,0.02000*%
%ADD102C,0.00800*%
%ADD103C,0.01000*%
%ADD108C,0.01000*%
%ADD110C,0.01600*%
%ADD111C,0.01200*%
%ADD112C,0.01400*%
G36*
X56800Y93349D02*
X54200D01*
X53741Y93159D01*
X51341Y90759D01*
X51151Y90300D01*
Y87009D01*
X51115Y86985D01*
X50905Y86671D01*
X50831Y86300D01*
X50905Y85929D01*
X51115Y85615D01*
Y85485D01*
X50905Y85171D01*
X50831Y84800D01*
X50905Y84429D01*
X51115Y84115D01*
Y83885D01*
X50905Y83571D01*
X50831Y83200D01*
X50905Y82829D01*
X51115Y82515D01*
X51309Y82099D01*
X51195Y81906D01*
X51105Y81771D01*
X51031Y81400D01*
X51105Y81029D01*
X51191Y80901D01*
X50890Y80451D01*
X50800Y80469D01*
X50429Y80395D01*
X50115Y80185D01*
X49905Y79871D01*
X49831Y79500D01*
X49905Y79129D01*
X50115Y78815D01*
X50429Y78605D01*
X50800Y78531D01*
X51171Y78605D01*
X51400Y78758D01*
X51713Y78662D01*
X51900Y78537D01*
Y76960D01*
X51810Y76942D01*
X51479Y76721D01*
X51265Y76400D01*
X24836D01*
X24730Y76483D01*
X24469Y76845D01*
X24520Y77100D01*
X24442Y77490D01*
X24221Y77821D01*
X23890Y78042D01*
X23873Y78045D01*
X23767Y78576D01*
X23921Y78679D01*
X24142Y79010D01*
X24220Y79400D01*
X24142Y79790D01*
X23921Y80121D01*
X23590Y80342D01*
X23200Y80420D01*
X22810Y80342D01*
X22479Y80121D01*
X22258Y79790D01*
X22180Y79400D01*
X22258Y79010D01*
X22479Y78679D01*
X22810Y78458D01*
X22827Y78455D01*
X22933Y77924D01*
X22779Y77821D01*
X22558Y77490D01*
X22480Y77100D01*
X22520Y76900D01*
X22209Y76400D01*
X16300D01*
Y81620D01*
X16490Y81658D01*
X16821Y81879D01*
X17042Y82210D01*
X17120Y82600D01*
X17042Y82990D01*
X16821Y83321D01*
X16490Y83542D01*
X16475Y83545D01*
Y84055D01*
X16490Y84058D01*
X16821Y84279D01*
X17042Y84610D01*
X17120Y85000D01*
X17042Y85390D01*
X16881Y85631D01*
X19987Y87938D01*
X20126Y87845D01*
X20633Y87744D01*
X21140Y87845D01*
X21570Y88133D01*
X21858Y88563D01*
X21959Y89070D01*
X21901Y89359D01*
X30708Y95898D01*
X31248Y95676D01*
X31469Y95346D01*
X31899Y95058D01*
X32406Y94957D01*
X32913Y95058D01*
X33343Y95346D01*
X33631Y95776D01*
X33731Y96283D01*
X33631Y96790D01*
X33424Y97100D01*
X33573Y97509D01*
X33645Y97600D01*
X39076D01*
X39480Y97100D01*
X39558Y96710D01*
X39779Y96379D01*
X40110Y96158D01*
X40500Y96080D01*
X40890Y96158D01*
X41221Y96379D01*
X41442Y96710D01*
X41520Y97100D01*
X41924Y97600D01*
X56800D01*
Y93349D01*
D02*
G37*
G36*
X16600Y43000D02*
X33500Y26100D01*
X37800D01*
Y21800D01*
X34809D01*
X34806Y21806D01*
X34500Y21933D01*
X32767D01*
X13400Y41300D01*
Y53400D01*
X14286D01*
X14434Y53252D01*
X14801Y53100D01*
X15199D01*
X15566Y53252D01*
X15714Y53400D01*
X16600D01*
Y43000D01*
D02*
G37*
G36*
X48997Y43200D02*
X49265Y42700D01*
X49258Y42690D01*
X49180Y42300D01*
X49258Y41910D01*
X49479Y41579D01*
X49810Y41358D01*
X50200Y41280D01*
X50590Y41358D01*
X50921Y41579D01*
X51142Y41910D01*
X51220Y42300D01*
X51182Y42489D01*
X51402Y42649D01*
X51643Y42737D01*
X51910Y42558D01*
X52300Y42480D01*
X52690Y42558D01*
X53021Y42779D01*
X53242Y43110D01*
X53260Y43200D01*
X82400Y43200D01*
Y31530D01*
X81900Y31263D01*
X81807Y31325D01*
X81300Y31425D01*
X80793Y31325D01*
X80363Y31037D01*
X80075Y30607D01*
X79975Y30100D01*
X80075Y29593D01*
X80363Y29163D01*
X80793Y28875D01*
X81300Y28774D01*
X81807Y28875D01*
X81900Y28937D01*
X82369Y28687D01*
Y28209D01*
X81900Y27959D01*
X81883Y27970D01*
X81513Y28043D01*
X81142Y27970D01*
X80828Y27760D01*
X80618Y27446D01*
X80544Y27075D01*
X80618Y26704D01*
X80828Y26390D01*
X81142Y26180D01*
X81513Y26106D01*
X81883Y26180D01*
X82000Y26258D01*
X82400Y26500D01*
X85500D01*
Y21100D01*
X80815D01*
X80569Y21400D01*
X80495Y21771D01*
X80285Y22085D01*
X79971Y22295D01*
X79600Y22369D01*
X79229Y22295D01*
X78915Y22085D01*
X78705Y21771D01*
X78631Y21400D01*
X78385Y21100D01*
X77023D01*
X76953Y21189D01*
X76802Y21600D01*
X76942Y21810D01*
X77020Y22200D01*
X76942Y22590D01*
X76721Y22921D01*
X76390Y23142D01*
X76000Y23220D01*
X75610Y23142D01*
X75279Y22921D01*
X75058Y22590D01*
X74980Y22200D01*
X75058Y21810D01*
X75198Y21600D01*
X75047Y21189D01*
X74977Y21100D01*
X73870D01*
X73603Y21600D01*
X73613Y21615D01*
X73729Y22200D01*
X73613Y22785D01*
X73281Y23281D01*
X72785Y23613D01*
X72200Y23729D01*
X71615Y23613D01*
X71119Y23281D01*
X70787Y22785D01*
X70671Y22200D01*
X70787Y21615D01*
X70797Y21600D01*
X70530Y21100D01*
X69200D01*
Y16056D01*
X68700Y15904D01*
X68581Y16081D01*
X68085Y16413D01*
X67500Y16529D01*
X66915Y16413D01*
X66419Y16081D01*
X66087Y15585D01*
X65971Y15000D01*
X66087Y14415D01*
X66419Y13919D01*
X66915Y13587D01*
X67500Y13471D01*
X68085Y13587D01*
X68581Y13919D01*
X68700Y14096D01*
X69200Y13944D01*
Y5200D01*
X52400D01*
Y10300D01*
X59100D01*
Y24764D01*
X59357Y24846D01*
X59600Y24847D01*
X59779Y24579D01*
X60110Y24358D01*
X60500Y24280D01*
X60890Y24358D01*
X61221Y24579D01*
X61442Y24910D01*
X61520Y25300D01*
X61442Y25690D01*
X61221Y26021D01*
X60890Y26242D01*
X60500Y26320D01*
X60110Y26242D01*
X59779Y26021D01*
X59600Y25753D01*
X59357Y25754D01*
X59100Y25836D01*
Y26600D01*
X50990D01*
X50680Y27100D01*
X50720Y27300D01*
X50642Y27690D01*
X50421Y28021D01*
X50090Y28242D01*
X49700Y28320D01*
X49310Y28242D01*
X48979Y28021D01*
X48758Y27690D01*
X48680Y27300D01*
X48720Y27100D01*
X48410Y26600D01*
X43896D01*
X43681Y26862D01*
X43608Y27233D01*
X43398Y27547D01*
X43083Y27757D01*
X42713Y27831D01*
X42342Y27757D01*
X42028Y27547D01*
X41785D01*
X41471Y27757D01*
X41100Y27831D01*
X40729Y27757D01*
X40415Y27547D01*
X40205Y27233D01*
X40131Y26862D01*
X39916Y26600D01*
X34100D01*
Y32855D01*
X34411Y32995D01*
X34600Y33038D01*
X34993Y32775D01*
X35500Y32675D01*
X36007Y32775D01*
X36437Y33063D01*
X36725Y33493D01*
X36825Y34000D01*
X36725Y34507D01*
X36437Y34937D01*
X36007Y35225D01*
X35500Y35326D01*
X34993Y35225D01*
X34600Y34962D01*
X34411Y35005D01*
X34100Y35145D01*
Y43200D01*
X48997D01*
D02*
G37*
G36*
X7500Y44467D02*
X7353Y44113D01*
Y43676D01*
X7500Y43321D01*
Y36800D01*
X12874Y31426D01*
X12818Y30775D01*
X12769Y30725D01*
X12625Y30376D01*
Y29998D01*
X12769Y29649D01*
X13037Y29382D01*
X13386Y29237D01*
X13764D01*
X14113Y29382D01*
X14380Y29649D01*
X14606Y29694D01*
X22800Y21500D01*
X34500D01*
Y17900D01*
X21100D01*
X4000Y35000D01*
X4000Y53541D01*
X4136Y53598D01*
X4502Y53964D01*
X4700Y54441D01*
Y54959D01*
X4502Y55436D01*
X4136Y55802D01*
X4000Y55859D01*
Y59559D01*
X4336Y59698D01*
X4702Y60064D01*
X4900Y60541D01*
Y61059D01*
X4702Y61536D01*
X4336Y61902D01*
X4000Y62041D01*
Y67200D01*
X7500Y67200D01*
Y44467D01*
D02*
G37*
%LPC*%
G36*
X51100Y93869D02*
X50729Y93795D01*
X50415Y93585D01*
X50205Y93271D01*
X50131Y92900D01*
X50205Y92529D01*
X50415Y92215D01*
X50729Y92005D01*
X51100Y91931D01*
X51471Y92005D01*
X51785Y92215D01*
X51995Y92529D01*
X52069Y92900D01*
X51995Y93271D01*
X51785Y93585D01*
X51471Y93795D01*
X51100Y93869D01*
D02*
G37*
G36*
X27900Y92620D02*
X27510Y92542D01*
X27179Y92321D01*
X26958Y91990D01*
X26880Y91600D01*
X26958Y91210D01*
X27179Y90879D01*
X27510Y90658D01*
X27900Y90580D01*
X28290Y90658D01*
X28621Y90879D01*
X28842Y91210D01*
X28920Y91600D01*
X28842Y91990D01*
X28621Y92321D01*
X28290Y92542D01*
X27900Y92620D01*
D02*
G37*
G36*
X33167Y91227D02*
X32777Y91149D01*
X32446Y90928D01*
X32225Y90597D01*
X32147Y90207D01*
X32225Y89817D01*
X32446Y89486D01*
X32777Y89265D01*
X33167Y89188D01*
X33557Y89265D01*
X33888Y89486D01*
X34109Y89817D01*
X34186Y90207D01*
X34109Y90597D01*
X33888Y90928D01*
X33557Y91149D01*
X33167Y91227D01*
D02*
G37*
G36*
X44900Y90969D02*
X44529Y90895D01*
X44215Y90685D01*
X44005Y90371D01*
X43931Y90000D01*
X44005Y89629D01*
X44215Y89315D01*
X44529Y89105D01*
X44900Y89031D01*
X45271Y89105D01*
X45585Y89315D01*
X45795Y89629D01*
X45869Y90000D01*
X45795Y90371D01*
X45585Y90685D01*
X45271Y90895D01*
X44900Y90969D01*
D02*
G37*
G36*
X34700Y86469D02*
X34329Y86395D01*
X34015Y86185D01*
X33805Y85871D01*
X33731Y85500D01*
X33805Y85129D01*
X34015Y84815D01*
X34329Y84605D01*
X34700Y84531D01*
X35071Y84605D01*
X35385Y84815D01*
X35595Y85129D01*
X35669Y85500D01*
X35595Y85871D01*
X35385Y86185D01*
X35071Y86395D01*
X34700Y86469D01*
D02*
G37*
G36*
X28900Y85220D02*
X28510Y85142D01*
X28179Y84921D01*
X27958Y84590D01*
X27880Y84200D01*
X27958Y83810D01*
X28179Y83479D01*
X28510Y83258D01*
X28900Y83180D01*
X29290Y83258D01*
X29621Y83479D01*
X29842Y83810D01*
X29920Y84200D01*
X29842Y84590D01*
X29621Y84921D01*
X29290Y85142D01*
X28900Y85220D01*
D02*
G37*
G36*
X38200Y82769D02*
X37829Y82695D01*
X37515Y82485D01*
X37305Y82171D01*
X37231Y81800D01*
X37305Y81429D01*
X37515Y81115D01*
X37829Y80905D01*
X38200Y80831D01*
X38571Y80905D01*
X38885Y81115D01*
X39095Y81429D01*
X39169Y81800D01*
X39095Y82171D01*
X38885Y82485D01*
X38571Y82695D01*
X38200Y82769D01*
D02*
G37*
G36*
X28300Y80469D02*
X27929Y80395D01*
X27615Y80185D01*
X27405Y79871D01*
X27331Y79500D01*
X27405Y79129D01*
X27615Y78815D01*
X27929Y78605D01*
X28300Y78531D01*
X28671Y78605D01*
X28985Y78815D01*
X29195Y79129D01*
X29269Y79500D01*
X29195Y79871D01*
X28985Y80185D01*
X28671Y80395D01*
X28300Y80469D01*
D02*
G37*
G36*
X78446Y41808D02*
X78075Y41734D01*
X77761Y41524D01*
X77551Y41210D01*
X77522Y41064D01*
X77405Y40818D01*
X76996Y40698D01*
X76946Y40708D01*
X76575Y40634D01*
X76261Y40424D01*
X76051Y40110D01*
X76015Y39927D01*
X75489Y39830D01*
X75385Y39985D01*
X75071Y40195D01*
X74700Y40269D01*
X74329Y40195D01*
X74015Y39985D01*
X73805Y39671D01*
X73731Y39300D01*
X73805Y38929D01*
X74015Y38615D01*
X74329Y38405D01*
X74700Y38331D01*
X75071Y38405D01*
X75385Y38615D01*
X75595Y38929D01*
X75631Y39112D01*
X76158Y39209D01*
X76261Y39054D01*
X76575Y38844D01*
X76946Y38770D01*
X77317Y38844D01*
X77631Y39054D01*
X77841Y39368D01*
X77870Y39514D01*
X77988Y39761D01*
X78396Y39880D01*
X78446Y39871D01*
X78817Y39944D01*
X79131Y40154D01*
X79341Y40468D01*
X79415Y40839D01*
X79341Y41210D01*
X79131Y41524D01*
X78817Y41734D01*
X78446Y41808D01*
D02*
G37*
G36*
X68959Y40044D02*
X68588Y39970D01*
X68274Y39760D01*
X68064Y39446D01*
X67990Y39075D01*
X68064Y38705D01*
X68274Y38391D01*
X68588Y38181D01*
X68959Y38107D01*
X69329Y38181D01*
X69644Y38391D01*
X69854Y38705D01*
X69927Y39075D01*
X69854Y39446D01*
X69644Y39760D01*
X69329Y39970D01*
X68959Y40044D01*
D02*
G37*
G36*
X66059D02*
X65688Y39970D01*
X65374Y39760D01*
X65164Y39446D01*
X65090Y39075D01*
X65164Y38705D01*
X65374Y38391D01*
X65688Y38181D01*
X66059Y38107D01*
X66429Y38181D01*
X66744Y38391D01*
X66954Y38705D01*
X67027Y39075D01*
X66954Y39446D01*
X66744Y39760D01*
X66429Y39970D01*
X66059Y40044D01*
D02*
G37*
G36*
X52200Y40020D02*
X51810Y39942D01*
X51479Y39721D01*
X51258Y39390D01*
X51180Y39000D01*
X51258Y38610D01*
X51479Y38279D01*
X51810Y38058D01*
X52200Y37980D01*
X52590Y38058D01*
X52921Y38279D01*
X53393Y38086D01*
X53510Y38008D01*
X53900Y37930D01*
X54290Y38008D01*
X54621Y38229D01*
X54842Y38560D01*
X54920Y38950D01*
X54842Y39340D01*
X54621Y39671D01*
X54290Y39892D01*
X53900Y39970D01*
X53510Y39892D01*
X53179Y39671D01*
X52707Y39864D01*
X52590Y39942D01*
X52200Y40020D01*
D02*
G37*
G36*
X42400Y42020D02*
X42010Y41942D01*
X41679Y41721D01*
X41458Y41390D01*
X41380Y41000D01*
X41458Y40610D01*
X41679Y40279D01*
X42010Y40058D01*
X42400Y39980D01*
X42790Y40058D01*
X43282Y39785D01*
X43297Y39715D01*
X43269Y39692D01*
X43125Y39595D01*
X42904Y39264D01*
X42826Y38874D01*
X42904Y38484D01*
X43125Y38153D01*
X43455Y37932D01*
X43845Y37854D01*
X44236Y37932D01*
X44567Y38153D01*
X44787Y38484D01*
X44865Y38874D01*
X44787Y39264D01*
X45176Y39582D01*
X45321Y39679D01*
X45542Y40010D01*
X45620Y40400D01*
X45542Y40790D01*
X45321Y41121D01*
X44990Y41342D01*
X44600Y41420D01*
X44210Y41342D01*
X43879Y41121D01*
X43369Y41257D01*
X43342Y41390D01*
X43121Y41721D01*
X42790Y41942D01*
X42400Y42020D01*
D02*
G37*
G36*
X47600Y39620D02*
X47210Y39542D01*
X46879Y39321D01*
X46658Y38990D01*
X46580Y38600D01*
X46658Y38210D01*
X46879Y37879D01*
X47210Y37658D01*
X47600Y37580D01*
X47990Y37658D01*
X48321Y37879D01*
X48542Y38210D01*
X48620Y38600D01*
X48542Y38990D01*
X48321Y39321D01*
X47990Y39542D01*
X47600Y39620D01*
D02*
G37*
G36*
X57000Y40225D02*
X56493Y40125D01*
X56063Y39837D01*
X55775Y39407D01*
X55674Y38900D01*
X55775Y38393D01*
X56063Y37963D01*
X56493Y37675D01*
X57000Y37574D01*
X57507Y37675D01*
X57937Y37963D01*
X58225Y38393D01*
X58325Y38900D01*
X58225Y39407D01*
X57937Y39837D01*
X57507Y40125D01*
X57000Y40225D01*
D02*
G37*
G36*
X62800Y40168D02*
X62293Y40067D01*
X61863Y39780D01*
X61575Y39350D01*
X61475Y38842D01*
X61575Y38335D01*
X61863Y37905D01*
X62293Y37618D01*
X62800Y37517D01*
X63307Y37618D01*
X63737Y37905D01*
X64025Y38335D01*
X64126Y38842D01*
X64025Y39350D01*
X63737Y39780D01*
X63307Y40067D01*
X62800Y40168D01*
D02*
G37*
G36*
X69918Y34644D02*
X69527Y34567D01*
X69196Y34346D01*
X68976Y34015D01*
X68898Y33625D01*
X68976Y33235D01*
X69196Y32904D01*
X69527Y32683D01*
X69918Y32605D01*
X70308Y32683D01*
X70638Y32904D01*
X70859Y33235D01*
X70937Y33625D01*
X70859Y34015D01*
X70638Y34346D01*
X70308Y34567D01*
X69918Y34644D01*
D02*
G37*
G36*
X74200Y31420D02*
X73810Y31342D01*
X73479Y31121D01*
X73258Y30790D01*
X73180Y30400D01*
X73258Y30010D01*
X73479Y29679D01*
X73810Y29458D01*
X74200Y29380D01*
X74590Y29458D01*
X74921Y29679D01*
X75142Y30010D01*
X75220Y30400D01*
X75142Y30790D01*
X74921Y31121D01*
X74590Y31342D01*
X74200Y31420D01*
D02*
G37*
G36*
X45300Y30920D02*
X44910Y30842D01*
X44579Y30621D01*
X44358Y30290D01*
X44280Y29900D01*
X44358Y29510D01*
X44579Y29179D01*
X44910Y28958D01*
X45300Y28880D01*
X45690Y28958D01*
X46021Y29179D01*
X46242Y29510D01*
X46320Y29900D01*
X46242Y30290D01*
X46021Y30621D01*
X45690Y30842D01*
X45300Y30920D01*
D02*
G37*
G36*
X77400Y30620D02*
X77010Y30542D01*
X76679Y30321D01*
X76458Y29990D01*
X76380Y29600D01*
X76458Y29210D01*
X76679Y28879D01*
X77010Y28658D01*
X77400Y28580D01*
X77790Y28658D01*
X78121Y28879D01*
X78342Y29210D01*
X78420Y29600D01*
X78342Y29990D01*
X78121Y30321D01*
X77790Y30542D01*
X77400Y30620D01*
D02*
G37*
G36*
X67944Y30587D02*
X67554Y30509D01*
X67223Y30288D01*
X67002Y29958D01*
X66925Y29568D01*
X67002Y29177D01*
X67223Y28846D01*
X67554Y28626D01*
X67944Y28548D01*
X68334Y28626D01*
X68665Y28846D01*
X68886Y29177D01*
X68964Y29568D01*
X68886Y29958D01*
X68665Y30288D01*
X68334Y30509D01*
X67944Y30587D01*
D02*
G37*
G36*
X40300Y30520D02*
X39910Y30442D01*
X39579Y30221D01*
X39358Y29890D01*
X39280Y29500D01*
X39358Y29110D01*
X39579Y28779D01*
X39910Y28558D01*
X40300Y28480D01*
X40690Y28558D01*
X41021Y28779D01*
X41242Y29110D01*
X41320Y29500D01*
X41242Y29890D01*
X41021Y30221D01*
X40690Y30442D01*
X40300Y30520D01*
D02*
G37*
G36*
X64600Y29920D02*
X64210Y29842D01*
X63879Y29621D01*
X63658Y29290D01*
X63580Y28900D01*
X63658Y28510D01*
X63879Y28179D01*
X64210Y27958D01*
X64600Y27880D01*
X64990Y27958D01*
X65321Y28179D01*
X65542Y28510D01*
X65620Y28900D01*
X65542Y29290D01*
X65321Y29621D01*
X64990Y29842D01*
X64600Y29920D01*
D02*
G37*
G36*
X56870Y29508D02*
X56500Y29435D01*
X56185Y29225D01*
X55975Y28910D01*
X55902Y28540D01*
X55975Y28169D01*
X56185Y27855D01*
X56500Y27645D01*
X56870Y27571D01*
X57241Y27645D01*
X57555Y27855D01*
X57765Y28169D01*
X57839Y28540D01*
X57765Y28910D01*
X57555Y29225D01*
X57241Y29435D01*
X56870Y29508D01*
D02*
G37*
G36*
X59400Y29469D02*
X59029Y29395D01*
X58715Y29185D01*
X58505Y28871D01*
X58431Y28500D01*
X58505Y28129D01*
X58715Y27815D01*
X59029Y27605D01*
X59400Y27531D01*
X59771Y27605D01*
X59852Y27660D01*
X60026Y27637D01*
X60427Y27508D01*
X60440Y27497D01*
X60663Y27163D01*
X61093Y26875D01*
X61600Y26774D01*
X62107Y26875D01*
X62537Y27163D01*
X62825Y27593D01*
X62925Y28100D01*
X62825Y28607D01*
X62537Y29037D01*
X62107Y29325D01*
X61600Y29425D01*
X61093Y29325D01*
X60716Y29072D01*
X60647Y29040D01*
X60123Y29129D01*
X60085Y29185D01*
X59771Y29395D01*
X59400Y29469D01*
D02*
G37*
G36*
X60678Y22083D02*
X60307Y22009D01*
X59993Y21799D01*
X59783Y21485D01*
X59709Y21114D01*
X59783Y20743D01*
X59993Y20429D01*
X60307Y20219D01*
X60678Y20145D01*
X61049Y20219D01*
X61363Y20429D01*
X61573Y20743D01*
X61646Y21114D01*
X61573Y21485D01*
X61363Y21799D01*
X61049Y22009D01*
X60678Y22083D01*
D02*
G37*
%LPD*%
D17*
X54200Y92700D02*
X57275D01*
X59925Y90050D01*
X53400Y84800D02*
Y90400D01*
X51800Y83200D02*
X53400Y84800D01*
Y90400D02*
X54400Y91400D01*
X51800Y90300D02*
X54200Y92700D01*
X51800Y86300D02*
Y90300D01*
X54400Y91400D02*
X57006D01*
X59925Y88481D01*
D40*
X9600Y62600D02*
D03*
X24700Y51100D02*
D03*
X51800Y83200D02*
D03*
Y86300D02*
D03*
X59925Y90050D02*
D03*
X63075D02*
D03*
X59925Y88481D02*
D03*
X58350Y82182D02*
D03*
X83087Y25500D02*
D03*
X66224Y85331D02*
D03*
Y86906D02*
D03*
D100*
X28000Y35800D02*
Y47600D01*
X41900Y61500D01*
X22400Y74300D02*
X22427D01*
X23627Y73100D01*
X27800D01*
X22400Y74300D02*
X22419Y74281D01*
X66300Y61500D02*
X75200Y70400D01*
X41900Y61500D02*
X66300D01*
X51357Y70100D02*
X58355Y77097D01*
X75200Y70400D02*
Y77364D01*
X48000Y77800D02*
X52200D01*
X47900Y77700D02*
X48000Y77800D01*
D101*
X30800Y70100D02*
X51357D01*
X27800Y73100D02*
X30800Y70100D01*
X37700Y79600D02*
X38000Y79900D01*
X37700Y73000D02*
Y79600D01*
D102*
X72799Y79765D02*
Y85601D01*
X71494Y86906D02*
X72799Y85601D01*
X66224Y86906D02*
X71494D01*
X63075Y91975D02*
X65500Y94400D01*
X67300D01*
X63075Y90050D02*
Y91975D01*
D103*
X9600Y62600D02*
X17700D01*
X24700Y55600D01*
Y51100D02*
Y55600D01*
X72799Y79765D02*
X75200Y77364D01*
X71299Y76501D02*
X72600Y75200D01*
X71299Y76501D02*
Y80386D01*
X71300Y80387D02*
Y84300D01*
X70268Y85331D02*
X71300Y84300D01*
X52200Y77800D02*
X56582Y82182D01*
X58350D01*
X66224Y85331D02*
X70268D01*
D108*
X72600Y75187D02*
D03*
X38000Y79900D02*
D03*
X27500Y89600D02*
D03*
X38500Y91200D02*
D03*
X67300Y94400D02*
D03*
X72799Y79765D02*
D03*
D110*
X5200Y66000D02*
D03*
X36663Y22883D02*
D03*
X36660Y25149D02*
D03*
X15150Y52100D02*
D03*
X22400Y74300D02*
D03*
X36680Y29921D02*
D03*
X35700Y41400D02*
D03*
Y37600D02*
D03*
X36680Y27721D02*
D03*
X28500Y20000D02*
D03*
X32600D02*
D03*
X37700Y73000D02*
D03*
D111*
X28000Y35800D02*
D03*
X52200Y77800D02*
D03*
X55500Y7800D02*
D03*
D112*
X58355Y77097D02*
D03*
X54500Y95800D02*
D03*
M02*
