G04*
G04 #@! TF.GenerationSoftware,Altium Limited,Altium Designer,23.0.1 (38)*
G04*
G04 Layer_Physical_Order=6*
G04 Layer_Color=16711680*
%FSLAX25Y25*%
%MOIN*%
G70*
G04*
G04 #@! TF.SameCoordinates,78B848BC-93E4-4EEF-81BE-5096D5435DE8*
G04*
G04*
G04 #@! TF.FilePolarity,Positive*
G04*
G01*
G75*
%ADD10C,0.00600*%
%ADD14C,0.00500*%
%ADD17C,0.00400*%
%ADD40C,0.00900*%
%ADD99C,0.01200*%
%ADD100C,0.01500*%
%ADD101C,0.02000*%
%ADD102C,0.00800*%
%ADD103C,0.01000*%
%ADD104C,0.00700*%
%ADD105C,0.03000*%
%ADD106C,0.02500*%
%ADD107C,0.05000*%
%ADD108C,0.01000*%
%ADD109C,0.02000*%
%ADD110C,0.01600*%
%ADD111C,0.01200*%
%ADD112C,0.01400*%
%ADD113C,0.02500*%
%ADD114R,0.04537X0.01681*%
%ADD115R,0.03456X0.01181*%
D10*
X35000Y10100D02*
X41300Y3800D01*
X50401D01*
X26400Y10100D02*
X35000D01*
X16700Y19800D02*
X26400Y10100D01*
X14200Y19800D02*
X16700D01*
X12500Y41700D02*
X15895Y38305D01*
X12500Y63100D02*
X14000Y64600D01*
X12500Y41700D02*
Y63100D01*
X29600Y61500D02*
Y72900D01*
X28700Y73800D02*
Y75300D01*
X29600Y76200D01*
Y80600D01*
X28700Y73800D02*
X29600Y72900D01*
X28670Y81530D02*
X29600Y80600D01*
X34700Y70800D02*
Y79200D01*
X32100Y81800D02*
X34700Y79200D01*
X31736Y82164D02*
X32100Y81800D01*
X27575Y52375D02*
X38100Y62900D01*
X35900Y71600D02*
X38100Y69400D01*
X28625Y49825D02*
X39400Y60600D01*
X36900Y63600D02*
Y68600D01*
X38100Y62900D02*
Y69400D01*
X36400Y86800D02*
X39400Y83800D01*
X27622Y54322D02*
X36900Y63600D01*
X34700Y70800D02*
X36900Y68600D01*
X39400Y60600D02*
Y83800D01*
X27100Y81800D02*
X27370Y81530D01*
X28670D01*
X48700Y90100D02*
X53000D01*
X42000Y84500D02*
X44664Y87164D01*
X46800Y86122D02*
Y88200D01*
X48700Y90100D01*
X44664Y87164D02*
Y88064D01*
X48200Y91600D02*
X52700D01*
X44664Y88064D02*
X48200Y91600D01*
X11000Y40900D02*
Y64200D01*
X12800Y66000D01*
X11000Y40900D02*
X15564Y36336D01*
X15895Y38305D02*
X20400D01*
X15564Y36336D02*
X20400D01*
Y50116D02*
X20691Y49825D01*
X28625D01*
X20400Y52084D02*
X20691Y52375D01*
X27575D01*
X27602Y54343D02*
X27622Y54322D01*
X20691Y54343D02*
X27602D01*
X20400Y54053D02*
X20691Y54343D01*
X24400Y72900D02*
X26737Y75236D01*
Y76437D02*
X27100Y76800D01*
X26737Y75236D02*
Y76437D01*
X35900Y71600D02*
Y81900D01*
X29810Y44210D02*
X43600Y58000D01*
X20400Y46179D02*
X29679D01*
X42100Y58600D01*
X20400Y44210D02*
X29810D01*
X43600Y58000D02*
Y64800D01*
X49030Y70230D01*
X33700Y84100D02*
X35900Y81900D01*
X42100Y58600D02*
Y66100D01*
X46800Y70800D01*
X20400Y48147D02*
X29147D01*
X40700Y59700D02*
Y71700D01*
X29147Y48147D02*
X40700Y59700D01*
X49030Y71530D02*
X49300Y71800D01*
X49030Y70230D02*
Y71530D01*
X40700Y71700D02*
Y88300D01*
X40800Y71800D02*
X44300D01*
X40700Y71700D02*
X40800Y71800D01*
X40700Y88300D02*
X46500Y94100D01*
X42000Y75900D02*
X43400Y74500D01*
X42000Y75900D02*
Y84500D01*
X20400Y57990D02*
X26090D01*
X29600Y61500D01*
X23927Y61927D02*
X24400Y62400D01*
X20400Y61927D02*
X23927D01*
X24400Y62400D02*
Y72900D01*
X22500Y82300D02*
Y90200D01*
Y82300D02*
X26737Y78063D01*
Y77163D02*
X27100Y76800D01*
X26737Y77163D02*
Y78063D01*
X46500Y94100D02*
X58288D01*
X32100Y86800D02*
X36400D01*
X46800Y97200D02*
X59300D01*
X36400Y86800D02*
X46800Y97200D01*
X40700Y93200D02*
X45700Y98200D01*
X60399D01*
X27600Y93200D02*
X40700D01*
X29100Y88800D02*
Y90400D01*
X27900Y91600D02*
X29100Y90400D01*
X22500Y90200D02*
X27000Y94700D01*
X40200D01*
X24200Y89800D02*
X27600Y93200D01*
X24200Y84607D02*
Y89800D01*
X40200Y94700D02*
X44800Y99300D01*
X27100Y86800D02*
X29100Y88800D01*
X28900Y84200D02*
X30937Y82164D01*
X31736D01*
X28670Y86530D02*
X31100Y84100D01*
X33700D01*
X27370Y86530D02*
X28670D01*
X27100Y86800D02*
X27370Y86530D01*
X52700Y91600D02*
X53824Y92724D01*
X58331Y94057D02*
X58543D01*
X54500Y91600D02*
X69600D01*
X58543Y94057D02*
X58600Y94000D01*
X58288Y94100D02*
X58331Y94057D01*
X53824Y92724D02*
X66123D01*
X53000Y90100D02*
X54500Y91600D01*
X66123Y92724D02*
X66200Y92800D01*
X58319Y85300D02*
X58350Y85331D01*
X44800Y99300D02*
X58000D01*
X46800Y70800D02*
Y72886D01*
X45186Y74500D02*
X46800Y72886D01*
X59300Y97200D02*
X62577Y93923D01*
X62600D01*
X60399Y98200D02*
X62031Y99832D01*
X27007Y81800D02*
X27100D01*
X24200Y84607D02*
X27007Y81800D01*
X43400Y74500D02*
X45186D01*
X44300Y76800D02*
Y81800D01*
X44664Y76437D02*
X45763D01*
X48937Y73264D01*
Y72163D02*
X49300Y71800D01*
X44300Y81800D02*
Y83622D01*
Y76800D02*
X44664Y76437D01*
X48937Y72163D02*
Y73264D01*
X44300Y83622D02*
X46800Y86122D01*
X58000Y99300D02*
X58600Y99900D01*
D14*
X47800Y10100D02*
X54100Y3800D01*
X64900D01*
X63700Y6000D02*
X65400Y7700D01*
X71700D02*
X73500Y9500D01*
X65400Y7700D02*
X71700D01*
X73500Y16900D02*
X74700Y18100D01*
X73500Y9500D02*
Y16900D01*
X67300Y6200D02*
X72300D01*
X78600Y12500D01*
Y19600D01*
X54200Y6000D02*
X63700D01*
X64900Y3800D02*
X67300Y6200D01*
X76000Y22200D02*
X78600Y19600D01*
X74700Y26900D02*
X77400Y29600D01*
X74700Y18100D02*
Y26900D01*
X49669Y54769D02*
X54898Y49539D01*
Y46220D02*
Y49539D01*
X50200Y42300D02*
X57300D01*
X60100Y39500D01*
X48507Y40707D02*
Y44407D01*
X51600Y47500D02*
Y49500D01*
X48507Y44407D02*
X51600Y47500D01*
X15900Y55400D02*
X16600Y54700D01*
Y43773D02*
Y54700D01*
X19400Y42242D02*
X20400D01*
X18263D02*
X19400D01*
X17403Y42970D02*
X17535D01*
X18263Y42242D01*
X16600Y43773D02*
X17403Y42970D01*
X13700Y42900D02*
X16327Y40273D01*
X13700Y42900D02*
Y55800D01*
X22200Y77100D02*
X23500D01*
X19400Y74300D02*
X22200Y77100D01*
X19400Y70141D02*
Y74300D01*
X19740Y69801D02*
X20400D01*
X19400Y70141D02*
X19740Y69801D01*
X16700Y68700D02*
X17500Y67900D01*
X16700Y76000D02*
X17900Y77200D01*
X16700Y68700D02*
Y76000D01*
X20368Y67800D02*
X20400Y67832D01*
X52300Y19600D02*
X61800D01*
X69918Y27718D02*
Y33625D01*
X61800Y19600D02*
X69918Y27718D01*
X47800Y15100D02*
X52300Y19600D01*
X47600Y38600D02*
X48800D01*
X50600Y33200D02*
Y36800D01*
X48800Y38600D02*
X50600Y36800D01*
X14000Y66900D02*
X17005Y63895D01*
X20400D01*
X14000Y66900D02*
Y79700D01*
X16327Y40273D02*
X20400D01*
X48507Y40707D02*
X52800Y36414D01*
X61377Y23000D02*
X67944Y29568D01*
X52300Y23000D02*
X61377D01*
X44783Y15483D02*
X52300Y23000D01*
X44300Y25300D02*
X60500D01*
X44706Y27300D02*
X49700D01*
X42706Y25300D02*
X44706Y27300D01*
X42700Y25300D02*
X42706D01*
X42800Y15100D02*
X43183Y15483D01*
X44783D01*
X47259Y31000D02*
X47800D01*
X45396Y29996D02*
X46255D01*
X47259Y31000D01*
X45300Y29900D02*
X45396Y29996D01*
X17500Y67900D02*
X20332D01*
X20400Y67832D01*
X16100Y85000D02*
X17900Y83200D01*
Y77200D02*
Y83200D01*
X15400Y67400D02*
Y81765D01*
Y67400D02*
X16829Y65971D01*
X15400Y81765D02*
X16100Y82465D01*
Y82600D01*
X16829Y65971D02*
X20293D01*
X12900Y80800D02*
X14000Y79700D01*
X20293Y65971D02*
X20400Y65864D01*
X40396Y29596D02*
X41376D01*
X42780Y31000D02*
X42800D01*
X41376Y29596D02*
X42780Y31000D01*
X40300Y29500D02*
X40396Y29596D01*
X53100Y7100D02*
Y9800D01*
Y7100D02*
X54200Y6000D01*
X74200Y29600D02*
Y30400D01*
X62691Y18091D02*
X74200Y29600D01*
X52800Y36000D02*
Y36414D01*
X65000Y80100D02*
X66200Y78900D01*
X65000Y80100D02*
Y82584D01*
X60100Y33300D02*
Y39500D01*
X52200Y39018D02*
X53482Y40300D01*
X54600D01*
X55400Y39500D01*
X52200Y39000D02*
Y39018D01*
X55400Y33400D02*
Y39500D01*
Y33400D02*
X57800Y31000D01*
X50600Y33200D02*
X52800Y31000D01*
X62400D02*
X62800D01*
X60100Y33300D02*
X62400Y31000D01*
X55791Y18091D02*
X62691D01*
X52800Y15100D02*
X55791Y18091D01*
X52800Y10100D02*
X53100Y9800D01*
X65000Y82584D02*
X66173Y83757D01*
X66224D01*
D17*
X22417Y34717D02*
X45300Y57600D01*
X20400Y34368D02*
X20750Y34717D01*
X22417D01*
X45300Y57600D02*
Y63900D01*
X46200Y37600D02*
X47800Y36000D01*
X46200Y37600D02*
Y41200D01*
X45100Y42300D02*
X46200Y41200D01*
X43700Y42300D02*
X45100D01*
X42400Y41000D02*
X43700Y42300D01*
X44600Y40238D02*
X45100Y39738D01*
Y38100D02*
Y39738D01*
X44600Y40238D02*
Y40400D01*
X43000Y36000D02*
X45100Y38100D01*
X42800Y36000D02*
X43000D01*
X52802Y74800D02*
X54200D01*
X51404D02*
X52802D01*
X45300Y63900D02*
X52802Y71402D01*
Y74800D01*
X62600Y83200D02*
Y84300D01*
X61600Y85300D02*
Y87006D01*
Y85300D02*
X62600Y84300D01*
X54200Y74800D02*
X62600Y83200D01*
X61600Y87006D02*
X63075Y88481D01*
X49712Y76492D02*
X51404Y74800D01*
X49608Y76492D02*
X49712D01*
X49300Y76800D02*
X49608Y76492D01*
X49868Y86800D02*
X50464Y86204D01*
X51704D01*
X49300Y86800D02*
X49868D01*
X51704Y86204D02*
X51800Y86300D01*
X55100Y86600D02*
Y90300D01*
X53300Y84800D02*
X55100Y86600D01*
X51800Y84800D02*
X53300D01*
X50708Y83200D02*
X51800D01*
X49300Y81800D02*
X49308D01*
X50708Y83200D01*
X49300Y81800D02*
X49416Y81916D01*
D40*
X79600Y21400D02*
D03*
X9516Y25649D02*
D03*
X35300Y67600D02*
D03*
X28300Y79500D02*
D03*
X34700Y85500D02*
D03*
X60678Y21114D02*
D03*
X35400Y58400D02*
D03*
X59400Y28500D02*
D03*
X52000Y81400D02*
D03*
X9600Y60600D02*
D03*
Y62600D02*
D03*
X24700Y51100D02*
D03*
X56870Y28540D02*
D03*
X13575Y30187D02*
D03*
X42713Y26862D02*
D03*
X41100D02*
D03*
X44300Y23700D02*
D03*
X42700D02*
D03*
X44300Y25300D02*
D03*
X42700D02*
D03*
X61500Y83757D02*
D03*
X38200Y81800D02*
D03*
X44900Y90000D02*
D03*
X50800Y79500D02*
D03*
X63075Y86906D02*
D03*
X66224Y88481D02*
D03*
X64650Y85331D02*
D03*
X63075D02*
D03*
X51800Y83200D02*
D03*
Y84800D02*
D03*
Y86300D02*
D03*
X58350Y88481D02*
D03*
X56776Y90056D02*
D03*
X58600Y94000D02*
D03*
X59925Y90050D02*
D03*
X55100Y90300D02*
D03*
X51100Y92900D02*
D03*
X58350Y85331D02*
D03*
Y86900D02*
D03*
X63075Y90050D02*
D03*
X61500Y88481D02*
D03*
X59925D02*
D03*
X58350Y83757D02*
D03*
X59925D02*
D03*
X93800Y75300D02*
D03*
X92300Y76800D02*
D03*
X90900Y75800D02*
D03*
X63075Y82182D02*
D03*
X56700Y78800D02*
D03*
X58350Y80607D02*
D03*
X59925Y82182D02*
D03*
X58350D02*
D03*
X85044Y18877D02*
D03*
X81513Y27075D02*
D03*
X83087Y25500D02*
D03*
X71865Y16984D02*
D03*
X66224Y85331D02*
D03*
Y86906D02*
D03*
X68959Y39075D02*
D03*
X66059D02*
D03*
X74700Y39300D02*
D03*
X76946Y39739D02*
D03*
X78446Y40839D02*
D03*
X78346Y48239D02*
D03*
X62031Y99832D02*
D03*
X87414Y83255D02*
D03*
X66224Y83757D02*
D03*
X67799D02*
D03*
X66200Y78900D02*
D03*
X66224Y82182D02*
D03*
X56700Y100600D02*
D03*
X72100Y96300D02*
D03*
X80965Y49584D02*
D03*
X81065Y45784D02*
D03*
X81365Y62084D02*
D03*
Y64684D02*
D03*
X66400Y95900D02*
D03*
X63075Y88481D02*
D03*
X66500Y98100D02*
D03*
X66224Y80607D02*
D03*
X67799Y82182D02*
D03*
D99*
X32100Y65300D02*
X34892D01*
X32100D02*
Y71800D01*
Y61200D02*
Y65300D01*
X27100Y62100D02*
Y71800D01*
X24958Y59958D02*
X27100Y62100D01*
X26921Y56021D02*
X32100Y61200D01*
X20400Y56021D02*
X26921D01*
X20400Y59958D02*
X24958D01*
D100*
X57000Y37071D02*
X57800Y36271D01*
Y36000D02*
Y36271D01*
X57000Y37071D02*
Y38873D01*
X62800Y36000D02*
Y38842D01*
X55500Y7800D02*
X57800Y10100D01*
D101*
X70900D02*
X71000Y10000D01*
X62800Y10100D02*
X70900D01*
D102*
X66224Y88481D02*
X82019D01*
X83900Y86600D01*
D103*
X3400Y43000D02*
Y54700D01*
Y43000D02*
X23500Y22900D01*
X33400D01*
X35400Y13500D02*
X38800Y10100D01*
X42800D01*
X35400Y13500D02*
Y20900D01*
X33400Y22900D02*
X35400Y20900D01*
X33400Y22900D02*
Y30200D01*
X35200Y32000D01*
X37600D01*
X39419Y33819D01*
Y37519D01*
X40774Y38874D02*
X43845D01*
X39419Y37519D02*
X40774Y38874D01*
D104*
X58350Y80607D02*
X58369Y80626D01*
X59906Y82163D02*
X59925Y82182D01*
D105*
X62900Y15000D02*
X67500D01*
X62800Y15100D02*
X62900Y15000D01*
D106*
X57700Y15100D02*
X57800D01*
X55200Y12600D02*
X57700Y15100D01*
D107*
X85451Y65917D02*
D03*
Y36300D02*
D03*
D108*
X50401Y3800D02*
D03*
X76000Y22200D02*
D03*
X14200Y19800D02*
D03*
X46385Y45815D02*
D03*
X49669Y54769D02*
D03*
X52300Y43500D02*
D03*
X50200Y42300D02*
D03*
X47500Y51100D02*
D03*
X54898Y46220D02*
D03*
X15900Y55400D02*
D03*
X15000Y54100D02*
D03*
X24000Y75600D02*
D03*
X23500Y77100D02*
D03*
X20800Y71800D02*
D03*
X18100Y71900D02*
D03*
X38124Y98931D02*
D03*
X42400Y41000D02*
D03*
X44600Y40400D02*
D03*
X45800Y54500D02*
D03*
X79021Y75058D02*
D03*
X12800Y66000D02*
D03*
X14000Y64600D02*
D03*
X47613Y59033D02*
D03*
X13700Y55800D02*
D03*
X51600Y49500D02*
D03*
X45900Y52700D02*
D03*
X72600Y75187D02*
D03*
X60500Y25300D02*
D03*
X49700Y27300D02*
D03*
X43845Y38874D02*
D03*
X45300Y29900D02*
D03*
X38000Y79900D02*
D03*
X16100Y85000D02*
D03*
X23200Y79400D02*
D03*
X12900Y80800D02*
D03*
X52200Y76000D02*
D03*
X33167Y90207D02*
D03*
X27900Y91600D02*
D03*
X27500Y89600D02*
D03*
X16100Y82600D02*
D03*
X38500Y91200D02*
D03*
X28900Y84200D02*
D03*
X55200Y78100D02*
D03*
X66200Y92800D02*
D03*
X40500Y97100D02*
D03*
X63831Y72983D02*
D03*
X56900Y71700D02*
D03*
X78300Y92400D02*
D03*
X40300Y29500D02*
D03*
X74200Y30400D02*
D03*
X62600Y93923D02*
D03*
X77540Y66944D02*
D03*
X58750Y73000D02*
D03*
X83900Y86600D02*
D03*
X67300Y94400D02*
D03*
X58600Y99900D02*
D03*
X60171Y100051D02*
D03*
X55000Y100735D02*
D03*
X53900Y38950D02*
D03*
X52200Y39000D02*
D03*
X47600Y38600D02*
D03*
X64600Y28900D02*
D03*
X67944Y29568D02*
D03*
X69918Y33625D02*
D03*
X77400Y29600D02*
D03*
X81300Y66600D02*
D03*
X69600Y91600D02*
D03*
X40442Y99700D02*
D03*
X72799Y79765D02*
D03*
X87400Y79732D02*
D03*
D109*
X71000Y10000D02*
D03*
X72200Y22200D02*
D03*
X76700Y15000D02*
D03*
X55200Y12600D02*
D03*
X67500Y15000D02*
D03*
D110*
X21000Y28500D02*
D03*
X23000D02*
D03*
X5200Y66000D02*
D03*
X36663Y22883D02*
D03*
X36660Y25149D02*
D03*
X57000Y38900D02*
D03*
X15150Y52100D02*
D03*
X22400Y74300D02*
D03*
X35000Y65300D02*
D03*
X9200Y65200D02*
D03*
X62800Y38842D02*
D03*
X61600Y28100D02*
D03*
X48177Y64000D02*
D03*
X50677D02*
D03*
X3400Y54700D02*
D03*
X27100Y65800D02*
D03*
X77600Y71700D02*
D03*
X32406Y96283D02*
D03*
X12500Y21100D02*
D03*
X36680Y29921D02*
D03*
X35500Y34000D02*
D03*
X3600Y60800D02*
D03*
X35700Y41400D02*
D03*
X28100Y33500D02*
D03*
X35700Y37600D02*
D03*
X36680Y27721D02*
D03*
X28500Y20000D02*
D03*
X32600D02*
D03*
X31100Y6900D02*
D03*
X35900Y4900D02*
D03*
X43800Y19100D02*
D03*
X37700Y73000D02*
D03*
X20633Y89070D02*
D03*
X90876Y22893D02*
D03*
X81300Y30100D02*
D03*
D111*
X28000Y35800D02*
D03*
X36453Y46694D02*
D03*
X8453Y43894D02*
D03*
X9300Y76000D02*
D03*
X12308Y69040D02*
D03*
X41685Y18100D02*
D03*
X39500Y13100D02*
D03*
X46200Y19500D02*
D03*
Y12700D02*
D03*
X52200Y77800D02*
D03*
X55500Y7800D02*
D03*
D112*
X58355Y77097D02*
D03*
X54500Y95800D02*
D03*
D113*
X62800Y36000D02*
D03*
Y31000D02*
D03*
X57800Y36000D02*
D03*
X47800D02*
D03*
Y31000D02*
D03*
X42800D02*
D03*
Y36000D02*
D03*
X57800Y31000D02*
D03*
X52800Y36000D02*
D03*
Y31000D02*
D03*
X62800Y15100D02*
D03*
Y10100D02*
D03*
X57800Y15100D02*
D03*
X47800D02*
D03*
Y10100D02*
D03*
X42800D02*
D03*
Y15100D02*
D03*
X57800Y10100D02*
D03*
X52800Y15100D02*
D03*
Y10100D02*
D03*
X27100Y86800D02*
D03*
X32100D02*
D03*
Y81800D02*
D03*
X27100D02*
D03*
Y71800D02*
D03*
X32100D02*
D03*
Y76800D02*
D03*
X27100D02*
D03*
X44300Y86800D02*
D03*
X49300D02*
D03*
Y81800D02*
D03*
X44300D02*
D03*
Y71800D02*
D03*
X49300D02*
D03*
Y76800D02*
D03*
X44300D02*
D03*
D114*
X8800Y29400D02*
D03*
Y72800D02*
D03*
D115*
X19400Y69801D02*
D03*
Y67832D02*
D03*
Y65864D02*
D03*
Y63895D02*
D03*
Y61927D02*
D03*
Y59958D02*
D03*
Y57990D02*
D03*
Y56021D02*
D03*
Y54053D02*
D03*
Y52084D02*
D03*
Y50116D02*
D03*
Y48147D02*
D03*
Y46179D02*
D03*
Y44210D02*
D03*
Y42242D02*
D03*
Y40273D02*
D03*
Y38305D02*
D03*
Y36336D02*
D03*
Y34368D02*
D03*
Y32399D02*
D03*
M02*
