G04*
G04 #@! TF.GenerationSoftware,Altium Limited,Altium Designer,23.0.1 (38)*
G04*
G04 Layer_Color=32896*
%FSLAX25Y25*%
%MOIN*%
G70*
G04*
G04 #@! TF.SameCoordinates,78B848BC-93E4-4EEF-81BE-5096D5435DE8*
G04*
G04*
G04 #@! TF.FilePolarity,Positive*
G04*
G01*
G75*
%ADD13C,0.00984*%
%ADD14C,0.00500*%
G36*
X44436Y24464D02*
X44536Y24446D01*
X44621Y24416D01*
X44695Y24386D01*
X44729Y24368D01*
X44755Y24353D01*
X44780Y24338D01*
X44799Y24324D01*
X44814Y24312D01*
X44825Y24305D01*
X44832Y24301D01*
X44836Y24298D01*
X44906Y24227D01*
X44962Y24150D01*
X45006Y24068D01*
X45043Y23987D01*
X45065Y23916D01*
X45077Y23887D01*
X45084Y23861D01*
X45088Y23839D01*
X45091Y23824D01*
X45095Y23813D01*
Y23809D01*
X44780Y23754D01*
X44766Y23835D01*
X44743Y23905D01*
X44718Y23965D01*
X44692Y24013D01*
X44666Y24050D01*
X44644Y24076D01*
X44629Y24094D01*
X44625Y24098D01*
X44577Y24135D01*
X44525Y24164D01*
X44477Y24183D01*
X44429Y24198D01*
X44385Y24205D01*
X44351Y24213D01*
X44322D01*
X44255Y24209D01*
X44196Y24194D01*
X44144Y24175D01*
X44100Y24157D01*
X44066Y24135D01*
X44041Y24116D01*
X44022Y24102D01*
X44018Y24098D01*
X43978Y24053D01*
X43948Y24005D01*
X43929Y23957D01*
X43915Y23913D01*
X43907Y23872D01*
X43900Y23843D01*
Y23820D01*
Y23817D01*
Y23813D01*
Y23772D01*
X43907Y23735D01*
X43926Y23672D01*
X43952Y23617D01*
X43981Y23569D01*
X44011Y23535D01*
X44037Y23509D01*
X44055Y23495D01*
X44059Y23491D01*
X44063D01*
X44126Y23458D01*
X44185Y23432D01*
X44248Y23413D01*
X44303Y23402D01*
X44351Y23395D01*
X44392Y23387D01*
X44440D01*
X44455Y23391D01*
X44473D01*
X44510Y23114D01*
X44462Y23125D01*
X44418Y23132D01*
X44381Y23140D01*
X44348Y23143D01*
X44322Y23147D01*
X44288D01*
X44211Y23140D01*
X44140Y23125D01*
X44078Y23102D01*
X44026Y23077D01*
X43985Y23051D01*
X43955Y23029D01*
X43937Y23014D01*
X43929Y23006D01*
X43881Y22951D01*
X43844Y22892D01*
X43819Y22832D01*
X43804Y22773D01*
X43793Y22725D01*
X43789Y22684D01*
X43785Y22670D01*
Y22659D01*
Y22651D01*
Y22647D01*
X43793Y22566D01*
X43811Y22492D01*
X43833Y22429D01*
X43863Y22374D01*
X43892Y22329D01*
X43915Y22296D01*
X43933Y22274D01*
X43941Y22266D01*
X44000Y22215D01*
X44063Y22177D01*
X44126Y22152D01*
X44185Y22133D01*
X44237Y22122D01*
X44277Y22118D01*
X44292Y22115D01*
X44314D01*
X44381Y22118D01*
X44444Y22133D01*
X44499Y22152D01*
X44544Y22174D01*
X44581Y22192D01*
X44610Y22211D01*
X44625Y22226D01*
X44633Y22229D01*
X44677Y22281D01*
X44714Y22340D01*
X44747Y22403D01*
X44773Y22470D01*
X44792Y22525D01*
X44799Y22551D01*
X44803Y22573D01*
X44806Y22592D01*
X44810Y22607D01*
X44814Y22614D01*
Y22618D01*
X45128Y22577D01*
X45121Y22518D01*
X45110Y22462D01*
X45077Y22359D01*
X45036Y22270D01*
X45014Y22233D01*
X44991Y22196D01*
X44969Y22163D01*
X44947Y22137D01*
X44929Y22111D01*
X44910Y22092D01*
X44899Y22078D01*
X44888Y22066D01*
X44880Y22059D01*
X44877Y22055D01*
X44832Y22022D01*
X44788Y21989D01*
X44743Y21963D01*
X44695Y21941D01*
X44603Y21904D01*
X44514Y21881D01*
X44473Y21874D01*
X44436Y21867D01*
X44403Y21863D01*
X44374Y21859D01*
X44351Y21856D01*
X44318D01*
X44248Y21859D01*
X44185Y21867D01*
X44122Y21878D01*
X44063Y21893D01*
X44007Y21911D01*
X43959Y21930D01*
X43911Y21952D01*
X43870Y21974D01*
X43830Y21993D01*
X43796Y22015D01*
X43767Y22033D01*
X43745Y22052D01*
X43726Y22066D01*
X43711Y22078D01*
X43704Y22085D01*
X43700Y22089D01*
X43656Y22133D01*
X43619Y22181D01*
X43585Y22229D01*
X43556Y22277D01*
X43534Y22322D01*
X43511Y22370D01*
X43482Y22459D01*
X43474Y22499D01*
X43467Y22536D01*
X43460Y22570D01*
X43456Y22599D01*
X43452Y22622D01*
Y22640D01*
Y22651D01*
Y22655D01*
X43456Y22744D01*
X43471Y22825D01*
X43493Y22895D01*
X43515Y22954D01*
X43537Y23003D01*
X43560Y23040D01*
X43574Y23062D01*
X43578Y23069D01*
X43630Y23125D01*
X43685Y23173D01*
X43745Y23210D01*
X43804Y23239D01*
X43856Y23262D01*
X43896Y23276D01*
X43911Y23280D01*
X43922Y23284D01*
X43929Y23288D01*
X43933D01*
X43870Y23321D01*
X43819Y23354D01*
X43774Y23391D01*
X43737Y23424D01*
X43707Y23454D01*
X43685Y23480D01*
X43674Y23495D01*
X43670Y23502D01*
X43641Y23554D01*
X43619Y23606D01*
X43600Y23658D01*
X43589Y23706D01*
X43582Y23746D01*
X43578Y23776D01*
Y23798D01*
Y23806D01*
X43582Y23868D01*
X43593Y23931D01*
X43608Y23987D01*
X43626Y24035D01*
X43645Y24076D01*
X43659Y24109D01*
X43670Y24127D01*
X43674Y24135D01*
X43711Y24190D01*
X43756Y24238D01*
X43800Y24279D01*
X43844Y24316D01*
X43881Y24342D01*
X43915Y24364D01*
X43937Y24375D01*
X43941Y24379D01*
X43944D01*
X44011Y24409D01*
X44078Y24431D01*
X44144Y24449D01*
X44203Y24460D01*
X44251Y24468D01*
X44292Y24472D01*
X44385D01*
X44436Y24464D01*
D02*
G37*
G36*
X47174Y24409D02*
X47215Y24349D01*
X47263Y24290D01*
X47308Y24238D01*
X47352Y24194D01*
X47385Y24157D01*
X47400Y24146D01*
X47411Y24135D01*
X47415Y24131D01*
X47419Y24127D01*
X47496Y24065D01*
X47574Y24005D01*
X47648Y23954D01*
X47722Y23913D01*
X47785Y23876D01*
X47811Y23861D01*
X47833Y23850D01*
X47851Y23839D01*
X47866Y23835D01*
X47874Y23828D01*
X47877D01*
Y23524D01*
X47822Y23547D01*
X47766Y23572D01*
X47711Y23598D01*
X47659Y23624D01*
X47615Y23646D01*
X47578Y23665D01*
X47556Y23680D01*
X47552Y23683D01*
X47548D01*
X47482Y23724D01*
X47422Y23765D01*
X47370Y23802D01*
X47330Y23835D01*
X47293Y23861D01*
X47271Y23883D01*
X47252Y23898D01*
X47248Y23902D01*
Y21900D01*
X46934D01*
Y24472D01*
X47137D01*
X47174Y24409D01*
D02*
G37*
G36*
X59910Y21900D02*
X59569D01*
Y23106D01*
X58245D01*
Y21900D01*
X57904D01*
Y24460D01*
X58245D01*
Y23410D01*
X59569D01*
Y24460D01*
X59910D01*
Y21900D01*
D02*
G37*
G36*
X50312D02*
X50012D01*
X49306Y23757D01*
X49631D01*
X50042Y22622D01*
X50068Y22547D01*
X50094Y22481D01*
X50112Y22418D01*
X50131Y22370D01*
X50142Y22325D01*
X50153Y22296D01*
X50157Y22277D01*
X50160Y22270D01*
X50182Y22340D01*
X50201Y22411D01*
X50223Y22474D01*
X50242Y22529D01*
X50257Y22577D01*
X50268Y22614D01*
X50271Y22625D01*
X50275Y22636D01*
X50279Y22640D01*
Y22644D01*
X50678Y23757D01*
X51011D01*
X50312Y21900D01*
D02*
G37*
G36*
X52118Y23794D02*
X52184Y23787D01*
X52247Y23776D01*
X52306Y23757D01*
X52362Y23739D01*
X52414Y23717D01*
X52462Y23695D01*
X52502Y23669D01*
X52543Y23646D01*
X52576Y23620D01*
X52606Y23598D01*
X52628Y23580D01*
X52647Y23561D01*
X52662Y23550D01*
X52669Y23543D01*
X52673Y23539D01*
X52713Y23487D01*
X52750Y23432D01*
X52784Y23376D01*
X52813Y23317D01*
X52835Y23254D01*
X52854Y23195D01*
X52883Y23077D01*
X52895Y23025D01*
X52902Y22973D01*
X52906Y22929D01*
X52909Y22888D01*
X52913Y22855D01*
Y22832D01*
Y22814D01*
Y22810D01*
X52909Y22729D01*
X52902Y22651D01*
X52891Y22577D01*
X52876Y22511D01*
X52858Y22448D01*
X52839Y22388D01*
X52817Y22337D01*
X52795Y22288D01*
X52772Y22248D01*
X52750Y22211D01*
X52732Y22181D01*
X52713Y22155D01*
X52698Y22133D01*
X52687Y22118D01*
X52680Y22111D01*
X52676Y22107D01*
X52628Y22063D01*
X52580Y22026D01*
X52528Y21993D01*
X52473Y21963D01*
X52421Y21941D01*
X52365Y21918D01*
X52262Y21889D01*
X52214Y21881D01*
X52169Y21874D01*
X52129Y21867D01*
X52095Y21863D01*
X52069Y21859D01*
X52029D01*
X51914Y21867D01*
X51810Y21885D01*
X51718Y21907D01*
X51681Y21922D01*
X51644Y21937D01*
X51611Y21952D01*
X51581Y21967D01*
X51559Y21978D01*
X51537Y21989D01*
X51522Y22000D01*
X51511Y22007D01*
X51503Y22015D01*
X51500D01*
X51426Y22081D01*
X51367Y22152D01*
X51315Y22226D01*
X51278Y22296D01*
X51248Y22359D01*
X51237Y22388D01*
X51226Y22411D01*
X51218Y22433D01*
X51215Y22448D01*
X51211Y22455D01*
Y22459D01*
X51537Y22499D01*
X51566Y22429D01*
X51600Y22370D01*
X51633Y22318D01*
X51662Y22277D01*
X51688Y22248D01*
X51711Y22226D01*
X51729Y22211D01*
X51733Y22207D01*
X51781Y22177D01*
X51829Y22155D01*
X51881Y22140D01*
X51925Y22129D01*
X51966Y22122D01*
X51999Y22118D01*
X52029D01*
X52073Y22122D01*
X52114Y22126D01*
X52188Y22144D01*
X52254Y22170D01*
X52314Y22200D01*
X52358Y22226D01*
X52391Y22252D01*
X52414Y22270D01*
X52417Y22277D01*
X52421D01*
X52473Y22344D01*
X52513Y22418D01*
X52543Y22499D01*
X52565Y22573D01*
X52576Y22640D01*
X52584Y22670D01*
X52587Y22695D01*
Y22718D01*
X52591Y22733D01*
Y22744D01*
Y22747D01*
X51204D01*
X51200Y22784D01*
Y22810D01*
Y22825D01*
Y22829D01*
X51204Y22914D01*
X51211Y22991D01*
X51222Y23065D01*
X51237Y23136D01*
X51256Y23199D01*
X51274Y23258D01*
X51296Y23310D01*
X51318Y23358D01*
X51341Y23402D01*
X51363Y23439D01*
X51381Y23469D01*
X51400Y23495D01*
X51415Y23517D01*
X51426Y23532D01*
X51433Y23539D01*
X51437Y23543D01*
X51481Y23587D01*
X51529Y23628D01*
X51581Y23661D01*
X51633Y23691D01*
X51685Y23717D01*
X51733Y23735D01*
X51785Y23754D01*
X51829Y23765D01*
X51877Y23776D01*
X51918Y23783D01*
X51955Y23791D01*
X51984Y23794D01*
X52010Y23798D01*
X52047D01*
X52118Y23794D01*
D02*
G37*
G36*
X62300Y24157D02*
X61456D01*
Y21900D01*
X61116D01*
Y24157D01*
X60272D01*
Y24460D01*
X62300D01*
Y24157D01*
D02*
G37*
G36*
X55344Y21900D02*
X55004D01*
Y23036D01*
X54567D01*
X54526Y23032D01*
X54497D01*
X54471Y23029D01*
X54452Y23025D01*
X54438D01*
X54430Y23021D01*
X54426D01*
X54367Y23003D01*
X54341Y22991D01*
X54319Y22980D01*
X54297Y22969D01*
X54282Y22962D01*
X54275Y22958D01*
X54271Y22954D01*
X54241Y22932D01*
X54212Y22906D01*
X54156Y22851D01*
X54130Y22825D01*
X54112Y22803D01*
X54101Y22788D01*
X54097Y22784D01*
X54060Y22733D01*
X54019Y22677D01*
X53979Y22618D01*
X53938Y22562D01*
X53905Y22511D01*
X53879Y22470D01*
X53868Y22455D01*
X53860Y22444D01*
X53853Y22436D01*
Y22433D01*
X53516Y21900D01*
X53094D01*
X53535Y22596D01*
X53587Y22670D01*
X53635Y22736D01*
X53683Y22792D01*
X53723Y22843D01*
X53760Y22881D01*
X53790Y22910D01*
X53808Y22929D01*
X53816Y22936D01*
X53846Y22958D01*
X53879Y22984D01*
X53945Y23025D01*
X53975Y23040D01*
X53997Y23054D01*
X54012Y23062D01*
X54019Y23065D01*
X53953Y23077D01*
X53890Y23088D01*
X53834Y23106D01*
X53779Y23121D01*
X53731Y23140D01*
X53686Y23162D01*
X53646Y23180D01*
X53609Y23199D01*
X53579Y23221D01*
X53549Y23239D01*
X53527Y23254D01*
X53509Y23269D01*
X53494Y23280D01*
X53483Y23291D01*
X53479Y23295D01*
X53475Y23299D01*
X53446Y23336D01*
X53416Y23373D01*
X53372Y23450D01*
X53342Y23528D01*
X53320Y23602D01*
X53305Y23665D01*
X53302Y23691D01*
Y23717D01*
X53298Y23735D01*
Y23750D01*
Y23757D01*
Y23761D01*
X53302Y23839D01*
X53313Y23909D01*
X53331Y23976D01*
X53350Y24031D01*
X53372Y24079D01*
X53387Y24116D01*
X53401Y24138D01*
X53405Y24142D01*
Y24146D01*
X53450Y24205D01*
X53494Y24257D01*
X53542Y24301D01*
X53587Y24335D01*
X53627Y24361D01*
X53661Y24375D01*
X53683Y24386D01*
X53686Y24390D01*
X53690D01*
X53723Y24401D01*
X53764Y24412D01*
X53846Y24431D01*
X53934Y24442D01*
X54016Y24453D01*
X54093Y24457D01*
X54127D01*
X54156Y24460D01*
X55344D01*
Y21900D01*
D02*
G37*
G36*
X45950D02*
X45591D01*
Y22259D01*
X45950D01*
Y21900D01*
D02*
G37*
G36*
X57298D02*
X57120D01*
X57124Y21845D01*
X57131Y21796D01*
X57142Y21752D01*
X57150Y21719D01*
X57161Y21693D01*
X57168Y21671D01*
X57172Y21659D01*
X57175Y21656D01*
X57194Y21626D01*
X57216Y21600D01*
X57242Y21578D01*
X57264Y21560D01*
X57287Y21545D01*
X57305Y21534D01*
X57316Y21530D01*
X57320Y21526D01*
X57231Y21393D01*
X57179Y21419D01*
X57131Y21452D01*
X57094Y21482D01*
X57064Y21511D01*
X57039Y21541D01*
X57024Y21563D01*
X57013Y21578D01*
X57009Y21582D01*
X56987Y21630D01*
X56968Y21682D01*
X56957Y21737D01*
X56946Y21785D01*
X56942Y21833D01*
X56939Y21867D01*
Y21881D01*
Y21893D01*
Y21896D01*
Y21900D01*
Y22259D01*
X57298D01*
Y21900D01*
D02*
G37*
G36*
X57866Y62356D02*
X57315D01*
Y62984D01*
X57866D01*
Y62356D01*
D02*
G37*
G36*
X46364D02*
X45813D01*
Y62984D01*
X46364D01*
Y62356D01*
D02*
G37*
G36*
X51826Y61818D02*
X51969Y61792D01*
X52105Y61759D01*
X52215Y61727D01*
X52312Y61688D01*
X52351Y61669D01*
X52384Y61656D01*
X52410Y61643D01*
X52429Y61630D01*
X52442Y61623D01*
X52448D01*
X52572Y61546D01*
X52682Y61448D01*
X52772Y61351D01*
X52850Y61254D01*
X52909Y61170D01*
X52947Y61098D01*
X52960Y61073D01*
X52973Y61053D01*
X52980Y61040D01*
Y61034D01*
X53038Y60878D01*
X53077Y60723D01*
X53109Y60567D01*
X53129Y60425D01*
X53135Y60360D01*
X53142Y60301D01*
Y60250D01*
X53148Y60204D01*
Y60165D01*
Y60139D01*
Y60120D01*
Y60114D01*
X53142Y59965D01*
X53129Y59828D01*
X53109Y59692D01*
X53083Y59576D01*
X53058Y59459D01*
X53019Y59362D01*
X52986Y59265D01*
X52947Y59180D01*
X52909Y59109D01*
X52876Y59044D01*
X52837Y58986D01*
X52811Y58941D01*
X52785Y58908D01*
X52766Y58882D01*
X52753Y58869D01*
X52747Y58863D01*
X52669Y58785D01*
X52585Y58720D01*
X52500Y58662D01*
X52410Y58610D01*
X52319Y58571D01*
X52235Y58532D01*
X52060Y58481D01*
X51982Y58468D01*
X51911Y58455D01*
X51846Y58442D01*
X51788Y58435D01*
X51742Y58429D01*
X51677D01*
X51580Y58435D01*
X51483Y58442D01*
X51315Y58481D01*
X51159Y58526D01*
X51029Y58584D01*
X50977Y58617D01*
X50926Y58643D01*
X50880Y58669D01*
X50848Y58694D01*
X50822Y58714D01*
X50803Y58727D01*
X50790Y58733D01*
X50783Y58740D01*
X50718Y58805D01*
X50660Y58869D01*
X50556Y59012D01*
X50472Y59161D01*
X50414Y59297D01*
X50368Y59427D01*
X50355Y59478D01*
X50343Y59530D01*
X50336Y59569D01*
X50330Y59595D01*
X50323Y59615D01*
Y59621D01*
X50867Y59692D01*
X50893Y59550D01*
X50932Y59420D01*
X50984Y59316D01*
X51029Y59232D01*
X51075Y59161D01*
X51114Y59116D01*
X51133Y59083D01*
X51146Y59077D01*
X51230Y59012D01*
X51321Y58967D01*
X51412Y58928D01*
X51496Y58908D01*
X51567Y58895D01*
X51632Y58889D01*
X51671Y58882D01*
X51684D01*
X51755Y58889D01*
X51826Y58895D01*
X51956Y58928D01*
X52066Y58973D01*
X52163Y59031D01*
X52235Y59083D01*
X52293Y59129D01*
X52325Y59161D01*
X52338Y59174D01*
X52384Y59232D01*
X52423Y59303D01*
X52481Y59446D01*
X52526Y59608D01*
X52552Y59764D01*
X52572Y59906D01*
X52578Y59965D01*
Y60023D01*
X52585Y60062D01*
Y60101D01*
Y60120D01*
Y60127D01*
Y60243D01*
X52572Y60353D01*
X52559Y60457D01*
X52546Y60548D01*
X52526Y60632D01*
X52500Y60710D01*
X52481Y60781D01*
X52455Y60846D01*
X52429Y60898D01*
X52410Y60943D01*
X52384Y60982D01*
X52364Y61014D01*
X52351Y61040D01*
X52338Y61060D01*
X52325Y61066D01*
Y61073D01*
X52273Y61124D01*
X52222Y61170D01*
X52112Y61247D01*
X51995Y61299D01*
X51891Y61332D01*
X51794Y61358D01*
X51723Y61364D01*
X51690Y61371D01*
X51651D01*
X51554Y61364D01*
X51464Y61345D01*
X51386Y61319D01*
X51315Y61286D01*
X51263Y61254D01*
X51217Y61228D01*
X51191Y61209D01*
X51185Y61202D01*
X51120Y61137D01*
X51062Y61060D01*
X51010Y60975D01*
X50977Y60898D01*
X50945Y60826D01*
X50926Y60768D01*
X50919Y60729D01*
X50913Y60723D01*
Y60716D01*
X50375Y60800D01*
X50420Y60975D01*
X50485Y61124D01*
X50556Y61254D01*
X50628Y61358D01*
X50699Y61442D01*
X50757Y61500D01*
X50796Y61539D01*
X50803Y61552D01*
X50809D01*
X50945Y61643D01*
X51088Y61708D01*
X51230Y61759D01*
X51366Y61792D01*
X51489Y61811D01*
X51541Y61818D01*
X51580D01*
X51619Y61824D01*
X51671D01*
X51826Y61818D01*
D02*
G37*
G36*
X62000Y58500D02*
X60289D01*
X60134Y58507D01*
X59998Y58513D01*
X59875Y58526D01*
X59771Y58539D01*
X59687Y58552D01*
X59622Y58558D01*
X59583Y58571D01*
X59570D01*
X59460Y58604D01*
X59369Y58636D01*
X59285Y58675D01*
X59214Y58714D01*
X59155Y58740D01*
X59110Y58766D01*
X59084Y58785D01*
X59078Y58792D01*
X59006Y58850D01*
X58941Y58921D01*
X58890Y58992D01*
X58838Y59057D01*
X58799Y59122D01*
X58773Y59167D01*
X58754Y59200D01*
X58747Y59213D01*
X58702Y59316D01*
X58669Y59420D01*
X58643Y59517D01*
X58630Y59608D01*
X58617Y59686D01*
X58611Y59751D01*
Y59790D01*
Y59796D01*
Y59803D01*
X58617Y59945D01*
X58643Y60075D01*
X58682Y60185D01*
X58721Y60289D01*
X58760Y60366D01*
X58799Y60425D01*
X58825Y60463D01*
X58831Y60476D01*
X58922Y60580D01*
X59019Y60664D01*
X59129Y60736D01*
X59227Y60794D01*
X59317Y60839D01*
X59395Y60865D01*
X59421Y60878D01*
X59440Y60885D01*
X59453Y60891D01*
X59460D01*
X59350Y60956D01*
X59253Y61021D01*
X59175Y61092D01*
X59110Y61157D01*
X59058Y61209D01*
X59019Y61260D01*
X59000Y61286D01*
X58993Y61299D01*
X58941Y61397D01*
X58903Y61487D01*
X58870Y61578D01*
X58851Y61662D01*
X58838Y61734D01*
X58831Y61792D01*
Y61824D01*
Y61837D01*
X58838Y61947D01*
X58857Y62058D01*
X58890Y62155D01*
X58922Y62245D01*
X58954Y62323D01*
X58987Y62375D01*
X59006Y62414D01*
X59013Y62427D01*
X59084Y62524D01*
X59162Y62615D01*
X59246Y62686D01*
X59324Y62744D01*
X59389Y62790D01*
X59447Y62822D01*
X59486Y62842D01*
X59492Y62848D01*
X59499D01*
X59622Y62893D01*
X59758Y62926D01*
X59894Y62952D01*
X60024Y62965D01*
X60140Y62978D01*
X60192D01*
X60237Y62984D01*
X62000D01*
Y58500D01*
D02*
G37*
G36*
X57866D02*
X57315D01*
Y61753D01*
X57866D01*
Y58500D01*
D02*
G37*
G36*
X46364D02*
X45813D01*
Y61753D01*
X46364D01*
Y58500D01*
D02*
G37*
G36*
X43571Y61818D02*
X43687Y61798D01*
X43791Y61772D01*
X43895Y61740D01*
X43986Y61701D01*
X44070Y61656D01*
X44148Y61604D01*
X44212Y61559D01*
X44277Y61507D01*
X44329Y61455D01*
X44374Y61409D01*
X44413Y61371D01*
X44439Y61338D01*
X44459Y61312D01*
X44472Y61293D01*
X44478Y61286D01*
Y61753D01*
X44971D01*
Y58500D01*
X44420D01*
Y60269D01*
Y60379D01*
X44407Y60489D01*
X44394Y60580D01*
X44381Y60664D01*
X44361Y60742D01*
X44342Y60813D01*
X44316Y60878D01*
X44290Y60930D01*
X44271Y60975D01*
X44245Y61014D01*
X44225Y61047D01*
X44206Y61073D01*
X44180Y61105D01*
X44167Y61118D01*
X44070Y61196D01*
X43966Y61247D01*
X43863Y61286D01*
X43772Y61319D01*
X43687Y61332D01*
X43623Y61338D01*
X43597Y61345D01*
X43564D01*
X43487Y61338D01*
X43409Y61332D01*
X43344Y61312D01*
X43292Y61293D01*
X43247Y61273D01*
X43208Y61260D01*
X43189Y61247D01*
X43182Y61241D01*
X43124Y61202D01*
X43072Y61157D01*
X43033Y61111D01*
X43001Y61073D01*
X42981Y61034D01*
X42962Y61001D01*
X42949Y60982D01*
Y60975D01*
X42929Y60904D01*
X42910Y60826D01*
X42897Y60742D01*
X42891Y60658D01*
X42884Y60587D01*
Y60528D01*
Y60483D01*
Y60476D01*
Y60470D01*
Y58500D01*
X42333D01*
Y60496D01*
Y60632D01*
X42340Y60742D01*
X42346Y60833D01*
Y60911D01*
X42353Y60962D01*
X42359Y61001D01*
X42366Y61027D01*
Y61034D01*
X42385Y61118D01*
X42417Y61196D01*
X42443Y61260D01*
X42469Y61325D01*
X42502Y61371D01*
X42521Y61403D01*
X42534Y61429D01*
X42541Y61435D01*
X42592Y61500D01*
X42651Y61552D01*
X42709Y61604D01*
X42774Y61643D01*
X42826Y61675D01*
X42871Y61695D01*
X42897Y61708D01*
X42910Y61714D01*
X43001Y61753D01*
X43098Y61779D01*
X43189Y61798D01*
X43273Y61811D01*
X43344Y61818D01*
X43396Y61824D01*
X43448D01*
X43571Y61818D01*
D02*
G37*
G36*
X55267D02*
X55371Y61811D01*
X55572Y61766D01*
X55747Y61708D01*
X55825Y61675D01*
X55896Y61643D01*
X55961Y61610D01*
X56012Y61578D01*
X56064Y61546D01*
X56103Y61520D01*
X56136Y61494D01*
X56161Y61474D01*
X56174Y61468D01*
X56181Y61461D01*
X56272Y61377D01*
X56343Y61280D01*
X56414Y61176D01*
X56466Y61073D01*
X56518Y60962D01*
X56557Y60846D01*
X56589Y60736D01*
X56615Y60632D01*
X56641Y60528D01*
X56654Y60438D01*
X56667Y60347D01*
X56673Y60276D01*
Y60211D01*
X56680Y60165D01*
Y60139D01*
Y60127D01*
X56673Y59977D01*
X56660Y59835D01*
X56641Y59705D01*
X56615Y59582D01*
X56583Y59472D01*
X56550Y59368D01*
X56511Y59271D01*
X56473Y59187D01*
X56434Y59109D01*
X56395Y59044D01*
X56362Y58992D01*
X56330Y58947D01*
X56304Y58908D01*
X56285Y58882D01*
X56272Y58869D01*
X56265Y58863D01*
X56181Y58785D01*
X56097Y58720D01*
X56006Y58662D01*
X55915Y58610D01*
X55825Y58571D01*
X55727Y58532D01*
X55552Y58481D01*
X55475Y58468D01*
X55397Y58455D01*
X55332Y58442D01*
X55274Y58435D01*
X55222Y58429D01*
X55157D01*
X55002Y58435D01*
X54859Y58461D01*
X54723Y58494D01*
X54613Y58526D01*
X54516Y58565D01*
X54477Y58578D01*
X54444Y58591D01*
X54412Y58604D01*
X54392Y58617D01*
X54386Y58623D01*
X54379D01*
X54250Y58707D01*
X54140Y58798D01*
X54043Y58889D01*
X53965Y58979D01*
X53907Y59057D01*
X53861Y59122D01*
X53848Y59148D01*
X53835Y59167D01*
X53829Y59174D01*
Y59180D01*
X53764Y59329D01*
X53719Y59491D01*
X53680Y59653D01*
X53660Y59815D01*
X53647Y59887D01*
Y59952D01*
X53641Y60016D01*
X53634Y60068D01*
Y60114D01*
Y60146D01*
Y60165D01*
Y60172D01*
X53641Y60314D01*
X53654Y60444D01*
X53673Y60567D01*
X53699Y60684D01*
X53732Y60794D01*
X53770Y60891D01*
X53809Y60988D01*
X53848Y61066D01*
X53887Y61137D01*
X53926Y61202D01*
X53965Y61260D01*
X53997Y61306D01*
X54023Y61338D01*
X54043Y61364D01*
X54056Y61377D01*
X54062Y61384D01*
X54146Y61461D01*
X54230Y61526D01*
X54321Y61591D01*
X54412Y61636D01*
X54503Y61682D01*
X54593Y61714D01*
X54768Y61772D01*
X54853Y61785D01*
X54924Y61798D01*
X54989Y61811D01*
X55047Y61818D01*
X55092Y61824D01*
X55157D01*
X55267Y61818D01*
D02*
G37*
G36*
X48645D02*
X48748Y61811D01*
X48949Y61766D01*
X49124Y61708D01*
X49202Y61675D01*
X49273Y61643D01*
X49338Y61610D01*
X49390Y61578D01*
X49442Y61546D01*
X49481Y61520D01*
X49513Y61494D01*
X49539Y61474D01*
X49552Y61468D01*
X49558Y61461D01*
X49649Y61377D01*
X49720Y61280D01*
X49792Y61176D01*
X49843Y61073D01*
X49895Y60962D01*
X49934Y60846D01*
X49967Y60736D01*
X49993Y60632D01*
X50019Y60528D01*
X50031Y60438D01*
X50044Y60347D01*
X50051Y60276D01*
Y60211D01*
X50057Y60165D01*
Y60139D01*
Y60127D01*
X50051Y59977D01*
X50038Y59835D01*
X50019Y59705D01*
X49993Y59582D01*
X49960Y59472D01*
X49928Y59368D01*
X49889Y59271D01*
X49850Y59187D01*
X49811Y59109D01*
X49772Y59044D01*
X49740Y58992D01*
X49707Y58947D01*
X49681Y58908D01*
X49662Y58882D01*
X49649Y58869D01*
X49643Y58863D01*
X49558Y58785D01*
X49474Y58720D01*
X49383Y58662D01*
X49293Y58610D01*
X49202Y58571D01*
X49105Y58532D01*
X48930Y58481D01*
X48852Y58468D01*
X48774Y58455D01*
X48709Y58442D01*
X48651Y58435D01*
X48599Y58429D01*
X48535D01*
X48379Y58435D01*
X48237Y58461D01*
X48100Y58494D01*
X47990Y58526D01*
X47893Y58565D01*
X47854Y58578D01*
X47822Y58591D01*
X47789Y58604D01*
X47770Y58617D01*
X47763Y58623D01*
X47757D01*
X47627Y58707D01*
X47517Y58798D01*
X47420Y58889D01*
X47342Y58979D01*
X47284Y59057D01*
X47239Y59122D01*
X47226Y59148D01*
X47213Y59167D01*
X47206Y59174D01*
Y59180D01*
X47141Y59329D01*
X47096Y59491D01*
X47057Y59653D01*
X47038Y59815D01*
X47025Y59887D01*
Y59952D01*
X47018Y60016D01*
X47012Y60068D01*
Y60114D01*
Y60146D01*
Y60165D01*
Y60172D01*
X47018Y60314D01*
X47031Y60444D01*
X47051Y60567D01*
X47077Y60684D01*
X47109Y60794D01*
X47148Y60891D01*
X47187Y60988D01*
X47226Y61066D01*
X47265Y61137D01*
X47303Y61202D01*
X47342Y61260D01*
X47375Y61306D01*
X47401Y61338D01*
X47420Y61364D01*
X47433Y61377D01*
X47439Y61384D01*
X47524Y61461D01*
X47608Y61526D01*
X47699Y61591D01*
X47789Y61636D01*
X47880Y61682D01*
X47971Y61714D01*
X48146Y61772D01*
X48230Y61785D01*
X48301Y61798D01*
X48366Y61811D01*
X48424Y61818D01*
X48470Y61824D01*
X48535D01*
X48645Y61818D01*
D02*
G37*
G36*
X55692Y49002D02*
X55221D01*
Y49541D01*
X55692D01*
Y49002D01*
D02*
G37*
G36*
X75900Y47321D02*
Y47210D01*
X75894Y47104D01*
X75889Y47004D01*
X75878Y46910D01*
X75867Y46827D01*
X75856Y46749D01*
X75839Y46677D01*
X75828Y46610D01*
X75817Y46549D01*
X75800Y46499D01*
X75789Y46455D01*
X75778Y46422D01*
X75767Y46394D01*
X75761Y46372D01*
X75756Y46360D01*
Y46355D01*
X75695Y46233D01*
X75617Y46122D01*
X75539Y46033D01*
X75456Y45955D01*
X75384Y45894D01*
X75323Y45850D01*
X75301Y45839D01*
X75284Y45828D01*
X75273Y45817D01*
X75267D01*
X75129Y45755D01*
X74984Y45711D01*
X74834Y45678D01*
X74696Y45656D01*
X74635Y45650D01*
X74574Y45645D01*
X74518Y45639D01*
X74474D01*
X74435Y45633D01*
X74385D01*
X74185Y45645D01*
X74096Y45656D01*
X74013Y45667D01*
X73930Y45683D01*
X73858Y45700D01*
X73791Y45717D01*
X73730Y45739D01*
X73674Y45761D01*
X73630Y45778D01*
X73586Y45794D01*
X73552Y45811D01*
X73525Y45828D01*
X73508Y45833D01*
X73497Y45844D01*
X73491D01*
X73369Y45928D01*
X73269Y46022D01*
X73192Y46111D01*
X73125Y46200D01*
X73075Y46277D01*
X73042Y46338D01*
X73031Y46360D01*
X73020Y46377D01*
X73014Y46388D01*
Y46394D01*
X72992Y46460D01*
X72970Y46532D01*
X72936Y46682D01*
X72914Y46838D01*
X72897Y46988D01*
X72892Y47054D01*
X72886Y47121D01*
Y47176D01*
X72881Y47226D01*
Y47265D01*
Y47293D01*
Y47315D01*
Y47321D01*
Y49541D01*
X73391D01*
Y47321D01*
Y47193D01*
X73403Y47071D01*
X73414Y46965D01*
X73430Y46865D01*
X73447Y46777D01*
X73469Y46694D01*
X73486Y46621D01*
X73508Y46560D01*
X73530Y46510D01*
X73552Y46460D01*
X73575Y46427D01*
X73591Y46394D01*
X73608Y46372D01*
X73619Y46355D01*
X73624Y46349D01*
X73630Y46344D01*
X73680Y46299D01*
X73735Y46261D01*
X73858Y46200D01*
X73985Y46155D01*
X74118Y46127D01*
X74240Y46105D01*
X74291Y46100D01*
X74340D01*
X74374Y46094D01*
X74429D01*
X74546Y46100D01*
X74651Y46116D01*
X74751Y46133D01*
X74829Y46161D01*
X74896Y46183D01*
X74945Y46200D01*
X74973Y46216D01*
X74984Y46222D01*
X75062Y46272D01*
X75129Y46333D01*
X75184Y46394D01*
X75223Y46449D01*
X75256Y46505D01*
X75284Y46544D01*
X75295Y46571D01*
X75301Y46582D01*
X75317Y46632D01*
X75328Y46682D01*
X75350Y46799D01*
X75367Y46921D01*
X75378Y47043D01*
X75384Y47149D01*
Y47199D01*
X75389Y47237D01*
Y47271D01*
Y47298D01*
Y47315D01*
Y47321D01*
Y49541D01*
X75900D01*
Y47321D01*
D02*
G37*
G36*
X41218Y49596D02*
X41412Y49568D01*
X41501Y49552D01*
X41584Y49529D01*
X41662Y49513D01*
X41734Y49491D01*
X41801Y49468D01*
X41856Y49446D01*
X41906Y49424D01*
X41951Y49407D01*
X41984Y49391D01*
X42006Y49380D01*
X42023Y49374D01*
X42028Y49369D01*
X42106Y49319D01*
X42184Y49269D01*
X42317Y49152D01*
X42434Y49036D01*
X42528Y48913D01*
X42606Y48808D01*
X42633Y48764D01*
X42656Y48719D01*
X42678Y48686D01*
X42689Y48664D01*
X42694Y48647D01*
X42700Y48641D01*
X42778Y48458D01*
X42833Y48275D01*
X42878Y48098D01*
X42889Y48014D01*
X42905Y47937D01*
X42911Y47864D01*
X42922Y47803D01*
X42927Y47742D01*
Y47692D01*
X42933Y47654D01*
Y47626D01*
Y47604D01*
Y47598D01*
X42922Y47393D01*
X42894Y47199D01*
X42878Y47110D01*
X42861Y47026D01*
X42839Y46943D01*
X42816Y46871D01*
X42794Y46804D01*
X42772Y46749D01*
X42755Y46693D01*
X42739Y46655D01*
X42722Y46616D01*
X42711Y46593D01*
X42700Y46577D01*
Y46571D01*
X42600Y46410D01*
X42489Y46272D01*
X42372Y46150D01*
X42261Y46050D01*
X42156Y45972D01*
X42117Y45944D01*
X42078Y45916D01*
X42045Y45900D01*
X42023Y45883D01*
X42006Y45878D01*
X42001Y45872D01*
X41912Y45828D01*
X41823Y45794D01*
X41645Y45733D01*
X41473Y45694D01*
X41312Y45661D01*
X41240Y45656D01*
X41174Y45645D01*
X41113Y45639D01*
X41063D01*
X41024Y45633D01*
X40968D01*
X40813Y45639D01*
X40663Y45656D01*
X40524Y45683D01*
X40402Y45711D01*
X40352Y45722D01*
X40302Y45733D01*
X40258Y45750D01*
X40219Y45761D01*
X40191Y45772D01*
X40169Y45778D01*
X40158Y45783D01*
X40152D01*
X40003Y45844D01*
X39864Y45916D01*
X39731Y45994D01*
X39614Y46066D01*
X39564Y46100D01*
X39514Y46133D01*
X39475Y46161D01*
X39442Y46183D01*
X39414Y46205D01*
X39392Y46222D01*
X39381Y46227D01*
X39375Y46233D01*
Y47659D01*
X41007D01*
Y47204D01*
X39875D01*
Y46483D01*
X39942Y46427D01*
X40019Y46377D01*
X40102Y46333D01*
X40180Y46294D01*
X40247Y46260D01*
X40308Y46233D01*
X40330Y46222D01*
X40341Y46216D01*
X40352Y46211D01*
X40358D01*
X40474Y46172D01*
X40591Y46138D01*
X40696Y46116D01*
X40796Y46105D01*
X40879Y46094D01*
X40913D01*
X40946Y46088D01*
X41002D01*
X41140Y46094D01*
X41274Y46116D01*
X41396Y46144D01*
X41507Y46172D01*
X41595Y46205D01*
X41634Y46216D01*
X41662Y46227D01*
X41690Y46238D01*
X41706Y46249D01*
X41717Y46255D01*
X41723D01*
X41840Y46327D01*
X41945Y46405D01*
X42034Y46488D01*
X42106Y46571D01*
X42167Y46649D01*
X42206Y46710D01*
X42223Y46732D01*
X42228Y46749D01*
X42239Y46760D01*
Y46766D01*
X42295Y46904D01*
X42339Y47049D01*
X42367Y47193D01*
X42389Y47332D01*
X42395Y47393D01*
X42400Y47448D01*
X42406Y47504D01*
Y47548D01*
X42411Y47581D01*
Y47609D01*
Y47626D01*
Y47631D01*
X42406Y47787D01*
X42389Y47925D01*
X42367Y48059D01*
X42339Y48175D01*
X42328Y48225D01*
X42311Y48270D01*
X42300Y48309D01*
X42289Y48342D01*
X42278Y48370D01*
X42273Y48386D01*
X42267Y48397D01*
Y48403D01*
X42228Y48480D01*
X42189Y48553D01*
X42151Y48619D01*
X42112Y48675D01*
X42078Y48719D01*
X42050Y48758D01*
X42028Y48780D01*
X42023Y48786D01*
X41962Y48847D01*
X41895Y48902D01*
X41823Y48947D01*
X41756Y48991D01*
X41701Y49019D01*
X41657Y49047D01*
X41623Y49058D01*
X41612Y49063D01*
X41512Y49102D01*
X41412Y49130D01*
X41307Y49147D01*
X41212Y49163D01*
X41129Y49169D01*
X41096D01*
X41068Y49174D01*
X41007D01*
X40902Y49169D01*
X40802Y49158D01*
X40713Y49141D01*
X40635Y49124D01*
X40569Y49102D01*
X40519Y49086D01*
X40491Y49074D01*
X40480Y49069D01*
X40397Y49030D01*
X40325Y48986D01*
X40258Y48941D01*
X40208Y48897D01*
X40169Y48858D01*
X40136Y48830D01*
X40119Y48808D01*
X40114Y48802D01*
X40064Y48736D01*
X40025Y48658D01*
X39986Y48586D01*
X39953Y48508D01*
X39930Y48442D01*
X39914Y48392D01*
X39908Y48370D01*
X39903Y48353D01*
X39897Y48347D01*
Y48342D01*
X39437Y48464D01*
X39475Y48603D01*
X39525Y48725D01*
X39575Y48836D01*
X39620Y48924D01*
X39664Y48997D01*
X39697Y49047D01*
X39720Y49080D01*
X39731Y49091D01*
X39808Y49180D01*
X39892Y49252D01*
X39980Y49319D01*
X40064Y49374D01*
X40141Y49413D01*
X40202Y49446D01*
X40225Y49457D01*
X40241Y49463D01*
X40252Y49468D01*
X40258D01*
X40386Y49513D01*
X40519Y49546D01*
X40641Y49574D01*
X40757Y49591D01*
X40863Y49602D01*
X40907D01*
X40941Y49607D01*
X41118D01*
X41218Y49596D01*
D02*
G37*
G36*
X70555Y49596D02*
X70733Y49568D01*
X70888Y49535D01*
X70960Y49513D01*
X71027Y49491D01*
X71088Y49468D01*
X71144Y49446D01*
X71188Y49430D01*
X71232Y49413D01*
X71260Y49396D01*
X71282Y49385D01*
X71299Y49380D01*
X71305Y49374D01*
X71454Y49280D01*
X71582Y49169D01*
X71693Y49058D01*
X71788Y48947D01*
X71860Y48847D01*
X71887Y48802D01*
X71910Y48764D01*
X71932Y48736D01*
X71943Y48714D01*
X71948Y48697D01*
X71954Y48691D01*
X72032Y48519D01*
X72087Y48342D01*
X72126Y48164D01*
X72154Y48003D01*
X72165Y47931D01*
X72170Y47859D01*
X72176Y47803D01*
Y47748D01*
X72181Y47709D01*
Y47676D01*
Y47654D01*
Y47648D01*
X72170Y47448D01*
X72148Y47254D01*
X72120Y47082D01*
X72098Y46999D01*
X72082Y46927D01*
X72065Y46860D01*
X72043Y46799D01*
X72026Y46743D01*
X72015Y46699D01*
X71998Y46666D01*
X71993Y46638D01*
X71982Y46621D01*
Y46616D01*
X71899Y46449D01*
X71804Y46299D01*
X71704Y46172D01*
X71654Y46122D01*
X71610Y46072D01*
X71565Y46027D01*
X71521Y45989D01*
X71482Y45955D01*
X71449Y45933D01*
X71427Y45911D01*
X71404Y45894D01*
X71393Y45889D01*
X71388Y45883D01*
X71310Y45839D01*
X71232Y45800D01*
X71066Y45739D01*
X70899Y45695D01*
X70739Y45667D01*
X70661Y45656D01*
X70594Y45645D01*
X70533Y45639D01*
X70483D01*
X70439Y45633D01*
X70378D01*
X70267Y45639D01*
X70161Y45650D01*
X70061Y45661D01*
X69967Y45683D01*
X69878Y45711D01*
X69795Y45739D01*
X69717Y45767D01*
X69645Y45800D01*
X69584Y45828D01*
X69523Y45855D01*
X69479Y45883D01*
X69434Y45911D01*
X69406Y45933D01*
X69379Y45944D01*
X69368Y45955D01*
X69362Y45961D01*
X69284Y46027D01*
X69218Y46094D01*
X69157Y46172D01*
X69096Y46249D01*
X68996Y46405D01*
X68918Y46560D01*
X68885Y46632D01*
X68857Y46699D01*
X68835Y46760D01*
X68818Y46810D01*
X68801Y46854D01*
X68790Y46888D01*
X68785Y46910D01*
Y46915D01*
X69296Y47043D01*
X69318Y46954D01*
X69345Y46871D01*
X69373Y46793D01*
X69401Y46721D01*
X69434Y46655D01*
X69468Y46599D01*
X69506Y46544D01*
X69540Y46494D01*
X69567Y46449D01*
X69601Y46416D01*
X69629Y46383D01*
X69651Y46355D01*
X69673Y46338D01*
X69690Y46322D01*
X69695Y46316D01*
X69701Y46310D01*
X69756Y46266D01*
X69817Y46233D01*
X69939Y46172D01*
X70056Y46127D01*
X70172Y46100D01*
X70272Y46077D01*
X70311Y46072D01*
X70350D01*
X70383Y46066D01*
X70422D01*
X70550Y46072D01*
X70672Y46094D01*
X70783Y46122D01*
X70883Y46155D01*
X70960Y46188D01*
X70994Y46205D01*
X71022Y46216D01*
X71044Y46227D01*
X71060Y46238D01*
X71071Y46244D01*
X71077D01*
X71183Y46322D01*
X71271Y46405D01*
X71349Y46499D01*
X71410Y46588D01*
X71460Y46666D01*
X71493Y46732D01*
X71504Y46760D01*
X71516Y46777D01*
X71521Y46788D01*
Y46793D01*
X71565Y46938D01*
X71599Y47082D01*
X71627Y47226D01*
X71643Y47359D01*
X71649Y47420D01*
X71654Y47476D01*
Y47526D01*
X71660Y47565D01*
Y47598D01*
Y47626D01*
Y47642D01*
Y47648D01*
X71654Y47792D01*
X71643Y47925D01*
X71621Y48048D01*
X71599Y48159D01*
X71582Y48253D01*
X71571Y48292D01*
X71560Y48325D01*
X71554Y48353D01*
X71549Y48370D01*
X71543Y48381D01*
Y48386D01*
X71488Y48514D01*
X71427Y48630D01*
X71360Y48725D01*
X71288Y48808D01*
X71227Y48875D01*
X71177Y48919D01*
X71138Y48947D01*
X71133Y48958D01*
X71127D01*
X71011Y49030D01*
X70883Y49086D01*
X70761Y49124D01*
X70644Y49147D01*
X70539Y49163D01*
X70494Y49169D01*
X70455D01*
X70428Y49174D01*
X70383D01*
X70245Y49169D01*
X70117Y49147D01*
X70012Y49113D01*
X69917Y49080D01*
X69845Y49041D01*
X69789Y49013D01*
X69756Y48991D01*
X69745Y48980D01*
X69656Y48897D01*
X69573Y48802D01*
X69506Y48703D01*
X69451Y48603D01*
X69406Y48514D01*
X69390Y48469D01*
X69379Y48436D01*
X69368Y48408D01*
X69357Y48386D01*
X69351Y48375D01*
Y48370D01*
X68852Y48486D01*
X68885Y48586D01*
X68918Y48675D01*
X68963Y48758D01*
X69001Y48841D01*
X69046Y48913D01*
X69096Y48980D01*
X69140Y49047D01*
X69184Y49102D01*
X69229Y49147D01*
X69268Y49191D01*
X69307Y49230D01*
X69334Y49257D01*
X69362Y49285D01*
X69384Y49302D01*
X69395Y49308D01*
X69401Y49313D01*
X69479Y49363D01*
X69556Y49413D01*
X69634Y49452D01*
X69717Y49485D01*
X69884Y49535D01*
X70034Y49568D01*
X70106Y49585D01*
X70167Y49591D01*
X70228Y49596D01*
X70278Y49602D01*
X70317Y49607D01*
X70372D01*
X70555Y49596D01*
D02*
G37*
G36*
X33925Y46760D02*
Y46655D01*
X33920Y46560D01*
X33914Y46488D01*
X33909Y46422D01*
Y46377D01*
X33903Y46344D01*
X33898Y46322D01*
Y46316D01*
X33881Y46244D01*
X33859Y46177D01*
X33836Y46116D01*
X33809Y46066D01*
X33787Y46022D01*
X33770Y45994D01*
X33759Y45972D01*
X33753Y45966D01*
X33709Y45916D01*
X33659Y45872D01*
X33609Y45833D01*
X33553Y45800D01*
X33509Y45772D01*
X33470Y45750D01*
X33448Y45739D01*
X33437Y45733D01*
X33354Y45700D01*
X33276Y45678D01*
X33198Y45661D01*
X33126Y45650D01*
X33065Y45645D01*
X33015Y45639D01*
X32976D01*
X32876Y45645D01*
X32776Y45661D01*
X32688Y45683D01*
X32599Y45711D01*
X32521Y45750D01*
X32449Y45789D01*
X32383Y45828D01*
X32321Y45872D01*
X32266Y45916D01*
X32221Y45955D01*
X32183Y46000D01*
X32149Y46033D01*
X32122Y46061D01*
X32105Y46083D01*
X32094Y46100D01*
X32088Y46105D01*
Y45700D01*
X31666D01*
Y48486D01*
X32138D01*
Y46993D01*
X32144Y46865D01*
X32149Y46755D01*
X32160Y46660D01*
X32177Y46582D01*
X32194Y46521D01*
X32205Y46477D01*
X32210Y46455D01*
X32216Y46444D01*
X32249Y46377D01*
X32288Y46322D01*
X32333Y46272D01*
X32377Y46227D01*
X32416Y46194D01*
X32449Y46172D01*
X32471Y46155D01*
X32482Y46150D01*
X32555Y46116D01*
X32627Y46088D01*
X32693Y46072D01*
X32754Y46055D01*
X32804Y46050D01*
X32843Y46044D01*
X32882D01*
X32960Y46050D01*
X33026Y46061D01*
X33087Y46077D01*
X33137Y46100D01*
X33182Y46116D01*
X33209Y46133D01*
X33232Y46144D01*
X33237Y46150D01*
X33287Y46194D01*
X33326Y46238D01*
X33359Y46288D01*
X33387Y46333D01*
X33404Y46377D01*
X33415Y46410D01*
X33426Y46433D01*
Y46438D01*
X33437Y46499D01*
X33443Y46571D01*
X33448Y46655D01*
Y46738D01*
X33454Y46815D01*
Y46877D01*
Y46904D01*
Y46921D01*
Y46932D01*
Y46938D01*
Y48486D01*
X33925D01*
Y46760D01*
D02*
G37*
G36*
X64578Y45700D02*
X63196D01*
X63068Y45706D01*
X62952Y45711D01*
X62846Y45722D01*
X62758Y45733D01*
X62680Y45744D01*
X62624Y45750D01*
X62608Y45755D01*
X62591Y45761D01*
X62580D01*
X62480Y45789D01*
X62391Y45822D01*
X62314Y45850D01*
X62247Y45883D01*
X62191Y45911D01*
X62153Y45933D01*
X62130Y45950D01*
X62119Y45955D01*
X62047Y46005D01*
X61986Y46066D01*
X61925Y46122D01*
X61875Y46177D01*
X61831Y46227D01*
X61797Y46266D01*
X61775Y46294D01*
X61770Y46305D01*
X61714Y46394D01*
X61659Y46488D01*
X61614Y46577D01*
X61581Y46666D01*
X61548Y46743D01*
X61525Y46804D01*
X61520Y46827D01*
X61514Y46843D01*
X61509Y46854D01*
Y46860D01*
X61475Y46993D01*
X61448Y47126D01*
X61431Y47254D01*
X61414Y47376D01*
X61409Y47482D01*
Y47526D01*
X61403Y47565D01*
Y47592D01*
Y47620D01*
Y47631D01*
Y47637D01*
X61409Y47826D01*
X61426Y47998D01*
X61453Y48153D01*
X61464Y48225D01*
X61481Y48286D01*
X61498Y48347D01*
X61509Y48397D01*
X61520Y48442D01*
X61537Y48480D01*
X61542Y48514D01*
X61553Y48536D01*
X61559Y48547D01*
Y48553D01*
X61620Y48697D01*
X61692Y48825D01*
X61770Y48936D01*
X61842Y49030D01*
X61909Y49108D01*
X61964Y49163D01*
X61986Y49180D01*
X62003Y49196D01*
X62008Y49202D01*
X62014Y49208D01*
X62103Y49280D01*
X62197Y49335D01*
X62291Y49385D01*
X62380Y49424D01*
X62458Y49452D01*
X62519Y49468D01*
X62541Y49480D01*
X62558D01*
X62569Y49485D01*
X62574D01*
X62669Y49502D01*
X62780Y49518D01*
X62891Y49529D01*
X63002Y49535D01*
X63102Y49541D01*
X64578D01*
Y45700D01*
D02*
G37*
G36*
X59233D02*
X57768D01*
X57635Y45706D01*
X57518Y45711D01*
X57413Y45722D01*
X57324Y45733D01*
X57252Y45744D01*
X57196Y45750D01*
X57163Y45761D01*
X57152D01*
X57058Y45789D01*
X56980Y45817D01*
X56908Y45850D01*
X56847Y45883D01*
X56797Y45905D01*
X56758Y45928D01*
X56736Y45944D01*
X56730Y45950D01*
X56669Y46000D01*
X56614Y46061D01*
X56569Y46122D01*
X56525Y46177D01*
X56492Y46233D01*
X56469Y46272D01*
X56453Y46299D01*
X56447Y46310D01*
X56408Y46399D01*
X56381Y46488D01*
X56358Y46571D01*
X56347Y46649D01*
X56336Y46716D01*
X56331Y46771D01*
Y46804D01*
Y46810D01*
Y46816D01*
X56336Y46938D01*
X56358Y47049D01*
X56392Y47143D01*
X56425Y47232D01*
X56458Y47298D01*
X56492Y47348D01*
X56514Y47382D01*
X56519Y47393D01*
X56597Y47482D01*
X56680Y47554D01*
X56775Y47615D01*
X56858Y47665D01*
X56936Y47704D01*
X57002Y47726D01*
X57025Y47737D01*
X57041Y47742D01*
X57052Y47748D01*
X57058D01*
X56963Y47803D01*
X56880Y47859D01*
X56814Y47920D01*
X56758Y47976D01*
X56714Y48020D01*
X56680Y48064D01*
X56664Y48087D01*
X56658Y48098D01*
X56614Y48181D01*
X56580Y48259D01*
X56553Y48336D01*
X56536Y48408D01*
X56525Y48469D01*
X56519Y48519D01*
Y48547D01*
Y48558D01*
X56525Y48653D01*
X56542Y48747D01*
X56569Y48830D01*
X56597Y48908D01*
X56625Y48974D01*
X56653Y49019D01*
X56669Y49052D01*
X56675Y49063D01*
X56736Y49147D01*
X56802Y49224D01*
X56875Y49285D01*
X56941Y49335D01*
X56997Y49374D01*
X57047Y49402D01*
X57080Y49419D01*
X57086Y49424D01*
X57091D01*
X57196Y49463D01*
X57313Y49491D01*
X57430Y49513D01*
X57541Y49524D01*
X57640Y49535D01*
X57685D01*
X57724Y49541D01*
X59233D01*
Y45700D01*
D02*
G37*
G36*
X55692D02*
X55221D01*
Y48486D01*
X55692D01*
Y45700D01*
D02*
G37*
G36*
X51447D02*
X48577D01*
Y46155D01*
X50936D01*
Y47459D01*
X48810D01*
Y47914D01*
X50936D01*
Y49086D01*
X48666D01*
Y49541D01*
X51447D01*
Y45700D01*
D02*
G37*
G36*
X47867D02*
X44998Y45700D01*
Y46155D01*
X47356Y46155D01*
Y47459D01*
X45231Y47459D01*
Y47914D01*
X47356Y47914D01*
Y49086D01*
X45086Y49086D01*
Y49541D01*
X47867Y49541D01*
Y45700D01*
D02*
G37*
G36*
X37727Y48542D02*
X37783Y48531D01*
X37838Y48514D01*
X37883Y48497D01*
X37916Y48480D01*
X37949Y48464D01*
X37966Y48453D01*
X37971Y48447D01*
X38021Y48403D01*
X38071Y48347D01*
X38121Y48281D01*
X38166Y48220D01*
X38210Y48159D01*
X38238Y48109D01*
X38260Y48070D01*
X38265Y48064D01*
Y48486D01*
X38693D01*
Y45700D01*
X38221D01*
Y47154D01*
X38216Y47265D01*
X38210Y47365D01*
X38199Y47459D01*
X38182Y47543D01*
X38166Y47609D01*
X38155Y47659D01*
X38149Y47692D01*
X38143Y47703D01*
X38121Y47765D01*
X38093Y47815D01*
X38066Y47859D01*
X38038Y47898D01*
X38010Y47925D01*
X37993Y47948D01*
X37977Y47959D01*
X37971Y47964D01*
X37927Y47998D01*
X37877Y48020D01*
X37827Y48037D01*
X37788Y48048D01*
X37749Y48053D01*
X37722Y48059D01*
X37694D01*
X37633Y48053D01*
X37572Y48042D01*
X37511Y48025D01*
X37461Y48009D01*
X37416Y47992D01*
X37383Y47976D01*
X37361Y47964D01*
X37355Y47959D01*
X37183Y48392D01*
X37278Y48442D01*
X37366Y48480D01*
X37444Y48508D01*
X37516Y48531D01*
X37577Y48542D01*
X37627Y48547D01*
X37666D01*
X37727Y48542D01*
D02*
G37*
G36*
X53467Y48542D02*
X53556Y48536D01*
X53728Y48497D01*
X53878Y48447D01*
X53944Y48419D01*
X54005Y48392D01*
X54061Y48364D01*
X54105Y48336D01*
X54150Y48309D01*
X54183Y48286D01*
X54211Y48264D01*
X54233Y48247D01*
X54244Y48242D01*
X54250Y48236D01*
X54327Y48164D01*
X54388Y48081D01*
X54449Y47992D01*
X54494Y47903D01*
X54538Y47809D01*
X54571Y47709D01*
X54599Y47615D01*
X54621Y47526D01*
X54643Y47437D01*
X54655Y47359D01*
X54666Y47282D01*
X54671Y47221D01*
Y47165D01*
X54677Y47126D01*
Y47104D01*
Y47093D01*
X54671Y46965D01*
X54660Y46843D01*
X54643Y46732D01*
X54621Y46627D01*
X54594Y46532D01*
X54566Y46444D01*
X54532Y46360D01*
X54499Y46288D01*
X54466Y46222D01*
X54433Y46166D01*
X54405Y46122D01*
X54377Y46083D01*
X54355Y46050D01*
X54338Y46027D01*
X54327Y46016D01*
X54322Y46011D01*
X54250Y45944D01*
X54177Y45889D01*
X54100Y45839D01*
X54022Y45794D01*
X53944Y45761D01*
X53861Y45728D01*
X53711Y45683D01*
X53645Y45672D01*
X53578Y45661D01*
X53522Y45650D01*
X53473Y45645D01*
X53428Y45639D01*
X53373D01*
X53239Y45645D01*
X53117Y45667D01*
X53001Y45695D01*
X52906Y45722D01*
X52823Y45755D01*
X52790Y45767D01*
X52762Y45778D01*
X52734Y45789D01*
X52718Y45800D01*
X52712Y45805D01*
X52707D01*
X52596Y45878D01*
X52501Y45955D01*
X52418Y46033D01*
X52351Y46111D01*
X52301Y46177D01*
X52263Y46233D01*
X52251Y46255D01*
X52240Y46272D01*
X52235Y46277D01*
Y46283D01*
X52179Y46410D01*
X52140Y46549D01*
X52107Y46688D01*
X52091Y46827D01*
X52079Y46888D01*
Y46943D01*
X52074Y46999D01*
X52068Y47043D01*
Y47082D01*
Y47110D01*
Y47126D01*
Y47132D01*
X52074Y47254D01*
X52085Y47365D01*
X52102Y47470D01*
X52124Y47570D01*
X52152Y47665D01*
X52185Y47748D01*
X52218Y47831D01*
X52251Y47898D01*
X52285Y47959D01*
X52318Y48014D01*
X52351Y48064D01*
X52379Y48103D01*
X52401Y48131D01*
X52418Y48153D01*
X52429Y48164D01*
X52435Y48170D01*
X52507Y48236D01*
X52579Y48292D01*
X52657Y48347D01*
X52734Y48386D01*
X52812Y48425D01*
X52890Y48453D01*
X53039Y48503D01*
X53112Y48514D01*
X53173Y48525D01*
X53228Y48536D01*
X53278Y48542D01*
X53317Y48547D01*
X53373D01*
X53467Y48542D01*
D02*
G37*
G36*
X35868Y48542D02*
X35957Y48536D01*
X36129Y48497D01*
X36279Y48447D01*
X36345Y48419D01*
X36406Y48392D01*
X36462Y48364D01*
X36506Y48336D01*
X36551Y48309D01*
X36584Y48286D01*
X36612Y48264D01*
X36634Y48247D01*
X36645Y48242D01*
X36650Y48236D01*
X36728Y48164D01*
X36789Y48081D01*
X36850Y47992D01*
X36895Y47903D01*
X36939Y47809D01*
X36972Y47709D01*
X37000Y47615D01*
X37022Y47526D01*
X37045Y47437D01*
X37056Y47359D01*
X37067Y47282D01*
X37072Y47221D01*
Y47165D01*
X37078Y47126D01*
Y47104D01*
Y47093D01*
X37072Y46965D01*
X37061Y46843D01*
X37045Y46732D01*
X37022Y46627D01*
X36994Y46532D01*
X36967Y46444D01*
X36933Y46360D01*
X36900Y46288D01*
X36867Y46222D01*
X36834Y46166D01*
X36806Y46122D01*
X36778Y46083D01*
X36756Y46050D01*
X36739Y46027D01*
X36728Y46016D01*
X36723Y46011D01*
X36650Y45944D01*
X36578Y45889D01*
X36500Y45839D01*
X36423Y45794D01*
X36345Y45761D01*
X36262Y45728D01*
X36112Y45683D01*
X36045Y45672D01*
X35979Y45661D01*
X35923Y45650D01*
X35873Y45645D01*
X35829Y45639D01*
X35774D01*
X35640Y45645D01*
X35518Y45667D01*
X35402Y45694D01*
X35307Y45722D01*
X35224Y45755D01*
X35191Y45767D01*
X35163Y45778D01*
X35135Y45789D01*
X35119Y45800D01*
X35113Y45805D01*
X35107D01*
X34997Y45878D01*
X34902Y45955D01*
X34819Y46033D01*
X34752Y46111D01*
X34702Y46177D01*
X34664Y46233D01*
X34652Y46255D01*
X34641Y46272D01*
X34636Y46277D01*
Y46283D01*
X34580Y46410D01*
X34541Y46549D01*
X34508Y46688D01*
X34491Y46827D01*
X34480Y46888D01*
Y46943D01*
X34475Y46999D01*
X34469Y47043D01*
Y47082D01*
Y47110D01*
Y47126D01*
Y47132D01*
X34475Y47254D01*
X34486Y47365D01*
X34503Y47470D01*
X34525Y47570D01*
X34552Y47665D01*
X34586Y47748D01*
X34619Y47831D01*
X34652Y47898D01*
X34686Y47959D01*
X34719Y48014D01*
X34752Y48064D01*
X34780Y48103D01*
X34802Y48131D01*
X34819Y48153D01*
X34830Y48164D01*
X34836Y48170D01*
X34908Y48236D01*
X34980Y48292D01*
X35058Y48347D01*
X35135Y48386D01*
X35213Y48425D01*
X35291Y48453D01*
X35440Y48503D01*
X35513Y48514D01*
X35574Y48525D01*
X35629Y48536D01*
X35679Y48542D01*
X35718Y48547D01*
X35774D01*
X35868Y48542D01*
D02*
G37*
G36*
X66981Y49602D02*
X67109Y49585D01*
X67231Y49563D01*
X67336Y49541D01*
X67420Y49518D01*
X67458Y49507D01*
X67486Y49496D01*
X67508Y49485D01*
X67525Y49480D01*
X67536Y49474D01*
X67542D01*
X67653Y49419D01*
X67753Y49358D01*
X67836Y49291D01*
X67902Y49230D01*
X67952Y49174D01*
X67991Y49130D01*
X68019Y49097D01*
X68024Y49091D01*
Y49086D01*
X68080Y48991D01*
X68119Y48897D01*
X68147Y48802D01*
X68163Y48719D01*
X68174Y48647D01*
X68186Y48592D01*
Y48569D01*
Y48553D01*
Y48547D01*
Y48542D01*
X68180Y48447D01*
X68163Y48358D01*
X68141Y48275D01*
X68119Y48203D01*
X68097Y48148D01*
X68075Y48103D01*
X68058Y48075D01*
X68052Y48064D01*
X67997Y47987D01*
X67930Y47914D01*
X67864Y47853D01*
X67797Y47803D01*
X67742Y47759D01*
X67691Y47731D01*
X67658Y47709D01*
X67653Y47704D01*
X67647D01*
X67603Y47681D01*
X67553Y47659D01*
X67442Y47620D01*
X67314Y47581D01*
X67192Y47543D01*
X67081Y47509D01*
X67031Y47498D01*
X66987Y47487D01*
X66953Y47476D01*
X66926Y47470D01*
X66909Y47465D01*
X66903D01*
X66809Y47443D01*
X66720Y47420D01*
X66643Y47398D01*
X66576Y47382D01*
X66509Y47365D01*
X66454Y47348D01*
X66404Y47337D01*
X66365Y47321D01*
X66326Y47309D01*
X66299Y47304D01*
X66254Y47287D01*
X66226Y47282D01*
X66221Y47276D01*
X66137Y47243D01*
X66065Y47204D01*
X66004Y47165D01*
X65960Y47132D01*
X65921Y47099D01*
X65899Y47076D01*
X65882Y47060D01*
X65877Y47054D01*
X65838Y47004D01*
X65810Y46949D01*
X65793Y46893D01*
X65777Y46849D01*
X65771Y46804D01*
X65766Y46771D01*
Y46743D01*
Y46738D01*
X65771Y46671D01*
X65782Y46610D01*
X65799Y46555D01*
X65821Y46510D01*
X65843Y46466D01*
X65860Y46438D01*
X65871Y46416D01*
X65877Y46410D01*
X65921Y46355D01*
X65977Y46310D01*
X66032Y46272D01*
X66082Y46233D01*
X66132Y46211D01*
X66171Y46188D01*
X66199Y46177D01*
X66210Y46172D01*
X66293Y46144D01*
X66382Y46122D01*
X66471Y46111D01*
X66548Y46100D01*
X66615Y46094D01*
X66670Y46088D01*
X66720D01*
X66842Y46094D01*
X66953Y46105D01*
X67053Y46122D01*
X67142Y46144D01*
X67214Y46166D01*
X67270Y46183D01*
X67286Y46188D01*
X67303Y46194D01*
X67309Y46200D01*
X67314D01*
X67403Y46244D01*
X67486Y46294D01*
X67547Y46344D01*
X67603Y46394D01*
X67647Y46433D01*
X67675Y46471D01*
X67691Y46494D01*
X67697Y46499D01*
X67736Y46571D01*
X67775Y46649D01*
X67797Y46732D01*
X67819Y46804D01*
X67836Y46877D01*
X67847Y46927D01*
Y46949D01*
X67852Y46965D01*
Y46971D01*
Y46977D01*
X68330Y46932D01*
X68319Y46793D01*
X68296Y46660D01*
X68263Y46544D01*
X68224Y46438D01*
X68186Y46355D01*
X68169Y46322D01*
X68158Y46294D01*
X68141Y46272D01*
X68136Y46255D01*
X68125Y46244D01*
Y46238D01*
X68041Y46133D01*
X67952Y46038D01*
X67858Y45961D01*
X67769Y45894D01*
X67691Y45844D01*
X67625Y45811D01*
X67603Y45800D01*
X67586Y45789D01*
X67575Y45783D01*
X67569D01*
X67431Y45733D01*
X67286Y45695D01*
X67142Y45672D01*
X67003Y45650D01*
X66937Y45645D01*
X66881Y45639D01*
X66831D01*
X66787Y45633D01*
X66698D01*
X66548Y45639D01*
X66409Y45656D01*
X66282Y45683D01*
X66176Y45711D01*
X66088Y45733D01*
X66049Y45750D01*
X66015Y45761D01*
X65993Y45772D01*
X65977Y45778D01*
X65965Y45783D01*
X65960D01*
X65843Y45844D01*
X65743Y45911D01*
X65655Y45983D01*
X65583Y46050D01*
X65527Y46105D01*
X65488Y46155D01*
X65460Y46188D01*
X65455Y46194D01*
Y46200D01*
X65394Y46305D01*
X65350Y46405D01*
X65322Y46499D01*
X65299Y46588D01*
X65288Y46666D01*
X65277Y46727D01*
Y46749D01*
Y46766D01*
Y46771D01*
Y46777D01*
X65283Y46888D01*
X65299Y46993D01*
X65327Y47087D01*
X65355Y47165D01*
X65388Y47232D01*
X65411Y47282D01*
X65433Y47309D01*
X65438Y47321D01*
X65505Y47404D01*
X65583Y47482D01*
X65666Y47548D01*
X65749Y47609D01*
X65821Y47654D01*
X65882Y47687D01*
X65904Y47698D01*
X65921Y47709D01*
X65932Y47715D01*
X65938D01*
X65982Y47737D01*
X66038Y47754D01*
X66099Y47776D01*
X66165Y47798D01*
X66304Y47837D01*
X66448Y47876D01*
X66515Y47892D01*
X66576Y47909D01*
X66637Y47925D01*
X66687Y47937D01*
X66726Y47948D01*
X66759Y47953D01*
X66781Y47959D01*
X66787D01*
X66898Y47987D01*
X66998Y48009D01*
X67087Y48037D01*
X67164Y48059D01*
X67237Y48087D01*
X67298Y48109D01*
X67353Y48131D01*
X67403Y48148D01*
X67442Y48170D01*
X67475Y48186D01*
X67497Y48197D01*
X67519Y48214D01*
X67547Y48231D01*
X67553Y48236D01*
X67603Y48292D01*
X67636Y48347D01*
X67664Y48403D01*
X67680Y48458D01*
X67691Y48503D01*
X67697Y48542D01*
Y48564D01*
Y48575D01*
X67686Y48664D01*
X67664Y48741D01*
X67630Y48808D01*
X67592Y48869D01*
X67558Y48913D01*
X67525Y48952D01*
X67503Y48974D01*
X67492Y48980D01*
X67447Y49008D01*
X67403Y49036D01*
X67298Y49080D01*
X67186Y49108D01*
X67076Y49130D01*
X66976Y49141D01*
X66931Y49147D01*
X66898Y49152D01*
X66820D01*
X66665Y49147D01*
X66526Y49124D01*
X66415Y49091D01*
X66321Y49058D01*
X66249Y49025D01*
X66193Y48991D01*
X66165Y48969D01*
X66154Y48963D01*
X66076Y48886D01*
X66015Y48802D01*
X65965Y48714D01*
X65932Y48625D01*
X65910Y48542D01*
X65893Y48480D01*
X65888Y48453D01*
X65882Y48436D01*
Y48425D01*
Y48419D01*
X65394Y48458D01*
X65405Y48581D01*
X65433Y48691D01*
X65460Y48797D01*
X65499Y48886D01*
X65533Y48958D01*
X65560Y49013D01*
X65571Y49030D01*
X65583Y49047D01*
X65588Y49052D01*
Y49058D01*
X65660Y49152D01*
X65738Y49235D01*
X65821Y49308D01*
X65904Y49363D01*
X65977Y49413D01*
X66032Y49441D01*
X66054Y49452D01*
X66071Y49463D01*
X66082Y49468D01*
X66088D01*
X66210Y49513D01*
X66343Y49546D01*
X66465Y49574D01*
X66582Y49591D01*
X66687Y49602D01*
X66726D01*
X66765Y49607D01*
X66837D01*
X66981Y49602D01*
D02*
G37*
G36*
X29796Y48542D02*
X29885Y48531D01*
X29963Y48514D01*
X30029Y48492D01*
X30085Y48469D01*
X30129Y48453D01*
X30151Y48442D01*
X30163Y48436D01*
X30229Y48392D01*
X30296Y48342D01*
X30351Y48292D01*
X30401Y48236D01*
X30446Y48192D01*
X30473Y48153D01*
X30495Y48131D01*
X30501Y48120D01*
Y48486D01*
X30928D01*
Y44634D01*
X30457D01*
Y45989D01*
X30412Y45933D01*
X30362Y45883D01*
X30307Y45839D01*
X30262Y45805D01*
X30218Y45772D01*
X30185Y45750D01*
X30157Y45739D01*
X30151Y45733D01*
X30079Y45700D01*
X30007Y45678D01*
X29935Y45661D01*
X29868Y45650D01*
X29813Y45645D01*
X29768Y45639D01*
X29730D01*
X29613Y45645D01*
X29496Y45667D01*
X29397Y45694D01*
X29302Y45728D01*
X29225Y45761D01*
X29169Y45789D01*
X29147Y45800D01*
X29130Y45811D01*
X29125Y45816D01*
X29119D01*
X29014Y45894D01*
X28925Y45978D01*
X28847Y46061D01*
X28786Y46144D01*
X28736Y46222D01*
X28697Y46283D01*
X28686Y46305D01*
X28675Y46322D01*
X28670Y46333D01*
Y46338D01*
X28620Y46471D01*
X28581Y46605D01*
X28553Y46732D01*
X28531Y46854D01*
X28520Y46954D01*
Y46999D01*
X28514Y47038D01*
Y47071D01*
Y47093D01*
Y47104D01*
Y47110D01*
X28520Y47254D01*
X28536Y47393D01*
X28558Y47515D01*
X28586Y47626D01*
X28614Y47715D01*
X28625Y47754D01*
X28636Y47787D01*
X28647Y47809D01*
X28653Y47826D01*
X28658Y47837D01*
Y47842D01*
X28714Y47959D01*
X28780Y48064D01*
X28847Y48153D01*
X28914Y48225D01*
X28975Y48281D01*
X29025Y48325D01*
X29058Y48347D01*
X29063Y48358D01*
X29069D01*
X29175Y48419D01*
X29280Y48469D01*
X29385Y48503D01*
X29485Y48525D01*
X29569Y48536D01*
X29607Y48542D01*
X29635Y48547D01*
X29696D01*
X29796Y48542D01*
D02*
G37*
%LPC*%
G36*
X52066Y23539D02*
X52044D01*
X51999Y23535D01*
X51959Y23532D01*
X51881Y23509D01*
X51814Y23480D01*
X51759Y23447D01*
X51714Y23413D01*
X51681Y23384D01*
X51662Y23361D01*
X51655Y23358D01*
Y23354D01*
X51622Y23306D01*
X51592Y23250D01*
X51574Y23195D01*
X51555Y23136D01*
X51544Y23088D01*
X51537Y23043D01*
Y23029D01*
X51533Y23017D01*
Y23010D01*
Y23006D01*
X52573D01*
X52562Y23091D01*
X52539Y23169D01*
X52513Y23236D01*
X52484Y23288D01*
X52458Y23332D01*
X52432Y23365D01*
X52417Y23384D01*
X52410Y23391D01*
X52351Y23439D01*
X52292Y23476D01*
X52229Y23502D01*
X52169Y23521D01*
X52121Y23532D01*
X52081Y23535D01*
X52066Y23539D01*
D02*
G37*
G36*
X55004Y24175D02*
X54197D01*
X54097Y24172D01*
X54012Y24157D01*
X53938Y24138D01*
X53882Y24116D01*
X53834Y24094D01*
X53805Y24076D01*
X53786Y24061D01*
X53779Y24057D01*
X53734Y24009D01*
X53701Y23961D01*
X53679Y23909D01*
X53661Y23865D01*
X53653Y23820D01*
X53649Y23787D01*
X53646Y23765D01*
Y23761D01*
Y23757D01*
X53649Y23713D01*
X53657Y23669D01*
X53668Y23632D01*
X53679Y23598D01*
X53694Y23569D01*
X53705Y23547D01*
X53712Y23532D01*
X53716Y23528D01*
X53742Y23491D01*
X53775Y23458D01*
X53808Y23432D01*
X53842Y23410D01*
X53871Y23395D01*
X53894Y23384D01*
X53908Y23376D01*
X53916Y23373D01*
X53968Y23358D01*
X54027Y23347D01*
X54086Y23339D01*
X54145Y23336D01*
X54197Y23332D01*
X54241Y23328D01*
X55004D01*
Y24175D01*
D02*
G37*
G36*
X61404Y62453D02*
X60341D01*
X60199Y62440D01*
X60088Y62433D01*
X59991Y62420D01*
X59920Y62407D01*
X59875Y62401D01*
X59842Y62388D01*
X59836D01*
X59764Y62362D01*
X59700Y62323D01*
X59648Y62284D01*
X59602Y62245D01*
X59570Y62213D01*
X59544Y62181D01*
X59531Y62161D01*
X59525Y62155D01*
X59486Y62090D01*
X59460Y62025D01*
X59440Y61960D01*
X59427Y61896D01*
X59421Y61844D01*
X59414Y61805D01*
Y61779D01*
Y61766D01*
X59421Y61682D01*
X59434Y61604D01*
X59453Y61539D01*
X59473Y61487D01*
X59492Y61442D01*
X59512Y61403D01*
X59525Y61384D01*
X59531Y61377D01*
X59576Y61325D01*
X59635Y61273D01*
X59693Y61235D01*
X59745Y61209D01*
X59797Y61183D01*
X59836Y61163D01*
X59862Y61157D01*
X59875Y61150D01*
X59946Y61137D01*
X60037Y61124D01*
X60127Y61118D01*
X60218Y61111D01*
X60302Y61105D01*
X61404D01*
Y62453D01*
D02*
G37*
G36*
Y60574D02*
X60224D01*
X60088Y60561D01*
X59978Y60548D01*
X59887Y60535D01*
X59816Y60522D01*
X59758Y60509D01*
X59732Y60502D01*
X59719Y60496D01*
X59635Y60463D01*
X59563Y60425D01*
X59499Y60379D01*
X59447Y60334D01*
X59408Y60295D01*
X59382Y60263D01*
X59363Y60237D01*
X59356Y60230D01*
X59311Y60159D01*
X59278Y60088D01*
X59253Y60016D01*
X59240Y59952D01*
X59227Y59893D01*
X59220Y59841D01*
Y59815D01*
Y59803D01*
X59227Y59725D01*
X59233Y59647D01*
X59246Y59582D01*
X59265Y59530D01*
X59285Y59485D01*
X59298Y59446D01*
X59304Y59427D01*
X59311Y59420D01*
X59350Y59362D01*
X59382Y59310D01*
X59427Y59271D01*
X59460Y59232D01*
X59492Y59206D01*
X59518Y59187D01*
X59538Y59174D01*
X59544Y59167D01*
X59654Y59116D01*
X59764Y59077D01*
X59810Y59064D01*
X59849Y59057D01*
X59875Y59051D01*
X59881D01*
X59933Y59044D01*
X59991Y59038D01*
X60127Y59031D01*
X61404D01*
Y60574D01*
D02*
G37*
G36*
X55196Y61371D02*
X55157D01*
X55079Y61364D01*
X55008Y61358D01*
X54878Y61325D01*
X54762Y61273D01*
X54665Y61215D01*
X54587Y61157D01*
X54529Y61111D01*
X54490Y61073D01*
X54477Y61066D01*
Y61060D01*
X54425Y61001D01*
X54386Y60930D01*
X54315Y60787D01*
X54263Y60632D01*
X54230Y60489D01*
X54211Y60353D01*
X54205Y60295D01*
Y60243D01*
X54198Y60204D01*
Y60172D01*
Y60152D01*
Y60146D01*
Y60029D01*
X54211Y59919D01*
X54224Y59822D01*
X54243Y59725D01*
X54263Y59641D01*
X54289Y59563D01*
X54308Y59491D01*
X54334Y59427D01*
X54360Y59375D01*
X54386Y59323D01*
X54412Y59284D01*
X54431Y59252D01*
X54451Y59226D01*
X54464Y59206D01*
X54470Y59200D01*
X54477Y59193D01*
X54529Y59141D01*
X54587Y59090D01*
X54697Y59012D01*
X54814Y58960D01*
X54917Y58921D01*
X55015Y58902D01*
X55086Y58889D01*
X55118Y58882D01*
X55157D01*
X55235Y58889D01*
X55306Y58895D01*
X55442Y58928D01*
X55559Y58979D01*
X55656Y59038D01*
X55734Y59090D01*
X55792Y59141D01*
X55831Y59174D01*
X55838Y59187D01*
X55844D01*
X55889Y59252D01*
X55935Y59316D01*
X55999Y59465D01*
X56051Y59621D01*
X56084Y59777D01*
X56103Y59913D01*
X56110Y59971D01*
Y60023D01*
X56116Y60068D01*
Y60101D01*
Y60120D01*
Y60127D01*
X56110Y60237D01*
X56103Y60347D01*
X56090Y60444D01*
X56071Y60535D01*
X56051Y60619D01*
X56032Y60697D01*
X56006Y60761D01*
X55980Y60826D01*
X55954Y60878D01*
X55928Y60930D01*
X55909Y60969D01*
X55889Y61001D01*
X55870Y61027D01*
X55857Y61047D01*
X55844Y61053D01*
Y61060D01*
X55792Y61111D01*
X55734Y61163D01*
X55624Y61241D01*
X55507Y61293D01*
X55397Y61332D01*
X55300Y61358D01*
X55228Y61364D01*
X55196Y61371D01*
D02*
G37*
G36*
X48573D02*
X48535D01*
X48457Y61364D01*
X48386Y61358D01*
X48256Y61325D01*
X48139Y61273D01*
X48042Y61215D01*
X47964Y61157D01*
X47906Y61111D01*
X47867Y61073D01*
X47854Y61066D01*
Y61060D01*
X47802Y61001D01*
X47763Y60930D01*
X47692Y60787D01*
X47640Y60632D01*
X47608Y60489D01*
X47589Y60353D01*
X47582Y60295D01*
Y60243D01*
X47576Y60204D01*
Y60172D01*
Y60152D01*
Y60146D01*
Y60029D01*
X47589Y59919D01*
X47601Y59822D01*
X47621Y59725D01*
X47640Y59641D01*
X47666Y59563D01*
X47686Y59491D01*
X47712Y59427D01*
X47738Y59375D01*
X47763Y59323D01*
X47789Y59284D01*
X47809Y59252D01*
X47828Y59226D01*
X47841Y59206D01*
X47848Y59200D01*
X47854Y59193D01*
X47906Y59141D01*
X47964Y59090D01*
X48074Y59012D01*
X48191Y58960D01*
X48295Y58921D01*
X48392Y58902D01*
X48463Y58889D01*
X48496Y58882D01*
X48535D01*
X48612Y58889D01*
X48684Y58895D01*
X48820Y58928D01*
X48936Y58979D01*
X49033Y59038D01*
X49111Y59090D01*
X49170Y59141D01*
X49209Y59174D01*
X49215Y59187D01*
X49221D01*
X49267Y59252D01*
X49312Y59316D01*
X49377Y59465D01*
X49429Y59621D01*
X49461Y59777D01*
X49481Y59913D01*
X49487Y59971D01*
Y60023D01*
X49494Y60068D01*
Y60101D01*
Y60120D01*
Y60127D01*
X49487Y60237D01*
X49481Y60347D01*
X49468Y60444D01*
X49448Y60535D01*
X49429Y60619D01*
X49409Y60697D01*
X49383Y60761D01*
X49358Y60826D01*
X49332Y60878D01*
X49306Y60930D01*
X49286Y60969D01*
X49267Y61001D01*
X49247Y61027D01*
X49234Y61047D01*
X49221Y61053D01*
Y61060D01*
X49170Y61111D01*
X49111Y61163D01*
X49001Y61241D01*
X48884Y61293D01*
X48774Y61332D01*
X48677Y61358D01*
X48606Y61364D01*
X48573Y61371D01*
D02*
G37*
G36*
X64067Y49086D02*
X63179D01*
X63107Y49080D01*
X63035D01*
X62968Y49074D01*
X62858Y49058D01*
X62769Y49047D01*
X62697Y49030D01*
X62647Y49013D01*
X62619Y49008D01*
X62608Y49002D01*
X62508Y48952D01*
X62414Y48891D01*
X62330Y48819D01*
X62258Y48747D01*
X62203Y48680D01*
X62158Y48625D01*
X62147Y48603D01*
X62136Y48586D01*
X62125Y48575D01*
Y48569D01*
X62092Y48508D01*
X62058Y48436D01*
X62008Y48292D01*
X61975Y48136D01*
X61947Y47987D01*
X61942Y47920D01*
X61936Y47853D01*
X61931Y47798D01*
Y47748D01*
X61925Y47704D01*
Y47676D01*
Y47654D01*
Y47648D01*
X61931Y47493D01*
X61942Y47348D01*
X61958Y47221D01*
X61975Y47110D01*
X61986Y47065D01*
X61997Y47026D01*
X62008Y46988D01*
X62014Y46960D01*
X62019Y46938D01*
X62025Y46921D01*
X62031Y46910D01*
Y46904D01*
X62069Y46799D01*
X62114Y46705D01*
X62164Y46621D01*
X62208Y46549D01*
X62247Y46494D01*
X62280Y46455D01*
X62303Y46433D01*
X62308Y46422D01*
X62363Y46377D01*
X62419Y46338D01*
X62475Y46305D01*
X62530Y46272D01*
X62580Y46249D01*
X62619Y46233D01*
X62647Y46227D01*
X62658Y46222D01*
X62741Y46200D01*
X62841Y46183D01*
X62941Y46172D01*
X63035Y46166D01*
X63118Y46161D01*
X63157Y46155D01*
X64067D01*
Y49086D01*
D02*
G37*
G36*
X58723D02*
X57812D01*
X57690Y49074D01*
X57596Y49069D01*
X57513Y49058D01*
X57452Y49047D01*
X57413Y49041D01*
X57385Y49030D01*
X57380D01*
X57319Y49008D01*
X57263Y48974D01*
X57219Y48941D01*
X57180Y48908D01*
X57152Y48880D01*
X57130Y48852D01*
X57119Y48836D01*
X57113Y48830D01*
X57080Y48775D01*
X57058Y48719D01*
X57041Y48664D01*
X57030Y48608D01*
X57025Y48564D01*
X57019Y48531D01*
Y48508D01*
Y48497D01*
X57025Y48425D01*
X57036Y48358D01*
X57052Y48303D01*
X57069Y48259D01*
X57086Y48220D01*
X57102Y48186D01*
X57113Y48170D01*
X57119Y48164D01*
X57158Y48120D01*
X57208Y48075D01*
X57258Y48042D01*
X57302Y48020D01*
X57346Y47998D01*
X57380Y47981D01*
X57402Y47976D01*
X57413Y47970D01*
X57474Y47959D01*
X57552Y47948D01*
X57629Y47942D01*
X57707Y47937D01*
X57779Y47931D01*
X58723D01*
Y49086D01*
D02*
G37*
G36*
Y47476D02*
X57713D01*
X57596Y47465D01*
X57502Y47454D01*
X57424Y47443D01*
X57363Y47432D01*
X57313Y47420D01*
X57291Y47415D01*
X57280Y47409D01*
X57208Y47382D01*
X57147Y47348D01*
X57091Y47309D01*
X57047Y47271D01*
X57013Y47237D01*
X56991Y47210D01*
X56975Y47187D01*
X56969Y47182D01*
X56930Y47121D01*
X56902Y47060D01*
X56880Y46999D01*
X56869Y46943D01*
X56858Y46893D01*
X56852Y46849D01*
Y46827D01*
Y46816D01*
X56858Y46749D01*
X56863Y46682D01*
X56875Y46627D01*
X56891Y46582D01*
X56908Y46544D01*
X56919Y46510D01*
X56924Y46494D01*
X56930Y46488D01*
X56963Y46438D01*
X56991Y46394D01*
X57030Y46360D01*
X57058Y46327D01*
X57086Y46305D01*
X57108Y46288D01*
X57124Y46277D01*
X57130Y46272D01*
X57224Y46227D01*
X57319Y46194D01*
X57357Y46183D01*
X57391Y46177D01*
X57413Y46172D01*
X57419D01*
X57463Y46166D01*
X57513Y46161D01*
X57629Y46155D01*
X58723D01*
Y47476D01*
D02*
G37*
G36*
X53406Y48159D02*
X53373D01*
X53306Y48153D01*
X53245Y48148D01*
X53134Y48120D01*
X53034Y48075D01*
X52951Y48026D01*
X52884Y47976D01*
X52834Y47937D01*
X52801Y47903D01*
X52790Y47898D01*
Y47892D01*
X52745Y47842D01*
X52712Y47781D01*
X52651Y47659D01*
X52607Y47526D01*
X52579Y47404D01*
X52562Y47287D01*
X52557Y47237D01*
Y47193D01*
X52551Y47160D01*
Y47132D01*
Y47115D01*
Y47110D01*
Y47010D01*
X52562Y46915D01*
X52573Y46832D01*
X52590Y46749D01*
X52607Y46677D01*
X52629Y46610D01*
X52645Y46549D01*
X52668Y46494D01*
X52690Y46449D01*
X52712Y46405D01*
X52734Y46372D01*
X52751Y46344D01*
X52768Y46322D01*
X52779Y46305D01*
X52784Y46299D01*
X52790Y46294D01*
X52834Y46249D01*
X52884Y46205D01*
X52978Y46139D01*
X53078Y46094D01*
X53167Y46061D01*
X53250Y46044D01*
X53312Y46033D01*
X53339Y46027D01*
X53373D01*
X53439Y46033D01*
X53500Y46038D01*
X53617Y46066D01*
X53717Y46111D01*
X53800Y46161D01*
X53866Y46205D01*
X53916Y46249D01*
X53950Y46277D01*
X53955Y46288D01*
X53961D01*
X54000Y46344D01*
X54039Y46399D01*
X54094Y46527D01*
X54138Y46660D01*
X54166Y46793D01*
X54183Y46910D01*
X54188Y46960D01*
Y47004D01*
X54194Y47043D01*
Y47071D01*
Y47087D01*
Y47093D01*
X54188Y47187D01*
X54183Y47282D01*
X54172Y47365D01*
X54155Y47443D01*
X54138Y47515D01*
X54122Y47581D01*
X54100Y47637D01*
X54077Y47692D01*
X54055Y47737D01*
X54033Y47781D01*
X54016Y47815D01*
X54000Y47842D01*
X53983Y47864D01*
X53972Y47881D01*
X53961Y47887D01*
Y47892D01*
X53916Y47937D01*
X53866Y47981D01*
X53772Y48048D01*
X53672Y48092D01*
X53578Y48125D01*
X53495Y48148D01*
X53434Y48153D01*
X53406Y48159D01*
D02*
G37*
G36*
X35807Y48159D02*
X35774D01*
X35707Y48153D01*
X35646Y48147D01*
X35535Y48120D01*
X35435Y48075D01*
X35352Y48025D01*
X35285Y47976D01*
X35235Y47937D01*
X35202Y47903D01*
X35191Y47898D01*
Y47892D01*
X35146Y47842D01*
X35113Y47781D01*
X35052Y47659D01*
X35008Y47526D01*
X34980Y47404D01*
X34963Y47287D01*
X34958Y47237D01*
Y47193D01*
X34952Y47160D01*
Y47132D01*
Y47115D01*
Y47110D01*
Y47010D01*
X34963Y46915D01*
X34974Y46832D01*
X34991Y46749D01*
X35008Y46677D01*
X35030Y46610D01*
X35046Y46549D01*
X35069Y46494D01*
X35091Y46449D01*
X35113Y46405D01*
X35135Y46371D01*
X35152Y46344D01*
X35168Y46322D01*
X35180Y46305D01*
X35185Y46299D01*
X35191Y46294D01*
X35235Y46249D01*
X35285Y46205D01*
X35379Y46138D01*
X35479Y46094D01*
X35568Y46061D01*
X35651Y46044D01*
X35713Y46033D01*
X35740Y46027D01*
X35774D01*
X35840Y46033D01*
X35901Y46038D01*
X36018Y46066D01*
X36118Y46111D01*
X36201Y46161D01*
X36268Y46205D01*
X36317Y46249D01*
X36351Y46277D01*
X36356Y46288D01*
X36362D01*
X36401Y46344D01*
X36439Y46399D01*
X36495Y46527D01*
X36539Y46660D01*
X36567Y46793D01*
X36584Y46910D01*
X36589Y46960D01*
Y47004D01*
X36595Y47043D01*
Y47071D01*
Y47087D01*
Y47093D01*
X36589Y47187D01*
X36584Y47282D01*
X36573Y47365D01*
X36556Y47443D01*
X36539Y47515D01*
X36523Y47581D01*
X36500Y47637D01*
X36478Y47692D01*
X36456Y47737D01*
X36434Y47781D01*
X36417Y47815D01*
X36401Y47842D01*
X36384Y47864D01*
X36373Y47881D01*
X36362Y47887D01*
Y47892D01*
X36317Y47937D01*
X36268Y47981D01*
X36173Y48048D01*
X36073Y48092D01*
X35979Y48125D01*
X35896Y48147D01*
X35835Y48153D01*
X35807Y48159D01*
D02*
G37*
G36*
X29768Y48175D02*
X29741D01*
X29685Y48170D01*
X29630Y48164D01*
X29530Y48136D01*
X29441Y48092D01*
X29363Y48042D01*
X29302Y47992D01*
X29258Y47953D01*
X29230Y47920D01*
X29219Y47914D01*
Y47909D01*
X29180Y47859D01*
X29147Y47798D01*
X29091Y47670D01*
X29052Y47543D01*
X29025Y47415D01*
X29008Y47298D01*
X29002Y47248D01*
Y47204D01*
X28997Y47165D01*
Y47137D01*
Y47121D01*
Y47115D01*
Y47015D01*
X29008Y46921D01*
X29019Y46832D01*
X29030Y46749D01*
X29047Y46677D01*
X29069Y46610D01*
X29091Y46544D01*
X29108Y46494D01*
X29130Y46444D01*
X29152Y46405D01*
X29169Y46366D01*
X29191Y46338D01*
X29202Y46316D01*
X29213Y46299D01*
X29225Y46294D01*
Y46288D01*
X29269Y46244D01*
X29313Y46205D01*
X29402Y46138D01*
X29491Y46094D01*
X29574Y46061D01*
X29652Y46044D01*
X29707Y46033D01*
X29730Y46027D01*
X29763D01*
X29818Y46033D01*
X29874Y46038D01*
X29974Y46066D01*
X30062Y46111D01*
X30140Y46155D01*
X30201Y46200D01*
X30246Y46244D01*
X30274Y46272D01*
X30285Y46283D01*
X30323Y46333D01*
X30357Y46388D01*
X30412Y46516D01*
X30446Y46643D01*
X30473Y46777D01*
X30490Y46893D01*
X30495Y46943D01*
Y46988D01*
X30501Y47026D01*
Y47054D01*
Y47071D01*
Y47076D01*
Y47176D01*
X30490Y47265D01*
X30479Y47348D01*
X30468Y47432D01*
X30446Y47504D01*
X30429Y47570D01*
X30407Y47631D01*
X30384Y47687D01*
X30368Y47731D01*
X30346Y47776D01*
X30323Y47809D01*
X30307Y47842D01*
X30296Y47864D01*
X30285Y47881D01*
X30274Y47887D01*
Y47892D01*
X30229Y47942D01*
X30185Y47987D01*
X30140Y48025D01*
X30090Y48059D01*
X30002Y48109D01*
X29918Y48142D01*
X29846Y48159D01*
X29791Y48170D01*
X29768Y48175D01*
D02*
G37*
%LPD*%
D13*
X18743Y29702D02*
G03*
X18743Y29702I-394J0D01*
G01*
D14*
X20381Y28069D02*
Y30234D01*
X18400Y28069D02*
X20381D01*
X6208Y31415D02*
Y70785D01*
X20381Y71966D02*
Y74132D01*
X18400D02*
X20381D01*
M02*
