G04*
G04 #@! TF.GenerationSoftware,Altium Limited,Altium Designer,23.0.1 (38)*
G04*
G04 Layer_Color=16711935*
%FSLAX25Y25*%
%MOIN*%
G70*
G04*
G04 #@! TF.SameCoordinates,78B848BC-93E4-4EEF-81BE-5096D5435DE8*
G04*
G04*
G04 #@! TF.FilePolarity,Positive*
G04*
G01*
G75*
%ADD103C,0.01000*%
D103*
X0Y50500D02*
X200Y46900D01*
X700Y42900D01*
X2100Y36800D01*
X49400Y102400D02*
X53000D01*
X45400Y102100D02*
X49400Y102400D01*
X53000D02*
X55500Y102200D01*
X58800Y101800D01*
X61200Y101400D01*
X63900Y100800D01*
X92600Y81300D02*
X95200Y77400D01*
X90500Y84000D02*
X92600Y81300D01*
X95200Y77400D02*
X97700Y72600D01*
X4700D02*
X5900Y75000D01*
X3200Y69100D02*
X4700Y72600D01*
X1900Y64900D02*
X3200Y69100D01*
X900Y60700D02*
X1900Y64900D01*
X300Y56600D02*
X900Y60700D01*
X100Y53900D02*
X300Y56600D01*
X0Y50500D02*
X100Y53900D01*
X2100Y36800D02*
X4300Y30700D01*
X7000Y25400D01*
X10000Y20800D01*
X14000Y16000D01*
X18800Y11600D01*
X24800Y7400D01*
X30300Y4500D01*
X35200Y2600D01*
X41300Y1000D01*
X47100Y200D01*
X52200Y0D01*
X56900Y300D01*
X61300Y1000D01*
X66000Y2200D01*
X69800Y3500D01*
X73000Y4900D01*
X75800Y6300D01*
X79000Y8200D01*
X82600Y10800D01*
X85200Y12900D01*
X87400Y15000D01*
X89800Y17600D01*
X91800Y20000D01*
X93300Y22000D01*
X95100Y24800D01*
X96300Y27000D01*
X97700Y29900D01*
Y72600D01*
X88200Y86500D02*
X90500Y84000D01*
X85900Y88800D02*
X88200Y86500D01*
X84200Y90300D02*
X85900Y88800D01*
X82100Y92000D02*
X84200Y90300D01*
X79400Y93900D02*
X82100Y92000D01*
X74100Y97000D02*
X79400Y93900D01*
X70500Y98600D02*
X74100Y97000D01*
X66400Y100100D02*
X70500Y98600D01*
X63900Y100800D02*
X66400Y100100D01*
X41300Y101500D02*
X45400Y102100D01*
X34200Y99500D02*
X41300Y101500D01*
X30400Y98000D02*
X34200Y99500D01*
X27400Y96500D02*
X30400Y98000D01*
X24700Y95000D02*
X27400Y96500D01*
X19600Y91500D02*
X24700Y95000D01*
X15900Y88300D02*
X19600Y91500D01*
X13000Y85300D02*
X15900Y88300D01*
X10700Y82500D02*
X13000Y85300D01*
X9100Y80300D02*
X10700Y82500D01*
X7700Y78100D02*
X9100Y80300D01*
X5900Y75000D02*
X7700Y78100D01*
M02*
