G04*
G04 #@! TF.GenerationSoftware,Altium Limited,Altium Designer,23.0.1 (38)*
G04*
G04 Layer_Color=255*
%FSLAX25Y25*%
%MOIN*%
G70*
G04*
G04 #@! TF.SameCoordinates,78B848BC-93E4-4EEF-81BE-5096D5435DE8*
G04*
G04*
G04 #@! TF.FilePolarity,Positive*
G04*
G01*
G75*
%ADD107C,0.05000*%
%ADD113C,0.02500*%
%ADD114R,0.04537X0.01681*%
%ADD115R,0.03456X0.01181*%
D107*
X85451Y65917D02*
D03*
Y36300D02*
D03*
D113*
X62800Y36000D02*
D03*
Y31000D02*
D03*
X57800Y36000D02*
D03*
X47800D02*
D03*
Y31000D02*
D03*
X42800D02*
D03*
Y36000D02*
D03*
X57800Y31000D02*
D03*
X52800Y36000D02*
D03*
Y31000D02*
D03*
X62800Y15100D02*
D03*
Y10100D02*
D03*
X57800Y15100D02*
D03*
X47800D02*
D03*
Y10100D02*
D03*
X42800D02*
D03*
Y15100D02*
D03*
X57800Y10100D02*
D03*
X52800Y15100D02*
D03*
Y10100D02*
D03*
X27100Y86800D02*
D03*
X32100D02*
D03*
Y81800D02*
D03*
X27100D02*
D03*
Y71800D02*
D03*
X32100D02*
D03*
Y76800D02*
D03*
X27100D02*
D03*
X44300Y86800D02*
D03*
X49300D02*
D03*
Y81800D02*
D03*
X44300D02*
D03*
Y71800D02*
D03*
X49300D02*
D03*
Y76800D02*
D03*
X44300D02*
D03*
D114*
X8800Y29400D02*
D03*
Y72800D02*
D03*
D115*
X19400Y69801D02*
D03*
Y67832D02*
D03*
Y65864D02*
D03*
Y63895D02*
D03*
Y61927D02*
D03*
Y59958D02*
D03*
Y57990D02*
D03*
Y56021D02*
D03*
Y54053D02*
D03*
Y52084D02*
D03*
Y50116D02*
D03*
Y48147D02*
D03*
Y46179D02*
D03*
Y44210D02*
D03*
Y42242D02*
D03*
Y40273D02*
D03*
Y38305D02*
D03*
Y36336D02*
D03*
Y34368D02*
D03*
Y32399D02*
D03*
M02*
