G04*
G04 #@! TF.GenerationSoftware,Altium Limited,Altium Designer,23.0.1 (38)*
G04*
G04 Layer_Color=65535*
%FSLAX25Y25*%
%MOIN*%
G70*
G04*
G04 #@! TF.SameCoordinates,78B848BC-93E4-4EEF-81BE-5096D5435DE8*
G04*
G04*
G04 #@! TF.FilePolarity,Positive*
G04*
G01*
G75*
%ADD10C,0.00600*%
%ADD11C,0.00394*%
%ADD12C,0.00787*%
%ADD13C,0.00984*%
%ADD14C,0.00500*%
%ADD15C,0.00524*%
%ADD16C,0.00487*%
%ADD17C,0.00400*%
%ADD18C,0.00300*%
%ADD19C,0.00221*%
%ADD20C,0.00100*%
D10*
X3800Y60400D02*
G03*
X3800Y60400I-400J0D01*
G01*
X66692Y97987D02*
G03*
X66616Y97981I-61J294D01*
G01*
X8550Y49125D02*
Y55675D01*
X1050Y49125D02*
Y55675D01*
X50850Y16250D02*
X51540D01*
X58260D02*
X58950D01*
Y3850D02*
Y16250D01*
X50850Y3850D02*
X51540D01*
X50850D02*
Y16250D01*
X58260Y3850D02*
X58950D01*
X53537Y77732D02*
Y92931D01*
X71037D01*
Y77732D02*
Y92931D01*
X53537Y77732D02*
X71037D01*
D11*
X23903Y70862D02*
G03*
X23509Y70862I-197J0D01*
G01*
D02*
G03*
X23903Y70862I197J0D01*
G01*
X33291Y66138D02*
G03*
X32897Y66138I-197J0D01*
G01*
D02*
G03*
X33291Y66138I197J0D01*
G01*
X23357Y61387D02*
G03*
X23750Y61387I197J0D01*
G01*
D02*
G03*
X23357Y61387I-197J0D01*
G01*
X16800Y80000D02*
G03*
X16800Y80000I-400J0D01*
G01*
X16500D02*
G03*
X16500Y80000I-100J0D01*
G01*
X39335Y22138D02*
X41138Y20335D01*
X47665D01*
Y28665D01*
X39335D02*
X47665D01*
X39335Y22138D02*
Y28665D01*
X97477Y30456D02*
Y51125D01*
X36454Y30456D02*
X97477D01*
X36454D02*
Y71794D01*
X97477D01*
Y51125D02*
Y71794D01*
D12*
X37594Y94800D02*
G03*
X37594Y94800I-394J0D01*
G01*
Y84500D02*
G03*
X37594Y84500I-394J0D01*
G01*
X27400Y35900D02*
G03*
X27400Y35900I-200J0D01*
G01*
X64682Y28736D02*
G03*
X64682Y28736I-394J0D01*
G01*
X39728Y20335D02*
G03*
X39728Y20335I-394J0D01*
G01*
X10382Y56604D02*
G03*
X10382Y56604I-394J0D01*
G01*
X43800Y4150D02*
Y10450D01*
D13*
X22530Y11579D02*
G03*
X22530Y11579I-23J0D01*
G01*
X16100Y26200D02*
G03*
X16100Y26200I-200J0D01*
G01*
X79523Y27200D02*
G03*
X79523Y27200I-23J0D01*
G01*
X16139Y67679D02*
G03*
X16139Y67679I-31J0D01*
G01*
X53381Y94432D02*
G03*
X53381Y94432I-394J0D01*
G01*
D14*
X17069Y28209D02*
Y29391D01*
X25731Y28209D02*
Y29391D01*
X29853Y87747D02*
Y89125D01*
X36546Y87747D02*
Y89125D01*
X29853Y92275D02*
Y93653D01*
X36546Y92275D02*
Y93653D01*
Y81975D02*
Y83353D01*
X29853Y81975D02*
Y83353D01*
X36546Y77447D02*
Y78825D01*
X29853Y77447D02*
Y78825D01*
X61532Y26965D02*
X64879D01*
X61532Y14169D02*
Y26965D01*
X74721D02*
X78068D01*
Y14169D02*
Y26965D01*
X65863Y10035D02*
X73737D01*
D15*
X8900Y27000D02*
X15100D01*
X8900D02*
Y31800D01*
X15100D01*
Y27000D02*
Y31800D01*
D16*
X9988Y58631D02*
X12016Y56604D01*
X16012D01*
Y64596D01*
X9988D02*
X16012D01*
X9988Y58631D02*
Y64596D01*
D17*
X17200Y73100D02*
X21600D01*
X17200D02*
Y79500D01*
X21600Y73100D02*
Y79500D01*
X17200D02*
X21600D01*
D18*
X80300Y22800D02*
Y28200D01*
X84369Y22800D02*
Y28200D01*
X80300Y22800D02*
X84369D01*
X80300Y28200D02*
X84369D01*
X59640Y18550D02*
X58328Y17238D01*
Y18550D02*
X59640Y17238D01*
X58984Y18550D02*
Y17238D01*
X58328Y17894D02*
X59640D01*
D19*
X9308Y66540D02*
X15308D01*
Y71540D01*
X9308Y66540D02*
Y71540D01*
X15308D01*
D20*
X63074Y77232D02*
Y78232D01*
Y92431D02*
Y93432D01*
X70537Y83757D02*
X71537D01*
X53037D02*
X54037D01*
M02*
