G04*
G04 #@! TF.GenerationSoftware,Altium Limited,Altium Designer,23.0.1 (38)*
G04*
G04 Layer_Physical_Order=1*
G04 Layer_Color=255*
%FSLAX25Y25*%
%MOIN*%
G70*
G04*
G04 #@! TF.SameCoordinates,78B848BC-93E4-4EEF-81BE-5096D5435DE8*
G04*
G04*
G04 #@! TF.FilePolarity,Positive*
G04*
G01*
G75*
%ADD10C,0.00600*%
%ADD14C,0.00500*%
%ADD17C,0.00400*%
%ADD21R,0.08740X0.03682*%
%ADD22R,0.01181X0.01260*%
%ADD23R,0.01378X0.01260*%
%ADD24R,0.01181X0.01378*%
%ADD25R,0.05500X0.02400*%
%ADD26R,0.01575X0.02756*%
%ADD27R,0.01575X0.00984*%
%ADD28R,0.02362X0.01300*%
%ADD29R,0.01130X0.02165*%
%ADD30R,0.00900X0.02165*%
%ADD31R,0.01614X0.02565*%
%ADD32R,0.01693X0.00987*%
%ADD33R,0.03524X0.01525*%
%ADD34R,0.02362X0.03347*%
%ADD35R,0.02756X0.03150*%
%ADD36C,0.00850*%
%ADD37C,0.00850*%
%ADD38C,0.01199*%
%ADD39C,0.00984*%
%ADD40C,0.00900*%
%ADD41R,0.04100X0.04100*%
%ADD42R,0.01800X0.01700*%
%ADD43R,0.03150X0.07087*%
%ADD47R,0.03937X0.03150*%
%ADD48R,0.03150X0.03937*%
%ADD49R,0.02362X0.02165*%
%ADD50R,0.02165X0.02362*%
%ADD51R,0.01260X0.01378*%
%ADD52R,0.01378X0.01181*%
%ADD53R,0.01260X0.01181*%
%ADD54R,0.02362X0.01575*%
%ADD55R,0.01575X0.02362*%
%ADD95R,0.01000X0.01700*%
%ADD96C,0.01098*%
%ADD97C,0.00988*%
%ADD98P,0.03229X4X180.0*%
%ADD99C,0.01200*%
%ADD100C,0.01500*%
%ADD101C,0.02000*%
%ADD102C,0.00800*%
%ADD103C,0.01000*%
%ADD104C,0.00700*%
%ADD105C,0.03000*%
%ADD106C,0.02500*%
%ADD107C,0.05000*%
%ADD108C,0.01000*%
%ADD109C,0.02000*%
%ADD110C,0.01600*%
%ADD111C,0.01200*%
%ADD112C,0.01400*%
G36*
X44811Y100481D02*
Y98809D01*
X46572D01*
X46693Y98556D01*
X46496Y98289D01*
X44870D01*
Y96111D01*
X45383D01*
Y96054D01*
X45434Y95800D01*
X45577Y95585D01*
X46633Y94530D01*
X46426Y94030D01*
X45909D01*
Y93400D01*
X47000D01*
Y92400D01*
X45909D01*
Y91770D01*
X45418Y91749D01*
X45169D01*
X44191Y92728D01*
Y93889D01*
X43914D01*
Y94299D01*
X43859Y94572D01*
X43705Y94804D01*
X42904Y95605D01*
X42896Y95610D01*
X42898Y95684D01*
X43048Y96109D01*
X43630D01*
Y96831D01*
X43646Y96909D01*
X43630Y96988D01*
Y98090D01*
X41570D01*
Y97984D01*
X41070Y97944D01*
X41066Y97948D01*
X40699Y98100D01*
X40301D01*
X39934Y97948D01*
X39691Y97705D01*
X39514Y97724D01*
X39191Y97858D01*
Y98089D01*
X37209D01*
Y95911D01*
X37486D01*
Y95451D01*
X37541Y95178D01*
X37695Y94947D01*
X38047Y94595D01*
X38278Y94441D01*
X38552Y94386D01*
X39306D01*
X39411Y93930D01*
X39411Y93886D01*
Y93300D01*
X40600D01*
Y92300D01*
X39296D01*
X38911Y92112D01*
X38699Y92200D01*
X38301D01*
X37934Y92048D01*
X37780Y91895D01*
X37340Y91750D01*
X37340Y91750D01*
Y91750D01*
X37340Y91750D01*
X36582D01*
X36134Y91875D01*
X36134Y92250D01*
Y94840D01*
X35882D01*
Y95970D01*
X36689D01*
Y98030D01*
X34767D01*
X34684Y98530D01*
X37012Y99332D01*
X40970Y100338D01*
X41254Y100200D01*
X42600D01*
X43730D01*
Y100791D01*
X43730Y100791D01*
X44183Y100883D01*
X44362Y100913D01*
X44811Y100481D01*
D02*
G37*
G36*
X34511Y97942D02*
Y96904D01*
X34509Y96901D01*
X34455Y96628D01*
Y95070D01*
X34050Y94840D01*
X32350Y94840D01*
X31850Y94840D01*
X30266D01*
Y94071D01*
X29658D01*
X29384Y94017D01*
X29153Y93862D01*
X27891Y92600D01*
X27701D01*
X27334Y92448D01*
X27052Y92166D01*
X26952Y91924D01*
X26491Y91830D01*
X26413Y91830D01*
X24509D01*
Y89770D01*
X25184D01*
Y86891D01*
X24970D01*
Y84909D01*
X27030D01*
Y86891D01*
X26816D01*
Y88260D01*
X27301Y88600D01*
X27699D01*
X28066Y88752D01*
X28348Y89034D01*
X28500Y89401D01*
Y89453D01*
X28960Y89550D01*
X29000Y89550D01*
X29777D01*
X30266Y89525D01*
X30266Y89050D01*
Y87569D01*
X28395Y85698D01*
X28241Y85466D01*
X28186Y85193D01*
Y84900D01*
X28052Y84766D01*
X27900Y84399D01*
Y84001D01*
X28052Y83634D01*
X28334Y83352D01*
X28701Y83200D01*
X29099D01*
X29466Y83352D01*
X29748Y83634D01*
X29766Y83679D01*
X30266Y83579D01*
X30266Y81575D01*
X29777Y81550D01*
X28960D01*
Y80796D01*
X28489Y80450D01*
X28111D01*
X27762Y80305D01*
X27589Y80133D01*
X27147Y80251D01*
X27089Y80286D01*
Y80690D01*
X26372D01*
X25353Y81709D01*
X25500Y82064D01*
Y82800D01*
X24630D01*
X24370Y82692D01*
X23830Y83232D01*
X23500Y83453D01*
X23110Y83531D01*
X22190D01*
Y83689D01*
X20210D01*
Y83182D01*
X20189Y83162D01*
X19689Y83376D01*
Y83630D01*
X17511D01*
Y83416D01*
X16699D01*
X16667Y83448D01*
X16448Y83538D01*
Y84062D01*
X16667Y84152D01*
X16948Y84434D01*
X17100Y84801D01*
Y84991D01*
X17141Y85032D01*
X17510Y85311D01*
Y85311D01*
X17510Y85311D01*
X19428D01*
X19911Y85270D01*
X19974Y85270D01*
X20600D01*
Y86400D01*
Y87530D01*
X19974D01*
X19911Y87530D01*
X19428Y87489D01*
X17510D01*
Y86975D01*
X17361D01*
X17088Y86920D01*
X16856Y86766D01*
X16293Y86202D01*
X16078Y86216D01*
X15978Y86351D01*
X15886Y86728D01*
X18833Y89455D01*
X21360Y91431D01*
X21628Y91300D01*
X22900D01*
X23990D01*
Y91930D01*
X22887D01*
X22738Y92430D01*
X25599Y94307D01*
X29260Y96296D01*
X33073Y97975D01*
X34141Y98343D01*
X34511Y97942D01*
D02*
G37*
G36*
X70156Y97749D02*
X73681Y96182D01*
X75851Y94912D01*
X75721Y94430D01*
X75209D01*
Y93800D01*
X76300D01*
Y93300D01*
X76800D01*
Y92170D01*
X77390D01*
Y93510D01*
X77824Y93759D01*
X78904Y93127D01*
X81547Y91267D01*
X83608Y89599D01*
X85272Y88131D01*
X87538Y85865D01*
X89799Y83407D01*
X91855Y80763D01*
X94409Y76932D01*
X94646Y76478D01*
X94502Y76305D01*
X94259Y76138D01*
X93989Y76250D01*
X93611D01*
X93250Y76611D01*
Y76989D01*
X93105Y77338D01*
X92838Y77605D01*
X92489Y77750D01*
X92111D01*
X91762Y77605D01*
X91495Y77338D01*
X91350Y76989D01*
Y76924D01*
X91089Y76750D01*
X90711D01*
X90362Y76605D01*
X90095Y76338D01*
X89950Y75989D01*
Y75800D01*
X84800D01*
Y76230D01*
X82619D01*
Y76230D01*
X82122Y76110D01*
X82100Y76130D01*
X81922Y76556D01*
X81867Y76832D01*
X81668Y77130D01*
X81102Y77696D01*
X80751Y78050D01*
Y79232D01*
X79168D01*
Y80231D01*
X80751D01*
Y81413D01*
X79798D01*
X79591Y81913D01*
X79770Y82092D01*
X79770Y82092D01*
X79947Y82357D01*
X80009Y82669D01*
Y83050D01*
X80676D01*
Y86213D01*
X80009D01*
Y87550D01*
X80676D01*
Y90713D01*
X77711D01*
Y87550D01*
X78378D01*
Y86213D01*
X77711D01*
Y83050D01*
X77225Y83016D01*
X77225D01*
X76739Y83050D01*
Y86213D01*
X76072D01*
Y87550D01*
X76739D01*
Y90713D01*
X73774D01*
Y89316D01*
X70279D01*
X70072Y89816D01*
X70249Y89993D01*
X70448Y90290D01*
X70518Y90642D01*
Y91202D01*
X70600Y91401D01*
Y91799D01*
X70448Y92166D01*
X70166Y92448D01*
X69799Y92600D01*
X69401D01*
X69034Y92448D01*
X68752Y92166D01*
X68600Y91799D01*
Y91401D01*
X68258Y90974D01*
X67799D01*
X67642Y90942D01*
X67210Y91212D01*
X67142Y91301D01*
Y92461D01*
X67200Y92601D01*
Y92999D01*
X67499Y93400D01*
X67866Y93552D01*
X67898Y93584D01*
X72262D01*
X72710Y93137D01*
Y92270D01*
X74691D01*
Y94330D01*
X73824D01*
X73177Y94977D01*
X72912Y95154D01*
X72600Y95216D01*
X72600Y95216D01*
X67898D01*
X67866Y95248D01*
X67724Y95307D01*
X67350Y95711D01*
Y96089D01*
X67205Y96438D01*
X66938Y96705D01*
X66930Y96709D01*
Y97250D01*
X67038Y97295D01*
X67305Y97562D01*
X67450Y97911D01*
Y98206D01*
X67677Y98450D01*
X67868Y98586D01*
X70156Y97749D01*
D02*
G37*
G36*
X39322Y90087D02*
X39411Y89995D01*
Y89900D01*
X40600D01*
Y89400D01*
X41100D01*
Y88270D01*
X41726D01*
X41789Y88270D01*
X42050Y88292D01*
X42551Y87935D01*
Y86689D01*
X42209D01*
Y84511D01*
X44191D01*
Y86689D01*
X44624Y86851D01*
X45459D01*
X45909Y86730D01*
X45909Y86351D01*
Y86100D01*
X47000D01*
Y85100D01*
X45909D01*
Y84470D01*
X45501Y84249D01*
X45100D01*
X44641Y84059D01*
X43371Y82789D01*
X42209D01*
Y80611D01*
X44191D01*
Y81772D01*
X45369Y82951D01*
X45459D01*
X45909Y82830D01*
X45909Y82450D01*
Y82200D01*
X47000D01*
Y81200D01*
X45909D01*
Y80650D01*
X45909Y80570D01*
X45718Y80149D01*
X45430D01*
X44971Y79959D01*
X43712Y78700D01*
X42570D01*
Y78423D01*
X41189D01*
Y78700D01*
X39011D01*
Y76719D01*
X41189D01*
Y76996D01*
X42570D01*
Y76719D01*
X44630D01*
Y77782D01*
X45370Y78522D01*
X45870Y78315D01*
Y76819D01*
X47930D01*
Y76994D01*
X49170D01*
Y76819D01*
X51230D01*
X51230Y76819D01*
X51725Y76806D01*
X51900Y76734D01*
Y74381D01*
X51830Y74339D01*
X51750Y74349D01*
X51330Y74622D01*
Y74709D01*
X49070D01*
Y74119D01*
X48661Y73900D01*
X48439D01*
X48030Y74119D01*
X48030Y74400D01*
Y74709D01*
X45770D01*
Y74119D01*
X45361Y73900D01*
X45181D01*
X44730Y74019D01*
X44730Y74400D01*
Y74610D01*
X42470D01*
Y74019D01*
X42019Y73900D01*
X41580D01*
X41130Y74020D01*
X41130Y74400D01*
Y76198D01*
X39070D01*
Y75823D01*
X37556D01*
X36462Y76918D01*
X36415Y76988D01*
X36134Y77269D01*
Y78834D01*
X36134Y79225D01*
X36588Y79334D01*
X37152D01*
X37152Y79334D01*
X37434Y79052D01*
X37801Y78900D01*
X38199D01*
X38566Y79052D01*
X38848Y79334D01*
X39000Y79701D01*
Y80099D01*
X38848Y80466D01*
X38566Y80748D01*
X38199Y80900D01*
X38013D01*
X38008Y80904D01*
X37696Y80966D01*
X37340Y81284D01*
Y81450D01*
X36582D01*
X36256Y81541D01*
X36190Y82047D01*
X36487Y82344D01*
X38888D01*
X39511Y81721D01*
Y80670D01*
X41689D01*
Y82730D01*
X40520D01*
X39688Y83562D01*
X39457Y83717D01*
X39184Y83771D01*
X36134D01*
Y84418D01*
X36173Y84486D01*
X36521Y84812D01*
X36652Y84786D01*
X39511D01*
Y84570D01*
X41689D01*
Y86630D01*
X39511D01*
Y86214D01*
X36948D01*
X36147Y87015D01*
Y87778D01*
X36134Y87846D01*
X36134Y89525D01*
X36582Y89650D01*
X37340D01*
Y89884D01*
X37946D01*
X37946Y89884D01*
X38258Y89946D01*
X38523Y90123D01*
X38599Y90200D01*
X38699D01*
X38911Y90288D01*
X39322Y90087D01*
D02*
G37*
G36*
X14971Y85250D02*
X15100Y85148D01*
Y84801D01*
X15252Y84434D01*
X15533Y84152D01*
X15752Y84062D01*
Y83538D01*
X15533Y83448D01*
X15252Y83166D01*
X15100Y82799D01*
Y82401D01*
X15252Y82034D01*
X15533Y81752D01*
X15901Y81600D01*
X16299D01*
X16667Y81752D01*
X16699Y81784D01*
X17511D01*
Y81570D01*
X19013D01*
X19121Y81070D01*
X18898Y80921D01*
X17695Y79718D01*
X17474Y79387D01*
X17396Y78997D01*
Y78268D01*
X17474Y77878D01*
X17513Y77820D01*
X17246Y77320D01*
X15900D01*
X15510Y77242D01*
X15391Y77162D01*
X14890Y77421D01*
Y79289D01*
X14516D01*
Y79789D01*
X14462Y80062D01*
X14308Y80294D01*
X13900Y80701D01*
Y80999D01*
X13748Y81366D01*
X13466Y81648D01*
X13099Y81800D01*
X12701D01*
X12333Y81648D01*
X12052Y81366D01*
X11900Y80999D01*
Y80601D01*
X12052Y80234D01*
X12333Y79952D01*
X12375Y79935D01*
X12460Y79359D01*
X12437Y79339D01*
X12394Y79330D01*
X11800D01*
Y78200D01*
Y77070D01*
X12426D01*
X12489Y77070D01*
X12972Y77111D01*
X14638D01*
X14841Y76844D01*
X14947Y76634D01*
X14880Y76300D01*
X14904Y76180D01*
X14887Y76093D01*
Y75690D01*
X14791Y75230D01*
X12810D01*
Y74752D01*
X12791Y74734D01*
X12291Y74948D01*
Y75330D01*
X11700D01*
Y74200D01*
Y73070D01*
X12291D01*
Y73452D01*
X12791Y73666D01*
X12810Y73649D01*
Y73170D01*
X14791D01*
X14887Y72710D01*
Y71643D01*
X14796Y71583D01*
Y70949D01*
X14907D01*
Y69729D01*
X13922D01*
X13095Y70555D01*
Y70884D01*
X12828Y70842D01*
X12308Y71361D01*
X12140Y71193D01*
X11827Y71255D01*
X11521Y71382D01*
X9710D01*
X9403Y71255D01*
X9277Y70949D01*
Y70186D01*
X8630Y69539D01*
X8130Y69730D01*
Y69900D01*
X7000D01*
Y70400D01*
X6500D01*
Y71491D01*
X6027D01*
X5662Y71904D01*
X6176Y73090D01*
X8146Y76761D01*
X9611Y79020D01*
X10111Y78872D01*
Y78700D01*
X10800D01*
Y79330D01*
X10408D01*
X10136Y79830D01*
X10413Y80257D01*
X12962Y83552D01*
X14638Y85383D01*
X14971Y85250D01*
D02*
G37*
G36*
X66919Y76130D02*
Y74070D01*
X68900D01*
Y75500D01*
X69419D01*
Y73970D01*
X70009D01*
Y75100D01*
X71009D01*
Y73970D01*
X71100D01*
Y71113D01*
X71400D01*
X71591Y70652D01*
X71021Y70082D01*
X69137D01*
Y71013D01*
X66762D01*
Y67851D01*
X66681Y67743D01*
X66069D01*
X65987Y67851D01*
X65987Y67970D01*
Y71013D01*
X63613D01*
Y67970D01*
X63613Y67851D01*
X63531Y67743D01*
X63244D01*
X62838Y68210D01*
Y71013D01*
X60463D01*
Y67970D01*
X60463Y67851D01*
X60382Y67743D01*
X60143D01*
X59688Y68210D01*
Y71013D01*
X58200D01*
X57882Y71513D01*
X57920Y71700D01*
X57908Y71759D01*
X58358Y72059D01*
X58360Y72058D01*
X58750Y71980D01*
X59140Y72058D01*
X59471Y72279D01*
X59692Y72610D01*
X59770Y73000D01*
X59692Y73390D01*
X59471Y73721D01*
X59376Y73784D01*
X59528Y74284D01*
X60919D01*
Y74070D01*
X62900D01*
Y75640D01*
X63187Y75882D01*
X63419Y75771D01*
Y75600D01*
X64509D01*
X65600D01*
Y76035D01*
X65600Y76230D01*
X65974Y76535D01*
X66690D01*
X66919Y76130D01*
D02*
G37*
G36*
X49086Y67700D02*
X49141Y67427D01*
X49295Y67195D01*
X51095Y65395D01*
X51327Y65241D01*
X51600Y65186D01*
X52589D01*
Y64308D01*
X54688D01*
Y63426D01*
X53926Y62663D01*
X46046D01*
X45989Y62674D01*
X40397D01*
Y64911D01*
X37235D01*
Y62674D01*
X34969D01*
X34815Y63147D01*
X34815Y63174D01*
X35644Y64004D01*
X35841Y64299D01*
X35937Y64363D01*
X36225Y64793D01*
X36325Y65300D01*
X36254Y65659D01*
X36487Y66059D01*
X36591Y66159D01*
X37235D01*
Y65686D01*
X40397D01*
Y68061D01*
X37235D01*
Y67587D01*
X36404D01*
X36238Y67752D01*
X36195Y67971D01*
X35985Y68285D01*
X35671Y68495D01*
X35300Y68569D01*
X34929Y68495D01*
X34881Y68463D01*
X34381Y68722D01*
Y68886D01*
X33094D01*
Y69386D01*
X32594D01*
Y70378D01*
X31984D01*
X31806Y70378D01*
X31348Y70278D01*
X30571D01*
X30435Y70727D01*
X30753Y71100D01*
X35674D01*
X35687Y71113D01*
X37135D01*
Y70523D01*
X40497D01*
Y71113D01*
X49086D01*
Y67700D01*
D02*
G37*
G36*
X11521Y70555D02*
X10694Y69729D01*
X9710D01*
Y70949D01*
X11521D01*
Y70555D01*
D02*
G37*
G36*
X76111Y70701D02*
Y69932D01*
X77398D01*
Y69432D01*
X77898D01*
Y67751D01*
X78351D01*
Y66569D01*
X77731Y65949D01*
X67562D01*
Y67470D01*
X67849Y67851D01*
X69137D01*
Y68783D01*
X71290D01*
X71750Y68973D01*
X72600Y69823D01*
X73061Y69632D01*
Y67851D01*
X75436D01*
Y70563D01*
X75936Y70824D01*
X76111Y70701D01*
D02*
G37*
G36*
X14907Y67130D02*
X13095D01*
Y67524D01*
X13922Y68351D01*
X14907D01*
Y67130D01*
D02*
G37*
G36*
X11521Y67524D02*
Y67130D01*
X9710D01*
Y68351D01*
X10694D01*
X11521Y67524D01*
D02*
G37*
G36*
X82229Y67751D02*
X82400D01*
Y60300D01*
X77700D01*
Y53800D01*
X82400D01*
Y34499D01*
X82229D01*
Y32818D01*
X81229D01*
Y34561D01*
X81173Y34629D01*
Y41689D01*
X81123Y41943D01*
X80979Y42158D01*
X72563Y50574D01*
Y56500D01*
X72512Y56754D01*
X72369Y56969D01*
X67869Y61469D01*
X67654Y61612D01*
X67400Y61663D01*
X59675D01*
X59201Y62136D01*
Y64308D01*
X61263D01*
Y67351D01*
X61263Y67470D01*
X61344Y67578D01*
X61632D01*
X62038Y67112D01*
Y64308D01*
X63494D01*
X64253Y63549D01*
X64713Y63358D01*
X78408D01*
X78867Y63549D01*
X80359Y65041D01*
X80549Y65500D01*
Y67751D01*
X81229D01*
Y69432D01*
X82229D01*
Y67751D01*
D02*
G37*
G36*
X55958Y62617D02*
X56277Y62466D01*
Y60174D01*
X56467Y59715D01*
X59241Y56941D01*
X59700Y56751D01*
X63219D01*
Y54662D01*
X66381D01*
Y56751D01*
X67431D01*
X68151Y56031D01*
Y44000D01*
X68341Y43541D01*
X70451Y41431D01*
Y37942D01*
X68337D01*
Y34780D01*
X68256Y34673D01*
X68018D01*
X67562Y35139D01*
Y37942D01*
X65187D01*
Y34780D01*
X65106Y34672D01*
X64494D01*
X64413Y34780D01*
X64413Y34899D01*
Y37942D01*
X62038D01*
Y34899D01*
X62038Y34780D01*
X61957Y34672D01*
X61718D01*
X61263Y35139D01*
Y37942D01*
X59249D01*
Y40100D01*
X59059Y40559D01*
X57959Y41659D01*
X57500Y41849D01*
X51640D01*
X51384Y42062D01*
X51356Y42306D01*
X51359Y42329D01*
X51753Y42553D01*
X51902Y42564D01*
X51910Y42558D01*
X52300Y42480D01*
X52690Y42558D01*
X53021Y42779D01*
X53242Y43110D01*
X53320Y43500D01*
X53242Y43890D01*
X53021Y44221D01*
X52690Y44442D01*
X52300Y44520D01*
X52231Y44506D01*
X47084Y49653D01*
X47330Y50114D01*
X47500Y50080D01*
X47890Y50158D01*
X48221Y50379D01*
X48442Y50710D01*
X48520Y51100D01*
X48442Y51490D01*
X48221Y51821D01*
X47890Y52042D01*
X47500Y52120D01*
X47266Y52073D01*
X47183Y52119D01*
X46920Y52383D01*
X46873Y52466D01*
X46920Y52700D01*
X46842Y53090D01*
X46703Y53299D01*
X46627Y53499D01*
X46664Y53993D01*
X46742Y54110D01*
X46820Y54500D01*
X46782Y54687D01*
X47099Y55187D01*
X48313D01*
X48663Y54837D01*
X48649Y54769D01*
X48727Y54378D01*
X48948Y54048D01*
X49278Y53827D01*
X49669Y53749D01*
X50059Y53827D01*
X50390Y54048D01*
X50437Y54119D01*
X50937Y53967D01*
Y50260D01*
X50879Y50221D01*
X50658Y49890D01*
X50580Y49500D01*
X50658Y49110D01*
X50879Y48779D01*
X51210Y48558D01*
X51600Y48480D01*
X51990Y48558D01*
X52321Y48779D01*
X52542Y49110D01*
X52620Y49500D01*
X52542Y49890D01*
X52321Y50221D01*
X52263Y50260D01*
Y55600D01*
X52212Y55854D01*
X52069Y56069D01*
X50244Y57893D01*
X50029Y58037D01*
X49776Y58087D01*
X48786D01*
X48518Y58587D01*
X48555Y58643D01*
X48633Y59033D01*
X48555Y59423D01*
X48335Y59754D01*
X48004Y59975D01*
X47613Y60053D01*
X47223Y59975D01*
X46892Y59754D01*
X46831Y59662D01*
X43940D01*
Y60187D01*
X40897D01*
X40778Y60187D01*
X40397Y60473D01*
Y61349D01*
X45942D01*
X46000Y61337D01*
X54200D01*
X54454Y61388D01*
X54669Y61531D01*
X55777Y62639D01*
X55958Y62617D01*
D02*
G37*
G36*
X7600Y60711D02*
X8230D01*
Y61900D01*
X8865D01*
X8879Y61879D01*
X8892Y61866D01*
X9222Y61646D01*
X9612Y61568D01*
X10739D01*
X10989Y61100D01*
X12016D01*
Y60100D01*
X11027D01*
X11223Y59807D01*
X11237Y59380D01*
X11194Y59225D01*
X10088Y58119D01*
X9867Y57788D01*
X9790Y57398D01*
Y54315D01*
X9758Y54268D01*
X9680Y53878D01*
Y50020D01*
X9709Y49874D01*
Y49011D01*
X9780D01*
Y47030D01*
X9711D01*
Y44970D01*
X11880D01*
X11889Y44970D01*
X12380Y44949D01*
Y42568D01*
X10572D01*
Y37832D01*
X12128D01*
Y35741D01*
X11690Y35589D01*
Y35589D01*
X9709D01*
Y34495D01*
X9672Y34439D01*
X9610Y34127D01*
X9610Y34127D01*
Y32716D01*
X8119D01*
X7818Y33216D01*
X7889Y33409D01*
X7889Y33423D01*
Y34000D01*
X5511D01*
Y33423D01*
X5511Y33409D01*
X5670Y32975D01*
X5670Y32909D01*
Y31692D01*
X5170Y31596D01*
X4091Y34295D01*
X2966Y37859D01*
X2108Y41495D01*
X1572Y44879D01*
X1921Y45344D01*
X2009Y45379D01*
X4300D01*
Y47079D01*
Y48779D01*
X1660Y48779D01*
X1508Y48823D01*
X1213Y49139D01*
X1184Y52646D01*
X1388Y55730D01*
X1650Y56121D01*
X2356D01*
X2452Y55621D01*
X2175Y55207D01*
X2074Y54700D01*
X2175Y54193D01*
X2463Y53763D01*
X2893Y53475D01*
X3400Y53374D01*
X3907Y53475D01*
X4337Y53763D01*
X4625Y54193D01*
X4725Y54700D01*
X4625Y55207D01*
X4348Y55621D01*
X4444Y56121D01*
X7950D01*
Y59321D01*
X2229D01*
X1901Y59699D01*
X1954Y60075D01*
X2352Y61900D01*
X5970D01*
Y60711D01*
X6600D01*
Y61900D01*
X7600D01*
Y60711D01*
D02*
G37*
G36*
X33700Y55570D02*
X34389D01*
Y55943D01*
X34889Y56095D01*
X34931Y56031D01*
X35433Y55530D01*
X35433Y55530D01*
X35582Y55381D01*
X35797Y55237D01*
X36050Y55187D01*
X37235D01*
Y53087D01*
X40397D01*
X40505Y53006D01*
Y52768D01*
X40039Y52313D01*
X37235D01*
Y49938D01*
X40397D01*
X40505Y49856D01*
Y49618D01*
X40039Y49163D01*
X37235D01*
Y46788D01*
X40397D01*
X40505Y46707D01*
Y46095D01*
X40397Y46013D01*
X40278Y46013D01*
X37235D01*
Y45846D01*
X34120D01*
Y48430D01*
X34042Y48820D01*
X33821Y49151D01*
X33681Y49291D01*
Y50814D01*
X30519D01*
Y47849D01*
X32080D01*
Y46854D01*
X31591Y46830D01*
X31580Y46830D01*
X31000D01*
Y45700D01*
X30500D01*
Y45200D01*
X29409D01*
Y44570D01*
X30354D01*
X30501Y44281D01*
X30531Y44070D01*
X29879Y43418D01*
X29658Y43087D01*
X29580Y42697D01*
Y42230D01*
X29511D01*
Y40170D01*
X31689D01*
Y41654D01*
X32049Y41849D01*
X32209Y41755D01*
Y41346D01*
X32180Y41200D01*
X32209Y41054D01*
Y40111D01*
X34190D01*
Y40111D01*
X34680Y40086D01*
Y38620D01*
X34091D01*
Y38630D01*
X32109D01*
Y38151D01*
X32091Y38134D01*
X31591Y38348D01*
Y38730D01*
X31000D01*
Y37600D01*
X30500D01*
Y37100D01*
X29409D01*
Y37032D01*
X28909Y36761D01*
X28816Y36822D01*
Y37210D01*
X28754Y37522D01*
X28577Y37787D01*
X28577Y37787D01*
X28108Y38255D01*
X28002Y38326D01*
Y38879D01*
X28102Y39338D01*
X28102Y39662D01*
Y40100D01*
X25840D01*
X23578D01*
Y39338D01*
X23678Y38879D01*
Y36878D01*
X26124D01*
X26203Y36863D01*
X26203Y36863D01*
X26807D01*
X27053Y36363D01*
X26964Y36229D01*
X26878Y35800D01*
X26964Y35371D01*
X27207Y35007D01*
X27571Y34764D01*
X28000Y34678D01*
X28429Y34764D01*
X28793Y35007D01*
X28965Y35265D01*
X29409Y35030D01*
Y34500D01*
X30500D01*
Y34000D01*
X31000D01*
Y32870D01*
X31591D01*
Y33252D01*
X32091Y33466D01*
X32109Y33448D01*
Y32970D01*
X34091D01*
Y32980D01*
X34686D01*
X34993Y32775D01*
X35500Y32675D01*
X36007Y32775D01*
X36437Y33063D01*
X36635Y33358D01*
X37135Y33206D01*
Y32728D01*
X38316D01*
Y33515D01*
X37613D01*
X37347Y34015D01*
X37464Y34190D01*
X40397D01*
Y36565D01*
X37235D01*
X37182Y36594D01*
X37134Y36659D01*
X37071Y37017D01*
X37110Y37210D01*
X37315Y37339D01*
X37483Y37339D01*
X40397D01*
Y39714D01*
X37235D01*
Y39150D01*
X36735Y38898D01*
X36720Y38910D01*
Y40586D01*
X36742Y40619D01*
X37235D01*
Y40489D01*
X38665D01*
X38778Y40466D01*
X38892Y40489D01*
X40397D01*
Y41777D01*
X40778Y42064D01*
X40897Y42064D01*
X41352D01*
X41367Y42048D01*
X41574Y41564D01*
X41458Y41390D01*
X41380Y41000D01*
X41458Y40610D01*
X41679Y40279D01*
X42010Y40058D01*
X42400Y39980D01*
X42790Y40058D01*
X43282Y39785D01*
X43297Y39715D01*
X43269Y39692D01*
X43125Y39595D01*
X42904Y39264D01*
X42826Y38874D01*
X42904Y38484D01*
X43125Y38153D01*
X43455Y37932D01*
X43845Y37854D01*
X44236Y37932D01*
X44567Y38153D01*
X44787Y38484D01*
X44865Y38874D01*
X44787Y39264D01*
X45176Y39582D01*
X45321Y39679D01*
X45542Y40010D01*
X45620Y40400D01*
X45542Y40790D01*
X45321Y41121D01*
X45159Y41229D01*
Y44644D01*
X44969Y45103D01*
X43940Y46132D01*
Y47326D01*
X44855D01*
X45657Y46525D01*
X45443Y46205D01*
X45366Y45815D01*
X45443Y45425D01*
X45664Y45094D01*
X45995Y44873D01*
X46385Y44795D01*
X46775Y44873D01*
X47106Y45094D01*
X47327Y45425D01*
X47405Y45815D01*
X47327Y46205D01*
X47106Y46536D01*
X47035Y46584D01*
Y46715D01*
X46844Y47174D01*
X45926Y48092D01*
X45914Y48163D01*
X46092Y48633D01*
X46222Y48641D01*
X51123Y43739D01*
X51113Y43494D01*
X50602Y43234D01*
X50590Y43242D01*
X50200Y43320D01*
X49810Y43242D01*
X49479Y43021D01*
X49258Y42690D01*
X49194Y42366D01*
X49146Y42319D01*
X49114Y42312D01*
X48899Y42169D01*
X48546Y41815D01*
X48402Y41600D01*
X48352Y41347D01*
Y39902D01*
X48243Y39794D01*
X47852Y39570D01*
X47600Y39620D01*
X47210Y39542D01*
X46879Y39321D01*
X46658Y38990D01*
X46580Y38600D01*
X46612Y38443D01*
X46290Y37942D01*
X46290D01*
Y34780D01*
X46003Y34399D01*
X44715D01*
Y32345D01*
X44702Y32281D01*
X44715Y32217D01*
Y31237D01*
X44715Y31237D01*
X44753Y30737D01*
X44579Y30621D01*
X44358Y30290D01*
X44280Y29900D01*
X44358Y29510D01*
X44579Y29179D01*
X44808Y29026D01*
X44925Y28616D01*
X44933Y28444D01*
X44169Y27680D01*
X43965Y27639D01*
X43946Y27626D01*
X43398Y27547D01*
X43083Y27757D01*
X42713Y27831D01*
X42342Y27757D01*
X42281Y27716D01*
X41805Y27529D01*
X41638Y27641D01*
Y26862D01*
X40638D01*
Y27641D01*
X40471Y27529D01*
X40450Y27499D01*
X39832Y27410D01*
X39321Y27921D01*
X38990Y28142D01*
X38600Y28220D01*
X38233D01*
Y30900D01*
X38260Y30940D01*
X38316D01*
Y31728D01*
X37135D01*
Y31333D01*
X31400D01*
X31094Y31206D01*
X30967Y30900D01*
Y30481D01*
X29917D01*
Y28800D01*
Y27119D01*
X30967D01*
Y26600D01*
X31066Y26360D01*
X30967Y26121D01*
Y25681D01*
X29917D01*
Y24000D01*
Y22319D01*
X30967D01*
Y21821D01*
X30841Y21633D01*
X23600D01*
X23294Y21506D01*
X23167Y21200D01*
Y13700D01*
X23294Y13394D01*
X23600Y13267D01*
X37800D01*
X37911Y13313D01*
X38111Y13222D01*
X38393Y13027D01*
X38464Y12671D01*
X38707Y12307D01*
X39071Y12064D01*
X39080Y12062D01*
X39339Y11689D01*
X39137Y11243D01*
X38676D01*
Y8373D01*
X38656Y8275D01*
X38676Y8176D01*
Y3357D01*
X42625D01*
Y11243D01*
X41670D01*
Y11950D01*
X41592Y12340D01*
X41371Y12671D01*
X40542Y13500D01*
X40536Y13529D01*
X40520Y13554D01*
Y14510D01*
X40530D01*
Y16490D01*
X39646D01*
X39500Y16520D01*
X39354Y16490D01*
X38821Y16491D01*
X38642Y16800D01*
X38821Y17109D01*
X40530D01*
Y17182D01*
X41078D01*
X41256Y17064D01*
X41685Y16978D01*
X42114Y17064D01*
X42149Y17087D01*
X42312Y17000D01*
X44232D01*
X45814D01*
Y17945D01*
X45936Y18082D01*
X46236Y18086D01*
X46686Y17633D01*
Y14919D01*
X49651D01*
Y15173D01*
X52450D01*
Y13450D01*
X53518D01*
Y12600D01*
X53646Y11956D01*
X54010Y11410D01*
X54556Y11046D01*
X55200Y10918D01*
X55844Y11046D01*
X56390Y11410D01*
X56754Y11956D01*
X56882Y12600D01*
Y13450D01*
X57350D01*
Y18350D01*
X52450D01*
Y18027D01*
X50472D01*
Y19780D01*
X51009D01*
Y19770D01*
X52991D01*
Y20248D01*
X53009Y20266D01*
X53509Y20052D01*
Y19670D01*
X54100D01*
Y20800D01*
Y21930D01*
X53509D01*
Y21548D01*
X53009Y21334D01*
X52991Y21352D01*
Y21830D01*
X51009D01*
Y21820D01*
X50472D01*
Y22859D01*
X50909Y23011D01*
X50910Y23011D01*
Y23011D01*
X50910Y23011D01*
X52828D01*
X53311Y22970D01*
X53374Y22970D01*
X54000D01*
Y24100D01*
Y25230D01*
X53374D01*
X53311Y25230D01*
X52828Y25189D01*
X51847D01*
X51325Y25711D01*
X51486Y26186D01*
X51506Y26211D01*
X52828D01*
X53311Y26170D01*
X53374Y26170D01*
X54000D01*
Y27300D01*
X54500D01*
Y27800D01*
X56012D01*
X56185Y27855D01*
X56500Y27645D01*
X56870Y27571D01*
X57241Y27645D01*
X57555Y27855D01*
X57765Y28169D01*
X58226Y28379D01*
X58306Y28384D01*
X58490Y28205D01*
X58505Y28129D01*
X58715Y27815D01*
X59029Y27605D01*
X59400Y27531D01*
X59771Y27605D01*
X59852Y27660D01*
X60026Y27637D01*
X60427Y27508D01*
X60440Y27497D01*
X60663Y27163D01*
X61093Y26875D01*
X61600Y26774D01*
X62107Y26875D01*
X62537Y27163D01*
X62825Y27593D01*
X62925Y28100D01*
X62825Y28607D01*
X62537Y29037D01*
X62441Y29102D01*
Y31237D01*
X62838D01*
Y34280D01*
X62838Y34399D01*
X62919Y34507D01*
X63206D01*
X63613Y34041D01*
Y31237D01*
X65293D01*
X65500Y30737D01*
X64669Y29906D01*
X64600Y29920D01*
X64210Y29842D01*
X63879Y29621D01*
X63658Y29290D01*
X63580Y28900D01*
X63658Y28510D01*
X63879Y28179D01*
X64210Y27958D01*
X64600Y27880D01*
X64990Y27958D01*
X65321Y28179D01*
X65542Y28510D01*
X65620Y28900D01*
X65606Y28969D01*
X66467Y29830D01*
X66928Y29583D01*
X66925Y29568D01*
X67002Y29177D01*
X67223Y28846D01*
X67554Y28626D01*
X67944Y28548D01*
X68334Y28626D01*
X68665Y28846D01*
X68886Y29177D01*
X68964Y29568D01*
X68886Y29958D01*
X68665Y30288D01*
X68607Y30327D01*
Y31237D01*
X69137D01*
Y32342D01*
X69277Y32465D01*
X69637Y32661D01*
X69918Y32605D01*
X69950Y32612D01*
X70451Y32223D01*
Y30283D01*
X70641Y29824D01*
X71861Y28604D01*
X71653Y28104D01*
X70481D01*
Y26431D01*
X73843D01*
X73843Y28104D01*
X74291Y28230D01*
X74652D01*
X78951Y23931D01*
Y22109D01*
X78915Y22085D01*
X78705Y21771D01*
X78631Y21400D01*
X78705Y21029D01*
X78915Y20715D01*
X79229Y20505D01*
X79600Y20431D01*
X79971Y20505D01*
X80285Y20715D01*
X80495Y21029D01*
X80569Y21400D01*
X80495Y21771D01*
X80285Y22085D01*
X80249Y22109D01*
Y23168D01*
X80344Y23244D01*
X80900Y23312D01*
X81181Y23124D01*
X81513Y23058D01*
X81844Y23124D01*
X82125Y23312D01*
X82475D01*
X82756Y23124D01*
X83087Y23058D01*
X83419Y23124D01*
X83700Y23312D01*
X83888Y23594D01*
X83954Y23925D01*
X83899Y24204D01*
X83922Y24306D01*
X84191Y24703D01*
X84719D01*
X84719Y24703D01*
X85031Y24766D01*
X85296Y24942D01*
X85357Y25003D01*
X85819Y24812D01*
Y24568D01*
X87000D01*
Y25651D01*
X86658D01*
X86467Y26113D01*
X86853Y26500D01*
X94492D01*
X94748Y26070D01*
X94310Y25268D01*
X93654Y24248D01*
X93306Y23936D01*
X92930Y24046D01*
X92930Y24247D01*
Y24400D01*
X92300D01*
Y23810D01*
X92491D01*
X92778Y23809D01*
X93002Y23503D01*
Y23504D01*
Y23503D01*
X92888Y23056D01*
X92546Y22524D01*
X91080Y20569D01*
X89581Y18771D01*
X89081Y18952D01*
X89081Y19036D01*
X89081Y19036D01*
X89081Y19044D01*
Y21614D01*
X85919D01*
Y19956D01*
X85438Y19756D01*
X85414Y19771D01*
X85044Y19845D01*
X84673Y19771D01*
X84542Y19684D01*
X83981D01*
Y20351D01*
X80819D01*
Y17386D01*
X83981D01*
Y18053D01*
X84567D01*
X84673Y17982D01*
X85044Y17908D01*
X85414Y17982D01*
X85521Y18053D01*
X86138D01*
X86139Y18053D01*
X86451Y18115D01*
X86715Y18292D01*
X87072Y18649D01*
X88707Y18649D01*
X88728D01*
X88728D01*
X88829Y18649D01*
X89023Y18342D01*
X89058Y18149D01*
X87592Y16561D01*
X86738Y15664D01*
X84481Y13591D01*
X83981Y13810D01*
Y16414D01*
X80819D01*
X80819Y16414D01*
Y16414D01*
X80372Y16570D01*
X77221Y19721D01*
X76890Y19942D01*
X76500Y20020D01*
X69383D01*
X69375Y20058D01*
Y25931D01*
X69228Y26672D01*
X69019Y26985D01*
Y28004D01*
X65857D01*
Y26985D01*
X65648Y26672D01*
X65501Y25931D01*
Y19900D01*
X65532Y19742D01*
Y15031D01*
X65563Y14876D01*
Y7273D01*
X65370Y7081D01*
X64686D01*
Y6251D01*
X64614Y6144D01*
X64486Y5500D01*
X64614Y4856D01*
X64686Y4749D01*
Y3919D01*
X65609D01*
X65683Y3874D01*
X65954Y3351D01*
X65927Y3265D01*
X63209Y2490D01*
X59874Y1775D01*
X57848Y1480D01*
X57524Y1877D01*
X57680Y2263D01*
X58089D01*
X58830Y2410D01*
X59459Y2830D01*
X60447Y3818D01*
X62231D01*
X62740Y3919D01*
X63714D01*
Y4749D01*
X63786Y4856D01*
X63914Y5500D01*
X63786Y6144D01*
X63714Y6251D01*
Y7081D01*
X62740D01*
X62231Y7182D01*
X60291D01*
X60131Y7290D01*
X59389Y7437D01*
X58648Y7290D01*
X58019Y6870D01*
X57668Y6518D01*
X57350Y6650D01*
Y6650D01*
X56610D01*
X56574Y6691D01*
X56389Y7150D01*
X56536Y7371D01*
X56622Y7800D01*
X56536Y8229D01*
X56293Y8593D01*
X55929Y8836D01*
X55500Y8922D01*
X55071Y8836D01*
X54707Y8593D01*
X54464Y8229D01*
X54378Y7800D01*
X54464Y7371D01*
X54611Y7150D01*
X54426Y6691D01*
X54390Y6650D01*
X52450D01*
Y1750D01*
X56047D01*
X56067Y1250D01*
X53100Y1018D01*
X51394Y998D01*
X50177Y998D01*
X48803Y1051D01*
X46277Y1240D01*
X43278Y1654D01*
X42105Y1829D01*
X39505Y2420D01*
X37631Y2911D01*
X34888Y3752D01*
X31407Y5111D01*
X28177Y6656D01*
X27889Y6808D01*
X26169Y7796D01*
X26297Y8279D01*
X26600D01*
Y9854D01*
X24632D01*
Y9228D01*
X24190Y8993D01*
X22165Y10365D01*
X21587Y10770D01*
X20188Y11877D01*
X20352Y12349D01*
X20400D01*
Y13431D01*
X19219D01*
Y13214D01*
X18958Y13087D01*
X18719Y13047D01*
X16023Y15528D01*
X15908Y15651D01*
X16107Y16109D01*
X17489D01*
Y18090D01*
X16178D01*
X16109Y18104D01*
X15934D01*
X15929Y18111D01*
X16196Y18611D01*
X17430D01*
Y18825D01*
X18790D01*
X19319Y18296D01*
Y16386D01*
X22481D01*
Y19351D01*
X20571D01*
X19704Y20218D01*
X19440Y20394D01*
X19128Y20457D01*
X19128Y20457D01*
X17430D01*
Y20789D01*
X15370D01*
Y20749D01*
X15103Y20613D01*
X14870Y20555D01*
X14590Y20742D01*
X14200Y20820D01*
X13810Y20742D01*
X13479Y20521D01*
X13258Y20190D01*
X13180Y19800D01*
X13258Y19410D01*
X13231Y19349D01*
X12651Y19273D01*
X11126Y21167D01*
X10503Y22070D01*
X10766Y22570D01*
X10900D01*
Y23700D01*
X11900D01*
Y22570D01*
X12490D01*
Y22570D01*
X12991Y22684D01*
X13010Y22670D01*
Y22670D01*
X13501Y22650D01*
X13551Y22617D01*
X14000Y22527D01*
X16630D01*
Y22268D01*
X26170D01*
Y26750D01*
X24172D01*
Y27915D01*
X24225Y27993D01*
X24326Y28500D01*
X24225Y29007D01*
X23937Y29437D01*
X23507Y29725D01*
X23000Y29825D01*
X22493Y29725D01*
X22063Y29437D01*
X21937D01*
X21507Y29725D01*
X21000Y29825D01*
X20587Y29743D01*
X20252Y29931D01*
X20099Y30063D01*
Y30850D01*
X26170D01*
Y35332D01*
X16630D01*
Y30850D01*
X17122D01*
X17187Y30350D01*
X16871Y30027D01*
X15600D01*
X15054Y29919D01*
X14962Y29858D01*
X14512Y30158D01*
X14518Y30187D01*
X14446Y30548D01*
X14242Y30854D01*
X14082Y30961D01*
X13955Y31433D01*
X13962Y31563D01*
X14153Y31850D01*
X14231Y32240D01*
Y33470D01*
X14389D01*
Y34080D01*
X14472Y34500D01*
Y36868D01*
X18360D01*
X18411Y36878D01*
X20522D01*
Y39203D01*
X18411D01*
X18360Y39213D01*
X14521D01*
Y42568D01*
X14420D01*
Y46000D01*
X14390Y46146D01*
Y47089D01*
X12409D01*
Y46496D01*
X12389Y46474D01*
X11889Y46671D01*
Y47030D01*
X11820D01*
Y48808D01*
X12211Y49070D01*
X12320Y49070D01*
X14389D01*
Y50041D01*
X15127Y50779D01*
X15150Y50775D01*
X15657Y50875D01*
X16087Y51163D01*
X16375Y51593D01*
X16476Y52100D01*
X16375Y52607D01*
X16087Y53037D01*
X15657Y53325D01*
X15150Y53426D01*
X15000Y53396D01*
X14856Y53507D01*
X13409D01*
Y54507D01*
X14500D01*
Y54864D01*
X14757Y54946D01*
X15000Y54947D01*
X15179Y54679D01*
X15510Y54458D01*
X15900Y54380D01*
X16290Y54458D01*
X16621Y54679D01*
X16719Y54826D01*
X17219Y54674D01*
Y54349D01*
X17627D01*
Y51010D01*
X17290D01*
X16900Y50933D01*
X16570Y50712D01*
X15479Y49621D01*
X15258Y49290D01*
X15193Y48963D01*
X15117Y48849D01*
X15028Y48400D01*
Y44075D01*
X15117Y43626D01*
X15371Y43246D01*
X16198Y42419D01*
Y41997D01*
X18309D01*
X18360Y41987D01*
X18411Y41997D01*
X20522D01*
Y44322D01*
X18561D01*
X18322Y44369D01*
X17564D01*
X17372Y44561D01*
Y46162D01*
X17770Y46409D01*
X17873Y46409D01*
X19830D01*
Y46482D01*
X21584D01*
Y45523D01*
X21654Y45172D01*
X21853Y44874D01*
X23678Y43049D01*
Y42321D01*
X23578Y41862D01*
X23578Y41538D01*
Y41100D01*
X25840D01*
X28102D01*
Y41862D01*
X28002Y42321D01*
Y44322D01*
X25001D01*
X23513Y45809D01*
X23645Y46309D01*
X23789D01*
Y48291D01*
X22996D01*
X22974Y48311D01*
X23172Y48811D01*
X23730D01*
Y49691D01*
X24221Y50182D01*
X24444D01*
X24700Y50131D01*
X24956Y50182D01*
X25122D01*
X25611Y49693D01*
Y49009D01*
X27286D01*
X27681Y48617D01*
X27695Y48544D01*
X27696Y48509D01*
X27679Y48489D01*
X25670D01*
Y46311D01*
X27730D01*
Y46686D01*
X28300D01*
X28573Y46741D01*
X28805Y46895D01*
X29030Y47120D01*
X29409Y46793D01*
Y46200D01*
X30000D01*
Y46830D01*
X29446D01*
X29119Y47210D01*
X29405Y47495D01*
X29559Y47727D01*
X29614Y48000D01*
Y54606D01*
X29961Y54953D01*
X30419Y54704D01*
X30419Y54412D01*
Y53768D01*
X31600D01*
Y54851D01*
X30894D01*
X30663Y54851D01*
X30430Y55295D01*
X30678Y55611D01*
X31528D01*
X32011Y55570D01*
X32074Y55570D01*
X32700D01*
Y56700D01*
X33700D01*
Y55570D01*
D02*
G37*
G36*
X71237Y56226D02*
Y50300D01*
X71288Y50046D01*
X71431Y49831D01*
X79848Y41415D01*
Y37942D01*
X77786D01*
Y34899D01*
X77786Y34780D01*
X77705Y34672D01*
X77417D01*
X77011Y35139D01*
Y37942D01*
X74636D01*
Y34899D01*
X74636Y34780D01*
X74555Y34672D01*
X74317D01*
X73861Y35139D01*
Y37942D01*
X71749D01*
Y41700D01*
X71559Y42159D01*
X69449Y44269D01*
Y56300D01*
X69259Y56759D01*
X68159Y57859D01*
X67700Y58049D01*
X66381D01*
Y60187D01*
X66819Y60337D01*
X67125D01*
X71237Y56226D01*
D02*
G37*
G36*
X37800Y28900D02*
Y26600D01*
X31400D01*
Y30900D01*
X37800D01*
Y28900D01*
D02*
G37*
G36*
Y26100D02*
X39560Y24340D01*
Y23140D01*
X37800Y21828D01*
Y21821D01*
X31400D01*
Y26121D01*
X37800D01*
Y26100D01*
D02*
G37*
G36*
Y13700D02*
X23600D01*
Y21200D01*
X37800D01*
Y13700D01*
D02*
G37*
G36*
X79679Y14379D02*
X80010Y14158D01*
X80400Y14080D01*
X80819D01*
Y13449D01*
X83543D01*
X83719Y12949D01*
X81568Y11221D01*
X79068Y9473D01*
X78568Y9734D01*
Y10569D01*
X77190D01*
Y8994D01*
X77390D01*
X77524Y8512D01*
X75855Y7503D01*
X72825Y5937D01*
X69699Y4576D01*
X68341Y4089D01*
X67879Y4397D01*
X67850Y4802D01*
X68069Y5022D01*
X68259Y5059D01*
X68888Y5479D01*
X69307Y6108D01*
X69455Y6849D01*
X69437Y6938D01*
Y8739D01*
X69827Y8884D01*
X69937Y8906D01*
X70415Y8587D01*
X71000Y8471D01*
X71585Y8587D01*
X72081Y8919D01*
X72413Y9415D01*
X72529Y10000D01*
X72413Y10585D01*
X72081Y11081D01*
X71585Y11413D01*
X71000Y11529D01*
X70415Y11413D01*
X69937Y11094D01*
X69827Y11116D01*
X69437Y11261D01*
Y15000D01*
X69406Y15154D01*
Y17980D01*
X76078D01*
X79679Y14379D01*
D02*
G37*
%LPC*%
G36*
X43730Y99200D02*
X43100D01*
Y98610D01*
X43730D01*
Y99200D01*
D02*
G37*
G36*
X42100D02*
X41470D01*
Y98610D01*
X42100D01*
Y99200D01*
D02*
G37*
G36*
X23990Y90300D02*
X23400D01*
Y89670D01*
X23990D01*
Y90300D01*
D02*
G37*
G36*
X22400D02*
X21810D01*
Y89670D01*
X22400D01*
Y90300D01*
D02*
G37*
G36*
X21600Y87530D02*
Y86900D01*
X22289D01*
Y87530D01*
X21600D01*
D02*
G37*
G36*
X22289Y85900D02*
X21600D01*
Y85270D01*
X22289D01*
Y85900D01*
D02*
G37*
G36*
X27130Y84390D02*
X26500D01*
Y83800D01*
X27130D01*
Y84390D01*
D02*
G37*
G36*
X25500D02*
X24870D01*
Y83800D01*
X25500D01*
Y84390D01*
D02*
G37*
G36*
X27130Y82800D02*
X26500D01*
Y82209D01*
X27130D01*
Y82800D01*
D02*
G37*
G36*
X75800Y92800D02*
X75209D01*
Y92170D01*
X75800D01*
Y92800D01*
D02*
G37*
G36*
X84099Y87600D02*
X83701D01*
X83334Y87448D01*
X83052Y87166D01*
X82900Y86799D01*
Y86401D01*
X83052Y86034D01*
X83084Y86001D01*
Y85158D01*
X82319D01*
Y82192D01*
X85481D01*
Y85158D01*
X84716D01*
Y86001D01*
X84748Y86034D01*
X84900Y86401D01*
Y86799D01*
X84748Y87166D01*
X84466Y87448D01*
X84099Y87600D01*
D02*
G37*
G36*
X85581Y81321D02*
X84400D01*
Y80238D01*
X85581D01*
Y81321D01*
D02*
G37*
G36*
X83400D02*
X82219D01*
Y80238D01*
X83400D01*
Y81321D01*
D02*
G37*
G36*
X85581Y79238D02*
X84400D01*
Y78155D01*
X85581D01*
Y79238D01*
D02*
G37*
G36*
X83400D02*
X82219D01*
Y78155D01*
X83400D01*
Y79238D01*
D02*
G37*
G36*
X40100Y88900D02*
X39411D01*
Y88270D01*
X40100D01*
Y88900D01*
D02*
G37*
G36*
X51330Y76300D02*
X50700D01*
Y75709D01*
X51330D01*
Y76300D01*
D02*
G37*
G36*
X49700D02*
X49070D01*
Y75709D01*
X49700D01*
Y76300D01*
D02*
G37*
G36*
X48030D02*
X47400D01*
Y75709D01*
X48030D01*
Y76300D01*
D02*
G37*
G36*
X46400D02*
X45770D01*
Y75709D01*
X46400D01*
Y76300D01*
D02*
G37*
G36*
X44730Y76200D02*
X44100D01*
Y75609D01*
X44730D01*
Y76200D01*
D02*
G37*
G36*
X43100D02*
X42470D01*
Y75609D01*
X43100D01*
Y76200D01*
D02*
G37*
G36*
X10800Y77700D02*
X10111D01*
Y77070D01*
X10800D01*
Y77700D01*
D02*
G37*
G36*
X10700Y75330D02*
X10109D01*
Y74700D01*
X10700D01*
Y75330D01*
D02*
G37*
G36*
Y73700D02*
X10109D01*
Y73070D01*
X10700D01*
Y73700D01*
D02*
G37*
G36*
X13796Y71267D02*
X13702Y71228D01*
X13423Y70949D01*
X13796D01*
Y71267D01*
D02*
G37*
G36*
X8130Y71491D02*
X7500D01*
Y70900D01*
X8130D01*
Y71491D01*
D02*
G37*
G36*
X65600Y74600D02*
X65009D01*
Y73970D01*
X65600D01*
Y74600D01*
D02*
G37*
G36*
X64009D02*
X63419D01*
Y73970D01*
X64009D01*
Y74600D01*
D02*
G37*
G36*
X33594Y70378D02*
Y69886D01*
X34381D01*
Y70378D01*
X33594D01*
D02*
G37*
G36*
X40497Y69523D02*
X39316D01*
Y68735D01*
X40497D01*
Y69523D01*
D02*
G37*
G36*
X38316D02*
X37135D01*
Y68735D01*
X38316D01*
Y69523D01*
D02*
G37*
G36*
X76898Y68932D02*
X76111D01*
Y67751D01*
X76898D01*
Y68932D01*
D02*
G37*
G36*
X66381Y53887D02*
X63219D01*
Y51513D01*
X66381D01*
Y53887D01*
D02*
G37*
G36*
Y50738D02*
X63219D01*
Y48363D01*
X66381D01*
Y50738D01*
D02*
G37*
G36*
Y47588D02*
X63219D01*
Y45213D01*
X66381D01*
Y47588D01*
D02*
G37*
G36*
X54898Y47239D02*
X54508Y47162D01*
X54177Y46941D01*
X53956Y46610D01*
X53878Y46220D01*
X53956Y45830D01*
X54177Y45499D01*
X54508Y45278D01*
X54898Y45200D01*
X55288Y45278D01*
X55619Y45499D01*
X55840Y45830D01*
X55917Y46220D01*
X55840Y46610D01*
X55619Y46941D01*
X55288Y47162D01*
X54898Y47239D01*
D02*
G37*
G36*
X66381Y44439D02*
X63219D01*
Y42064D01*
X66381D01*
Y44439D01*
D02*
G37*
G36*
X5300Y48779D02*
Y47579D01*
X8050D01*
Y48779D01*
X5300D01*
D02*
G37*
G36*
X8050Y46579D02*
X5300D01*
Y45379D01*
X8050D01*
Y46579D01*
D02*
G37*
G36*
X7928Y42669D02*
X6353D01*
Y40700D01*
X7928D01*
Y42669D01*
D02*
G37*
G36*
X5353D02*
X3779D01*
Y40700D01*
X5353D01*
Y42669D01*
D02*
G37*
G36*
X7928Y39700D02*
X6353D01*
Y37732D01*
X7928D01*
Y39700D01*
D02*
G37*
G36*
X5353D02*
X3779D01*
Y37732D01*
X5353D01*
Y39700D01*
D02*
G37*
G36*
X7889Y35591D02*
X7200D01*
Y35000D01*
X7889D01*
Y35591D01*
D02*
G37*
G36*
X6200D02*
X5511D01*
Y35000D01*
X6200D01*
Y35591D01*
D02*
G37*
G36*
X32600Y54851D02*
Y53768D01*
X33781D01*
Y54851D01*
X32600D01*
D02*
G37*
G36*
X33781Y52768D02*
X32600D01*
Y51686D01*
X33781D01*
Y52768D01*
D02*
G37*
G36*
X31600D02*
X30419D01*
Y51686D01*
X31600D01*
Y52768D01*
D02*
G37*
G36*
X30000Y38730D02*
X29409D01*
Y38100D01*
X30000D01*
Y38730D01*
D02*
G37*
G36*
Y33500D02*
X29409D01*
Y32870D01*
X30000D01*
Y33500D01*
D02*
G37*
G36*
X40497Y33515D02*
X39316D01*
Y32728D01*
X40497D01*
Y33515D01*
D02*
G37*
G36*
X43940Y34399D02*
X41565D01*
Y32174D01*
X40959Y31568D01*
X40573Y31728D01*
X39316D01*
Y30940D01*
X39700D01*
X39863Y30440D01*
X39827Y30387D01*
X39579Y30221D01*
X39358Y29890D01*
X39280Y29500D01*
X39358Y29110D01*
X39579Y28779D01*
X39910Y28558D01*
X40300Y28480D01*
X40690Y28558D01*
X41021Y28779D01*
X41242Y29110D01*
X41320Y29500D01*
X41242Y29890D01*
X41207Y29942D01*
X42502Y31237D01*
X43940D01*
Y34399D01*
D02*
G37*
G36*
X28917Y30481D02*
X27835D01*
Y29300D01*
X28917D01*
Y30481D01*
D02*
G37*
G36*
Y28300D02*
X27835D01*
Y27119D01*
X28917D01*
Y28300D01*
D02*
G37*
G36*
X55689Y26800D02*
X55000D01*
Y26170D01*
X55689D01*
Y26800D01*
D02*
G37*
G36*
X60500Y26320D02*
X60110Y26242D01*
X59889Y26094D01*
X59829Y26115D01*
X59389Y26291D01*
X59389Y26291D01*
X59389Y26291D01*
X57211D01*
Y24372D01*
X57170Y23889D01*
X57170Y23826D01*
Y23200D01*
X59430D01*
Y23826D01*
X59430Y23889D01*
X59394Y24313D01*
X59453Y24354D01*
X59889Y24506D01*
X60110Y24358D01*
X60500Y24280D01*
X60890Y24358D01*
X61221Y24579D01*
X61442Y24910D01*
X61520Y25300D01*
X61442Y25690D01*
X61221Y26021D01*
X60890Y26242D01*
X60500Y26320D01*
D02*
G37*
G36*
X92930Y25991D02*
X92300D01*
Y25400D01*
X92930D01*
Y25991D01*
D02*
G37*
G36*
X91300D02*
X90670D01*
Y25400D01*
X91300D01*
Y25991D01*
D02*
G37*
G36*
X55000Y25230D02*
Y24600D01*
X55689D01*
Y25230D01*
X55000D01*
D02*
G37*
G36*
X89181Y25651D02*
X88000D01*
Y24568D01*
X89181D01*
Y25651D01*
D02*
G37*
G36*
X28917Y25681D02*
X27835D01*
Y24500D01*
X28917D01*
Y25681D01*
D02*
G37*
G36*
X91300Y24400D02*
X90670D01*
Y23810D01*
X91300D01*
Y24400D01*
D02*
G37*
G36*
X73843Y25431D02*
X72662D01*
Y23758D01*
X73843D01*
Y25431D01*
D02*
G37*
G36*
X71662D02*
X70481D01*
Y23758D01*
X71662D01*
Y25431D01*
D02*
G37*
G36*
X55689Y23600D02*
X55000D01*
Y22970D01*
X55689D01*
Y23600D01*
D02*
G37*
G36*
X89181Y23569D02*
X88000D01*
Y22486D01*
X89181D01*
Y23569D01*
D02*
G37*
G36*
X87000D02*
X85819D01*
Y22486D01*
X87000D01*
Y23569D01*
D02*
G37*
G36*
X28917Y23500D02*
X27835D01*
Y22319D01*
X28917D01*
Y23500D01*
D02*
G37*
G36*
X59430Y22200D02*
X58800D01*
Y21511D01*
X59430D01*
Y22200D01*
D02*
G37*
G36*
X57800D02*
X57170D01*
Y21511D01*
X57800D01*
Y22200D01*
D02*
G37*
G36*
X55690Y21930D02*
X55100D01*
Y21300D01*
X55690D01*
Y21930D01*
D02*
G37*
G36*
X76000Y23220D02*
X75610Y23142D01*
X75279Y22921D01*
X75058Y22590D01*
X74980Y22200D01*
X75058Y21810D01*
X75279Y21479D01*
X75610Y21258D01*
X76000Y21180D01*
X76390Y21258D01*
X76721Y21479D01*
X76942Y21810D01*
X77020Y22200D01*
X76942Y22590D01*
X76721Y22921D01*
X76390Y23142D01*
X76000Y23220D01*
D02*
G37*
G36*
X55690Y20300D02*
X55100D01*
Y19670D01*
X55690D01*
Y20300D01*
D02*
G37*
G36*
X45814Y16000D02*
X44732D01*
Y14819D01*
X45814D01*
Y16000D01*
D02*
G37*
G36*
X43731D02*
X42649D01*
Y14819D01*
X43731D01*
Y16000D01*
D02*
G37*
G36*
X22581Y15514D02*
X21400D01*
Y14432D01*
X22581D01*
Y15514D01*
D02*
G37*
G36*
X20400D02*
X19219D01*
Y14432D01*
X20400D01*
Y15514D01*
D02*
G37*
G36*
X22581Y13431D02*
X21400D01*
Y12349D01*
X22581D01*
Y13431D01*
D02*
G37*
G36*
X64788Y13144D02*
X63410D01*
Y11569D01*
X64788D01*
Y13144D01*
D02*
G37*
G36*
X62410D02*
X61032D01*
Y11569D01*
X62410D01*
Y13144D01*
D02*
G37*
G36*
X36568Y12428D02*
X34600D01*
Y10853D01*
X36568D01*
Y12428D01*
D02*
G37*
G36*
X33600D02*
X31631D01*
Y10853D01*
X33600D01*
Y12428D01*
D02*
G37*
G36*
X29568D02*
X27600D01*
Y10853D01*
X29568D01*
Y12428D01*
D02*
G37*
G36*
X26600D02*
X24632D01*
Y10853D01*
X26600D01*
Y12428D01*
D02*
G37*
G36*
X64788Y10569D02*
X63410D01*
Y8994D01*
X64788D01*
Y10569D01*
D02*
G37*
G36*
X62410D02*
X61032D01*
Y8994D01*
X62410D01*
Y10569D01*
D02*
G37*
G36*
X36568Y9854D02*
X34600D01*
Y8279D01*
X36568D01*
Y9854D01*
D02*
G37*
G36*
X33600D02*
X31631D01*
Y8279D01*
X33600D01*
Y9854D01*
D02*
G37*
G36*
X29568D02*
X27600D01*
Y8279D01*
X29568D01*
Y9854D01*
D02*
G37*
G36*
X46200Y13822D02*
X45771Y13736D01*
X45407Y13493D01*
X45164Y13129D01*
X45078Y12700D01*
X45164Y12271D01*
X45180Y12246D01*
Y11243D01*
X44975D01*
Y3357D01*
X48924D01*
Y3357D01*
X49055Y3549D01*
X49055Y3549D01*
Y3549D01*
X49424Y3585D01*
X49434Y3535D01*
X49459Y3410D01*
X49680Y3079D01*
X50011Y2858D01*
X50401Y2780D01*
X50792Y2858D01*
X51122Y3079D01*
X51343Y3410D01*
X51421Y3800D01*
X51343Y4190D01*
X51122Y4521D01*
X50792Y4742D01*
X50401Y4820D01*
X50011Y4742D01*
X49680Y4521D01*
X49459Y4190D01*
X49434Y4065D01*
X49424Y4015D01*
X49055Y4051D01*
Y4051D01*
X49055Y4051D01*
X48924Y4497D01*
Y11243D01*
X47220D01*
Y12246D01*
X47236Y12271D01*
X47322Y12700D01*
X47236Y13129D01*
X46993Y13493D01*
X46629Y13736D01*
X46200Y13822D01*
D02*
G37*
G36*
X34937Y30481D02*
X33854D01*
Y29300D01*
X34937D01*
Y30481D01*
D02*
G37*
G36*
X32854D02*
X31772D01*
Y29300D01*
X32854D01*
Y30481D01*
D02*
G37*
G36*
X34937Y28300D02*
X33854D01*
Y27119D01*
X34937D01*
Y28300D01*
D02*
G37*
G36*
X32854D02*
X31772D01*
Y27119D01*
X32854D01*
Y28300D01*
D02*
G37*
G36*
X34937Y25681D02*
X33854D01*
Y24500D01*
X34937D01*
Y25681D01*
D02*
G37*
G36*
X32854D02*
X31772D01*
Y24500D01*
X32854D01*
Y25681D01*
D02*
G37*
G36*
X34937Y23500D02*
X33854D01*
Y22319D01*
X34937D01*
Y23500D01*
D02*
G37*
G36*
X32854D02*
X31772D01*
Y22319D01*
X32854D01*
Y23500D01*
D02*
G37*
G36*
X36568Y19121D02*
X34600D01*
Y17547D01*
X36568D01*
Y19121D01*
D02*
G37*
G36*
X33600D02*
X31631D01*
Y17547D01*
X33600D01*
Y19121D01*
D02*
G37*
G36*
X29568D02*
X27600D01*
Y17547D01*
X29568D01*
Y19121D01*
D02*
G37*
G36*
X26600D02*
X24632D01*
Y17547D01*
X26600D01*
Y19121D01*
D02*
G37*
G36*
X36568Y16546D02*
X34600D01*
Y14972D01*
X36568D01*
Y16546D01*
D02*
G37*
G36*
X33600D02*
X31631D01*
Y14972D01*
X33600D01*
Y16546D01*
D02*
G37*
G36*
X29568D02*
X27600D01*
Y14972D01*
X29568D01*
Y16546D01*
D02*
G37*
G36*
X26600D02*
X24632D01*
Y14972D01*
X26600D01*
Y16546D01*
D02*
G37*
G36*
X78568Y13144D02*
X77190D01*
Y11569D01*
X78568D01*
Y13144D01*
D02*
G37*
G36*
X76190D02*
X74812D01*
Y11569D01*
X76190D01*
Y13144D01*
D02*
G37*
G36*
Y10569D02*
X74812D01*
Y8994D01*
X76190D01*
Y10569D01*
D02*
G37*
%LPD*%
D10*
X14200Y18297D02*
Y19800D01*
Y18297D02*
X15107Y17391D01*
X35293Y67607D02*
X35300Y67600D01*
X36108Y66873D02*
X38816D01*
X33101Y67607D02*
X35293D01*
X35300Y67600D02*
X35381D01*
X36108Y66873D01*
X33200Y83057D02*
X39184D01*
X40541Y81700D01*
X33200Y88042D02*
X35168D01*
X28000Y74398D02*
Y77798D01*
X27400Y73700D02*
Y73798D01*
X28000Y74398D01*
X26000Y79700D02*
X26098D01*
X28000Y77798D01*
X20877Y70424D02*
Y71724D01*
X20800Y71800D02*
X20877Y71724D01*
Y70424D02*
X21914Y69386D01*
X33094Y67614D02*
X33101Y67607D01*
X35168Y77225D02*
X35910Y76483D01*
Y76460D02*
Y76483D01*
X35168Y77225D02*
Y77742D01*
X33200D02*
X35168D01*
X33200Y93357D02*
X35168D01*
Y96628D01*
X35541Y97000D01*
X27900Y91600D02*
X29658Y93357D01*
X31231D01*
X28900Y84200D02*
Y85193D01*
X31231Y87525D02*
Y88042D01*
X28900Y85193D02*
X31231Y87525D01*
X35434Y86719D02*
Y87778D01*
X35168Y88042D02*
X35434Y87778D01*
Y86719D02*
X36652Y85500D01*
X21914Y69386D02*
X23706D01*
X18361Y86261D02*
X18500Y86400D01*
X16100Y85000D02*
X17361Y86261D01*
X18361D01*
X9000Y68900D02*
X10500Y70400D01*
X9000Y67800D02*
Y68900D01*
X30600Y56700D02*
Y60200D01*
X28900Y54902D02*
X30600Y56602D01*
X28900Y48000D02*
Y54902D01*
X30600Y56602D02*
Y56700D01*
X28300Y47400D02*
X28900Y48000D01*
X26700Y47400D02*
X28300D01*
X42359Y52700D02*
X42409Y52650D01*
X15107Y17391D02*
X16109D01*
X16400Y17100D01*
X12900Y80692D02*
X13803Y79789D01*
Y78297D02*
X13900Y78200D01*
X13803Y78297D02*
Y79789D01*
X12900Y80692D02*
Y80800D01*
X50200Y75209D02*
X51410D01*
X52200Y76000D01*
X51800Y72400D02*
X53600Y74200D01*
Y80703D01*
X50500Y72400D02*
X51800D01*
X49800Y71700D02*
X50500Y72400D01*
X49800Y67700D02*
Y71700D01*
Y67700D02*
X51600Y65900D01*
X36652Y85500D02*
X40500D01*
X40600Y85600D01*
X40541Y81700D02*
X40600D01*
X61900Y91800D02*
X63900D01*
X60600Y93100D02*
X61900Y91800D01*
X60600Y93100D02*
Y95381D01*
X40100Y77710D02*
X43600D01*
X35910Y76460D02*
X37261Y75109D01*
X40100D01*
X43200Y92800D02*
Y94299D01*
X42399Y95100D02*
X43200Y94299D01*
X38200Y95451D02*
X38552Y95100D01*
X38200Y95451D02*
Y97000D01*
X38552Y95100D02*
X42399D01*
X64538Y98019D02*
X66365D01*
X64538Y95381D02*
Y95662D01*
X51600Y65900D02*
X53765D01*
X53776Y65889D01*
X56681Y98038D02*
Y100581D01*
X62600Y93923D02*
Y95562D01*
X63900Y91800D02*
X64600Y91100D01*
Y90105D02*
X64650Y90056D01*
X64600Y90105D02*
Y91100D01*
X56681Y100581D02*
X56700Y100600D01*
X56662Y98019D02*
X56681Y98038D01*
X64738Y95862D02*
X66362D01*
X66400Y95900D01*
X64538Y95662D02*
X64738Y95862D01*
X64538Y95381D02*
X64619Y95462D01*
X66365Y98019D02*
X66446Y98100D01*
X66500D01*
D14*
X51600Y49500D02*
Y55600D01*
X38816Y57424D02*
X49776D01*
X51600Y55600D01*
X48588Y55850D02*
X49669Y54769D01*
X36050Y55850D02*
X48588D01*
X46250Y49550D02*
X52300Y43500D01*
X42359Y49550D02*
X46250D01*
X49465Y41700D02*
X50065Y42300D01*
X49368Y41700D02*
X49465D01*
X50065Y42300D02*
X50200D01*
X49014Y41347D02*
X49368Y41700D01*
X49014Y32855D02*
Y41347D01*
X38816Y51125D02*
X38841Y51100D01*
X47500D01*
X23500Y77100D02*
X26000D01*
X28300Y79454D02*
Y79500D01*
Y79454D02*
X29178Y78575D01*
X30917D01*
X31231Y77742D02*
Y78260D01*
X30917Y78575D02*
X31231Y78260D01*
X31397Y83223D02*
Y84597D01*
X32300Y85500D02*
X34700D01*
X31231Y83057D02*
X31397Y83223D01*
Y84597D02*
X32300Y85500D01*
X35400Y56500D02*
Y58400D01*
X35901Y55998D02*
X36050Y55850D01*
X35400Y56500D02*
X35901Y55998D01*
X53700Y29100D02*
X55351Y30751D01*
X56800Y29302D01*
X55351Y30751D02*
Y32818D01*
X56800Y28600D02*
Y29302D01*
X50627Y31027D02*
Y36361D01*
X38816Y54275D02*
X45439D01*
X45665Y54500D01*
X45800D01*
X42359Y58999D02*
X47599D01*
X47600Y59000D01*
X42359Y52700D02*
X45900D01*
X32372Y62011D02*
X45989D01*
X30600Y60239D02*
X32372Y62011D01*
X55351Y63151D02*
Y69432D01*
X54200Y62000D02*
X55351Y63151D01*
X46000Y62000D02*
X54200D01*
X45989Y62011D02*
X46000Y62000D01*
X30600Y60200D02*
Y60239D01*
X58300Y25300D02*
X60500D01*
X49700Y27300D02*
X51900D01*
X48100Y29100D02*
X53700D01*
X45862Y26862D02*
X48100Y29100D01*
X49800Y30200D02*
X50627Y31027D01*
X44289Y26862D02*
X47626Y30200D01*
X49800D01*
X51900Y24100D02*
Y24198D01*
X50736Y25363D02*
X51900Y24198D01*
X47804Y25363D02*
X50736D01*
X45862Y25287D02*
X47729D01*
X47804Y25363D01*
X45902Y30638D02*
Y32818D01*
X45300Y30035D02*
X45902Y30638D01*
X45300Y29900D02*
Y30035D01*
X44287Y26862D02*
X44289D01*
X52201Y69826D02*
X55375Y73000D01*
X58750D01*
X56667Y83757D02*
X56776D01*
X53600Y80703D02*
X56279Y83382D01*
X56292D02*
X56667Y83757D01*
X56279Y83382D02*
X56292D01*
X63075Y85310D02*
Y85331D01*
X61500Y86906D02*
X63075Y85331D01*
X53600Y89800D02*
X54919Y88481D01*
X52308Y95700D02*
X53600Y94408D01*
Y89800D02*
Y94408D01*
X51617Y94700D02*
X52400Y93917D01*
X47400Y94700D02*
X51617D01*
X52400Y89500D02*
Y93917D01*
Y89500D02*
X54917Y86983D01*
X56699D01*
X56776Y86906D01*
X54919Y88481D02*
X56776D01*
X46046Y96054D02*
X47400Y94700D01*
X48600Y95700D02*
X52308D01*
X48000Y96300D02*
X48600Y95700D01*
X48000Y96300D02*
Y99200D01*
X55676Y79824D02*
X56700Y78800D01*
X55676Y79824D02*
Y81063D01*
X56776Y82163D01*
Y82182D01*
X45900Y97200D02*
X46046Y97054D01*
Y96054D02*
Y97054D01*
X52201Y69432D02*
Y69826D01*
X56900Y65915D02*
Y71700D01*
Y65915D02*
X56926Y65889D01*
X81513Y23925D02*
Y25500D01*
X79750Y27263D02*
Y33868D01*
Y27263D02*
X81513Y25500D01*
X40396Y29596D02*
Y30067D01*
X40300Y29500D02*
X40396Y29596D01*
X42753Y32818D02*
X43200Y33265D01*
X40396Y30067D02*
X42753Y32424D01*
X74200Y30400D02*
Y32769D01*
X74249Y32818D01*
X58538Y61862D02*
X59400Y61000D01*
X67400D02*
X71900Y56500D01*
X59400Y61000D02*
X67400D01*
X58538Y61862D02*
Y69395D01*
X49014Y32855D02*
X49052Y32818D01*
X52200Y32820D02*
Y39000D01*
Y32820D02*
X52201Y32818D01*
X45365Y32281D02*
X45902Y32818D01*
X42753Y32424D02*
Y32818D01*
X47600Y36484D02*
Y38600D01*
X47477Y36361D02*
X47600Y36484D01*
X66412Y31326D02*
Y34310D01*
X66417Y34315D01*
X66412Y31326D02*
X66417Y31321D01*
X64600Y28900D02*
X66417Y30718D01*
Y31321D01*
Y34315D02*
Y35794D01*
X69918Y33625D02*
Y36794D01*
X67944Y29568D02*
Y32737D01*
X77398Y29602D02*
X77400Y29600D01*
X77398Y29602D02*
Y32818D01*
X58501Y69432D02*
X58538Y69395D01*
X71900Y50300D02*
Y56500D01*
X80511Y34629D02*
Y41689D01*
X71900Y50300D02*
X80511Y41689D01*
X79750Y33868D02*
X80511Y34629D01*
X46100Y99800D02*
X47400D01*
X48000Y99200D01*
D17*
X79600Y21400D02*
Y24200D01*
X9509Y25630D02*
X10425Y26546D01*
Y28613D01*
X46385Y45815D02*
Y46715D01*
X45125Y47976D02*
X46385Y46715D01*
X38816Y47976D02*
X45125D01*
X24000Y75600D02*
X24800Y74800D01*
Y73700D02*
Y74800D01*
X42359Y41041D02*
Y43251D01*
Y41041D02*
X42400Y41000D01*
X44510Y40490D02*
Y44644D01*
Y40490D02*
X44600Y40400D01*
X42753Y46401D02*
X44510Y44644D01*
X42359Y46401D02*
X42753D01*
X58600Y29300D02*
Y40100D01*
Y29300D02*
X59400Y28500D01*
X51532Y41200D02*
X57500D01*
X50627Y40295D02*
X51532Y41200D01*
X50627Y36361D02*
Y40295D01*
X57500Y41200D02*
X58600Y40100D01*
X49939Y81400D02*
X52000D01*
X49600Y81739D02*
X49939Y81400D01*
X79000Y66300D02*
Y71100D01*
X80200Y72300D02*
X91500D01*
X79000Y71100D02*
X80200Y72300D01*
X71290Y69432D02*
X75058Y73200D01*
X90300D01*
X90900Y73800D01*
X45430Y79500D02*
X50800D01*
X43639Y77710D02*
X45430Y79500D01*
X49600Y81739D02*
Y83000D01*
Y81700D02*
Y81739D01*
X49199Y83401D02*
X49600Y83000D01*
X49000Y83600D02*
X49199Y83401D01*
X45100Y83600D02*
X49000D01*
X43200Y81798D02*
X43591Y82189D01*
X43689D01*
X45100Y83600D01*
X43200Y81700D02*
Y81798D01*
X49600Y85600D02*
Y87100D01*
Y85561D02*
Y85600D01*
X43200Y87500D02*
Y89400D01*
Y85600D02*
Y87500D01*
X49399Y87301D02*
X49600Y87100D01*
X49200Y87500D02*
X49399Y87301D01*
X43200Y87500D02*
X49200D01*
X49600Y85561D02*
X49991Y85170D01*
X50030D02*
X50400Y84800D01*
X49991Y85170D02*
X50030D01*
X50400Y84800D02*
X51800D01*
X57006Y91400D02*
X58350Y90056D01*
X55334Y91400D02*
X57006D01*
X55100Y90300D02*
Y91166D01*
X55334Y91400D01*
X49800Y92900D02*
X51100D01*
X49536Y92636D02*
X49800Y92900D01*
X43600Y77710D02*
X43639D01*
X49536Y91670D02*
Y92636D01*
X48966Y91100D02*
X49536Y91670D01*
X44900Y91100D02*
X48966D01*
X43200Y92702D02*
Y92800D01*
Y92702D02*
X43591Y92311D01*
X43689D01*
X44900Y91100D01*
X93800Y72100D02*
Y75300D01*
X93013Y71313D02*
X93800Y72100D01*
X92300Y73100D02*
Y76800D01*
X90900Y73800D02*
Y75800D01*
X91500Y72300D02*
X92300Y73100D01*
X80652Y71313D02*
X93013D01*
X79900Y70562D02*
X80652Y71313D01*
X74921Y28879D02*
X79600Y24200D01*
X72504Y28879D02*
X74921D01*
X71100Y30283D02*
X72504Y28879D01*
X71100Y30283D02*
Y41700D01*
X68800Y44000D02*
X71100Y41700D01*
X68800Y44000D02*
Y56300D01*
X67700Y57400D02*
X68800Y56300D01*
X59700Y57400D02*
X67700D01*
X56926Y60174D02*
Y65889D01*
Y60174D02*
X59700Y57400D01*
X78000Y65300D02*
X79000Y66300D01*
X66962Y65300D02*
X78000D01*
X64713Y64008D02*
X78408D01*
X79900Y65500D02*
Y70562D01*
X78408Y64008D02*
X79900Y65500D01*
X66375Y65887D02*
Y65889D01*
Y65887D02*
X66962Y65300D01*
X67950Y69432D02*
X71290D01*
X63225Y65495D02*
Y65889D01*
Y65495D02*
X64713Y64008D01*
D21*
X21400Y24509D02*
D03*
Y33091D02*
D03*
D22*
X14000Y23700D02*
D03*
X11400D02*
D03*
X30700Y73800D02*
D03*
X33300D02*
D03*
X67909Y75100D02*
D03*
X70509D02*
D03*
X55209D02*
D03*
X57810D02*
D03*
X64509D02*
D03*
X61910D02*
D03*
X74610D02*
D03*
X77210D02*
D03*
X73700Y93300D02*
D03*
X76300D02*
D03*
X49500Y89300D02*
D03*
X46900D02*
D03*
X81109Y75100D02*
D03*
X83710D02*
D03*
X30500Y37600D02*
D03*
X33100D02*
D03*
X30500Y45700D02*
D03*
X33100D02*
D03*
X30500Y34000D02*
D03*
X33100D02*
D03*
X54600Y20800D02*
D03*
X52000D02*
D03*
X47000Y92900D02*
D03*
X49600D02*
D03*
X25500Y90800D02*
D03*
X22900D02*
D03*
X47000Y85600D02*
D03*
X49600D02*
D03*
X11200Y74200D02*
D03*
X13800D02*
D03*
X47000Y81700D02*
D03*
X49600D02*
D03*
X10809Y54007D02*
D03*
X13409D02*
D03*
X30600Y60200D02*
D03*
X33200D02*
D03*
D23*
X24800Y73700D02*
D03*
X30600Y41200D02*
D03*
X35600Y97000D02*
D03*
X54500Y27300D02*
D03*
X40600Y92800D02*
D03*
Y85600D02*
D03*
Y89400D02*
D03*
X54500Y24100D02*
D03*
X13300Y34500D02*
D03*
X18600Y82600D02*
D03*
X11300Y78200D02*
D03*
X21100Y86400D02*
D03*
X40600Y81700D02*
D03*
X13300Y50100D02*
D03*
X10800Y46000D02*
D03*
X23800Y54200D02*
D03*
X30600Y63800D02*
D03*
X33200Y56700D02*
D03*
X23800Y63700D02*
D03*
D24*
X27400Y73700D02*
D03*
X33200Y41200D02*
D03*
X38200Y97000D02*
D03*
X51900Y27300D02*
D03*
X43200Y92800D02*
D03*
Y85600D02*
D03*
Y89400D02*
D03*
X51900Y24100D02*
D03*
X10700Y34500D02*
D03*
X21200Y82600D02*
D03*
X13900Y78200D02*
D03*
X18500Y86400D02*
D03*
X43200Y81700D02*
D03*
X10700Y50100D02*
D03*
X13400Y46000D02*
D03*
X26400Y54200D02*
D03*
X33200Y63800D02*
D03*
X30600Y56700D02*
D03*
X26400Y63700D02*
D03*
D25*
X4800Y47079D02*
D03*
Y57721D02*
D03*
D26*
X26462Y68500D02*
D03*
X30338D02*
D03*
D27*
X23706Y67614D02*
D03*
Y69386D02*
D03*
X33094Y67614D02*
D03*
Y69386D02*
D03*
D28*
X30641Y90700D02*
D03*
X35759D02*
D03*
Y80400D02*
D03*
X30641D02*
D03*
D29*
X35168Y93357D02*
D03*
X31231D02*
D03*
Y88042D02*
D03*
X35168D02*
D03*
Y77742D02*
D03*
X31231D02*
D03*
Y83057D02*
D03*
X35168D02*
D03*
D30*
X33200Y93357D02*
D03*
Y88042D02*
D03*
Y77742D02*
D03*
Y83057D02*
D03*
D31*
X26500Y58900D02*
D03*
D32*
X23700Y58100D02*
D03*
Y59700D02*
D03*
D33*
X18360Y38041D02*
D03*
Y43159D02*
D03*
X25840D02*
D03*
Y40600D02*
D03*
Y38041D02*
D03*
D34*
X67438Y25931D02*
D03*
X72162D02*
D03*
D35*
X62910Y11069D02*
D03*
X76690D02*
D03*
D36*
X13575Y28613D02*
D03*
X12000D02*
D03*
X10425D02*
D03*
X13575Y30187D02*
D03*
X12000D02*
D03*
X10425D02*
D03*
D37*
X45862Y26862D02*
D03*
Y25287D02*
D03*
Y23713D02*
D03*
Y22138D02*
D03*
X44287Y26862D02*
D03*
Y25287D02*
D03*
Y23713D02*
D03*
Y22138D02*
D03*
X42713Y26862D02*
D03*
Y25287D02*
D03*
Y22138D02*
D03*
X41138Y26862D02*
D03*
Y25287D02*
D03*
Y23713D02*
D03*
Y22138D02*
D03*
X42713Y23713D02*
D03*
D38*
X13984Y62568D02*
D03*
Y58631D02*
D03*
X12016Y62568D02*
D03*
Y60600D02*
D03*
Y58631D02*
D03*
D39*
X20384Y78268D02*
D03*
Y76300D02*
D03*
Y74331D02*
D03*
X18416Y78268D02*
D03*
Y76300D02*
D03*
Y74331D02*
D03*
D40*
X81513Y27075D02*
D03*
X83087D02*
D03*
X81513Y25500D02*
D03*
X83087D02*
D03*
X81513Y23925D02*
D03*
X83087D02*
D03*
X67799Y80607D02*
D03*
X66224D02*
D03*
X64650D02*
D03*
X63075D02*
D03*
X61500D02*
D03*
X59925D02*
D03*
X58350D02*
D03*
X56776D02*
D03*
X67799Y82182D02*
D03*
X66224D02*
D03*
X64650D02*
D03*
X63075D02*
D03*
X61500D02*
D03*
X59925D02*
D03*
X58350D02*
D03*
X56776D02*
D03*
X67799Y83757D02*
D03*
X66224D02*
D03*
X64650D02*
D03*
X63075D02*
D03*
X61500D02*
D03*
X59925D02*
D03*
X58350D02*
D03*
X56776D02*
D03*
X67799Y85331D02*
D03*
X66224D02*
D03*
X64650D02*
D03*
X63075D02*
D03*
X61500D02*
D03*
X59925D02*
D03*
X58350D02*
D03*
X56776D02*
D03*
X67799Y86906D02*
D03*
X66224D02*
D03*
X64650D02*
D03*
X63075D02*
D03*
X61500D02*
D03*
X59925D02*
D03*
X58350D02*
D03*
X56776D02*
D03*
X67799Y88481D02*
D03*
X66224D02*
D03*
X64650D02*
D03*
X63075D02*
D03*
X61500D02*
D03*
X59925D02*
D03*
X58350D02*
D03*
X56776D02*
D03*
X67799Y90056D02*
D03*
X66224D02*
D03*
X64650D02*
D03*
X63075D02*
D03*
X61500D02*
D03*
X59925D02*
D03*
X58350D02*
D03*
X56776D02*
D03*
X79600Y21400D02*
D03*
X9516Y25649D02*
D03*
X35300Y67600D02*
D03*
X28300Y79500D02*
D03*
X34700Y85500D02*
D03*
X60678Y21114D02*
D03*
X35400Y58400D02*
D03*
X59400Y28500D02*
D03*
X52000Y81400D02*
D03*
X9600Y60600D02*
D03*
Y62600D02*
D03*
X24700Y51100D02*
D03*
X56870Y28540D02*
D03*
X13575Y30187D02*
D03*
X42713Y26862D02*
D03*
X41100D02*
D03*
X44300Y23700D02*
D03*
X42700D02*
D03*
X44300Y25300D02*
D03*
X42700D02*
D03*
X61500Y83757D02*
D03*
X38200Y81800D02*
D03*
X44900Y90000D02*
D03*
X50800Y79500D02*
D03*
X63075Y86906D02*
D03*
X66224Y88481D02*
D03*
X64650Y85331D02*
D03*
X63075D02*
D03*
X51800Y83200D02*
D03*
Y84800D02*
D03*
Y86300D02*
D03*
X58350Y88481D02*
D03*
X56776Y90056D02*
D03*
X58600Y94000D02*
D03*
X59925Y90050D02*
D03*
X55100Y90300D02*
D03*
X51100Y92900D02*
D03*
X58350Y85331D02*
D03*
Y86900D02*
D03*
X63075Y90050D02*
D03*
X61500Y88481D02*
D03*
X59925D02*
D03*
X58350Y83757D02*
D03*
X59925D02*
D03*
X93800Y75300D02*
D03*
X92300Y76800D02*
D03*
X90900Y75800D02*
D03*
X63075Y82182D02*
D03*
X56700Y78800D02*
D03*
X58350Y80607D02*
D03*
X59925Y82182D02*
D03*
X58350D02*
D03*
X85044Y18877D02*
D03*
X81513Y27075D02*
D03*
X83087Y25500D02*
D03*
X71865Y16984D02*
D03*
X66224Y85331D02*
D03*
Y86906D02*
D03*
X68959Y39075D02*
D03*
X66059D02*
D03*
X74700Y39300D02*
D03*
X76946Y39739D02*
D03*
X78446Y40839D02*
D03*
X78346Y48239D02*
D03*
X62031Y99832D02*
D03*
X87414Y83255D02*
D03*
X66224Y83757D02*
D03*
X67799D02*
D03*
X66200Y78900D02*
D03*
X66224Y82182D02*
D03*
X56700Y100600D02*
D03*
X72100Y96300D02*
D03*
X80965Y49584D02*
D03*
X81065Y45784D02*
D03*
X81365Y62084D02*
D03*
Y64684D02*
D03*
X66400Y95900D02*
D03*
X63075Y88481D02*
D03*
X66500Y98100D02*
D03*
X66224Y80607D02*
D03*
X67799Y82182D02*
D03*
D41*
X54900Y4200D02*
D03*
Y15900D02*
D03*
D42*
X60631Y98200D02*
D03*
Y95562D02*
D03*
D43*
X40650Y7300D02*
D03*
X46950D02*
D03*
D47*
X34100Y10353D02*
D03*
Y17047D02*
D03*
X27100Y10353D02*
D03*
Y17047D02*
D03*
D48*
X5853Y40200D02*
D03*
X12547D02*
D03*
D49*
X82400Y18868D02*
D03*
Y14931D02*
D03*
X87500Y24069D02*
D03*
Y20132D02*
D03*
X18800Y64863D02*
D03*
Y68800D02*
D03*
Y55831D02*
D03*
Y59768D02*
D03*
X20900Y17868D02*
D03*
Y13931D02*
D03*
X83900Y83675D02*
D03*
Y79738D02*
D03*
X32100Y53268D02*
D03*
Y49332D02*
D03*
D50*
X79194Y89131D02*
D03*
X75257D02*
D03*
X62231Y5500D02*
D03*
X66168D02*
D03*
X75231Y79732D02*
D03*
X79168D02*
D03*
X75257Y84632D02*
D03*
X79194D02*
D03*
X44232Y16500D02*
D03*
X48169D02*
D03*
X29417Y28800D02*
D03*
X33354D02*
D03*
X29417Y24000D02*
D03*
X33354D02*
D03*
D51*
X45900Y97200D02*
D03*
X16400Y19700D02*
D03*
X58300Y22700D02*
D03*
X26000Y77100D02*
D03*
X6700Y31900D02*
D03*
X40100Y75109D02*
D03*
X22700Y49900D02*
D03*
X26700Y47400D02*
D03*
X7100Y61900D02*
D03*
D52*
X45900Y99800D02*
D03*
X16400Y17100D02*
D03*
X58300Y25300D02*
D03*
X26000Y79700D02*
D03*
X6700Y34500D02*
D03*
X40100Y77710D02*
D03*
X22700Y47300D02*
D03*
X26700Y50000D02*
D03*
X7100Y64500D02*
D03*
D53*
X50200Y75209D02*
D03*
Y77810D02*
D03*
X46900Y75209D02*
D03*
Y77810D02*
D03*
X52800Y100200D02*
D03*
Y97600D02*
D03*
X42600Y99700D02*
D03*
Y97100D02*
D03*
X39500Y18100D02*
D03*
Y15500D02*
D03*
X26000Y85900D02*
D03*
Y83300D02*
D03*
X49600Y97600D02*
D03*
Y100200D02*
D03*
X7000Y70400D02*
D03*
Y67800D02*
D03*
X91800Y24900D02*
D03*
Y27500D02*
D03*
X43600Y75109D02*
D03*
Y77710D02*
D03*
X18800Y50000D02*
D03*
Y47400D02*
D03*
D54*
X38816Y66873D02*
D03*
X42359Y52700D02*
D03*
Y46401D02*
D03*
Y43251D02*
D03*
X38816Y47976D02*
D03*
X64800Y49550D02*
D03*
Y58999D02*
D03*
Y55850D02*
D03*
X38816Y70023D02*
D03*
X42359Y58999D02*
D03*
Y49550D02*
D03*
Y55850D02*
D03*
X38816Y60574D02*
D03*
Y41676D02*
D03*
Y44826D02*
D03*
Y57424D02*
D03*
Y54275D02*
D03*
Y51125D02*
D03*
Y63724D02*
D03*
Y35377D02*
D03*
Y32228D02*
D03*
X64800Y52700D02*
D03*
Y46401D02*
D03*
Y43251D02*
D03*
X38816Y38527D02*
D03*
D55*
X55351Y69432D02*
D03*
X60076Y65889D02*
D03*
X50627Y36361D02*
D03*
X64800Y69432D02*
D03*
X77398D02*
D03*
X74249D02*
D03*
X58501D02*
D03*
X75824Y36361D02*
D03*
X69524D02*
D03*
X67950Y69432D02*
D03*
X53776Y36361D02*
D03*
X63225D02*
D03*
X56926D02*
D03*
X49052Y32818D02*
D03*
X52201Y69432D02*
D03*
X64800Y32818D02*
D03*
X42753D02*
D03*
X52201D02*
D03*
X66375Y65889D02*
D03*
X63225D02*
D03*
X47477Y36361D02*
D03*
X45902Y32818D02*
D03*
X55351D02*
D03*
X61650D02*
D03*
X60075Y36361D02*
D03*
X66375D02*
D03*
X67950Y32818D02*
D03*
X56926Y65889D02*
D03*
X77398Y32818D02*
D03*
X74249D02*
D03*
X72674Y36361D02*
D03*
X78973D02*
D03*
X81729Y32818D02*
D03*
X61650Y69432D02*
D03*
X53776Y65889D02*
D03*
X81729Y69432D02*
D03*
D95*
X64569Y98200D02*
D03*
X62600D02*
D03*
X56693D02*
D03*
Y95562D02*
D03*
X58662D02*
D03*
X62600D02*
D03*
X64569D02*
D03*
X58662Y98200D02*
D03*
D96*
X14296Y67740D02*
D03*
Y70339D02*
D03*
D97*
X10500Y70400D02*
D03*
Y67679D02*
D03*
D98*
X12308Y69040D02*
D03*
D99*
X76500Y19000D02*
X80400Y15100D01*
X67469Y19000D02*
X76500D01*
X30500Y34000D02*
Y37600D01*
X6970Y67770D02*
Y67791D01*
X5200Y66000D02*
X6970Y67770D01*
X6979Y67800D02*
X9000D01*
X6970Y67791D02*
X6979Y67800D01*
X5200Y66000D02*
Y66000D01*
X14000Y23700D02*
Y25600D01*
X12900Y26700D02*
X14000Y25600D01*
X22400Y74300D02*
X22477Y74224D01*
X22368Y74331D02*
X22400Y74300D01*
X22477Y72423D02*
Y74224D01*
Y72423D02*
X23400Y71500D01*
X29700D01*
X20384Y74331D02*
X22368D01*
X30691Y72491D02*
Y73791D01*
X30700Y73800D01*
X29700Y71500D02*
X30691Y72491D01*
X34100Y73000D02*
X37592D01*
X33330Y73770D02*
X34100Y73000D01*
X33300Y73779D02*
X33309Y73770D01*
X33300Y73779D02*
Y73800D01*
X33309Y73770D02*
X33330D01*
X30700Y73800D02*
Y73821D01*
X30691Y73830D02*
X30700Y73821D01*
X33209Y63889D02*
X34088D01*
X34923Y64725D02*
Y65223D01*
X33200Y63880D02*
X33209Y63889D01*
X34923Y65223D02*
X35000Y65300D01*
X34088Y63889D02*
X34923Y64725D01*
X33200Y63800D02*
Y63880D01*
X9600Y60600D02*
X12016D01*
X11997Y62587D02*
X12016Y62568D01*
X9612Y62587D02*
X11997D01*
X9600Y62600D02*
X9612Y62587D01*
X26462Y68500D02*
X26650Y68313D01*
Y67412D02*
X27042Y67019D01*
X26650Y67412D02*
Y68313D01*
X27042Y65966D02*
X27100Y65908D01*
X27042Y65966D02*
Y67019D01*
X26409Y64006D02*
X27024Y64620D01*
Y65832D01*
X26409Y63789D02*
Y64006D01*
X9000Y67800D02*
X10379D01*
X10500Y67679D01*
X15907Y74200D02*
Y76093D01*
Y68550D02*
Y74200D01*
X13800D02*
X15907D01*
X18416Y76300D02*
X20384D01*
X15900D02*
X18416D01*
X15097Y67740D02*
X15907Y68550D01*
X14296Y67740D02*
X15097D01*
X15937Y58631D02*
X18219Y56350D01*
Y56314D02*
X18733Y55800D01*
X18219Y56314D02*
Y56350D01*
X18733Y55800D02*
X18768D01*
X13984Y58631D02*
X15937D01*
X16200Y48900D02*
X17290Y49991D01*
X16200Y48400D02*
Y48900D01*
X17290Y49991D02*
X18790D01*
X18800Y50000D01*
X10809Y57398D02*
X12016Y58605D01*
Y58631D01*
X10809Y54007D02*
Y57398D01*
X10700Y53878D02*
X10809Y53987D01*
Y54007D01*
X10700Y50100D02*
Y53878D01*
X10800Y46000D02*
Y49920D01*
X10700Y50020D02*
X10800Y49920D01*
X10700Y50020D02*
Y50100D01*
X13400Y41054D02*
Y46000D01*
X12547Y40200D02*
X13400Y41054D01*
X31303Y43400D02*
X33005D01*
X33100Y43495D01*
Y44598D02*
Y45700D01*
Y43495D02*
Y44598D01*
X33329Y44826D02*
X38816D01*
X33100Y44598D02*
X33329Y44826D01*
X33100Y45700D02*
Y48430D01*
X32100Y49332D02*
X32198D01*
X33100Y48430D01*
X31661Y49770D02*
X32100Y49332D01*
X33100Y34000D02*
X35500D01*
X30570Y41230D02*
X30600Y41200D01*
Y42697D01*
X31303Y43400D01*
X13211Y32240D02*
Y34470D01*
X12000Y31029D02*
X13211Y32240D01*
Y34470D02*
X13241Y34500D01*
X35808Y41400D02*
X36047Y41639D01*
X33200Y41200D02*
X35392D01*
X35592Y41400D02*
X35700D01*
Y37600D02*
Y41400D01*
X36047Y41639D02*
X38778D01*
X35700Y41400D02*
X35808D01*
X35392Y41200D02*
X35592Y41400D01*
X15587Y28613D02*
X15600Y28600D01*
X13575Y28613D02*
X15587D01*
X13241Y34500D02*
X13300D01*
X33100Y37600D02*
X35700D01*
X36800Y20600D02*
X39600D01*
X36700Y20500D02*
X36800Y20600D01*
X39600D02*
X40000Y21000D01*
X38600Y27200D02*
X39600Y26200D01*
X36500Y27200D02*
X38600D01*
X37008Y35400D02*
X38793D01*
X38816Y35377D01*
X35608Y34000D02*
X37008Y35400D01*
X35500Y34000D02*
X35608D01*
X40650Y7300D02*
Y11950D01*
X39500Y13100D02*
X40650Y11950D01*
X39500Y13100D02*
Y15500D01*
X39676Y8275D02*
X40650Y7300D01*
X43800Y19100D02*
X43876Y19024D01*
X43800Y19100D02*
Y19208D01*
X42713Y20296D02*
Y20687D01*
X43876Y17081D02*
X44232Y16726D01*
X42713Y20296D02*
X43800Y19208D01*
X44232Y16500D02*
Y16726D01*
X43876Y17081D02*
Y19024D01*
X49300Y20800D02*
X52000D01*
X46200Y8050D02*
Y12700D01*
Y8050D02*
X46950Y7300D01*
X21191Y81090D02*
Y82530D01*
X23110Y82511D02*
X25921Y79700D01*
X21210Y82511D02*
X23110D01*
X21191Y82530D02*
Y82591D01*
X25921Y79700D02*
X26000D01*
X21191Y82530D02*
X21210Y82511D01*
X21191Y82591D02*
X21200Y82600D01*
X18416Y78997D02*
X19619Y80200D01*
X18416Y78268D02*
Y78997D01*
X20300Y80200D02*
X21191Y81090D01*
X19619Y80200D02*
X20300D01*
X4800Y47079D02*
X4839Y47039D01*
X67438Y19900D02*
X67469D01*
X82231Y15100D02*
X82400Y14931D01*
X80400Y15100D02*
X82231D01*
X83998Y79738D02*
X87394D01*
X38235Y32040D02*
X38422Y32228D01*
X38816D01*
X79168Y79732D02*
X79172Y79735D01*
X83897D01*
X87394Y79738D02*
X87400Y79732D01*
D100*
X72181Y22219D02*
X72200Y22200D01*
X72162Y25931D02*
X72181Y25912D01*
Y22219D02*
Y25912D01*
X21000Y24909D02*
Y28500D01*
Y24909D02*
X21400Y24509D01*
X20591Y23700D02*
X21400Y24509D01*
X23000Y25409D02*
X23600Y24809D01*
X23000Y25409D02*
Y28500D01*
X49300Y16500D02*
Y16600D01*
X14000Y23700D02*
X20591D01*
X16200Y44075D02*
Y48400D01*
X17079Y43196D02*
X18322D01*
X18360Y43159D01*
X16200Y44075D02*
X17079Y43196D01*
X18800Y50000D02*
Y55831D01*
X13300Y34500D02*
Y38000D01*
X13341Y38041D01*
X18360D01*
X34100Y17047D02*
X34494D01*
X49300Y20800D02*
Y23600D01*
Y16600D02*
Y20800D01*
X48268Y16600D02*
Y16698D01*
X48169Y16500D02*
X48268Y16600D01*
X46950Y7300D02*
X47600Y7950D01*
X38778Y44789D02*
X38816Y44826D01*
X76695Y14995D02*
X76700Y15000D01*
X76695Y11074D02*
Y14995D01*
X76690Y11069D02*
X76695Y11074D01*
X62910Y11069D02*
X62955Y11114D01*
X38778Y41639D02*
X38816Y41676D01*
D101*
X54600Y16600D02*
X55100Y16100D01*
X18672Y32250D02*
X19512Y33091D01*
X17500Y28600D02*
X18672Y29772D01*
X15600Y28600D02*
X17500D01*
X19512Y33091D02*
X21400D01*
X18672Y29772D02*
Y32250D01*
X49300Y16600D02*
X54600D01*
X48268D02*
X49300D01*
D102*
X10425Y32157D02*
Y34127D01*
Y30187D02*
Y32157D01*
X10168Y31900D02*
X10425Y32157D01*
X6700Y31900D02*
X10168D01*
X10425Y34127D02*
X10700Y34402D01*
X6411Y34691D02*
X6509D01*
X6700Y34500D01*
X25840Y38041D02*
X26203Y37679D01*
X28000Y35800D02*
Y37210D01*
X26203Y37679D02*
X27531D01*
X28000Y37210D01*
X14853Y54007D02*
X14946Y54100D01*
X13409Y54007D02*
X14853D01*
X14946Y54100D02*
X15000D01*
X26191Y83109D02*
X27400D01*
X26000Y83300D02*
X26191Y83109D01*
X30110Y80400D02*
X30641D01*
X27400Y83109D02*
X30110Y80400D01*
X37696Y80150D02*
X37946Y79900D01*
X35759Y80400D02*
X36009Y80150D01*
X37696D01*
X37946Y79900D02*
X38000D01*
X37946Y90700D02*
X38446Y91200D01*
X38500D01*
X35759Y90700D02*
X37946D01*
X33113Y90207D02*
X33167D01*
X30641Y90700D02*
X32620D01*
X33113Y90207D01*
X33200Y56700D02*
Y60200D01*
X61625Y28125D02*
Y32793D01*
X61600Y28100D02*
X61625Y28125D01*
Y32793D02*
X61650Y32818D01*
X58615Y98034D02*
Y99884D01*
X72799Y79765D02*
X75756D01*
X20119Y18551D02*
X20802Y17868D01*
X16400Y19641D02*
X19128D01*
X20119Y18551D02*
Y18650D01*
X19128Y19641D02*
X20119Y18650D01*
X20802Y17868D02*
X20900D01*
X13575Y30187D02*
X13588D01*
X12000D02*
Y31029D01*
X10700Y34402D02*
Y34500D01*
X41128Y25297D02*
X41138Y25287D01*
X40503Y25297D02*
X41128D01*
X39600Y26200D02*
X40503Y25297D01*
X41100Y26862D02*
Y28200D01*
X44297Y21403D02*
X46200Y19500D01*
X44297Y21403D02*
Y22128D01*
X44287Y22138D02*
X44297Y22128D01*
X48500Y23700D02*
X49400D01*
X48487Y23713D02*
X48500Y23700D01*
X45862Y22138D02*
X49200D01*
X45862Y23713D02*
X48487D01*
X61500Y83757D02*
Y83800D01*
Y83757D02*
X63075D01*
X16100Y82600D02*
X18600D01*
X52195Y77805D02*
X52200Y77800D01*
X50205Y77805D02*
X52195D01*
X50200Y77810D02*
X50205Y77805D01*
X26000Y89600D02*
Y90261D01*
Y85900D02*
Y89600D01*
X27500D01*
X25500Y90761D02*
X26000Y90261D01*
X25500Y90761D02*
Y90800D01*
X18592Y82592D02*
X18600Y82600D01*
X46900Y77810D02*
X50200D01*
X58615Y95324D02*
X58627Y95336D01*
X58615Y94016D02*
Y95324D01*
X61481Y90075D02*
Y90409D01*
X59690Y92200D02*
X61481Y90409D01*
X58600Y94000D02*
X58615Y94016D01*
X42600Y97100D02*
X42639D01*
X42830Y96909D01*
X40500Y97100D02*
X42600D01*
X57810Y75100D02*
X61910D01*
X59925Y78475D02*
Y80607D01*
Y78475D02*
X61100Y77300D01*
X65200D01*
X62537Y98193D02*
X62565Y97957D01*
X62523Y98313D02*
X62537Y98193D01*
X20402Y14631D02*
X20500D01*
X76490Y93070D02*
X77576D01*
X76300Y93261D02*
X76490Y93070D01*
X76300Y93261D02*
Y93300D01*
X77576Y93070D02*
X78246Y92400D01*
X78300D01*
X82400Y18868D02*
X86139D01*
X87402Y20132D01*
X87500D01*
X86700Y27500D02*
X91800D01*
X84719Y25519D02*
X86700Y27500D01*
X83106Y25519D02*
X84719D01*
X83087Y25500D02*
X83106Y25519D01*
X62469Y98769D02*
Y99368D01*
Y98419D02*
Y98769D01*
X62516Y98372D01*
X62523Y98313D01*
X62516Y98372D02*
X62569Y98319D01*
X62469Y98419D02*
X62516Y98372D01*
X62031Y99805D02*
X62469Y99368D01*
X62031Y99805D02*
Y99832D01*
X61481Y90075D02*
X61500Y90056D01*
X83900Y86600D02*
Y86632D01*
Y83675D02*
Y86600D01*
X72600Y94400D02*
X73470Y93530D01*
X73510D01*
X73700Y93300D02*
Y93339D01*
X73510Y93530D02*
X73700Y93339D01*
X67300Y94400D02*
X72600D01*
X58600Y99900D02*
X58615Y99884D01*
Y98034D02*
X58631Y98019D01*
X53862Y38912D02*
X53900Y38950D01*
X53862Y36447D02*
Y38912D01*
X53776Y36361D02*
X53862Y36447D01*
X63075Y83757D02*
X64650D01*
X67799Y86906D02*
X70494D01*
X71800Y85600D01*
Y83300D02*
Y85600D01*
X72900Y82200D02*
X78725D01*
X71800Y83300D02*
X72900Y82200D01*
X79194Y82669D02*
Y84632D01*
X78725Y82200D02*
X79194Y82669D01*
X67799Y88481D02*
X67818Y88500D01*
X74625D01*
X75257Y89131D01*
X67799Y85331D02*
X67818Y85312D01*
X67799Y86906D02*
X67818Y86887D01*
X75257Y84632D02*
Y89131D01*
X79194Y84632D02*
Y89131D01*
X79100Y84538D02*
X79194Y84632D01*
D103*
X38135Y69735D02*
X38422Y70023D01*
X37347Y69735D02*
X38135D01*
X38422Y70023D02*
X42177D01*
X12000Y27600D02*
X12900Y26700D01*
X12000Y27600D02*
Y28613D01*
X13489Y50439D02*
X15150Y52100D01*
X13300Y50100D02*
X13359D01*
X13489Y50230D01*
Y50439D01*
X37313Y23713D02*
X41138D01*
X7100Y64500D02*
X7191Y64591D01*
X8428D01*
X9038Y65200D01*
X9200D01*
X83800Y79539D02*
X83998Y79738D01*
X83800Y75191D02*
Y79539D01*
X83710Y75100D02*
X83800Y75191D01*
X78979Y75100D02*
X79021Y75058D01*
X77210Y75100D02*
X78979D01*
X46809Y89430D02*
X46900Y89339D01*
X45470Y89430D02*
X46809D01*
X46900Y89300D02*
Y89339D01*
X44900Y90000D02*
X45470Y89430D01*
X4862Y61900D02*
X7100D01*
X3762Y60800D02*
X4862Y61900D01*
X3600Y60800D02*
X3762D01*
X3400Y57021D02*
X4100Y57721D01*
X4800D01*
X3400Y54700D02*
Y57021D01*
X24700Y51100D02*
X25502D01*
X23841D02*
X24700D01*
X22830Y50089D02*
X23841Y51100D01*
X22830Y50030D02*
Y50089D01*
X25502Y51100D02*
X26602Y50000D01*
X22700Y49900D02*
X22830Y50030D01*
X26602Y50000D02*
X26700D01*
X30469Y63930D02*
X30599Y63800D01*
X30338Y68500D02*
X30469Y68369D01*
X30599Y63800D02*
X30600D01*
X30469Y63930D02*
Y68369D01*
X12308Y69040D02*
X12970D01*
X14270Y70339D01*
X14296D01*
X14041Y62511D02*
X14253D01*
X14273Y62492D02*
X16077D01*
X18119Y60351D02*
Y60450D01*
X13984Y62568D02*
X14041Y62511D01*
X14253D02*
X14273Y62492D01*
X19028Y59442D02*
X20858D01*
X16077Y62492D02*
X18119Y60450D01*
Y60351D02*
X19028Y59442D01*
X77398Y69432D02*
X77499Y69533D01*
Y71599D02*
X77600Y71700D01*
X77499Y69533D02*
Y71599D01*
X72687Y75100D02*
X74610D01*
X72600Y75187D02*
X72687Y75100D01*
X23800Y62200D02*
Y63700D01*
Y62200D02*
X24500Y61500D01*
X25700D01*
X26500Y60700D01*
Y58900D02*
Y60700D01*
X20858Y59442D02*
X22200Y58100D01*
X23744D01*
X26450Y58850D02*
X26500Y58900D01*
X26400Y54200D02*
X26450Y54250D01*
Y58850D01*
X23744Y58100D02*
X23750Y58094D01*
Y54250D02*
Y58094D01*
Y54250D02*
X23800Y54200D01*
X19481Y63579D02*
X23360Y59700D01*
X23700D01*
X19481Y63579D02*
Y64280D01*
X18898Y64863D02*
X19481Y64280D01*
X18800Y64863D02*
X18898D01*
Y68800D02*
X20084Y67614D01*
X23706D01*
X18800Y68800D02*
X18898D01*
X23792Y67614D02*
X23800Y67606D01*
Y63700D02*
Y67606D01*
X23706Y67614D02*
X23792D01*
X30600Y63800D02*
X30669Y63731D01*
X22502Y45523D02*
Y47400D01*
X24865Y43159D02*
X25840D01*
X22502Y45523D02*
X24865Y43159D01*
X18800Y47400D02*
X22502D01*
X60200Y98369D02*
X60550Y98019D01*
X40000Y21000D02*
X41138Y22138D01*
X39500Y18100D02*
X41685D01*
X42713Y20687D02*
Y22138D01*
X33159Y90200D02*
X33167Y90207D01*
X40600Y89400D02*
Y92800D01*
X54885Y95524D02*
X56693D01*
X56662Y93838D02*
X58300Y92200D01*
X59690D01*
X56693Y94919D02*
Y95524D01*
X56662Y94888D02*
X56693Y94919D01*
X56662Y93838D02*
Y94888D01*
X55200Y78100D02*
X55209Y78091D01*
Y75100D02*
Y78091D01*
X66224Y90056D02*
Y92776D01*
X66200Y92800D02*
X66224Y92776D01*
X81019Y75191D02*
Y76481D01*
X80400Y77100D02*
X81019Y76481D01*
Y75191D02*
X81109Y75100D01*
X72200Y77100D02*
X80400D01*
X70100Y79200D02*
X72200Y77100D01*
X70100Y79200D02*
Y84714D01*
X52800Y100200D02*
X54465D01*
X49600D02*
X52800D01*
X81300Y30100D02*
X83087Y28313D01*
Y27075D02*
Y28313D01*
X42177Y70023D02*
X42500Y69700D01*
X52930Y97509D02*
X54423Y96016D01*
X52890Y97509D02*
X52930D01*
X54500Y95800D02*
X54608D01*
X54885Y95524D01*
X54423Y95876D02*
X54500Y95800D01*
X52800Y97600D02*
X52890Y97509D01*
X54423Y95876D02*
Y96016D01*
X49600Y97600D02*
X52800D01*
X60550Y98019D02*
X60600D01*
X60200Y98369D02*
Y100022D01*
X60171Y100051D02*
X60200Y100022D01*
X54465Y100200D02*
X55000Y100735D01*
X81506Y33383D02*
X81645D01*
X81761Y33499D01*
X81300Y30100D02*
Y30262D01*
X81442Y30404D01*
Y32531D01*
X81729Y32818D01*
X81442Y69145D02*
X81451Y69154D01*
X81729Y69432D01*
X81451Y66751D02*
Y69154D01*
X81300Y66600D02*
X81451Y66751D01*
X67818Y85312D02*
X67831Y85300D01*
X69514D01*
X70100Y84714D01*
X67799Y90056D02*
X69014D01*
X69600Y90642D02*
Y91600D01*
X69014Y90056D02*
X69600Y90642D01*
X40442Y99700D02*
X42600D01*
D104*
X58350Y75680D02*
Y80607D01*
X18100Y73939D02*
X18416Y74255D01*
Y74331D01*
X18100Y71900D02*
Y73939D01*
X20384Y78268D02*
X22069D01*
X23200Y79400D01*
X49703Y89097D02*
X50703D01*
X49500Y89300D02*
X49703Y89097D01*
X50703D02*
X54469Y85331D01*
X56776D01*
X57810Y75139D02*
X58350Y75680D01*
X57810Y75100D02*
Y75139D01*
X67200Y77300D02*
X67909Y76591D01*
X65200Y77300D02*
X67200D01*
X67909Y75100D02*
Y76591D01*
D105*
X67469Y15031D02*
Y19900D01*
Y15031D02*
X67500Y15000D01*
Y6867D02*
X67518Y6849D01*
X67500Y6867D02*
Y15000D01*
X67438Y19900D02*
Y25931D01*
X58089Y4200D02*
X59389Y5500D01*
X54900Y4200D02*
X58089D01*
D106*
X55200Y12600D02*
Y15100D01*
X59389Y5500D02*
X62231D01*
X66168D02*
X67518Y6849D01*
D107*
X85451Y65917D02*
D03*
Y36300D02*
D03*
D108*
X50401Y3800D02*
D03*
X76000Y22200D02*
D03*
X14200Y19800D02*
D03*
X46385Y45815D02*
D03*
X49669Y54769D02*
D03*
X52300Y43500D02*
D03*
X50200Y42300D02*
D03*
X47500Y51100D02*
D03*
X54898Y46220D02*
D03*
X15900Y55400D02*
D03*
X15000Y54100D02*
D03*
X24000Y75600D02*
D03*
X23500Y77100D02*
D03*
X20800Y71800D02*
D03*
X18100Y71900D02*
D03*
X38124Y98931D02*
D03*
X42400Y41000D02*
D03*
X44600Y40400D02*
D03*
X45800Y54500D02*
D03*
X79021Y75058D02*
D03*
X12800Y66000D02*
D03*
X14000Y64600D02*
D03*
X47613Y59033D02*
D03*
X13700Y55800D02*
D03*
X51600Y49500D02*
D03*
X45900Y52700D02*
D03*
X72600Y75187D02*
D03*
X60500Y25300D02*
D03*
X49700Y27300D02*
D03*
X43845Y38874D02*
D03*
X45300Y29900D02*
D03*
X38000Y79900D02*
D03*
X16100Y85000D02*
D03*
X23200Y79400D02*
D03*
X12900Y80800D02*
D03*
X52200Y76000D02*
D03*
X33167Y90207D02*
D03*
X27900Y91600D02*
D03*
X27500Y89600D02*
D03*
X16100Y82600D02*
D03*
X38500Y91200D02*
D03*
X28900Y84200D02*
D03*
X55200Y78100D02*
D03*
X66200Y92800D02*
D03*
X40500Y97100D02*
D03*
X63831Y72983D02*
D03*
X56900Y71700D02*
D03*
X78300Y92400D02*
D03*
X40300Y29500D02*
D03*
X74200Y30400D02*
D03*
X62600Y93923D02*
D03*
X77540Y66944D02*
D03*
X58750Y73000D02*
D03*
X83900Y86600D02*
D03*
X67300Y94400D02*
D03*
X58600Y99900D02*
D03*
X60171Y100051D02*
D03*
X55000Y100735D02*
D03*
X53900Y38950D02*
D03*
X52200Y39000D02*
D03*
X47600Y38600D02*
D03*
X64600Y28900D02*
D03*
X67944Y29568D02*
D03*
X69918Y33625D02*
D03*
X77400Y29600D02*
D03*
X81300Y66600D02*
D03*
X69600Y91600D02*
D03*
X40442Y99700D02*
D03*
X72799Y79765D02*
D03*
X87400Y79732D02*
D03*
D109*
X71000Y10000D02*
D03*
X72200Y22200D02*
D03*
X76700Y15000D02*
D03*
X55200Y12600D02*
D03*
X67500Y15000D02*
D03*
D110*
X21000Y28500D02*
D03*
X23000D02*
D03*
X5200Y66000D02*
D03*
X36663Y22883D02*
D03*
X36660Y25149D02*
D03*
X57000Y38900D02*
D03*
X15150Y52100D02*
D03*
X22400Y74300D02*
D03*
X35000Y65300D02*
D03*
X9200Y65200D02*
D03*
X62800Y38842D02*
D03*
X61600Y28100D02*
D03*
X48177Y64000D02*
D03*
X50677D02*
D03*
X3400Y54700D02*
D03*
X27100Y65800D02*
D03*
X77600Y71700D02*
D03*
X32406Y96283D02*
D03*
X12500Y21100D02*
D03*
X36680Y29921D02*
D03*
X35500Y34000D02*
D03*
X3600Y60800D02*
D03*
X35700Y41400D02*
D03*
X28100Y33500D02*
D03*
X35700Y37600D02*
D03*
X36680Y27721D02*
D03*
X28500Y20000D02*
D03*
X32600D02*
D03*
X31100Y6900D02*
D03*
X35900Y4900D02*
D03*
X43800Y19100D02*
D03*
X37700Y73000D02*
D03*
X20633Y89070D02*
D03*
X90876Y22893D02*
D03*
X81300Y30100D02*
D03*
D111*
X28000Y35800D02*
D03*
X36453Y46694D02*
D03*
X8453Y43894D02*
D03*
X9300Y76000D02*
D03*
X12308Y69040D02*
D03*
X41685Y18100D02*
D03*
X39500Y13100D02*
D03*
X46200Y19500D02*
D03*
Y12700D02*
D03*
X52200Y77800D02*
D03*
X55500Y7800D02*
D03*
D112*
X58355Y77097D02*
D03*
X54500Y95800D02*
D03*
M02*
