G04*
G04 #@! TF.GenerationSoftware,Altium Limited,Altium Designer,23.0.1 (38)*
G04*
G04 Layer_Color=32768*
%FSLAX25Y25*%
%MOIN*%
G70*
G04*
G04 #@! TF.SameCoordinates,78B848BC-93E4-4EEF-81BE-5096D5435DE8*
G04*
G04*
G04 #@! TF.FilePolarity,Positive*
G04*
G01*
G75*
%ADD119C,0.00197*%
D119*
X74551Y57031D02*
X78587D01*
X77405Y56440D02*
X78587Y57031D01*
X77405Y57621D02*
X78587Y57031D01*
X77792Y53881D02*
X82516D01*
X77792Y60180D02*
X82516D01*
Y53881D02*
Y60180D01*
X77792Y53881D02*
Y60180D01*
X74150Y64511D02*
Y63724D01*
Y64117D01*
X72969D01*
Y63134D02*
Y62740D01*
X73166Y62543D01*
X73560D01*
X73756Y62740D01*
Y63134D01*
X73560Y63330D01*
X73166D01*
X72969Y63134D01*
X72576Y62150D02*
X73756D01*
Y61559D01*
X73560Y61362D01*
X73166D01*
X72969Y61559D01*
Y62150D01*
Y60969D02*
Y60575D01*
Y60772D01*
X74150D01*
Y60969D01*
X73756Y59788D02*
Y59395D01*
X73560Y59198D01*
X72969D01*
Y59788D01*
X73166Y59985D01*
X73363Y59788D01*
Y59198D01*
X73756Y58804D02*
X73166D01*
X72969Y58607D01*
Y58017D01*
X72772D01*
X72576Y58214D01*
Y58411D01*
X72969Y58017D02*
X73756D01*
X72969Y57033D02*
Y57427D01*
X73166Y57623D01*
X73560D01*
X73756Y57427D01*
Y57033D01*
X73560Y56836D01*
X73363D01*
Y57623D01*
X73756Y56443D02*
X72969D01*
X73363D01*
X73560Y56246D01*
X73756Y56049D01*
Y55852D01*
X72969Y54081D02*
X73756D01*
Y53491D01*
X73560Y53294D01*
X72969D01*
Y52704D02*
Y52310D01*
X73166Y52113D01*
X73560D01*
X73756Y52310D01*
Y52704D01*
X73560Y52901D01*
X73166D01*
X72969Y52704D01*
X72576Y50146D02*
Y49949D01*
X72772Y49752D01*
X73756D01*
Y50342D01*
X73560Y50539D01*
X73166D01*
X72969Y50342D01*
Y49752D01*
X73756Y49358D02*
X72969D01*
X73363D01*
X73560Y49162D01*
X73756Y48965D01*
Y48768D01*
X72969Y47981D02*
Y47587D01*
X73166Y47391D01*
X73560D01*
X73756Y47587D01*
Y47981D01*
X73560Y48178D01*
X73166D01*
X72969Y47981D01*
X73756Y46997D02*
X73166D01*
X72969Y46800D01*
Y46210D01*
X73756D01*
X72969Y45816D02*
X73756D01*
Y45226D01*
X73560Y45029D01*
X72969D01*
X74150Y43848D02*
X72969D01*
Y44439D01*
X73166Y44636D01*
X73560D01*
X73756Y44439D01*
Y43848D01*
X72576Y42274D02*
X73756D01*
Y41684D01*
X73560Y41487D01*
X73166D01*
X72969Y41684D01*
Y42274D01*
X73756Y40897D02*
Y40503D01*
X73560Y40306D01*
X72969D01*
Y40897D01*
X73166Y41093D01*
X73363Y40897D01*
Y40306D01*
X74150Y39125D02*
X72969D01*
Y39716D01*
X73166Y39913D01*
X73560D01*
X73756Y39716D01*
Y39125D01*
M02*
