G04*
G04 #@! TF.GenerationSoftware,Altium Limited,Altium Designer,23.0.1 (38)*
G04*
G04 Layer_Color=8388736*
%FSLAX25Y25*%
%MOIN*%
G70*
G04*
G04 #@! TF.SameCoordinates,78B848BC-93E4-4EEF-81BE-5096D5435DE8*
G04*
G04*
G04 #@! TF.FilePolarity,Negative*
G04*
G01*
G75*
%ADD56R,0.09540X0.04482*%
%ADD57R,0.01781X0.01860*%
%ADD58R,0.02178X0.02060*%
%ADD59R,0.01981X0.02178*%
%ADD60R,0.06300X0.03200*%
%ADD61R,0.02375X0.03556*%
%ADD62R,0.02155X0.01564*%
%ADD63R,0.02962X0.01900*%
%ADD64R,0.01730X0.02765*%
%ADD65R,0.01500X0.02765*%
%ADD66R,0.02414X0.03365*%
%ADD67R,0.02093X0.01387*%
%ADD68R,0.04224X0.02225*%
%ADD69R,0.03162X0.04147*%
%ADD70R,0.03556X0.03950*%
%ADD71C,0.01350*%
%ADD72C,0.01350*%
%ADD73C,0.01699*%
%ADD74C,0.01684*%
%ADD75C,0.01300*%
%ADD76R,0.04900X0.04900*%
%ADD77R,0.01300X0.02000*%
%ADD78R,0.02100X0.02000*%
%ADD79R,0.03950X0.07887*%
%ADD80C,0.00098*%
%ADD81C,0.00088*%
%ADD82P,0.00118X4X180.0*%
%ADD83R,0.04737X0.03950*%
%ADD84R,0.03950X0.04737*%
%ADD85R,0.02962X0.02765*%
%ADD86R,0.02765X0.02962*%
%ADD87R,0.02060X0.02178*%
%ADD88R,0.02178X0.01981*%
%ADD89R,0.01860X0.01781*%
%ADD90R,0.02762X0.01975*%
%ADD91R,0.01975X0.02762*%
%ADD92C,0.05800*%
%ADD93C,0.01700*%
%ADD94C,0.01800*%
G36*
X14710Y69925D02*
X14001D01*
X13292Y70634D01*
Y70752D01*
X14710D01*
Y69925D01*
D02*
G37*
G36*
X11324Y70634D02*
X10615Y69925D01*
X9907D01*
Y70752D01*
X11324D01*
Y70634D01*
D02*
G37*
G36*
X13505Y69179D02*
X13505Y68900D01*
X12447Y67843D01*
X12169D01*
X11111Y68900D01*
Y69179D01*
X12169Y70237D01*
X12447D01*
X13505Y69179D01*
D02*
G37*
G36*
X14710Y67327D02*
X13292D01*
Y67445D01*
X14001Y68154D01*
X14710D01*
Y67327D01*
D02*
G37*
G36*
X11324Y67445D02*
Y67327D01*
X9907D01*
Y68154D01*
X10615D01*
X11324Y67445D01*
D02*
G37*
D56*
X21400Y24509D02*
D03*
Y33091D02*
D03*
D57*
X14000Y23700D02*
D03*
X11400D02*
D03*
X30700Y73800D02*
D03*
X33300D02*
D03*
X67909Y75100D02*
D03*
X70509D02*
D03*
X55209D02*
D03*
X57810D02*
D03*
X64509D02*
D03*
X61910D02*
D03*
X74610D02*
D03*
X77210D02*
D03*
X73700Y93300D02*
D03*
X76300D02*
D03*
X49500Y89300D02*
D03*
X46900D02*
D03*
X81109Y75100D02*
D03*
X83710D02*
D03*
X30500Y37600D02*
D03*
X33100D02*
D03*
X30500Y45700D02*
D03*
X33100D02*
D03*
X30500Y34000D02*
D03*
X33100D02*
D03*
X54600Y20800D02*
D03*
X52000D02*
D03*
X47000Y92900D02*
D03*
X49600D02*
D03*
X25500Y90800D02*
D03*
X22900D02*
D03*
X47000Y85600D02*
D03*
X49600D02*
D03*
X11200Y74200D02*
D03*
X13800D02*
D03*
X47000Y81700D02*
D03*
X49600D02*
D03*
X10809Y54007D02*
D03*
X13409D02*
D03*
X30600Y60200D02*
D03*
X33200D02*
D03*
D58*
X24800Y73700D02*
D03*
X30600Y41200D02*
D03*
X35600Y97000D02*
D03*
X54500Y27300D02*
D03*
X40600Y92800D02*
D03*
Y85600D02*
D03*
Y89400D02*
D03*
X54500Y24100D02*
D03*
X13300Y34500D02*
D03*
X18600Y82600D02*
D03*
X11300Y78200D02*
D03*
X21100Y86400D02*
D03*
X40600Y81700D02*
D03*
X13300Y50100D02*
D03*
X10800Y46000D02*
D03*
X23800Y54200D02*
D03*
X30600Y63800D02*
D03*
X33200Y56700D02*
D03*
X23800Y63700D02*
D03*
D59*
X27400Y73700D02*
D03*
X33200Y41200D02*
D03*
X38200Y97000D02*
D03*
X51900Y27300D02*
D03*
X43200Y92800D02*
D03*
Y85600D02*
D03*
Y89400D02*
D03*
X51900Y24100D02*
D03*
X10700Y34500D02*
D03*
X21200Y82600D02*
D03*
X13900Y78200D02*
D03*
X18500Y86400D02*
D03*
X43200Y81700D02*
D03*
X10700Y50100D02*
D03*
X13400Y46000D02*
D03*
X26400Y54200D02*
D03*
X33200Y63800D02*
D03*
X30600Y56700D02*
D03*
X26400Y63700D02*
D03*
D60*
X4800Y47079D02*
D03*
Y57721D02*
D03*
D61*
X26462Y68500D02*
D03*
X30338D02*
D03*
D62*
X23706Y67614D02*
D03*
Y69386D02*
D03*
X33094Y67614D02*
D03*
Y69386D02*
D03*
D63*
X30641Y90700D02*
D03*
X35759D02*
D03*
Y80400D02*
D03*
X30641D02*
D03*
D64*
X35168Y93357D02*
D03*
X31231D02*
D03*
Y88042D02*
D03*
X35168D02*
D03*
Y77742D02*
D03*
X31231D02*
D03*
Y83057D02*
D03*
X35168D02*
D03*
D65*
X33200Y93357D02*
D03*
Y88042D02*
D03*
Y77742D02*
D03*
Y83057D02*
D03*
D66*
X26500Y58900D02*
D03*
D67*
X23700Y58100D02*
D03*
Y59700D02*
D03*
D68*
X18360Y38041D02*
D03*
Y43159D02*
D03*
X25840D02*
D03*
Y40600D02*
D03*
Y38041D02*
D03*
D69*
X67438Y25931D02*
D03*
X72162D02*
D03*
D70*
X62910Y11069D02*
D03*
X76690D02*
D03*
D71*
X13575Y28613D02*
D03*
X12000D02*
D03*
X10425D02*
D03*
X13575Y30187D02*
D03*
X12000D02*
D03*
X10425D02*
D03*
D72*
X45862Y26862D02*
D03*
Y25287D02*
D03*
Y23713D02*
D03*
Y22138D02*
D03*
X44287Y26862D02*
D03*
Y25287D02*
D03*
Y23713D02*
D03*
Y22138D02*
D03*
X42713Y26862D02*
D03*
Y25287D02*
D03*
Y22138D02*
D03*
X41138Y26862D02*
D03*
Y25287D02*
D03*
Y23713D02*
D03*
Y22138D02*
D03*
X42713Y23713D02*
D03*
D73*
X13984Y62568D02*
D03*
Y58631D02*
D03*
X12016Y62568D02*
D03*
Y60600D02*
D03*
Y58631D02*
D03*
D74*
X20384Y78268D02*
D03*
Y76300D02*
D03*
Y74331D02*
D03*
X18416Y78268D02*
D03*
Y76300D02*
D03*
Y74331D02*
D03*
D75*
X81513Y27075D02*
D03*
X83087D02*
D03*
X81513Y25500D02*
D03*
X83087D02*
D03*
X81513Y23925D02*
D03*
X83087D02*
D03*
X67799Y80607D02*
D03*
X66224D02*
D03*
X64650D02*
D03*
X63075D02*
D03*
X61500D02*
D03*
X59925D02*
D03*
X58350D02*
D03*
X56776D02*
D03*
X67799Y82182D02*
D03*
X66224D02*
D03*
X64650D02*
D03*
X63075D02*
D03*
X61500D02*
D03*
X59925D02*
D03*
X58350D02*
D03*
X56776D02*
D03*
X67799Y83757D02*
D03*
X66224D02*
D03*
X64650D02*
D03*
X63075D02*
D03*
X61500D02*
D03*
X59925D02*
D03*
X58350D02*
D03*
X56776D02*
D03*
X67799Y85331D02*
D03*
X66224D02*
D03*
X64650D02*
D03*
X63075D02*
D03*
X61500D02*
D03*
X59925D02*
D03*
X58350D02*
D03*
X56776D02*
D03*
X67799Y86906D02*
D03*
X66224D02*
D03*
X64650D02*
D03*
X63075D02*
D03*
X61500D02*
D03*
X59925D02*
D03*
X58350D02*
D03*
X56776D02*
D03*
X67799Y88481D02*
D03*
X66224D02*
D03*
X64650D02*
D03*
X63075D02*
D03*
X61500D02*
D03*
X59925D02*
D03*
X58350D02*
D03*
X56776D02*
D03*
X67799Y90056D02*
D03*
X66224D02*
D03*
X64650D02*
D03*
X63075D02*
D03*
X61500D02*
D03*
X59925D02*
D03*
X58350D02*
D03*
X56776D02*
D03*
D76*
X54900Y4200D02*
D03*
Y15900D02*
D03*
D77*
X64569Y98200D02*
D03*
X62600D02*
D03*
X56693D02*
D03*
Y95562D02*
D03*
X58662D02*
D03*
X62600D02*
D03*
X64569D02*
D03*
X58662Y98200D02*
D03*
D78*
X60631D02*
D03*
Y95562D02*
D03*
D79*
X40650Y7300D02*
D03*
X46950D02*
D03*
D80*
X14296Y67740D02*
D03*
Y70339D02*
D03*
D81*
X10500Y70400D02*
D03*
Y67679D02*
D03*
D82*
X12308Y69040D02*
D03*
D83*
X34100Y10353D02*
D03*
Y17047D02*
D03*
X27100Y10353D02*
D03*
Y17047D02*
D03*
D84*
X5853Y40200D02*
D03*
X12547D02*
D03*
D85*
X82400Y18868D02*
D03*
Y14931D02*
D03*
X87500Y24069D02*
D03*
Y20132D02*
D03*
X18800Y64863D02*
D03*
Y68800D02*
D03*
Y55831D02*
D03*
Y59768D02*
D03*
X20900Y17868D02*
D03*
Y13931D02*
D03*
X83900Y83675D02*
D03*
Y79738D02*
D03*
X32100Y53268D02*
D03*
Y49332D02*
D03*
D86*
X79194Y89131D02*
D03*
X75257D02*
D03*
X62231Y5500D02*
D03*
X66168D02*
D03*
X75231Y79732D02*
D03*
X79168D02*
D03*
X75257Y84632D02*
D03*
X79194D02*
D03*
X44232Y16500D02*
D03*
X48169D02*
D03*
X29417Y28800D02*
D03*
X33354D02*
D03*
X29417Y24000D02*
D03*
X33354D02*
D03*
D87*
X45900Y97200D02*
D03*
X16400Y19700D02*
D03*
X58300Y22700D02*
D03*
X26000Y77100D02*
D03*
X6700Y31900D02*
D03*
X40100Y75109D02*
D03*
X22700Y49900D02*
D03*
X26700Y47400D02*
D03*
X7100Y61900D02*
D03*
D88*
X45900Y99800D02*
D03*
X16400Y17100D02*
D03*
X58300Y25300D02*
D03*
X26000Y79700D02*
D03*
X6700Y34500D02*
D03*
X40100Y77710D02*
D03*
X22700Y47300D02*
D03*
X26700Y50000D02*
D03*
X7100Y64500D02*
D03*
D89*
X50200Y75209D02*
D03*
Y77810D02*
D03*
X46900Y75209D02*
D03*
Y77810D02*
D03*
X52800Y100200D02*
D03*
Y97600D02*
D03*
X42600Y99700D02*
D03*
Y97100D02*
D03*
X39500Y18100D02*
D03*
Y15500D02*
D03*
X26000Y85900D02*
D03*
Y83300D02*
D03*
X49600Y97600D02*
D03*
Y100200D02*
D03*
X7000Y70400D02*
D03*
Y67800D02*
D03*
X91800Y24900D02*
D03*
Y27500D02*
D03*
X43600Y75109D02*
D03*
Y77710D02*
D03*
X18800Y50000D02*
D03*
Y47400D02*
D03*
D90*
X38816Y66873D02*
D03*
X42359Y52700D02*
D03*
Y46401D02*
D03*
Y43251D02*
D03*
X38816Y47976D02*
D03*
X64800Y49550D02*
D03*
Y58999D02*
D03*
Y55850D02*
D03*
X38816Y70023D02*
D03*
X42359Y58999D02*
D03*
Y49550D02*
D03*
Y55850D02*
D03*
X38816Y60574D02*
D03*
Y41676D02*
D03*
Y44826D02*
D03*
Y57424D02*
D03*
Y54275D02*
D03*
Y51125D02*
D03*
Y63724D02*
D03*
Y35377D02*
D03*
Y32228D02*
D03*
X64800Y52700D02*
D03*
Y46401D02*
D03*
Y43251D02*
D03*
X38816Y38527D02*
D03*
D91*
X55351Y69432D02*
D03*
X60076Y65889D02*
D03*
X50627Y36361D02*
D03*
X64800Y69432D02*
D03*
X77398D02*
D03*
X74249D02*
D03*
X58501D02*
D03*
X75824Y36361D02*
D03*
X69524D02*
D03*
X67950Y69432D02*
D03*
X53776Y36361D02*
D03*
X63225D02*
D03*
X56926D02*
D03*
X49052Y32818D02*
D03*
X52201Y69432D02*
D03*
X64800Y32818D02*
D03*
X42753D02*
D03*
X52201D02*
D03*
X66375Y65889D02*
D03*
X63225D02*
D03*
X47477Y36361D02*
D03*
X45902Y32818D02*
D03*
X55351D02*
D03*
X61650D02*
D03*
X60075Y36361D02*
D03*
X66375D02*
D03*
X67950Y32818D02*
D03*
X56926Y65889D02*
D03*
X77398Y32818D02*
D03*
X74249D02*
D03*
X72674Y36361D02*
D03*
X78973D02*
D03*
X81729Y32818D02*
D03*
X61650Y69432D02*
D03*
X53776Y65889D02*
D03*
X81729Y69432D02*
D03*
D92*
X85451Y65917D02*
D03*
Y36300D02*
D03*
D93*
X79600Y21400D02*
D03*
X9516Y25649D02*
D03*
X35300Y67600D02*
D03*
X35400Y58400D02*
D03*
X59400Y28500D02*
D03*
X56870Y28540D02*
D03*
D94*
X20800Y71800D02*
D03*
X18100Y71900D02*
D03*
X23200Y79400D02*
D03*
M02*
