G04*
G04 #@! TF.GenerationSoftware,Altium Limited,Altium Designer,23.0.1 (38)*
G04*
G04 Layer_Color=16711935*
%FSLAX25Y25*%
%MOIN*%
G70*
G04*
G04 #@! TF.SameCoordinates,E0BBA437-4333-49BD-AE1E-3590298AE75E*
G04*
G04*
G04 #@! TF.FilePolarity,Positive*
G04*
G01*
G75*
%ADD15C,0.00394*%
D15*
X93295Y39121D02*
X109043D01*
X93295Y29278D02*
Y39121D01*
Y29278D02*
X109043D01*
Y39121D01*
X50326Y188979D02*
X66074D01*
Y198821D01*
X50326D02*
X66074D01*
X50326Y188979D02*
Y198821D01*
X72979Y48326D02*
Y64074D01*
Y48326D02*
X82821D01*
Y64074D01*
X72979D02*
X82821D01*
X100726Y26379D02*
X116474D01*
X100726D02*
Y36221D01*
X116474D01*
Y26379D02*
Y36221D01*
X48426Y225279D02*
X64174D01*
Y235121D01*
X48426D02*
X64174D01*
X48426Y225279D02*
Y235121D01*
X24026Y225079D02*
Y234921D01*
X39774D01*
Y225079D02*
Y234921D01*
X24026Y225079D02*
X39774D01*
X23926Y202679D02*
X39674D01*
Y212521D01*
X23926D02*
X39674D01*
X23926Y202679D02*
Y212521D01*
X24026Y213279D02*
X39774D01*
Y223121D01*
X24026D02*
X39774D01*
X24026Y213279D02*
Y223121D01*
X24226Y191079D02*
Y200921D01*
X39974D01*
Y191079D02*
Y200921D01*
X24226Y191079D02*
X39974D01*
X50579Y48326D02*
X60421D01*
X50579D02*
Y64074D01*
X60421D01*
Y48326D02*
Y64074D01*
X123721Y53226D02*
Y68974D01*
X113879D02*
X123721D01*
X113879Y53226D02*
Y68974D01*
Y53226D02*
X123721D01*
X44979Y106726D02*
Y122474D01*
Y106726D02*
X54821D01*
Y122474D01*
X44979D02*
X54821D01*
X56279D02*
X66121D01*
Y106726D02*
Y122474D01*
X56279Y106726D02*
X66121D01*
X56279D02*
Y122474D01*
X119474Y191579D02*
Y201421D01*
X103726Y191579D02*
X119474D01*
X103726D02*
Y201421D01*
X119474D01*
X103726Y212621D02*
X119474D01*
X103726Y202779D02*
Y212621D01*
Y202779D02*
X119474D01*
Y212621D01*
X119374Y214179D02*
Y224021D01*
X103626Y214179D02*
X119374D01*
X103626D02*
Y224021D01*
X119374D01*
X103626Y234821D02*
X119374D01*
X103626Y224979D02*
Y234821D01*
Y224979D02*
X119374D01*
Y234821D01*
X125526Y202779D02*
Y212621D01*
X141274D01*
Y202779D02*
Y212621D01*
X125526Y202779D02*
X141274D01*
X125626Y191479D02*
X141374D01*
Y201321D01*
X125626D02*
X141374D01*
X125626Y191479D02*
Y201321D01*
X125526Y213879D02*
X141274D01*
Y223721D01*
X125526D02*
X141274D01*
X125526Y213879D02*
Y223721D01*
X81826Y197821D02*
X97574D01*
X81826Y187979D02*
Y197821D01*
Y187979D02*
X97574D01*
Y197821D01*
X97674Y226979D02*
Y236821D01*
X81926Y226979D02*
X97674D01*
X81926D02*
Y236821D01*
X97674D01*
X30821Y163326D02*
Y179074D01*
X20979D02*
X30821D01*
X20979Y163326D02*
Y179074D01*
Y163326D02*
X30821D01*
X71421Y48326D02*
Y64074D01*
X61579D02*
X71421D01*
X61579Y48326D02*
Y64074D01*
Y48326D02*
X71421D01*
X69379Y26026D02*
X79221D01*
X69379D02*
Y41774D01*
X79221D01*
Y26026D02*
Y41774D01*
X56379Y26026D02*
Y41774D01*
Y26026D02*
X66221D01*
Y41774D01*
X56379D02*
X66221D01*
X109043Y40178D02*
Y50021D01*
X93295Y40178D02*
X109043D01*
X93295D02*
Y50021D01*
X109043D01*
X159579Y47026D02*
X169421D01*
X159579D02*
Y62774D01*
X169421D01*
Y47026D02*
Y62774D01*
X148379D02*
X158221D01*
Y47026D02*
Y62774D01*
X148379Y47026D02*
X158221D01*
X148379D02*
Y62774D01*
X32126Y53379D02*
Y63221D01*
X47874D01*
Y53379D02*
Y63221D01*
X32126Y53379D02*
X47874D01*
X47674Y53579D02*
Y63421D01*
X31926D02*
X47674D01*
X31926Y53579D02*
Y63421D01*
Y53579D02*
X47674D01*
X99279Y38826D02*
Y54574D01*
X109121D01*
Y38826D02*
Y54574D01*
X99279Y38826D02*
X109121D01*
M02*
