G04*
G04 #@! TF.GenerationSoftware,Altium Limited,Altium Designer,23.0.1 (38)*
G04*
G04 Layer_Color=8388736*
%FSLAX25Y25*%
%MOIN*%
G70*
G04*
G04 #@! TF.SameCoordinates,E0BBA437-4333-49BD-AE1E-3590298AE75E*
G04*
G04*
G04 #@! TF.FilePolarity,Negative*
G04*
G01*
G75*
%ADD30R,0.03556X0.04343*%
%ADD31R,0.12804X0.03713*%
%ADD32R,0.05600X0.06200*%
%ADD33R,0.06159X0.02568*%
%ADD34R,0.07306X0.03556*%
%ADD35R,0.05131X0.07099*%
%ADD36R,0.05524X0.08674*%
%ADD37R,0.07099X0.05131*%
%ADD38R,0.09855X0.08280*%
%ADD39R,0.07887X0.08280*%
%ADD40R,0.02375X0.08674*%
%ADD41C,0.05485*%
%ADD42C,0.13674*%
%ADD43C,0.03241*%
%ADD44C,0.04737*%
%ADD45R,0.04737X0.04737*%
%ADD46C,0.05000*%
%ADD47C,0.07296*%
%ADD48C,0.07800*%
%ADD49R,0.07800X0.07800*%
%ADD50C,0.06300*%
%ADD51C,0.09068*%
%ADD52C,0.15800*%
%ADD53C,0.05200*%
%ADD54C,0.05300*%
%ADD55R,0.05500X0.05500*%
%ADD56C,0.05500*%
%ADD57R,0.10446X0.10446*%
%ADD58C,0.10446*%
%ADD59R,0.05131X0.07887*%
%ADD60R,0.06312X0.04737*%
D30*
X43600Y39328D02*
D03*
X47340Y30272D02*
D03*
X39860D02*
D03*
D31*
X183298Y60100D02*
D03*
X200102D02*
D03*
X183298Y55100D02*
D03*
X200102D02*
D03*
X183298Y50100D02*
D03*
X200102D02*
D03*
X183298Y45100D02*
D03*
X200102D02*
D03*
X183298Y40100D02*
D03*
X200102D02*
D03*
D32*
X91200Y38550D02*
D03*
Y51350D02*
D03*
D33*
X74026Y59740D02*
D03*
Y52260D02*
D03*
X62174D02*
D03*
Y56000D02*
D03*
Y59740D02*
D03*
D34*
X62588Y39040D02*
D03*
Y35300D02*
D03*
Y31560D02*
D03*
X74012Y31560D02*
D03*
Y39040D02*
D03*
D35*
X112734Y31300D02*
D03*
X104466D02*
D03*
X43934Y58500D02*
D03*
X35666D02*
D03*
D36*
X151500Y56700D02*
D03*
X165500D02*
D03*
D37*
X104200Y42566D02*
D03*
Y50834D02*
D03*
D38*
X126823Y7089D02*
D03*
X97295D02*
D03*
D39*
X116587D02*
D03*
X107531D02*
D03*
D40*
X106941Y18900D02*
D03*
X109500D02*
D03*
X112059D02*
D03*
X114618D02*
D03*
X117177D02*
D03*
D41*
X191700Y73200D02*
D03*
Y27000D02*
D03*
D42*
X62200Y172700D02*
D03*
X164900D02*
D03*
X62200Y88800D02*
D03*
X164900D02*
D03*
D43*
X106500Y171600D02*
D03*
X111500D02*
D03*
X106500Y146600D02*
D03*
X111500D02*
D03*
X89300Y171600D02*
D03*
X94300D02*
D03*
X89300Y146600D02*
D03*
X94300D02*
D03*
X100000Y89900D02*
D03*
Y94900D02*
D03*
X130000Y89900D02*
D03*
Y94900D02*
D03*
X100000Y110800D02*
D03*
Y115800D02*
D03*
X130000Y110800D02*
D03*
Y115800D02*
D03*
D44*
X106500Y166600D02*
D03*
X111500D02*
D03*
X106500Y161600D02*
D03*
X111500D02*
D03*
X106500Y156600D02*
D03*
X111500D02*
D03*
X106500Y151600D02*
D03*
X111500D02*
D03*
X89300Y166600D02*
D03*
X94300D02*
D03*
X89300Y161600D02*
D03*
X94300D02*
D03*
X89300Y156600D02*
D03*
X94300D02*
D03*
X89300Y151600D02*
D03*
X94300D02*
D03*
X125000Y94900D02*
D03*
Y89900D02*
D03*
X120000Y94900D02*
D03*
Y89900D02*
D03*
X115000Y94900D02*
D03*
Y89900D02*
D03*
X110000Y94900D02*
D03*
Y89900D02*
D03*
X105000Y94900D02*
D03*
X125000Y115800D02*
D03*
Y110800D02*
D03*
X120000Y115800D02*
D03*
Y110800D02*
D03*
X115000Y115800D02*
D03*
Y110800D02*
D03*
X110000Y115800D02*
D03*
Y110800D02*
D03*
X105000Y115800D02*
D03*
D45*
Y89900D02*
D03*
Y110800D02*
D03*
D46*
X44400Y75482D02*
D03*
X37000D02*
D03*
X134800Y49700D02*
D03*
Y42300D02*
D03*
X118900D02*
D03*
Y49700D02*
D03*
D47*
X195300Y224700D02*
D03*
Y214700D02*
D03*
Y204700D02*
D03*
Y194700D02*
D03*
Y184700D02*
D03*
Y174700D02*
D03*
Y164700D02*
D03*
Y149800D02*
D03*
Y139800D02*
D03*
Y129800D02*
D03*
Y119800D02*
D03*
Y109800D02*
D03*
Y99800D02*
D03*
Y89800D02*
D03*
D48*
X163800Y24600D02*
D03*
X81600Y219500D02*
D03*
Y205700D02*
D03*
X62500D02*
D03*
X7900D02*
D03*
X164200Y219500D02*
D03*
Y205700D02*
D03*
X163900Y38500D02*
D03*
X8100Y219500D02*
D03*
X62500D02*
D03*
D49*
X153800Y24600D02*
D03*
X91600Y219500D02*
D03*
Y205700D02*
D03*
X52500D02*
D03*
X17900D02*
D03*
X154200Y219500D02*
D03*
Y205700D02*
D03*
X153900Y38500D02*
D03*
X18100Y219500D02*
D03*
X52500D02*
D03*
D50*
X82900Y247100D02*
D03*
X72900D02*
D03*
X62900D02*
D03*
X52900D02*
D03*
X130400D02*
D03*
X140400D02*
D03*
X150400D02*
D03*
X160400D02*
D03*
D51*
X70200Y14200D02*
D03*
X38000D02*
D03*
D52*
X10900Y10900D02*
D03*
X199100Y249500D02*
D03*
Y10900D02*
D03*
X10900Y249500D02*
D03*
D53*
X38100Y175474D02*
D03*
Y167600D02*
D03*
D54*
X12000Y44226D02*
D03*
Y52100D02*
D03*
Y59974D02*
D03*
D55*
X148300Y11400D02*
D03*
D56*
X158300D02*
D03*
X168300D02*
D03*
X178300D02*
D03*
D57*
X21000Y99296D02*
D03*
D58*
Y117800D02*
D03*
Y136304D02*
D03*
D59*
X98259Y7089D02*
D03*
X125839D02*
D03*
D60*
X102216Y17719D02*
D03*
X121902D02*
D03*
M02*
