G04*
G04 #@! TF.GenerationSoftware,Altium Limited,Altium Designer,23.0.1 (38)*
G04*
G04 Layer_Color=16711935*
%FSLAX25Y25*%
%MOIN*%
G70*
G04*
G04 #@! TF.SameCoordinates,E0BBA437-4333-49BD-AE1E-3590298AE75E*
G04*
G04*
G04 #@! TF.FilePolarity,Negative*
G04*
G01*
G75*
%ADD30R,0.03556X0.04343*%
%ADD35R,0.05131X0.07099*%
%ADD37R,0.07099X0.05131*%
%ADD41C,0.05485*%
%ADD42C,0.13674*%
%ADD43C,0.03241*%
%ADD44C,0.04737*%
%ADD45R,0.04737X0.04737*%
%ADD46C,0.05000*%
%ADD47C,0.07296*%
%ADD48C,0.07800*%
%ADD49R,0.07800X0.07800*%
%ADD50C,0.06300*%
%ADD51C,0.09068*%
%ADD52C,0.15800*%
%ADD53C,0.05200*%
%ADD54C,0.05300*%
%ADD55R,0.05500X0.05500*%
%ADD56C,0.05500*%
%ADD57R,0.10446X0.10446*%
%ADD58C,0.10446*%
%ADD59R,0.05131X0.07887*%
%ADD60R,0.06312X0.04737*%
D30*
X14960Y79628D02*
D03*
X22440D02*
D03*
X18700Y70572D02*
D03*
D35*
X105302Y34200D02*
D03*
X97035D02*
D03*
X54066Y193900D02*
D03*
X62334D02*
D03*
X52166Y230200D02*
D03*
X60434D02*
D03*
X36034Y230000D02*
D03*
X27766D02*
D03*
X27666Y207600D02*
D03*
X35934D02*
D03*
X27766Y218200D02*
D03*
X36034D02*
D03*
X36234Y196000D02*
D03*
X27966D02*
D03*
X107466Y196500D02*
D03*
X115734D02*
D03*
Y207700D02*
D03*
X107466D02*
D03*
X107366Y219100D02*
D03*
X115634D02*
D03*
Y229900D02*
D03*
X107366D02*
D03*
X137534Y207700D02*
D03*
X129266D02*
D03*
X129366Y196400D02*
D03*
X137634D02*
D03*
X129266Y218800D02*
D03*
X137534D02*
D03*
X93834Y192900D02*
D03*
X85566D02*
D03*
X85666Y231900D02*
D03*
X93934D02*
D03*
X97035Y45100D02*
D03*
X105302D02*
D03*
X44134Y58300D02*
D03*
X35866D02*
D03*
D37*
X77900Y60334D02*
D03*
Y52066D02*
D03*
X55500Y60334D02*
D03*
Y52066D02*
D03*
X118800Y56966D02*
D03*
Y65234D02*
D03*
X49900Y118734D02*
D03*
Y110466D02*
D03*
X61200D02*
D03*
Y118734D02*
D03*
X25900Y167066D02*
D03*
Y175334D02*
D03*
X66500Y52066D02*
D03*
Y60334D02*
D03*
X74300Y38034D02*
D03*
Y29766D02*
D03*
X61300Y38034D02*
D03*
Y29766D02*
D03*
X164500Y59034D02*
D03*
Y50766D02*
D03*
X153300D02*
D03*
Y59034D02*
D03*
D41*
X191700Y73200D02*
D03*
Y27000D02*
D03*
D42*
X62200Y172700D02*
D03*
X164900D02*
D03*
X62200Y88800D02*
D03*
X164900D02*
D03*
D43*
X106500Y171600D02*
D03*
X111500D02*
D03*
X106500Y146600D02*
D03*
X111500D02*
D03*
X89300Y171600D02*
D03*
X94300D02*
D03*
X89300Y146600D02*
D03*
X94300D02*
D03*
X100000Y89900D02*
D03*
Y94900D02*
D03*
X130000Y89900D02*
D03*
Y94900D02*
D03*
X100000Y110800D02*
D03*
Y115800D02*
D03*
X130000Y110800D02*
D03*
Y115800D02*
D03*
D44*
X106500Y166600D02*
D03*
X111500D02*
D03*
X106500Y161600D02*
D03*
X111500D02*
D03*
X106500Y156600D02*
D03*
X111500D02*
D03*
X106500Y151600D02*
D03*
X111500D02*
D03*
X89300Y166600D02*
D03*
X94300D02*
D03*
X89300Y161600D02*
D03*
X94300D02*
D03*
X89300Y156600D02*
D03*
X94300D02*
D03*
X89300Y151600D02*
D03*
X94300D02*
D03*
X125000Y94900D02*
D03*
Y89900D02*
D03*
X120000Y94900D02*
D03*
Y89900D02*
D03*
X115000Y94900D02*
D03*
Y89900D02*
D03*
X110000Y94900D02*
D03*
Y89900D02*
D03*
X105000Y94900D02*
D03*
X125000Y115800D02*
D03*
Y110800D02*
D03*
X120000Y115800D02*
D03*
Y110800D02*
D03*
X115000Y115800D02*
D03*
Y110800D02*
D03*
X110000Y115800D02*
D03*
Y110800D02*
D03*
X105000Y115800D02*
D03*
D45*
Y89900D02*
D03*
Y110800D02*
D03*
D46*
X44400Y75482D02*
D03*
X37000D02*
D03*
X134800Y49700D02*
D03*
Y42300D02*
D03*
X118900D02*
D03*
Y49700D02*
D03*
D47*
X195300Y224700D02*
D03*
Y214700D02*
D03*
Y204700D02*
D03*
Y194700D02*
D03*
Y184700D02*
D03*
Y174700D02*
D03*
Y164700D02*
D03*
Y149800D02*
D03*
Y139800D02*
D03*
Y129800D02*
D03*
Y119800D02*
D03*
Y109800D02*
D03*
Y99800D02*
D03*
Y89800D02*
D03*
D48*
X163800Y24600D02*
D03*
X81600Y219500D02*
D03*
Y205700D02*
D03*
X62500D02*
D03*
X7900D02*
D03*
X164200Y219500D02*
D03*
Y205700D02*
D03*
X163900Y38500D02*
D03*
X8100Y219500D02*
D03*
X62500D02*
D03*
D49*
X153800Y24600D02*
D03*
X91600Y219500D02*
D03*
Y205700D02*
D03*
X52500D02*
D03*
X17900D02*
D03*
X154200Y219500D02*
D03*
Y205700D02*
D03*
X153900Y38500D02*
D03*
X18100Y219500D02*
D03*
X52500D02*
D03*
D50*
X82900Y247100D02*
D03*
X72900D02*
D03*
X62900D02*
D03*
X52900D02*
D03*
X130400D02*
D03*
X140400D02*
D03*
X150400D02*
D03*
X160400D02*
D03*
D51*
X70200Y14200D02*
D03*
X38000D02*
D03*
D52*
X10900Y10900D02*
D03*
X199100Y249500D02*
D03*
Y10900D02*
D03*
X10900Y249500D02*
D03*
D53*
X38100Y175474D02*
D03*
Y167600D02*
D03*
D54*
X12000Y44226D02*
D03*
Y52100D02*
D03*
Y59974D02*
D03*
D55*
X148300Y11400D02*
D03*
D56*
X158300D02*
D03*
X168300D02*
D03*
X178300D02*
D03*
D57*
X21000Y99296D02*
D03*
D58*
Y117800D02*
D03*
Y136304D02*
D03*
D59*
X98259Y7089D02*
D03*
X125839D02*
D03*
D60*
X102216Y17719D02*
D03*
X121902D02*
D03*
M02*
