G04*
G04 #@! TF.GenerationSoftware,Altium Limited,Altium Designer,23.0.1 (38)*
G04*
G04 Layer_Color=16711935*
%FSLAX25Y25*%
%MOIN*%
G70*
G04*
G04 #@! TF.SameCoordinates,E0BBA437-4333-49BD-AE1E-3590298AE75E*
G04*
G04*
G04 #@! TF.FilePolarity,Positive*
G04*
G01*
G75*
%ADD11C,0.00787*%
%ADD12C,0.00600*%
%ADD14C,0.02000*%
%ADD15C,0.00394*%
%ADD17C,0.00500*%
%ADD18C,0.00300*%
%ADD89C,0.00100*%
%ADD90C,0.00000*%
D11*
X174835Y40000D02*
G03*
X174835Y40000I-394J0D01*
G01*
X147664Y57387D02*
G03*
X147664Y57387I-394J0D01*
G01*
X103094Y143372D02*
X114906D01*
X103094D02*
Y174868D01*
X114906D01*
Y143372D02*
Y174868D01*
X85895Y143372D02*
X97706D01*
X85895D02*
Y174868D01*
X97706D01*
Y143372D02*
Y174868D01*
X38254Y239084D02*
X97546D01*
X38254D02*
Y274383D01*
X97546D01*
Y239084D02*
Y274383D01*
X175046Y239084D02*
Y274383D01*
X115754D02*
X175046D01*
X115754Y239084D02*
Y274383D01*
Y239084D02*
X175046D01*
D12*
X36158Y74482D02*
Y76482D01*
X35157Y75482D02*
X37157D01*
X133800Y41458D02*
X135800D01*
X134800Y40457D02*
Y42458D01*
X118900Y40457D02*
Y42458D01*
X117900Y41458D02*
X119900D01*
D14*
X47100Y175474D02*
G03*
X47100Y175474I-1500J0D01*
G01*
D15*
X76440Y14200D02*
G03*
X76440Y14200I-6240J0D01*
G01*
X44240D02*
G03*
X44240Y14200I-6240J0D01*
G01*
X12558Y78053D02*
X24842D01*
X12558Y72147D02*
X24842D01*
X12558D02*
Y78053D01*
X24842Y72147D02*
Y78053D01*
X49742Y31847D02*
Y37753D01*
X37458Y31847D02*
Y37753D01*
X49742D01*
X37458Y31847D02*
X49742D01*
X179692Y71399D02*
Y75100D01*
Y71399D02*
X181700D01*
X179692Y55100D02*
X181700D01*
X179692Y45100D02*
Y55100D01*
Y45100D02*
X181700D01*
X179692Y28801D02*
X181700D01*
X179692Y25100D02*
Y28801D01*
Y75100D02*
X201700D01*
X181700Y55100D02*
Y71399D01*
Y28801D02*
Y45100D01*
X179692Y25100D02*
X201700D01*
Y75100D01*
X64855Y29296D02*
Y41304D01*
X71745Y29296D02*
Y41304D01*
X64855D02*
X71745D01*
X64855Y29296D02*
X71745D01*
X96748Y86498D02*
X133248D01*
Y98298D01*
X96748D02*
X133248D01*
X96748Y86498D02*
Y98298D01*
Y107398D02*
X133248D01*
Y119198D01*
X96748D02*
X133248D01*
X96748Y107398D02*
Y119198D01*
X207505Y158794D02*
Y230606D01*
X183095Y158794D02*
X207505D01*
X183095D02*
Y230606D01*
X207505D01*
X106168Y31444D02*
Y36956D01*
X96168Y31444D02*
Y36956D01*
X106168D01*
X96168Y31444D02*
X106168D01*
X53200Y196656D02*
X63200D01*
X53200Y191144D02*
X63200D01*
Y196656D01*
X53200Y191144D02*
Y196656D01*
X80656Y51200D02*
Y61200D01*
X75144Y51200D02*
Y61200D01*
Y51200D02*
X80656D01*
X75144Y61200D02*
X80656D01*
X113600Y28544D02*
Y34056D01*
X103600Y28544D02*
Y34056D01*
Y28544D02*
X113600D01*
X103600Y34056D02*
X113600D01*
X51300Y232956D02*
X61300D01*
X51300Y227444D02*
X61300D01*
Y232956D01*
X51300Y227444D02*
Y232956D01*
X26900Y232756D02*
X36900D01*
X26900Y227244D02*
X36900D01*
Y232756D01*
X26900Y227244D02*
Y232756D01*
X26800Y210356D02*
X36800D01*
X26800Y204844D02*
X36800D01*
Y210356D01*
X26800Y204844D02*
Y210356D01*
X26900Y220956D02*
X36900D01*
X26900Y215444D02*
X36900D01*
Y220956D01*
X26900Y215444D02*
Y220956D01*
X27100Y198756D02*
X37100D01*
X27100Y193244D02*
X37100D01*
Y198756D01*
X27100Y193244D02*
Y198756D01*
X52744Y51200D02*
Y61200D01*
X58256Y51200D02*
Y61200D01*
X52744D02*
X58256D01*
X52744Y51200D02*
X58256D01*
X116044Y56100D02*
Y66100D01*
X121556Y56100D02*
Y66100D01*
X116044D02*
X121556D01*
X116044Y56100D02*
X121556D01*
X52656Y109600D02*
Y119600D01*
X47144Y109600D02*
Y119600D01*
Y109600D02*
X52656D01*
X47144Y119600D02*
X52656D01*
X63956Y109600D02*
Y119600D01*
X58444Y109600D02*
Y119600D01*
Y109600D02*
X63956D01*
X58444Y119600D02*
X63956D01*
X116600Y193744D02*
Y199256D01*
X106600Y193744D02*
Y199256D01*
X116600D01*
X106600Y193744D02*
X116600D01*
X116600Y204944D02*
Y210456D01*
X106600Y204944D02*
Y210456D01*
X116600D01*
X106600Y204944D02*
X116600D01*
X116500Y216344D02*
Y221856D01*
X106500Y216344D02*
Y221856D01*
X116500D01*
X106500Y216344D02*
X116500D01*
X116500Y227144D02*
Y232656D01*
X106500Y227144D02*
Y232656D01*
X116500D01*
X106500Y227144D02*
X116500D01*
X128400Y204944D02*
Y210456D01*
X138400Y204944D02*
Y210456D01*
X128400Y204944D02*
X138400D01*
X128400Y210456D02*
X138400D01*
X128500Y193644D02*
Y199156D01*
X138500Y193644D02*
Y199156D01*
X128500Y193644D02*
X138500D01*
X128500Y199156D02*
X138500D01*
X128400Y216044D02*
Y221556D01*
X138400Y216044D02*
Y221556D01*
X128400Y216044D02*
X138400D01*
X128400Y221556D02*
X138400D01*
X94700Y190144D02*
Y195656D01*
X84700Y190144D02*
Y195656D01*
X94700D01*
X84700Y190144D02*
X94700D01*
X94800Y229144D02*
Y234656D01*
X84800Y229144D02*
Y234656D01*
X94800D01*
X84800Y229144D02*
X94800D01*
X23144Y166200D02*
X28656D01*
X23144Y176200D02*
X28656D01*
Y166200D02*
Y176200D01*
X23144Y166200D02*
Y176200D01*
X63744Y51200D02*
X69256D01*
X63744Y61200D02*
X69256D01*
Y51200D02*
Y61200D01*
X63744Y51200D02*
Y61200D01*
X71544Y28900D02*
X77056D01*
X71544Y38900D02*
X77056D01*
Y28900D02*
Y38900D01*
X71544Y28900D02*
Y38900D01*
X58544Y38900D02*
X64056D01*
X58544Y28900D02*
X64056D01*
X58544D02*
Y38900D01*
X64056Y28900D02*
Y38900D01*
X106168Y42344D02*
Y47856D01*
X96169Y42344D02*
Y47856D01*
X106168D01*
X96169Y42344D02*
X106168D01*
X161744Y49900D02*
X167256D01*
X161744Y59900D02*
X167256D01*
Y49900D02*
Y59900D01*
X161744Y49900D02*
Y59900D01*
X207505Y83894D02*
Y155705D01*
X183095Y83894D02*
X207505D01*
X183095D02*
Y155705D01*
X207505D01*
X150544Y59900D02*
X156056D01*
X150544Y49900D02*
X156056D01*
X150544D02*
Y59900D01*
X156056Y49900D02*
Y59900D01*
X35000Y55544D02*
Y61056D01*
X45000Y55544D02*
Y61056D01*
X35000Y55544D02*
X45000D01*
X35000Y61056D02*
X45000D01*
X34800Y61256D02*
X44800D01*
X34800Y55744D02*
X44800D01*
X34800D02*
Y61256D01*
X44800Y55744D02*
Y61256D01*
X101444Y41700D02*
X106956D01*
X101444Y51700D02*
X106956D01*
X101444Y41700D02*
Y51700D01*
X106956Y41700D02*
Y51700D01*
X98280Y1380D02*
X125839D01*
X98280Y18900D02*
X125839D01*
X98280Y1380D02*
Y18900D01*
X125839Y1380D02*
Y18900D01*
D17*
X152594Y51779D02*
Y61621D01*
X164406Y51779D02*
Y61621D01*
X152594Y51779D02*
X164406D01*
X152594Y61621D02*
X164406D01*
D18*
X89535Y39000D02*
X92867Y42332D01*
Y39000D02*
X89535Y42332D01*
X91201Y39000D02*
Y42332D01*
X92867Y40666D02*
X89535D01*
X64504Y61074D02*
X67836Y57742D01*
X64504D02*
X67836Y61074D01*
X64504Y59408D02*
X67836D01*
X66170Y57742D02*
Y61074D01*
D89*
X89050Y39250D02*
X93350D01*
X89050Y37450D02*
Y39250D01*
Y37450D02*
X93350D01*
Y39250D01*
X89050Y50650D02*
X93350D01*
Y52450D01*
X89050D02*
X93350D01*
X89050Y50650D02*
Y52450D01*
X87650Y41025D02*
X89425Y39250D01*
X92975D02*
X94750Y41025D01*
Y39250D02*
Y50650D01*
X87650D02*
X94750D01*
X87650Y39250D02*
Y50650D01*
Y39250D02*
X94750D01*
X64754Y49898D02*
Y62102D01*
X71447D01*
Y49898D02*
Y62102D01*
X64754Y49898D02*
X71447D01*
Y60724D02*
X74006D01*
Y58756D02*
Y60724D01*
X71447Y58756D02*
X74006D01*
X71447D02*
Y60724D01*
Y53244D02*
X74006D01*
Y51276D02*
Y53244D01*
X71447Y51276D02*
X74006D01*
X71447D02*
Y53244D01*
X62195Y51276D02*
X64754D01*
X62195D02*
Y53244D01*
X64754D01*
Y51276D02*
Y53244D01*
X62195Y55016D02*
X64754D01*
X62195D02*
Y56984D01*
X64754D01*
Y55016D02*
Y56984D01*
X62195Y58756D02*
X64754D01*
X62195D02*
Y60724D01*
X64754D01*
Y58756D02*
Y60724D01*
X13515Y159937D02*
Y183137D01*
Y159937D02*
X43415D01*
Y183137D01*
X13515D02*
X43415D01*
X7650Y39300D02*
X16350D01*
X7650D02*
Y64900D01*
X16350D01*
Y39300D02*
Y64900D01*
X143300Y6400D02*
X183300D01*
Y16400D01*
X143300D02*
X183300D01*
X143300Y6400D02*
Y16400D01*
D90*
X66900Y62102D02*
G03*
X69300Y62102I1200J0D01*
G01*
X35079Y75482D02*
G03*
X35079Y75482I-500J0D01*
G01*
X135300Y39879D02*
G03*
X135300Y39879I-500J0D01*
G01*
X119400D02*
G03*
X119400Y39879I-500J0D01*
G01*
X149300Y7900D02*
G03*
X149300Y7900I-1000J0D01*
G01*
M02*
