G04*
G04 #@! TF.GenerationSoftware,Altium Limited,Altium Designer,23.0.1 (38)*
G04*
G04 Layer_Physical_Order=3*
G04 Layer_Color=16440176*
%FSLAX25Y25*%
%MOIN*%
G70*
G04*
G04 #@! TF.SameCoordinates,E0BBA437-4333-49BD-AE1E-3590298AE75E*
G04*
G04*
G04 #@! TF.FilePolarity,Positive*
G04*
G01*
G75*
%ADD14C,0.02000*%
%ADD53C,0.05200*%
%ADD54C,0.05300*%
%ADD56C,0.05500*%
%ADD62C,0.01200*%
%ADD64C,0.01500*%
%ADD65C,0.04000*%
%ADD69C,0.03937*%
%ADD71C,0.06496*%
%ADD72C,0.07000*%
%ADD73R,0.07000X0.07000*%
%ADD74C,0.08268*%
%ADD76R,0.09646X0.09646*%
%ADD77C,0.09646*%
%ADD80C,0.03500*%
%ADD81C,0.02000*%
%ADD82C,0.03000*%
%ADD83C,0.04000*%
%ADD84C,0.01800*%
%ADD85C,0.01600*%
%ADD87C,0.03200*%
%ADD88C,0.05000*%
G36*
X31700Y69300D02*
X61062D01*
X61086Y69290D01*
X62000Y69170D01*
X62914Y69290D01*
X62938Y69300D01*
X65778D01*
X65878Y68800D01*
X65400Y68602D01*
X64697Y67899D01*
X64359Y67083D01*
X69274D01*
X68936Y67899D01*
X68233Y68602D01*
X67756Y68800D01*
X67855Y69300D01*
X76937D01*
X77036Y68800D01*
X76800Y68702D01*
X76097Y67999D01*
X75759Y67183D01*
X80674D01*
X80336Y67999D01*
X79633Y68702D01*
X79397Y68800D01*
X79496Y69300D01*
X89100D01*
Y35626D01*
X88600Y35292D01*
X88097Y35500D01*
X87103D01*
X86184Y35119D01*
X85481Y34416D01*
X85100Y33497D01*
Y33023D01*
X84177Y32100D01*
X45507D01*
X45309Y32600D01*
X45680Y32972D01*
X46042Y33599D01*
X46166Y34060D01*
X40793D01*
X40917Y33599D01*
X41279Y32972D01*
X41651Y32600D01*
X41452Y32100D01*
X38100D01*
X18000Y52200D01*
Y69100D01*
X13600D01*
Y107900D01*
X31700D01*
Y69300D01*
D02*
G37*
%LPC*%
G36*
X26823Y105119D02*
X21750D01*
Y100046D01*
X26823D01*
Y105119D01*
D02*
G37*
G36*
X20250D02*
X15177D01*
Y100046D01*
X20250D01*
Y105119D01*
D02*
G37*
G36*
X26823Y98546D02*
X21750D01*
Y93473D01*
X26823D01*
Y98546D01*
D02*
G37*
G36*
X20250D02*
X15177D01*
Y93473D01*
X20250D01*
Y98546D01*
D02*
G37*
G36*
X80674Y65983D02*
X78817D01*
Y64126D01*
X79633Y64464D01*
X80336Y65167D01*
X80674Y65983D01*
D02*
G37*
G36*
X77617D02*
X75759D01*
X76097Y65167D01*
X76800Y64464D01*
X77617Y64126D01*
Y65983D01*
D02*
G37*
G36*
X69274Y65883D02*
X67417D01*
Y64025D01*
X68233Y64363D01*
X68936Y65067D01*
X69274Y65883D01*
D02*
G37*
G36*
X66217D02*
X64359D01*
X64697Y65067D01*
X65400Y64363D01*
X66217Y64025D01*
Y65883D01*
D02*
G37*
G36*
X37198Y67600D02*
X36402D01*
X35667Y67295D01*
X35105Y66733D01*
X34800Y65998D01*
Y65202D01*
X35105Y64467D01*
X35667Y63905D01*
X36402Y63600D01*
X37198D01*
X37933Y63905D01*
X38495Y64467D01*
X38800Y65202D01*
Y65998D01*
X38495Y66733D01*
X37933Y67295D01*
X37198Y67600D01*
D02*
G37*
G36*
X49698Y60400D02*
X48902D01*
X48167Y60096D01*
X47605Y59533D01*
X47300Y58798D01*
Y58002D01*
X47605Y57267D01*
X48167Y56704D01*
X48902Y56400D01*
X49698D01*
X50433Y56704D01*
X50995Y57267D01*
X51300Y58002D01*
Y58798D01*
X50995Y59533D01*
X50433Y60096D01*
X49698Y60400D01*
D02*
G37*
G36*
X84398Y58100D02*
X83602D01*
X82867Y57796D01*
X82305Y57233D01*
X82000Y56498D01*
Y55702D01*
X82305Y54967D01*
X82867Y54404D01*
X83602Y54100D01*
X84398D01*
X85133Y54404D01*
X85695Y54967D01*
X86000Y55702D01*
Y56498D01*
X85695Y57233D01*
X85133Y57796D01*
X84398Y58100D01*
D02*
G37*
G36*
X55948Y48750D02*
X55052D01*
X54225Y48408D01*
X53592Y47774D01*
X53250Y46948D01*
Y46052D01*
X53592Y45226D01*
X54225Y44592D01*
X55052Y44250D01*
X55948D01*
X56774Y44592D01*
X57407Y45226D01*
X57750Y46052D01*
Y46948D01*
X57407Y47774D01*
X56774Y48408D01*
X55948Y48750D01*
D02*
G37*
G36*
X74198Y47800D02*
X73402D01*
X72667Y47495D01*
X72105Y46933D01*
X71800Y46198D01*
Y45402D01*
X72105Y44667D01*
X72667Y44104D01*
X73402Y43800D01*
X74198D01*
X74933Y44104D01*
X75495Y44667D01*
X75800Y45402D01*
Y46198D01*
X75495Y46933D01*
X74933Y47495D01*
X74198Y47800D01*
D02*
G37*
G36*
X47798D02*
X47002D01*
X46267Y47495D01*
X45704Y46933D01*
X45400Y46198D01*
Y45402D01*
X45704Y44667D01*
X46267Y44104D01*
X47002Y43800D01*
X47798D01*
X48533Y44104D01*
X49095Y44667D01*
X49400Y45402D01*
Y46198D01*
X49095Y46933D01*
X48533Y47495D01*
X47798Y47800D01*
D02*
G37*
G36*
X81498Y47200D02*
X80702D01*
X79967Y46896D01*
X79404Y46333D01*
X79100Y45598D01*
Y44802D01*
X79404Y44067D01*
X79967Y43505D01*
X80702Y43200D01*
X81498D01*
X82233Y43505D01*
X82796Y44067D01*
X83100Y44802D01*
Y45598D01*
X82796Y46333D01*
X82233Y46896D01*
X81498Y47200D01*
D02*
G37*
G36*
X86100Y41731D02*
Y39800D01*
X88031D01*
X87923Y40204D01*
X87581Y40796D01*
X87096Y41280D01*
X86504Y41623D01*
X86100Y41731D01*
D02*
G37*
G36*
X84900D02*
X84496Y41623D01*
X83904Y41280D01*
X83420Y40796D01*
X83077Y40204D01*
X82969Y39800D01*
X84900D01*
Y41731D01*
D02*
G37*
G36*
X88031Y38600D02*
X86100D01*
Y36669D01*
X86504Y36777D01*
X87096Y37119D01*
X87581Y37604D01*
X87923Y38196D01*
X88031Y38600D01*
D02*
G37*
G36*
X84900D02*
X82969D01*
X83077Y38196D01*
X83420Y37604D01*
X83904Y37119D01*
X84496Y36777D01*
X84900Y36669D01*
Y38600D01*
D02*
G37*
G36*
X44080Y37346D02*
Y35260D01*
X46166D01*
X46042Y35721D01*
X45680Y36349D01*
X45168Y36861D01*
X44541Y37223D01*
X44080Y37346D01*
D02*
G37*
G36*
X42880D02*
X42418Y37223D01*
X41791Y36861D01*
X41279Y36349D01*
X40917Y35721D01*
X40793Y35260D01*
X42880D01*
Y37346D01*
D02*
G37*
%LPD*%
D14*
X81600Y230500D02*
X102200D01*
X69500D02*
X81600D01*
Y219500D02*
Y230500D01*
X52900Y247100D02*
X69500Y230500D01*
X102200D02*
X118800Y247100D01*
X130400D01*
X89400Y187300D02*
X98300Y178400D01*
X62500Y192300D02*
X67500Y187300D01*
X89400D01*
X62500Y192300D02*
Y205700D01*
X98300Y169800D02*
Y178400D01*
Y169800D02*
X106500Y161600D01*
X102200Y170703D02*
Y230500D01*
Y170703D02*
X106303Y166600D01*
X172200Y151600D02*
X180400Y159800D01*
Y184800D01*
X111527Y151600D02*
X172200D01*
X180400Y184800D02*
X180500Y184700D01*
X180400Y184800D02*
Y217100D01*
X180500Y184700D02*
X195300D01*
X150400Y247100D02*
X180400Y217100D01*
X142900Y254600D02*
X150400Y247100D01*
X72900D02*
X80400Y254600D01*
X142900D01*
X106500Y156600D02*
X111500Y151600D01*
X106500Y156600D02*
Y161600D01*
X106303Y166600D02*
X106500D01*
D53*
X38100Y175474D02*
D03*
D54*
X12000Y52100D02*
D03*
D56*
X72900Y247100D02*
D03*
X52900D02*
D03*
X130400D02*
D03*
X150400D02*
D03*
D62*
X88300Y81000D02*
X95000Y74300D01*
Y44700D02*
Y74300D01*
X85813Y78387D02*
X92300Y71900D01*
Y43700D02*
Y71900D01*
Y43700D02*
X109500Y26500D01*
Y24600D02*
Y26500D01*
X95000Y44700D02*
X111983Y27718D01*
Y24677D02*
Y27718D01*
Y24677D02*
X112059Y24600D01*
D64*
X35100Y29200D02*
X83800D01*
X33900Y30400D02*
X35100Y29200D01*
X83800D02*
X87600Y33000D01*
X154800Y39400D02*
Y65365D01*
X153900Y38500D02*
X154800Y39400D01*
D65*
X57812Y23400D02*
X57869Y23342D01*
X15900Y23400D02*
X57812D01*
X4600Y34700D02*
X15900Y23400D01*
X27000Y159200D02*
Y171200D01*
X31274Y175474D02*
X38100D01*
X27000Y171200D02*
X31274Y175474D01*
X7700Y139900D02*
X27000Y159200D01*
X7700Y90300D02*
Y139900D01*
X134700Y29000D02*
X135757D01*
X143200Y36443D01*
X90200Y16200D02*
Y16400D01*
X79000Y5000D02*
X90200Y16200D01*
X47200Y5000D02*
X79000D01*
X38000Y14200D02*
X47200Y5000D01*
X107091Y58800D02*
X110600D01*
X125000Y73200D01*
X143200Y36443D02*
Y93000D01*
X125000Y73200D02*
Y89900D01*
X92000Y102700D02*
X116200D01*
X119869Y99032D01*
X4600Y34700D02*
Y47900D01*
X11751Y51851D02*
X12000Y52100D01*
X4600Y47900D02*
X8551Y51851D01*
X11751D01*
X119869Y95031D02*
Y99032D01*
X125000Y98100D02*
X127800Y100900D01*
X135300D01*
X125000Y94900D02*
Y98100D01*
X135300Y100900D02*
X143200Y93000D01*
X119869Y95031D02*
X120000Y94900D01*
D69*
X106500Y166600D02*
D03*
Y161600D02*
D03*
Y156600D02*
D03*
X111500Y151600D02*
D03*
X125000Y94900D02*
D03*
Y89900D02*
D03*
X120000Y94900D02*
D03*
D71*
X195300Y184700D02*
D03*
D72*
X81600Y219500D02*
D03*
X62500Y205700D02*
D03*
D73*
X153900Y38500D02*
D03*
D74*
X38000Y14200D02*
D03*
D76*
X21000Y99296D02*
D03*
D77*
Y117800D02*
D03*
D80*
X57869Y23342D02*
D03*
X43480Y34660D02*
D03*
D81*
X154800Y65500D02*
D03*
X33900Y30400D02*
D03*
D82*
X87600Y33000D02*
D03*
X107091Y58791D02*
D03*
X62000Y72700D02*
D03*
X7700Y90300D02*
D03*
X66817Y66483D02*
D03*
X78217Y66583D02*
D03*
D83*
X134700Y29000D02*
D03*
X90200Y16400D02*
D03*
D84*
X88300Y81000D02*
D03*
X85813Y78387D02*
D03*
D85*
X109500Y24600D02*
D03*
X112059D02*
D03*
D87*
X85500Y39200D02*
D03*
D88*
X62000Y72700D02*
X92000Y102700D01*
X21000Y117800D02*
X76900D01*
X92000Y102700D01*
M02*
