G04*
G04 #@! TF.GenerationSoftware,Altium Limited,Altium Designer,23.0.1 (38)*
G04*
G04 Layer_Physical_Order=1*
G04 Layer_Color=255*
%FSLAX25Y25*%
%MOIN*%
G70*
G04*
G04 #@! TF.SameCoordinates,E0BBA437-4333-49BD-AE1E-3590298AE75E*
G04*
G04*
G04 #@! TF.FilePolarity,Positive*
G04*
G01*
G75*
%ADD13C,0.01000*%
%ADD14C,0.02000*%
%ADD19R,0.02756X0.03543*%
%ADD20R,0.12004X0.02913*%
%ADD21R,0.04800X0.05400*%
%ADD22R,0.05559X0.01968*%
%ADD23R,0.06506X0.02756*%
%ADD24R,0.04331X0.06299*%
%ADD25R,0.04724X0.07874*%
%ADD26R,0.06299X0.04331*%
%ADD27R,0.09055X0.07480*%
%ADD28R,0.07087X0.07480*%
%ADD29R,0.01575X0.07874*%
%ADD46C,0.05000*%
%ADD53C,0.05200*%
%ADD54C,0.05300*%
%ADD55R,0.05500X0.05500*%
%ADD56C,0.05500*%
%ADD61C,0.02500*%
%ADD62C,0.01200*%
%ADD63C,0.03000*%
%ADD64C,0.01500*%
%ADD65C,0.04000*%
%ADD66C,0.04685*%
%ADD67C,0.12874*%
%ADD68C,0.02441*%
%ADD69C,0.03937*%
%ADD70R,0.03937X0.03937*%
%ADD71C,0.06496*%
%ADD72C,0.07000*%
%ADD73R,0.07000X0.07000*%
%ADD74C,0.08268*%
%ADD75C,0.15000*%
%ADD76R,0.09646X0.09646*%
%ADD77C,0.09646*%
%ADD78R,0.04331X0.07087*%
%ADD79R,0.05512X0.03937*%
%ADD80C,0.03500*%
%ADD81C,0.02000*%
%ADD82C,0.03000*%
%ADD83C,0.04000*%
%ADD84C,0.01800*%
%ADD85C,0.01600*%
%ADD86C,0.02500*%
%ADD87C,0.03200*%
G36*
X110800Y46900D02*
X85600D01*
Y54872D01*
X85695Y54967D01*
X86000Y55702D01*
Y56498D01*
X85695Y57233D01*
X85600Y57328D01*
Y62200D01*
X110800D01*
Y46900D01*
D02*
G37*
G36*
X57174Y178191D02*
X56423Y177441D01*
X55609Y176223D01*
X55049Y174869D01*
X54763Y173433D01*
Y171967D01*
X55049Y170531D01*
X55609Y169177D01*
X56423Y167959D01*
X57174Y167209D01*
Y129701D01*
Y119601D01*
Y94291D01*
X56423Y93541D01*
X55609Y92323D01*
X55049Y90969D01*
X54763Y89533D01*
Y88068D01*
X55049Y86631D01*
X55609Y85277D01*
X56423Y84059D01*
X57174Y83309D01*
Y68901D01*
X59706D01*
Y62400D01*
X59763Y62111D01*
X59446Y61724D01*
X58394D01*
Y57756D01*
Y56600D01*
X65953D01*
Y57756D01*
Y61724D01*
X64554D01*
X64237Y62111D01*
X64294Y62400D01*
Y64817D01*
X64341Y64846D01*
X64794Y64970D01*
X65400Y64363D01*
X66319Y63983D01*
X67314D01*
X68233Y64363D01*
X68936Y65067D01*
X69317Y65986D01*
Y66980D01*
X68936Y67899D01*
X68434Y68401D01*
X68641Y68901D01*
X73927D01*
X74079Y68401D01*
X73642Y68109D01*
X72178Y66645D01*
X71681Y65901D01*
X71506Y65023D01*
Y62100D01*
X71198Y61724D01*
X70246D01*
Y57756D01*
X69876Y57607D01*
X69346Y57253D01*
X66453Y54361D01*
X65953Y54568D01*
Y55400D01*
X58394D01*
Y54016D01*
Y50276D01*
X65953D01*
Y50629D01*
X66660D01*
X67284Y50753D01*
X67813Y51106D01*
X69784Y53078D01*
X70246Y52886D01*
Y50276D01*
X72016D01*
Y46719D01*
X71800Y46198D01*
Y45402D01*
X72105Y44667D01*
X72667Y44104D01*
X73402Y43800D01*
X74198D01*
X74933Y44104D01*
X75495Y44667D01*
X75800Y45402D01*
Y46198D01*
X75584Y46719D01*
Y50276D01*
X77806D01*
Y54244D01*
X78212Y54469D01*
X82803D01*
X82867Y54404D01*
X83602Y54100D01*
X84398D01*
X84580Y53978D01*
Y46900D01*
X84658Y46510D01*
X84879Y46179D01*
X85210Y45958D01*
X85600Y45880D01*
X99612D01*
X100050Y45731D01*
X100050Y45380D01*
Y39401D01*
X101784D01*
Y35449D01*
X101301D01*
Y27150D01*
X102172D01*
Y24524D01*
X102347Y23647D01*
X102844Y22902D01*
X103278Y22468D01*
X104022Y21971D01*
X104614Y21853D01*
X105154Y21314D01*
Y20687D01*
X98461D01*
Y14750D01*
X105154D01*
Y13963D01*
X116577D01*
Y18900D01*
Y23837D01*
X114130D01*
X113859Y24242D01*
Y24958D01*
X113585Y25620D01*
X113079Y26126D01*
X112417Y26400D01*
X111701D01*
X111039Y26126D01*
X110780Y25866D01*
X110520Y26126D01*
X109858Y26400D01*
X109142D01*
X108480Y26126D01*
X107974Y25620D01*
X107720Y25006D01*
X107665Y24941D01*
X107200Y24717D01*
X107054Y24795D01*
X107019Y24969D01*
X106760Y25356D01*
Y27150D01*
X107632D01*
Y35449D01*
X106882D01*
Y39401D01*
X108349D01*
Y45380D01*
X108349Y45731D01*
X108788Y45880D01*
X110800D01*
X111190Y45958D01*
X111521Y46179D01*
X111742Y46510D01*
X111820Y46900D01*
Y62200D01*
X111742Y62590D01*
X111521Y62921D01*
X111190Y63142D01*
X110800Y63220D01*
X85600D01*
X85210Y63142D01*
X84879Y62921D01*
X84658Y62590D01*
X84580Y62200D01*
Y58222D01*
X84398Y58100D01*
X83602D01*
X82867Y57796D01*
X82803Y57731D01*
X78295D01*
X77806Y57756D01*
Y61724D01*
X76402D01*
X76094Y62100D01*
Y64073D01*
X76215Y64193D01*
X77453D01*
X77719Y64083D01*
X78714D01*
X79633Y64464D01*
X80336Y65167D01*
X80717Y66086D01*
Y67080D01*
X80336Y67999D01*
X79934Y68401D01*
X80141Y68901D01*
X112692Y68901D01*
X123066Y58527D01*
Y40097D01*
X123002Y40033D01*
X122697Y39298D01*
Y38502D01*
X123002Y37767D01*
X123564Y37205D01*
X124299Y36900D01*
X125095D01*
X125830Y37205D01*
X126072Y37446D01*
X126399Y37761D01*
X126725Y37446D01*
X126967Y37205D01*
X127702Y36900D01*
X128498D01*
X129233Y37205D01*
X129796Y37767D01*
X130100Y38502D01*
Y39298D01*
X129796Y40033D01*
X129731Y40097D01*
Y61400D01*
X129731Y61400D01*
X129607Y62024D01*
X129253Y62554D01*
X123368Y68439D01*
X123559Y68901D01*
X139169D01*
Y29100D01*
X139293Y28476D01*
X139646Y27946D01*
X139674Y27919D01*
Y1529D01*
X1883D01*
X1530Y1883D01*
X1566Y157300D01*
X16300D01*
Y183201D01*
X57174D01*
Y178191D01*
D02*
G37*
%LPC*%
G36*
X100891Y61348D02*
Y59491D01*
X102749D01*
X102411Y60307D01*
X101707Y61010D01*
X100891Y61348D01*
D02*
G37*
G36*
X99691D02*
X98875Y61010D01*
X98172Y60307D01*
X97834Y59491D01*
X99691D01*
Y61348D01*
D02*
G37*
G36*
X107691Y61248D02*
Y59391D01*
X109549D01*
X109211Y60207D01*
X108507Y60910D01*
X107691Y61248D01*
D02*
G37*
G36*
X106491D02*
X105675Y60910D01*
X104972Y60207D01*
X104634Y59391D01*
X106491D01*
Y61248D01*
D02*
G37*
G36*
X102749Y58291D02*
X100891D01*
Y56433D01*
X101707Y56771D01*
X102411Y57474D01*
X102749Y58291D01*
D02*
G37*
G36*
X99691D02*
X97834D01*
X98172Y57474D01*
X98875Y56771D01*
X99691Y56433D01*
Y58291D01*
D02*
G37*
G36*
X109549Y58191D02*
X107691D01*
Y56333D01*
X108507Y56671D01*
X109211Y57375D01*
X109549Y58191D01*
D02*
G37*
G36*
X106491D02*
X104634D01*
X104972Y57375D01*
X105675Y56671D01*
X106491Y56333D01*
Y58191D01*
D02*
G37*
G36*
X94600Y55050D02*
X91800D01*
Y51950D01*
X94600D01*
Y55050D01*
D02*
G37*
G36*
X90600D02*
X87800D01*
Y51950D01*
X90600D01*
Y55050D01*
D02*
G37*
G36*
X108349Y53999D02*
X104800D01*
Y51434D01*
X108349D01*
Y53999D01*
D02*
G37*
G36*
X103600D02*
X100050D01*
Y51434D01*
X103600D01*
Y53999D01*
D02*
G37*
G36*
X108349Y50234D02*
X104800D01*
Y47668D01*
X108349D01*
Y50234D01*
D02*
G37*
G36*
X103600D02*
X100050D01*
Y47668D01*
X103600D01*
Y50234D01*
D02*
G37*
G36*
X94600Y50750D02*
X91800D01*
Y47650D01*
X94600D01*
Y50750D01*
D02*
G37*
G36*
X90600D02*
X87800D01*
Y47650D01*
X90600D01*
Y50750D01*
D02*
G37*
G36*
X38574Y179074D02*
X37626D01*
X36710Y178829D01*
X35890Y178355D01*
X35219Y177684D01*
X34745Y176864D01*
X34500Y175948D01*
Y175000D01*
X34745Y174084D01*
X35219Y173264D01*
X35890Y172593D01*
X36710Y172119D01*
X37626Y171874D01*
X38574D01*
X39490Y172119D01*
X40310Y172593D01*
X40981Y173264D01*
X41455Y174084D01*
X41700Y175000D01*
Y175948D01*
X41455Y176864D01*
X40981Y177684D01*
X40310Y178355D01*
X39490Y178829D01*
X38574Y179074D01*
D02*
G37*
G36*
X38850Y171126D02*
Y168350D01*
X41626D01*
X41455Y168990D01*
X40981Y169810D01*
X40310Y170481D01*
X39490Y170955D01*
X38850Y171126D01*
D02*
G37*
G36*
X37350D02*
X36710Y170955D01*
X35890Y170481D01*
X35219Y169810D01*
X34745Y168990D01*
X34574Y168350D01*
X37350D01*
Y171126D01*
D02*
G37*
G36*
X41626Y166850D02*
X38850D01*
Y164074D01*
X39490Y164245D01*
X40310Y164719D01*
X40981Y165390D01*
X41455Y166210D01*
X41626Y166850D01*
D02*
G37*
G36*
X37350D02*
X34574D01*
X34745Y166210D01*
X35219Y165390D01*
X35890Y164719D01*
X36710Y164245D01*
X37350Y164074D01*
Y166850D01*
D02*
G37*
G36*
X21574Y142127D02*
X20426D01*
X19301Y141903D01*
X18242Y141464D01*
X17288Y140827D01*
X16477Y140016D01*
X15840Y139062D01*
X15401Y138002D01*
X15177Y136877D01*
Y135730D01*
X15401Y134606D01*
X15840Y133546D01*
X16477Y132592D01*
X17288Y131781D01*
X18242Y131144D01*
X19301Y130705D01*
X20426Y130481D01*
X21574D01*
X22698Y130705D01*
X23758Y131144D01*
X24712Y131781D01*
X25523Y132592D01*
X26160Y133546D01*
X26599Y134606D01*
X26823Y135730D01*
Y136877D01*
X26599Y138002D01*
X26160Y139062D01*
X25523Y140016D01*
X24712Y140827D01*
X23758Y141464D01*
X22698Y141903D01*
X21574Y142127D01*
D02*
G37*
G36*
X50500Y126987D02*
Y125400D01*
X52087D01*
X51807Y126075D01*
X51174Y126707D01*
X50500Y126987D01*
D02*
G37*
G36*
X49300D02*
X48625Y126707D01*
X47993Y126075D01*
X47713Y125400D01*
X49300D01*
Y126987D01*
D02*
G37*
G36*
X52087Y124200D02*
X50500D01*
Y122613D01*
X51174Y122892D01*
X51807Y123526D01*
X52087Y124200D01*
D02*
G37*
G36*
X49300D02*
X47713D01*
X47993Y123526D01*
X48625Y122892D01*
X49300Y122613D01*
Y124200D01*
D02*
G37*
G36*
X21574Y123623D02*
X20426D01*
X19301Y123399D01*
X18242Y122960D01*
X17288Y122323D01*
X16477Y121512D01*
X15840Y120558D01*
X15401Y119499D01*
X15177Y118374D01*
Y117227D01*
X15401Y116102D01*
X15840Y115042D01*
X16477Y114088D01*
X17288Y113277D01*
X18242Y112640D01*
X19301Y112201D01*
X20426Y111977D01*
X21574D01*
X22698Y112201D01*
X23758Y112640D01*
X24712Y113277D01*
X25523Y114088D01*
X26160Y115042D01*
X26599Y116102D01*
X26823Y117227D01*
Y118374D01*
X26599Y119499D01*
X26160Y120558D01*
X25523Y121512D01*
X24712Y122323D01*
X23758Y122960D01*
X22698Y123399D01*
X21574Y123623D01*
D02*
G37*
G36*
X26823Y105119D02*
X15177D01*
Y93473D01*
X26823D01*
Y105119D01*
D02*
G37*
G36*
X8197Y92800D02*
X7203D01*
X6284Y92419D01*
X5581Y91716D01*
X5200Y90797D01*
Y89803D01*
X5581Y88884D01*
X6284Y88181D01*
X7203Y87800D01*
X8197D01*
X9116Y88181D01*
X9819Y88884D01*
X10200Y89803D01*
Y90797D01*
X9819Y91716D01*
X9116Y92419D01*
X8197Y92800D01*
D02*
G37*
G36*
X44861Y78982D02*
X43939D01*
X43049Y78743D01*
X42251Y78282D01*
X41599Y77631D01*
X41138Y76833D01*
X40959Y76162D01*
X40441D01*
X40262Y76833D01*
X39801Y77631D01*
X39149Y78282D01*
X38351Y78743D01*
X37461Y78982D01*
X36539D01*
X35649Y78743D01*
X34851Y78282D01*
X34199Y77631D01*
X33738Y76833D01*
X33500Y75943D01*
Y75021D01*
X33738Y74131D01*
X34199Y73333D01*
X34851Y72681D01*
X35649Y72220D01*
X36539Y71982D01*
X37461D01*
X38351Y72220D01*
X39149Y72681D01*
X39801Y73333D01*
X40262Y74131D01*
X40441Y74801D01*
X40959D01*
X41138Y74131D01*
X41599Y73333D01*
X42251Y72681D01*
X43049Y72220D01*
X43939Y71982D01*
X44861D01*
X45751Y72220D01*
X46549Y72681D01*
X47201Y73333D01*
X47662Y74131D01*
X47900Y75021D01*
Y75943D01*
X47662Y76833D01*
X47201Y77631D01*
X46549Y78282D01*
X45751Y78743D01*
X44861Y78982D01*
D02*
G37*
G36*
X134900Y65919D02*
Y64062D01*
X136757D01*
X136419Y64878D01*
X135716Y65581D01*
X134900Y65919D01*
D02*
G37*
G36*
X133700D02*
X132884Y65581D01*
X132181Y64878D01*
X131843Y64062D01*
X133700D01*
Y65919D01*
D02*
G37*
G36*
X136757Y62862D02*
X134900D01*
Y61004D01*
X135716Y61342D01*
X136419Y62046D01*
X136757Y62862D01*
D02*
G37*
G36*
X133700D02*
X131843D01*
X132181Y62046D01*
X132884Y61342D01*
X133700Y61004D01*
Y62862D01*
D02*
G37*
G36*
X47099Y62650D02*
X40769D01*
Y54350D01*
X41895D01*
Y52779D01*
X39755Y50639D01*
X35400D01*
X34620Y50484D01*
X33958Y50042D01*
X29658Y45742D01*
X29216Y45080D01*
X29061Y44300D01*
Y33200D01*
X29216Y32420D01*
X29658Y31758D01*
X32586Y28831D01*
X32753Y28719D01*
X32767Y28705D01*
X32786Y28697D01*
X33247Y28389D01*
X34028Y28233D01*
X37482D01*
Y27501D01*
X42238D01*
Y31654D01*
X42738Y32012D01*
X42937Y31958D01*
X44962Y29933D01*
Y27501D01*
X49718D01*
Y31184D01*
X50180Y31376D01*
X51618Y29938D01*
X52362Y29440D01*
X53240Y29266D01*
X58335D01*
Y29182D01*
X59906D01*
Y28624D01*
X57327Y26044D01*
X56808Y25905D01*
X56181Y25543D01*
X55669Y25031D01*
X55307Y24404D01*
X55119Y23705D01*
Y22980D01*
X55307Y22281D01*
X55669Y21654D01*
X56181Y21142D01*
X56808Y20780D01*
X57507Y20592D01*
X58231D01*
X58931Y20780D01*
X59558Y21142D01*
X60070Y21654D01*
X60432Y22281D01*
X60571Y22800D01*
X63822Y26051D01*
X64319Y26795D01*
X64494Y27673D01*
Y29182D01*
X66841D01*
Y32922D01*
Y34700D01*
X62588D01*
X58335D01*
Y33854D01*
X54190D01*
X47616Y40428D01*
X46872Y40925D01*
X45994Y41100D01*
X45978D01*
Y42099D01*
X41222D01*
Y36556D01*
X41222Y36556D01*
X41132Y36093D01*
X40917Y35721D01*
X40730Y35022D01*
Y34298D01*
X40917Y33599D01*
X40987Y33477D01*
X40737Y33044D01*
X37482D01*
Y32312D01*
X34872D01*
X33139Y34045D01*
Y43455D01*
X36245Y46561D01*
X40600D01*
X41380Y46716D01*
X42042Y47158D01*
X45376Y50492D01*
X45818Y51153D01*
X45973Y51934D01*
Y54350D01*
X47099D01*
Y56461D01*
X48755D01*
X48902Y56400D01*
X49103D01*
X49300Y56361D01*
X49497Y56400D01*
X49698D01*
X49883Y56477D01*
X50080Y56516D01*
X50247Y56628D01*
X50433Y56704D01*
X50575Y56846D01*
X50742Y56958D01*
X50854Y57125D01*
X50995Y57267D01*
X51072Y57453D01*
X51184Y57620D01*
X51223Y57817D01*
X51300Y58002D01*
Y58203D01*
X51339Y58400D01*
X51300Y58597D01*
Y58798D01*
X51223Y58983D01*
X51184Y59180D01*
X51072Y59347D01*
X50995Y59533D01*
X50854Y59675D01*
X50742Y59842D01*
X50642Y59942D01*
X50475Y60053D01*
X50433Y60096D01*
X50378Y60118D01*
X49980Y60384D01*
X49200Y60539D01*
X47099D01*
Y62650D01*
D02*
G37*
G36*
X12481Y63624D02*
X11519D01*
X10591Y63375D01*
X9759Y62895D01*
X9079Y62215D01*
X8599Y61383D01*
X8350Y60454D01*
Y59493D01*
X8599Y58565D01*
X9079Y57733D01*
X9759Y57053D01*
X10591Y56573D01*
X11519Y56324D01*
X12481D01*
X13409Y56573D01*
X14241Y57053D01*
X14921Y57733D01*
X15401Y58565D01*
X15650Y59493D01*
Y60454D01*
X15401Y61383D01*
X14921Y62215D01*
X14241Y62895D01*
X13409Y63375D01*
X12481Y63624D01*
D02*
G37*
G36*
X36800Y67639D02*
X36603Y67600D01*
X36402D01*
X36217Y67523D01*
X36020Y67484D01*
X35853Y67372D01*
X35667Y67295D01*
X35525Y67154D01*
X35358Y67042D01*
X35247Y66875D01*
X35105Y66733D01*
X35028Y66547D01*
X34916Y66380D01*
X34877Y66183D01*
X34800Y65998D01*
Y65797D01*
X34761Y65600D01*
Y62650D01*
X32501D01*
Y54350D01*
X38831D01*
Y59595D01*
X38839Y59634D01*
Y65600D01*
X38800Y65797D01*
Y65998D01*
X38723Y66183D01*
X38684Y66380D01*
X38572Y66547D01*
X38495Y66733D01*
X38353Y66875D01*
X38242Y67042D01*
X38075Y67154D01*
X37933Y67295D01*
X37747Y67372D01*
X37580Y67484D01*
X37383Y67523D01*
X37198Y67600D01*
X36997D01*
X36800Y67639D01*
D02*
G37*
G36*
X12481Y55750D02*
X11519D01*
X10591Y55501D01*
X9759Y55021D01*
X9079Y54341D01*
X8599Y53509D01*
X8350Y52580D01*
Y51619D01*
X8599Y50691D01*
X9079Y49859D01*
X9759Y49179D01*
X10591Y48699D01*
X11519Y48450D01*
X12481D01*
X13409Y48699D01*
X14241Y49179D01*
X14921Y49859D01*
X15401Y50691D01*
X15650Y51619D01*
Y52580D01*
X15401Y53509D01*
X14921Y54341D01*
X14241Y55021D01*
X13409Y55501D01*
X12481Y55750D01*
D02*
G37*
G36*
X56100Y48687D02*
Y47100D01*
X57687D01*
X57407Y47774D01*
X56774Y48408D01*
X56100Y48687D01*
D02*
G37*
G36*
X54900D02*
X54225Y48408D01*
X53592Y47774D01*
X53313Y47100D01*
X54900D01*
Y48687D01*
D02*
G37*
G36*
X57687Y45900D02*
X56100D01*
Y44313D01*
X56774Y44592D01*
X57407Y45226D01*
X57687Y45900D01*
D02*
G37*
G36*
X54900D02*
X53313D01*
X53592Y45226D01*
X54225Y44592D01*
X54900Y44313D01*
Y45900D01*
D02*
G37*
G36*
X135261Y53200D02*
X134339D01*
X133449Y52961D01*
X132651Y52501D01*
X131999Y51849D01*
X131538Y51051D01*
X131300Y50161D01*
Y49239D01*
X131538Y48349D01*
X131999Y47551D01*
X132651Y46899D01*
X133449Y46439D01*
X134120Y46259D01*
Y45741D01*
X133449Y45562D01*
X132651Y45101D01*
X131999Y44449D01*
X131538Y43651D01*
X131377Y43050D01*
X134800D01*
X138223D01*
X138061Y43651D01*
X137601Y44449D01*
X136949Y45101D01*
X136151Y45562D01*
X135480Y45741D01*
Y46259D01*
X136151Y46439D01*
X136949Y46899D01*
X137601Y47551D01*
X138061Y48349D01*
X138300Y49239D01*
Y50161D01*
X138061Y51051D01*
X137601Y51849D01*
X136949Y52501D01*
X136151Y52961D01*
X135261Y53200D01*
D02*
G37*
G36*
X119361D02*
X118439D01*
X117549Y52961D01*
X116751Y52501D01*
X116099Y51849D01*
X115638Y51051D01*
X115400Y50161D01*
Y49239D01*
X115638Y48349D01*
X116099Y47551D01*
X116751Y46899D01*
X117549Y46439D01*
X118220Y46259D01*
Y45741D01*
X117549Y45562D01*
X116751Y45101D01*
X116099Y44449D01*
X115638Y43651D01*
X115478Y43050D01*
X118900D01*
X122322D01*
X122161Y43651D01*
X121701Y44449D01*
X121049Y45101D01*
X120251Y45562D01*
X119580Y45741D01*
Y46259D01*
X120251Y46439D01*
X121049Y46899D01*
X121701Y47551D01*
X122161Y48349D01*
X122400Y49239D01*
Y50161D01*
X122161Y51051D01*
X121701Y51849D01*
X121049Y52501D01*
X120251Y52961D01*
X119361Y53200D01*
D02*
G37*
G36*
X122322Y41550D02*
X119650D01*
Y38877D01*
X120251Y39039D01*
X121049Y39499D01*
X121701Y40151D01*
X122161Y40949D01*
X122322Y41550D01*
D02*
G37*
G36*
X138223D02*
X135550D01*
Y38877D01*
X136151Y39039D01*
X136949Y39499D01*
X137601Y40151D01*
X138061Y40949D01*
X138223Y41550D01*
D02*
G37*
G36*
X134050D02*
X131377D01*
X131538Y40949D01*
X131999Y40151D01*
X132651Y39499D01*
X133449Y39039D01*
X134050Y38877D01*
Y41550D01*
D02*
G37*
G36*
X118150D02*
X115478D01*
X115638Y40949D01*
X116099Y40151D01*
X116751Y39499D01*
X117549Y39039D01*
X118150Y38877D01*
Y41550D01*
D02*
G37*
G36*
X47400Y47839D02*
X47203Y47800D01*
X47002D01*
X46817Y47723D01*
X46620Y47684D01*
X46453Y47572D01*
X46267Y47495D01*
X46125Y47354D01*
X45958Y47242D01*
X45847Y47075D01*
X45704Y46933D01*
X45628Y46747D01*
X45516Y46580D01*
X45477Y46383D01*
X45400Y46198D01*
Y45997D01*
X45361Y45800D01*
X45400Y45603D01*
Y45402D01*
X45477Y45217D01*
X45516Y45020D01*
X45628Y44853D01*
X45704Y44667D01*
X45847Y44525D01*
X45958Y44358D01*
X52718Y37598D01*
X53379Y37156D01*
X54160Y37001D01*
X58335D01*
Y35900D01*
X62588D01*
X66841D01*
Y36662D01*
Y41418D01*
X58335D01*
Y41079D01*
X55005D01*
X48842Y47242D01*
X48675Y47354D01*
X48533Y47495D01*
X48347Y47572D01*
X48180Y47684D01*
X47983Y47723D01*
X47798Y47800D01*
X47597D01*
X47400Y47839D01*
D02*
G37*
G36*
X115899Y35449D02*
X113334D01*
Y31900D01*
X115899D01*
Y35449D01*
D02*
G37*
G36*
X112134D02*
X109569D01*
Y31900D01*
X112134D01*
Y35449D01*
D02*
G37*
G36*
X81100Y47239D02*
X80903Y47200D01*
X80702D01*
X80517Y47123D01*
X80320Y47084D01*
X80153Y46972D01*
X79967Y46896D01*
X79825Y46753D01*
X79658Y46642D01*
X79546Y46475D01*
X79404Y46333D01*
X79328Y46147D01*
X79216Y45980D01*
X79177Y45783D01*
X79100Y45598D01*
Y45397D01*
X79061Y45200D01*
Y41945D01*
X78707Y41590D01*
X78264Y41418D01*
Y41418D01*
X78264Y41418D01*
X69759D01*
Y36662D01*
X78265D01*
Y37001D01*
X79040D01*
X79821Y37156D01*
X80482Y37598D01*
X82400Y39516D01*
X82900Y39315D01*
Y38858D01*
X83077Y38196D01*
X83420Y37604D01*
X83904Y37119D01*
X84496Y36777D01*
X85158Y36600D01*
X85354D01*
X85600Y36551D01*
X87800D01*
Y35713D01*
X87600Y35549D01*
X87354Y35500D01*
X87103D01*
X86871Y35404D01*
X86624Y35355D01*
X86416Y35215D01*
X86184Y35119D01*
X86006Y34942D01*
X85798Y34802D01*
X85104Y34109D01*
X73812D01*
X72952Y33938D01*
X69759D01*
Y29182D01*
X72952D01*
X73812Y29011D01*
X86160D01*
X87135Y29205D01*
X87962Y29757D01*
X89402Y31198D01*
X89542Y31406D01*
X89719Y31584D01*
X89815Y31816D01*
X89955Y32024D01*
X90004Y32271D01*
X90100Y32503D01*
Y32754D01*
X90149Y33000D01*
X90100Y33246D01*
Y33497D01*
X90004Y33729D01*
X89955Y33975D01*
X89815Y34184D01*
X89747Y34350D01*
X89855Y34631D01*
X89993Y34850D01*
X94600D01*
Y42250D01*
X87800D01*
Y41649D01*
X86406D01*
X85842Y41800D01*
X85158D01*
X84496Y41623D01*
X83904Y41280D01*
X83629Y41006D01*
X83438Y41043D01*
X83139Y41223D01*
Y45200D01*
X83100Y45397D01*
Y45598D01*
X83023Y45783D01*
X82984Y45980D01*
X82872Y46147D01*
X82796Y46333D01*
X82653Y46475D01*
X82542Y46642D01*
X82375Y46753D01*
X82233Y46896D01*
X82047Y46972D01*
X81880Y47084D01*
X81683Y47123D01*
X81498Y47200D01*
X81297D01*
X81100Y47239D01*
D02*
G37*
G36*
X115899Y30700D02*
X113334D01*
Y27150D01*
X115899D01*
Y30700D01*
D02*
G37*
G36*
X112134D02*
X109569D01*
Y27150D01*
X112134D01*
Y30700D01*
D02*
G37*
G36*
X135095Y32000D02*
X134305D01*
X133542Y31796D01*
X132858Y31401D01*
X132299Y30842D01*
X131904Y30158D01*
X131700Y29395D01*
Y28605D01*
X131904Y27842D01*
X132299Y27158D01*
X132858Y26599D01*
X133542Y26204D01*
X134305Y26000D01*
X135095D01*
X135858Y26204D01*
X136542Y26599D01*
X137101Y27158D01*
X137496Y27842D01*
X137700Y28605D01*
Y29395D01*
X137496Y30158D01*
X137101Y30842D01*
X136542Y31401D01*
X135858Y31796D01*
X135095Y32000D01*
D02*
G37*
G36*
X75000Y25716D02*
Y24400D01*
X76316D01*
X76095Y24933D01*
X75533Y25495D01*
X75000Y25716D01*
D02*
G37*
G36*
X73800D02*
X73267Y25495D01*
X72704Y24933D01*
X72484Y24400D01*
X73800D01*
Y25716D01*
D02*
G37*
G36*
X76316Y23200D02*
X75000D01*
Y21884D01*
X75533Y22105D01*
X76095Y22667D01*
X76316Y23200D01*
D02*
G37*
G36*
X73800D02*
X72484D01*
X72704Y22667D01*
X73267Y22105D01*
X73800Y21884D01*
Y23200D01*
D02*
G37*
G36*
X70950Y19314D02*
Y14950D01*
X75314D01*
X74984Y16182D01*
X74308Y17352D01*
X73352Y18308D01*
X72182Y18984D01*
X70950Y19314D01*
D02*
G37*
G36*
X69450D02*
X68218Y18984D01*
X67048Y18308D01*
X66092Y17352D01*
X65416Y16182D01*
X65086Y14950D01*
X69450D01*
Y19314D01*
D02*
G37*
G36*
X118965Y23837D02*
X117777D01*
Y18900D01*
Y13963D01*
X118965D01*
Y14750D01*
X125657D01*
Y20687D01*
X118965D01*
Y23837D01*
D02*
G37*
G36*
X90595Y19400D02*
X89805D01*
X89042Y19196D01*
X88358Y18801D01*
X87799Y18242D01*
X87404Y17558D01*
X87200Y16795D01*
Y16005D01*
X87404Y15242D01*
X87799Y14558D01*
X88358Y13999D01*
X89042Y13604D01*
X89805Y13400D01*
X90595D01*
X91358Y13604D01*
X92042Y13999D01*
X92601Y14558D01*
X92996Y15242D01*
X93200Y16005D01*
Y16795D01*
X92996Y17558D01*
X92601Y18242D01*
X92042Y18801D01*
X91358Y19196D01*
X90595Y19400D01*
D02*
G37*
G36*
X121295Y11829D02*
X120795Y11829D01*
X103323D01*
X102988Y11829D01*
X102488Y11829D01*
X91768D01*
Y2349D01*
X102488D01*
X102823Y2349D01*
X103323Y2349D01*
X120795D01*
X121130Y2349D01*
X121630Y2349D01*
X132350D01*
Y11829D01*
X121630D01*
X121295Y11829D01*
D02*
G37*
G36*
X11737Y19400D02*
X11650D01*
Y11650D01*
X19400D01*
Y11737D01*
X19073Y13379D01*
X18433Y14926D01*
X17502Y16318D01*
X16318Y17502D01*
X14926Y18433D01*
X13379Y19073D01*
X11737Y19400D01*
D02*
G37*
G36*
X10150D02*
X10063D01*
X8421Y19073D01*
X6874Y18433D01*
X5482Y17502D01*
X4298Y16318D01*
X3367Y14926D01*
X2727Y13379D01*
X2400Y11737D01*
Y11650D01*
X10150D01*
Y19400D01*
D02*
G37*
G36*
X75314Y13450D02*
X70950D01*
Y9086D01*
X72182Y9416D01*
X73352Y10092D01*
X74308Y11048D01*
X74984Y12218D01*
X75314Y13450D01*
D02*
G37*
G36*
X69450D02*
X65086D01*
X65416Y12218D01*
X66092Y11048D01*
X67048Y10092D01*
X68218Y9416D01*
X69450Y9086D01*
Y13450D01*
D02*
G37*
G36*
X12481Y47876D02*
X11519D01*
X10591Y47627D01*
X9759Y47147D01*
X9079Y46467D01*
X8599Y45635D01*
X8350Y44706D01*
Y43745D01*
X8599Y42817D01*
X9031Y42068D01*
Y40143D01*
X9135Y39359D01*
X9437Y38630D01*
X9918Y38003D01*
X32904Y15017D01*
X32866Y14876D01*
Y13524D01*
X33216Y12218D01*
X33892Y11048D01*
X34848Y10092D01*
X36018Y9416D01*
X37324Y9066D01*
X38676D01*
X39982Y9416D01*
X41152Y10092D01*
X42108Y11048D01*
X42784Y12218D01*
X43134Y13524D01*
Y14876D01*
X42784Y16182D01*
X42108Y17352D01*
X41152Y18308D01*
X39982Y18984D01*
X38676Y19334D01*
X37324D01*
X37183Y19296D01*
X15083Y41396D01*
Y42266D01*
X15401Y42817D01*
X15650Y43745D01*
Y44706D01*
X15401Y45635D01*
X14921Y46467D01*
X14241Y47147D01*
X13409Y47627D01*
X12481Y47876D01*
D02*
G37*
G36*
X19400Y10150D02*
X11650D01*
Y2400D01*
X11737D01*
X13379Y2727D01*
X14926Y3367D01*
X16318Y4298D01*
X17502Y5482D01*
X18433Y6874D01*
X19073Y8421D01*
X19400Y10063D01*
Y10150D01*
D02*
G37*
G36*
X10150D02*
X2400D01*
Y10063D01*
X2727Y8421D01*
X3367Y6874D01*
X4298Y5482D01*
X5482Y4298D01*
X6874Y3367D01*
X8421Y2727D01*
X10063Y2400D01*
X10150D01*
Y10150D01*
D02*
G37*
%LPD*%
D13*
X36900Y75382D02*
X37000Y75482D01*
X36800Y65600D02*
X36900Y65700D01*
X73826Y59740D02*
X73994Y59909D01*
D14*
X89200Y194000D02*
X101900Y181300D01*
Y156200D02*
X106500Y151600D01*
X101900Y156200D02*
Y181300D01*
X94300Y166600D02*
X94671Y166971D01*
X164200Y196200D02*
X185700Y174700D01*
X195300D01*
X129600Y161600D02*
X164200Y196200D01*
X111500Y161600D02*
X129600D01*
X164200Y196200D02*
Y205700D01*
X195300Y224700D02*
Y225600D01*
X165500Y255400D02*
X195300Y225600D01*
X91200Y255400D02*
X165500D01*
X82900Y247100D02*
X91200Y255400D01*
X187200Y156600D02*
X195300Y164700D01*
X72800Y227900D02*
X82900Y238000D01*
Y247100D01*
X72800Y198900D02*
Y227900D01*
Y198900D02*
X77700Y194000D01*
X89200D01*
X111500Y156600D02*
X187200D01*
X151200Y57000D02*
Y81300D01*
X183696Y50102D02*
X183698Y50100D01*
X165500Y56700D02*
Y65400D01*
X183698Y60100D02*
Y65698D01*
X183700Y65700D01*
X199702Y45100D02*
Y60100D01*
X109629Y110429D02*
X110000Y110800D01*
X113899Y29101D02*
Y30134D01*
X117177Y18900D02*
Y25823D01*
X112734Y31300D02*
X113899Y30134D01*
Y29101D02*
X117177Y25823D01*
X40600Y48600D02*
X43934Y51934D01*
X35400Y48600D02*
X40600D01*
X43934Y51934D02*
Y58500D01*
X31100Y44300D02*
X35400Y48600D01*
X54160Y39040D02*
X62788D01*
X47400Y45800D02*
X54160Y39040D01*
X31100Y33200D02*
Y44300D01*
Y33200D02*
X33900Y30400D01*
X62016Y59740D02*
X62374D01*
X62000Y59756D02*
X62016Y59740D01*
X62000Y59756D02*
Y62400D01*
X73800Y59756D02*
Y62100D01*
X73816Y59740D02*
X73826D01*
X73800Y59756D02*
X73816Y59740D01*
X57400Y56000D02*
X62374D01*
X55500Y46500D02*
Y54100D01*
X57400Y56000D01*
X43934Y58500D02*
X49200D01*
X49300Y58400D01*
X36800Y59634D02*
Y65600D01*
X35666Y58500D02*
X36800Y59634D01*
X62738Y35250D02*
X62788Y35300D01*
X33900Y30400D02*
X34028Y30272D01*
X39860D01*
X81100Y41100D02*
Y45200D01*
X79040Y39040D02*
X81100Y41100D01*
X73812Y39040D02*
X79040D01*
X81600Y205700D02*
X82597D01*
X8000Y219400D02*
X8100Y219500D01*
X7900Y205700D02*
X8000Y205800D01*
D19*
X43600Y39328D02*
D03*
X47340Y30272D02*
D03*
X39860D02*
D03*
D20*
X183298Y60100D02*
D03*
X200102D02*
D03*
X183298Y55100D02*
D03*
X200102D02*
D03*
X183298Y50100D02*
D03*
X200102D02*
D03*
X183298Y45100D02*
D03*
X200102D02*
D03*
X183298Y40100D02*
D03*
X200102D02*
D03*
D21*
X91200Y38550D02*
D03*
Y51350D02*
D03*
D22*
X74026Y59740D02*
D03*
Y52260D02*
D03*
X62174D02*
D03*
Y56000D02*
D03*
Y59740D02*
D03*
D23*
X62588Y39040D02*
D03*
Y35300D02*
D03*
Y31560D02*
D03*
X74012Y31560D02*
D03*
Y39040D02*
D03*
D24*
X112734Y31300D02*
D03*
X104466D02*
D03*
X43934Y58500D02*
D03*
X35666D02*
D03*
D25*
X151500Y56700D02*
D03*
X165500D02*
D03*
D26*
X104200Y42566D02*
D03*
Y50834D02*
D03*
D27*
X126823Y7089D02*
D03*
X97295D02*
D03*
D28*
X116587D02*
D03*
X107531D02*
D03*
D29*
X106941Y18900D02*
D03*
X109500D02*
D03*
X112059D02*
D03*
X114618D02*
D03*
X117177D02*
D03*
D46*
X44400Y75482D02*
D03*
X37000D02*
D03*
X134800Y49700D02*
D03*
Y42300D02*
D03*
X118900D02*
D03*
Y49700D02*
D03*
D53*
X38100Y175474D02*
D03*
Y167600D02*
D03*
D54*
X12000Y44226D02*
D03*
Y52100D02*
D03*
Y59974D02*
D03*
D55*
X148300Y11400D02*
D03*
D56*
X82900Y247100D02*
D03*
X72900D02*
D03*
X62900D02*
D03*
X52900D02*
D03*
X158300Y11400D02*
D03*
X168300D02*
D03*
X178300D02*
D03*
X130400Y247100D02*
D03*
X140400D02*
D03*
X150400D02*
D03*
X160400D02*
D03*
D61*
X53240Y31560D02*
X62328D01*
X62588D01*
X62200Y31432D02*
X62328Y31560D01*
X57869Y23342D02*
X62200Y27673D01*
Y31432D01*
X47212Y30400D02*
Y30928D01*
X43480Y34660D02*
X47212Y30928D01*
Y30400D02*
X47340Y30272D01*
X43480Y34660D02*
Y34660D01*
X47340Y29879D02*
Y30272D01*
X43600Y38934D02*
Y39328D01*
X43728Y38806D02*
X45994D01*
X43600Y38934D02*
X43728Y38806D01*
X45994D02*
X53240Y31560D01*
X170400Y39600D02*
Y44400D01*
X153900Y48400D02*
X166400D01*
X170400Y44400D01*
X151200Y57000D02*
X151500Y56700D01*
Y50800D02*
Y56700D01*
Y50800D02*
X153900Y48400D01*
X170400Y39600D02*
X175900Y34100D01*
X189657D01*
X195657Y40100D02*
X199702D01*
X189657Y34100D02*
X195657Y40100D01*
X199206Y60307D02*
Y66514D01*
X199413Y60100D02*
X199702D01*
X199206Y60307D02*
X199413Y60100D01*
X62000Y62400D02*
Y72700D01*
X73800Y65023D02*
X75265Y66487D01*
X73800Y62100D02*
Y65023D01*
X75265Y66487D02*
X78121D01*
X78217Y66583D01*
X104466Y24524D02*
X104900Y24091D01*
X104466Y24524D02*
Y31300D01*
D62*
X169400Y75900D02*
X169553Y75747D01*
X170453D01*
X173100Y73100D01*
X175500Y45100D02*
X183698D01*
X175400Y40100D02*
X183698D01*
X173100Y53500D02*
Y73100D01*
Y53500D02*
X176498Y50102D01*
X183696D01*
X140800Y29100D02*
Y126200D01*
Y29100D02*
X145300Y24600D01*
X144700Y33500D02*
Y112400D01*
Y33500D02*
X147200Y31000D01*
X157400D01*
X163800Y24600D01*
X145300D02*
X153800D01*
X109400Y79000D02*
X109553Y78847D01*
X110653D01*
X128100Y61400D01*
X88300Y94000D02*
X95300Y101000D01*
X106700D02*
X110000Y104300D01*
X95300Y101000D02*
X106700D01*
X88300Y81000D02*
Y94000D01*
X110000Y104300D02*
Y110800D01*
X105000Y107000D02*
Y110800D01*
X101900Y103900D02*
X105000Y107000D01*
X85813Y95413D02*
X94300Y103900D01*
X101900D01*
X85813Y78387D02*
Y95413D01*
X109500Y18900D02*
Y24600D01*
X112059Y18900D02*
Y24600D01*
X128100Y38900D02*
Y61400D01*
X124697Y38900D02*
Y59203D01*
X70500Y56100D02*
X84000D01*
X66660Y52260D02*
X70500Y56100D01*
X62374Y52260D02*
X66660D01*
X109400Y74200D02*
X109600Y74000D01*
X109900D02*
X124697Y59203D01*
D63*
X113399Y36799D02*
X118900Y42300D01*
X112734Y31300D02*
X113399Y31965D01*
Y36799D01*
X73812Y31560D02*
X86160D01*
X87600Y33000D01*
X85500Y39200D02*
X85600Y39100D01*
X91200D01*
X104333Y31433D02*
X104466Y31300D01*
X104333Y31433D02*
Y42433D01*
X104200Y42566D02*
X104333Y42433D01*
D64*
X73800Y45800D02*
Y52234D01*
X73826Y52260D01*
X106941Y18900D02*
Y22050D01*
X104900Y24091D02*
X106941Y22050D01*
X106904Y18937D02*
X106941Y18900D01*
D65*
X12057Y40143D02*
X38000Y14200D01*
X12057Y40143D02*
Y44169D01*
X12000Y44226D02*
X12057Y44169D01*
D66*
X191700Y73200D02*
D03*
Y27000D02*
D03*
D67*
X62200Y172700D02*
D03*
X164900D02*
D03*
X62200Y88800D02*
D03*
X164900D02*
D03*
D68*
X106500Y171600D02*
D03*
X111500D02*
D03*
X106500Y146600D02*
D03*
X111500D02*
D03*
X89300Y171600D02*
D03*
X94300D02*
D03*
X89300Y146600D02*
D03*
X94300D02*
D03*
X100000Y89900D02*
D03*
Y94900D02*
D03*
X130000Y89900D02*
D03*
Y94900D02*
D03*
X100000Y110800D02*
D03*
Y115800D02*
D03*
X130000Y110800D02*
D03*
Y115800D02*
D03*
D69*
X106500Y166600D02*
D03*
X111500D02*
D03*
X106500Y161600D02*
D03*
X111500D02*
D03*
X106500Y156600D02*
D03*
X111500D02*
D03*
X106500Y151600D02*
D03*
X111500D02*
D03*
X89300Y166600D02*
D03*
X94300D02*
D03*
X89300Y161600D02*
D03*
X94300D02*
D03*
X89300Y156600D02*
D03*
X94300D02*
D03*
X89300Y151600D02*
D03*
X94300D02*
D03*
X125000Y94900D02*
D03*
Y89900D02*
D03*
X120000Y94900D02*
D03*
Y89900D02*
D03*
X115000Y94900D02*
D03*
Y89900D02*
D03*
X110000Y94900D02*
D03*
Y89900D02*
D03*
X105000Y94900D02*
D03*
X125000Y115800D02*
D03*
Y110800D02*
D03*
X120000Y115800D02*
D03*
Y110800D02*
D03*
X115000Y115800D02*
D03*
Y110800D02*
D03*
X110000Y115800D02*
D03*
Y110800D02*
D03*
X105000Y115800D02*
D03*
D70*
Y89900D02*
D03*
Y110800D02*
D03*
D71*
X195300Y224700D02*
D03*
Y214700D02*
D03*
Y204700D02*
D03*
Y194700D02*
D03*
Y184700D02*
D03*
Y174700D02*
D03*
Y164700D02*
D03*
Y149800D02*
D03*
Y139800D02*
D03*
Y129800D02*
D03*
Y119800D02*
D03*
Y109800D02*
D03*
Y99800D02*
D03*
Y89800D02*
D03*
D72*
X163800Y24600D02*
D03*
X81600Y219500D02*
D03*
Y205700D02*
D03*
X62500D02*
D03*
X7900D02*
D03*
X164200Y219500D02*
D03*
Y205700D02*
D03*
X163900Y38500D02*
D03*
X8100Y219500D02*
D03*
X62500D02*
D03*
D73*
X153800Y24600D02*
D03*
X91600Y219500D02*
D03*
Y205700D02*
D03*
X52500D02*
D03*
X17900D02*
D03*
X154200Y219500D02*
D03*
Y205700D02*
D03*
X153900Y38500D02*
D03*
X18100Y219500D02*
D03*
X52500D02*
D03*
D74*
X70200Y14200D02*
D03*
X38000D02*
D03*
D75*
X10900Y10900D02*
D03*
X199100Y249500D02*
D03*
Y10900D02*
D03*
X10900Y249500D02*
D03*
D76*
X21000Y99296D02*
D03*
D77*
Y117800D02*
D03*
Y136304D02*
D03*
D78*
X98259Y7089D02*
D03*
X125839D02*
D03*
D79*
X102216Y17719D02*
D03*
X121902D02*
D03*
D80*
X57869Y23342D02*
D03*
X43480Y34660D02*
D03*
D81*
X160300Y78700D02*
D03*
X169400Y75900D02*
D03*
X175500Y45100D02*
D03*
X175400Y40100D02*
D03*
X157400Y81800D02*
D03*
X151200Y81300D02*
D03*
X154800Y65500D02*
D03*
X165500Y65400D02*
D03*
X183700Y65700D02*
D03*
X140800Y126200D02*
D03*
X144700Y112400D02*
D03*
X109400Y79000D02*
D03*
X128100Y38900D02*
D03*
X124697D02*
D03*
X47400Y45800D02*
D03*
X73800D02*
D03*
X84000Y56100D02*
D03*
X49300Y58400D02*
D03*
X36800Y65600D02*
D03*
X33900Y30400D02*
D03*
X81100Y45200D02*
D03*
X136586Y114386D02*
D03*
X109400Y74200D02*
D03*
X74400Y23800D02*
D03*
D82*
X199206Y66514D02*
D03*
X87600Y33000D02*
D03*
X107091Y58791D02*
D03*
X62000Y72700D02*
D03*
X7700Y90300D02*
D03*
X66817Y66483D02*
D03*
X78217Y66583D02*
D03*
X100291Y58891D02*
D03*
X134300Y63462D02*
D03*
D83*
X134700Y29000D02*
D03*
X90200Y16400D02*
D03*
D84*
X88300Y81000D02*
D03*
X85813Y78387D02*
D03*
D85*
X109500Y24600D02*
D03*
X112059D02*
D03*
D86*
X55500Y46500D02*
D03*
X49900Y124800D02*
D03*
D87*
X85500Y39200D02*
D03*
M02*
