M48
;Layer_Color=9474304
;FILE_FORMAT=2:5
INCH,LZ
;TYPE=PLATED
T1F00S00C0.00800
T2F00S00C0.01000
T3F00S00C0.01200
T4F00S00C0.01500
T5F00S00C0.01800
T6F00S00C0.02000
T7F00S00C0.02200
T8F00S00C0.02362
T10F00S00C0.02402
T11F00S00C0.02500
T12F00S00C0.03000
T13F00S00C0.03200
T14F00S00C0.03300
T15F00S00C0.03386
T16F00S00C0.03500
T17F00S00C0.04200
T18F00S00C0.04331
T19F00S00C0.06299
T20F00S00C0.07283
T21F00S00C0.07874
T22F00S00C0.10000
;TYPE=NON_PLATED
T23F00S00C0.04550
T24F00S00C0.04685
%
T01
X01095Y00246
X0112059
X0085813Y0078387
X00883Y0081
T02
X01281Y00389
X01754Y00401
X01755Y00451
X01837Y00657
X01655Y00654
X01548Y00655
X0124697Y00389
X00474Y00458
X01094Y00742
Y0079
X01512Y00813
X01574Y00818
X01603Y00787
X01694Y00759
X01447Y01124
X0136586Y0114386
X01408Y01262
T03
X00339Y00304
X00368Y00656
X00493Y00584
X0084Y00561
X00811Y00452
X00738Y00458
X00744Y00238
T04
X01343Y0063462
X00555Y00465
X00499Y01248
T05
X0199206Y0066514
X0107091Y0058791
X0100291Y0058891
X0078217Y0066583
X0066817Y0066483
X00876Y0033
X0062Y00727
X00077Y00903
T06
X00855Y00392
T07
X004348Y003466
X0057869Y0023342
T08
X0105Y00899
X011
X0115
X012
X0125
Y00949
X012
X0115
X011
X0105
Y01108
X011
X0115
X012
X0125
Y01158
X012
X0115
X011
X0105
T10
X00893Y01516
Y01566
Y01616
Y01666
X00943
Y01616
Y01566
Y01516
X01065
Y01566
Y01616
Y01666
X01115
Y01616
Y01566
Y01516
T11
X01347Y0029
X00902Y00164
T12
X01348Y00423
Y00497
X01189
Y00423
X00444Y0075482
X0037
T13
X00381Y01676
Y0175474
T14
X0012Y0044226
Y00521
Y0059974
T15
X01304Y02471
X01404
X01504
X01604
X00829
X00729
X00629
X00529
T16
X01483Y00114
X01583
X01683
X01783
T17
X01538Y00246
X01638
X01639Y00385
X01539
X00916Y02057
X00816
Y02195
X00916
X00625
X00525
Y02057
X00625
X00179
X00079
X00081Y02195
X00181
X01542
X01642
Y02057
X01542
T18
X01953Y00898
Y00998
Y01098
Y01198
Y01298
Y01398
Y01498
Y01647
Y01747
Y01847
Y01947
Y02047
Y02147
Y02247
T19
X0038Y00142
X00702
T20
X0021Y0099296
Y01178
Y0136304
T21
X00622Y00888
Y01727
X01649
Y00888
T22
X01991Y00109
X00109
X01991Y02495
X00109
T23
X01Y00899
Y00949
Y01108
Y01158
X00943Y01466
X00893
X01065
X01115
Y01716
X01065
X00943
X00893
X013Y01158
Y01108
Y00949
Y00899
T24
X01917Y0027
Y00732
M30
