G04*
G04 #@! TF.GenerationSoftware,Altium Limited,Altium Designer,23.0.1 (38)*
G04*
G04 Layer_Physical_Order=2*
G04 Layer_Color=36540*
%FSLAX25Y25*%
%MOIN*%
G70*
G04*
G04 #@! TF.SameCoordinates,E0BBA437-4333-49BD-AE1E-3590298AE75E*
G04*
G04*
G04 #@! TF.FilePolarity,Positive*
G04*
G01*
G75*
%ADD14C,0.02000*%
%ADD46C,0.05000*%
%ADD53C,0.05200*%
%ADD55R,0.05500X0.05500*%
%ADD56C,0.05500*%
%ADD62C,0.01200*%
%ADD63C,0.03000*%
%ADD65C,0.04000*%
%ADD69C,0.03937*%
%ADD71C,0.06496*%
%ADD72C,0.07000*%
%ADD74C,0.08268*%
%ADD75C,0.15000*%
%ADD81C,0.02000*%
%ADD82C,0.03000*%
%ADD83C,0.04000*%
%ADD86C,0.02500*%
%ADD88C,0.05000*%
G36*
X57200Y164000D02*
Y129700D01*
X128300D01*
Y119600D01*
X57200D01*
Y94318D01*
X56423Y93541D01*
X55609Y92323D01*
X55049Y90969D01*
X54763Y89533D01*
Y88068D01*
X55049Y86631D01*
X55609Y85277D01*
X56423Y84059D01*
X57200Y83283D01*
Y68900D01*
X64991D01*
X65198Y68400D01*
X64697Y67899D01*
X64317Y66980D01*
Y65986D01*
X64697Y65067D01*
X65400Y64363D01*
X66319Y63983D01*
X67314D01*
X68233Y64363D01*
X68936Y65067D01*
X69317Y65986D01*
Y66980D01*
X68936Y67899D01*
X68435Y68400D01*
X68642Y68900D01*
X76291D01*
X76498Y68400D01*
X76097Y67999D01*
X75717Y67080D01*
Y66086D01*
X76097Y65167D01*
X76800Y64464D01*
X77719Y64083D01*
X78714D01*
X79633Y64464D01*
X80336Y65167D01*
X80717Y66086D01*
Y67080D01*
X80336Y67999D01*
X79935Y68400D01*
X80142Y68900D01*
X139700Y68900D01*
Y36700D01*
X129322D01*
X129222Y37200D01*
X129233Y37205D01*
X129796Y37767D01*
X130100Y38502D01*
Y39298D01*
X129796Y40033D01*
X129233Y40595D01*
X128498Y40900D01*
X127702D01*
X126967Y40595D01*
X126725Y40354D01*
X126399Y40039D01*
X126072Y40354D01*
X125830Y40595D01*
X125095Y40900D01*
X124299D01*
X123564Y40595D01*
X123002Y40033D01*
X122697Y39298D01*
Y38502D01*
X123002Y37767D01*
X123564Y37205D01*
X123575Y37200D01*
X123475Y36700D01*
X87357D01*
X87253Y36868D01*
X87177Y37200D01*
X87581Y37604D01*
X87923Y38196D01*
X88100Y38858D01*
Y39542D01*
X87923Y40204D01*
X87581Y40796D01*
X87096Y41280D01*
X86504Y41623D01*
X85842Y41800D01*
X85158D01*
X84496Y41623D01*
X83904Y41280D01*
X83420Y40796D01*
X83077Y40204D01*
X82900Y39542D01*
Y38858D01*
X83077Y38196D01*
X83420Y37604D01*
X83823Y37200D01*
X83747Y36868D01*
X83643Y36700D01*
X81700D01*
Y1529D01*
X1883D01*
X1530Y1883D01*
X1566Y157300D01*
X16300D01*
Y183200D01*
X38000D01*
X57200Y164000D01*
D02*
G37*
%LPC*%
G36*
X38574Y179074D02*
X37626D01*
X36710Y178829D01*
X35890Y178355D01*
X35219Y177684D01*
X34745Y176864D01*
X34500Y175948D01*
Y175000D01*
X34745Y174084D01*
X35219Y173264D01*
X35890Y172593D01*
X36710Y172119D01*
X37626Y171874D01*
X38574D01*
X39490Y172119D01*
X40310Y172593D01*
X40981Y173264D01*
X41455Y174084D01*
X41700Y175000D01*
Y175948D01*
X41455Y176864D01*
X40981Y177684D01*
X40310Y178355D01*
X39490Y178829D01*
X38574Y179074D01*
D02*
G37*
G36*
X38850Y171126D02*
Y168350D01*
X41626D01*
X41455Y168990D01*
X40981Y169810D01*
X40310Y170481D01*
X39490Y170955D01*
X38850Y171126D01*
D02*
G37*
G36*
X37350D02*
X36710Y170955D01*
X35890Y170481D01*
X35219Y169810D01*
X34745Y168990D01*
X34574Y168350D01*
X37350D01*
Y171126D01*
D02*
G37*
G36*
X41626Y166850D02*
X38850D01*
Y164074D01*
X39490Y164245D01*
X40310Y164719D01*
X40981Y165390D01*
X41455Y166210D01*
X41626Y166850D01*
D02*
G37*
G36*
X37350D02*
X34574D01*
X34745Y166210D01*
X35219Y165390D01*
X35890Y164719D01*
X36710Y164245D01*
X37350Y164074D01*
Y166850D01*
D02*
G37*
G36*
X21574Y142127D02*
X20426D01*
X19301Y141903D01*
X18242Y141464D01*
X17288Y140827D01*
X16477Y140016D01*
X15840Y139062D01*
X15401Y138002D01*
X15177Y136877D01*
Y135730D01*
X15401Y134606D01*
X15840Y133546D01*
X16477Y132592D01*
X17288Y131781D01*
X18242Y131144D01*
X19301Y130705D01*
X20426Y130481D01*
X21574D01*
X22698Y130705D01*
X23758Y131144D01*
X24712Y131781D01*
X25523Y132592D01*
X26160Y133546D01*
X26599Y134606D01*
X26823Y135730D01*
Y136877D01*
X26599Y138002D01*
X26160Y139062D01*
X25523Y140016D01*
X24712Y140827D01*
X23758Y141464D01*
X22698Y141903D01*
X21574Y142127D01*
D02*
G37*
G36*
X50500Y126987D02*
Y125400D01*
X52087D01*
X51807Y126075D01*
X51174Y126707D01*
X50500Y126987D01*
D02*
G37*
G36*
X49300D02*
X48625Y126707D01*
X47993Y126075D01*
X47713Y125400D01*
X49300D01*
Y126987D01*
D02*
G37*
G36*
X52087Y124200D02*
X50500D01*
Y122613D01*
X51174Y122892D01*
X51807Y123526D01*
X52087Y124200D01*
D02*
G37*
G36*
X49300D02*
X47713D01*
X47993Y123526D01*
X48625Y122892D01*
X49300Y122613D01*
Y124200D01*
D02*
G37*
G36*
X21574Y123623D02*
X20426D01*
X19301Y123399D01*
X18242Y122960D01*
X17288Y122323D01*
X16477Y121512D01*
X15840Y120558D01*
X15401Y119499D01*
X15177Y118374D01*
Y117227D01*
X15401Y116102D01*
X15840Y115042D01*
X16477Y114088D01*
X17288Y113277D01*
X18242Y112640D01*
X19301Y112201D01*
X20426Y111977D01*
X21574D01*
X22698Y112201D01*
X23758Y112640D01*
X24712Y113277D01*
X25523Y114088D01*
X26160Y115042D01*
X26599Y116102D01*
X26823Y117227D01*
Y118374D01*
X26599Y119499D01*
X26160Y120558D01*
X25523Y121512D01*
X24712Y122323D01*
X23758Y122960D01*
X22698Y123399D01*
X21574Y123623D01*
D02*
G37*
G36*
X26823Y105119D02*
X15177D01*
Y93473D01*
X26823D01*
Y105119D01*
D02*
G37*
G36*
X8197Y92800D02*
X7203D01*
X6284Y92419D01*
X5581Y91716D01*
X5200Y90797D01*
Y89803D01*
X5581Y88884D01*
X6284Y88181D01*
X7203Y87800D01*
X8197D01*
X9116Y88181D01*
X9819Y88884D01*
X10200Y89803D01*
Y90797D01*
X9819Y91716D01*
X9116Y92419D01*
X8197Y92800D01*
D02*
G37*
G36*
X44861Y78982D02*
X43939D01*
X43049Y78743D01*
X42251Y78282D01*
X41599Y77631D01*
X41138Y76833D01*
X40959Y76162D01*
X40441D01*
X40262Y76833D01*
X39801Y77631D01*
X39149Y78282D01*
X38351Y78743D01*
X37461Y78982D01*
X36539D01*
X35649Y78743D01*
X34851Y78282D01*
X34199Y77631D01*
X33738Y76833D01*
X33500Y75943D01*
Y75021D01*
X33738Y74131D01*
X34199Y73333D01*
X34851Y72681D01*
X35649Y72220D01*
X36539Y71982D01*
X37461D01*
X38351Y72220D01*
X39149Y72681D01*
X39801Y73333D01*
X40262Y74131D01*
X40441Y74801D01*
X40959D01*
X41138Y74131D01*
X41599Y73333D01*
X42251Y72681D01*
X43049Y72220D01*
X43939Y71982D01*
X44861D01*
X45751Y72220D01*
X46549Y72681D01*
X47201Y73333D01*
X47662Y74131D01*
X47900Y75021D01*
Y75943D01*
X47662Y76833D01*
X47201Y77631D01*
X46549Y78282D01*
X45751Y78743D01*
X44861Y78982D01*
D02*
G37*
G36*
X134900Y65919D02*
Y64062D01*
X136757D01*
X136419Y64878D01*
X135716Y65581D01*
X134900Y65919D01*
D02*
G37*
G36*
X133700D02*
X132884Y65581D01*
X132181Y64878D01*
X131843Y64062D01*
X133700D01*
Y65919D01*
D02*
G37*
G36*
X37198Y67600D02*
X36402D01*
X35667Y67295D01*
X35105Y66733D01*
X34800Y65998D01*
Y65202D01*
X35105Y64467D01*
X35667Y63905D01*
X36402Y63600D01*
X37198D01*
X37933Y63905D01*
X38495Y64467D01*
X38800Y65202D01*
Y65998D01*
X38495Y66733D01*
X37933Y67295D01*
X37198Y67600D01*
D02*
G37*
G36*
X136757Y62862D02*
X134900D01*
Y61004D01*
X135716Y61342D01*
X136419Y62046D01*
X136757Y62862D01*
D02*
G37*
G36*
X133700D02*
X131843D01*
X132181Y62046D01*
X132884Y61342D01*
X133700Y61004D01*
Y62862D01*
D02*
G37*
G36*
X49698Y60400D02*
X48902D01*
X48167Y60096D01*
X47605Y59533D01*
X47300Y58798D01*
Y58002D01*
X47605Y57267D01*
X48167Y56704D01*
X48902Y56400D01*
X49698D01*
X50433Y56704D01*
X50995Y57267D01*
X51300Y58002D01*
Y58798D01*
X50995Y59533D01*
X50433Y60096D01*
X49698Y60400D01*
D02*
G37*
G36*
X100788Y61391D02*
X99794D01*
X98875Y61010D01*
X98172Y60307D01*
X97791Y59388D01*
Y58393D01*
X98172Y57474D01*
X98875Y56771D01*
X99794Y56391D01*
X100788D01*
X101707Y56771D01*
X102411Y57474D01*
X102791Y58393D01*
Y59388D01*
X102411Y60307D01*
X101707Y61010D01*
X100788Y61391D01*
D02*
G37*
G36*
X12481Y63624D02*
X11519D01*
X10591Y63375D01*
X9759Y62895D01*
X9079Y62215D01*
X8599Y61383D01*
X8350Y60454D01*
Y59493D01*
X8599Y58565D01*
X9079Y57733D01*
X9759Y57053D01*
X10591Y56573D01*
X11519Y56324D01*
X12481D01*
X13409Y56573D01*
X14241Y57053D01*
X14921Y57733D01*
X15401Y58565D01*
X15650Y59493D01*
Y60454D01*
X15401Y61383D01*
X14921Y62215D01*
X14241Y62895D01*
X13409Y63375D01*
X12481Y63624D01*
D02*
G37*
G36*
X107589Y61291D02*
X106594D01*
X105675Y60910D01*
X104972Y60207D01*
X104591Y59288D01*
Y58293D01*
X104972Y57375D01*
X105675Y56671D01*
X106594Y56291D01*
X107589D01*
X108507Y56671D01*
X109211Y57375D01*
X109591Y58293D01*
Y59288D01*
X109211Y60207D01*
X108507Y60910D01*
X107589Y61291D01*
D02*
G37*
G36*
X84398Y58100D02*
X83602D01*
X82867Y57796D01*
X82305Y57233D01*
X82000Y56498D01*
Y55702D01*
X82305Y54967D01*
X82867Y54404D01*
X83602Y54100D01*
X84398D01*
X85133Y54404D01*
X85695Y54967D01*
X86000Y55702D01*
Y56498D01*
X85695Y57233D01*
X85133Y57796D01*
X84398Y58100D01*
D02*
G37*
G36*
X12481Y55750D02*
X11519D01*
X10591Y55501D01*
X9759Y55021D01*
X9079Y54341D01*
X8599Y53509D01*
X8350Y52580D01*
Y51619D01*
X8599Y50691D01*
X9079Y49859D01*
X9759Y49179D01*
X10591Y48699D01*
X11519Y48450D01*
X12481D01*
X13409Y48699D01*
X14241Y49179D01*
X14921Y49859D01*
X15401Y50691D01*
X15650Y51619D01*
Y52580D01*
X15401Y53509D01*
X14921Y54341D01*
X14241Y55021D01*
X13409Y55501D01*
X12481Y55750D01*
D02*
G37*
G36*
X56100Y48687D02*
Y47100D01*
X57687D01*
X57407Y47774D01*
X56774Y48408D01*
X56100Y48687D01*
D02*
G37*
G36*
X54900D02*
X54225Y48408D01*
X53592Y47774D01*
X53313Y47100D01*
X54900D01*
Y48687D01*
D02*
G37*
G36*
X57687Y45900D02*
X56100D01*
Y44313D01*
X56774Y44592D01*
X57407Y45226D01*
X57687Y45900D01*
D02*
G37*
G36*
X54900D02*
X53313D01*
X53592Y45226D01*
X54225Y44592D01*
X54900Y44313D01*
Y45900D01*
D02*
G37*
G36*
X74198Y47800D02*
X73402D01*
X72667Y47495D01*
X72105Y46933D01*
X71800Y46198D01*
Y45402D01*
X72105Y44667D01*
X72667Y44104D01*
X73402Y43800D01*
X74198D01*
X74933Y44104D01*
X75495Y44667D01*
X75800Y45402D01*
Y46198D01*
X75495Y46933D01*
X74933Y47495D01*
X74198Y47800D01*
D02*
G37*
G36*
X47798D02*
X47002D01*
X46267Y47495D01*
X45704Y46933D01*
X45400Y46198D01*
Y45402D01*
X45704Y44667D01*
X46267Y44104D01*
X47002Y43800D01*
X47798D01*
X48533Y44104D01*
X49095Y44667D01*
X49400Y45402D01*
Y46198D01*
X49095Y46933D01*
X48533Y47495D01*
X47798Y47800D01*
D02*
G37*
G36*
X81498Y47200D02*
X80702D01*
X79967Y46896D01*
X79404Y46333D01*
X79100Y45598D01*
Y44802D01*
X79404Y44067D01*
X79967Y43505D01*
X80702Y43200D01*
X81498D01*
X82233Y43505D01*
X82796Y44067D01*
X83100Y44802D01*
Y45598D01*
X82796Y46333D01*
X82233Y46896D01*
X81498Y47200D01*
D02*
G37*
G36*
X135261Y53200D02*
X134339D01*
X133449Y52961D01*
X132651Y52501D01*
X131999Y51849D01*
X131538Y51051D01*
X131300Y50161D01*
Y49239D01*
X131538Y48349D01*
X131999Y47551D01*
X132651Y46899D01*
X133449Y46439D01*
X134120Y46259D01*
Y45741D01*
X133449Y45562D01*
X132651Y45101D01*
X131999Y44449D01*
X131538Y43651D01*
X131377Y43050D01*
X134800D01*
X138223D01*
X138061Y43651D01*
X137601Y44449D01*
X136949Y45101D01*
X136151Y45562D01*
X135480Y45741D01*
Y46259D01*
X136151Y46439D01*
X136949Y46899D01*
X137601Y47551D01*
X138061Y48349D01*
X138300Y49239D01*
Y50161D01*
X138061Y51051D01*
X137601Y51849D01*
X136949Y52501D01*
X136151Y52961D01*
X135261Y53200D01*
D02*
G37*
G36*
X119361D02*
X118439D01*
X117549Y52961D01*
X116751Y52501D01*
X116099Y51849D01*
X115638Y51051D01*
X115400Y50161D01*
Y49239D01*
X115638Y48349D01*
X116099Y47551D01*
X116751Y46899D01*
X117549Y46439D01*
X118220Y46259D01*
Y45741D01*
X117549Y45562D01*
X116751Y45101D01*
X116099Y44449D01*
X115638Y43651D01*
X115478Y43050D01*
X118900D01*
X122322D01*
X122161Y43651D01*
X121701Y44449D01*
X121049Y45101D01*
X120251Y45562D01*
X119580Y45741D01*
Y46259D01*
X120251Y46439D01*
X121049Y46899D01*
X121701Y47551D01*
X122161Y48349D01*
X122400Y49239D01*
Y50161D01*
X122161Y51051D01*
X121701Y51849D01*
X121049Y52501D01*
X120251Y52961D01*
X119361Y53200D01*
D02*
G37*
G36*
X12481Y47876D02*
X11519D01*
X10591Y47627D01*
X9759Y47147D01*
X9079Y46467D01*
X8599Y45635D01*
X8350Y44706D01*
Y43745D01*
X8599Y42817D01*
X9079Y41985D01*
X9759Y41305D01*
X10591Y40825D01*
X11519Y40576D01*
X12481D01*
X13409Y40825D01*
X14241Y41305D01*
X14921Y41985D01*
X15401Y42817D01*
X15650Y43745D01*
Y44706D01*
X15401Y45635D01*
X14921Y46467D01*
X14241Y47147D01*
X13409Y47627D01*
X12481Y47876D01*
D02*
G37*
G36*
X122322Y41550D02*
X119650D01*
Y38877D01*
X120251Y39039D01*
X121049Y39499D01*
X121701Y40151D01*
X122161Y40949D01*
X122322Y41550D01*
D02*
G37*
G36*
X138223D02*
X135550D01*
Y38877D01*
X136151Y39039D01*
X136949Y39499D01*
X137601Y40151D01*
X138061Y40949D01*
X138223Y41550D01*
D02*
G37*
G36*
X134050D02*
X131377D01*
X131538Y40949D01*
X131999Y40151D01*
X132651Y39499D01*
X133449Y39039D01*
X134050Y38877D01*
Y41550D01*
D02*
G37*
G36*
X118150D02*
X115478D01*
X115638Y40949D01*
X116099Y40151D01*
X116751Y39499D01*
X117549Y39039D01*
X118150Y38877D01*
Y41550D01*
D02*
G37*
G36*
X43842Y37410D02*
X43118D01*
X42418Y37223D01*
X41791Y36861D01*
X41279Y36349D01*
X40917Y35721D01*
X40730Y35022D01*
Y34298D01*
X40917Y33599D01*
X41279Y32972D01*
X41791Y32460D01*
X42418Y32097D01*
X43118Y31910D01*
X43842D01*
X44541Y32097D01*
X45168Y32460D01*
X45680Y32972D01*
X46042Y33599D01*
X46230Y34298D01*
Y35022D01*
X46042Y35721D01*
X45680Y36349D01*
X45168Y36861D01*
X44541Y37223D01*
X43842Y37410D01*
D02*
G37*
G36*
X34298Y32400D02*
X33502D01*
X32767Y32096D01*
X32204Y31533D01*
X31900Y30798D01*
Y30002D01*
X32204Y29267D01*
X32767Y28705D01*
X33502Y28400D01*
X34298D01*
X35033Y28705D01*
X35596Y29267D01*
X35900Y30002D01*
Y30798D01*
X35596Y31533D01*
X35033Y32096D01*
X34298Y32400D01*
D02*
G37*
G36*
X75000Y25716D02*
Y24400D01*
X76316D01*
X76095Y24933D01*
X75533Y25495D01*
X75000Y25716D01*
D02*
G37*
G36*
X73800D02*
X73267Y25495D01*
X72704Y24933D01*
X72484Y24400D01*
X73800D01*
Y25716D01*
D02*
G37*
G36*
X76316Y23200D02*
X75000D01*
Y21884D01*
X75533Y22105D01*
X76095Y22667D01*
X76316Y23200D01*
D02*
G37*
G36*
X73800D02*
X72484D01*
X72704Y22667D01*
X73267Y22105D01*
X73800Y21884D01*
Y23200D01*
D02*
G37*
G36*
X58231Y26092D02*
X57507D01*
X56808Y25905D01*
X56181Y25543D01*
X55669Y25031D01*
X55307Y24404D01*
X55119Y23705D01*
Y22980D01*
X55307Y22281D01*
X55669Y21654D01*
X56181Y21142D01*
X56808Y20780D01*
X57507Y20592D01*
X58231D01*
X58931Y20780D01*
X59558Y21142D01*
X60070Y21654D01*
X60432Y22281D01*
X60619Y22980D01*
Y23705D01*
X60432Y24404D01*
X60070Y25031D01*
X59558Y25543D01*
X58931Y25905D01*
X58231Y26092D01*
D02*
G37*
G36*
X70950Y19314D02*
Y14950D01*
X75314D01*
X74984Y16182D01*
X74308Y17352D01*
X73352Y18308D01*
X72182Y18984D01*
X70950Y19314D01*
D02*
G37*
G36*
X69450D02*
X68218Y18984D01*
X67048Y18308D01*
X66092Y17352D01*
X65416Y16182D01*
X65086Y14950D01*
X69450D01*
Y19314D01*
D02*
G37*
G36*
X11737Y19400D02*
X11650D01*
Y11650D01*
X19400D01*
Y11737D01*
X19073Y13379D01*
X18433Y14926D01*
X17502Y16318D01*
X16318Y17502D01*
X14926Y18433D01*
X13379Y19073D01*
X11737Y19400D01*
D02*
G37*
G36*
X10150D02*
X10063D01*
X8421Y19073D01*
X6874Y18433D01*
X5482Y17502D01*
X4298Y16318D01*
X3367Y14926D01*
X2727Y13379D01*
X2400Y11737D01*
Y11650D01*
X10150D01*
Y19400D01*
D02*
G37*
G36*
X75314Y13450D02*
X70950D01*
Y9086D01*
X72182Y9416D01*
X73352Y10092D01*
X74308Y11048D01*
X74984Y12218D01*
X75314Y13450D01*
D02*
G37*
G36*
X69450D02*
X65086D01*
X65416Y12218D01*
X66092Y11048D01*
X67048Y10092D01*
X68218Y9416D01*
X69450Y9086D01*
Y13450D01*
D02*
G37*
G36*
X38676Y19334D02*
X37324D01*
X36018Y18984D01*
X34848Y18308D01*
X33892Y17352D01*
X33216Y16182D01*
X32866Y14876D01*
Y13524D01*
X33216Y12218D01*
X33892Y11048D01*
X34848Y10092D01*
X36018Y9416D01*
X37324Y9066D01*
X38676D01*
X39982Y9416D01*
X41152Y10092D01*
X42108Y11048D01*
X42784Y12218D01*
X43134Y13524D01*
Y14876D01*
X42784Y16182D01*
X42108Y17352D01*
X41152Y18308D01*
X39982Y18984D01*
X38676Y19334D01*
D02*
G37*
G36*
X19400Y10150D02*
X11650D01*
Y2400D01*
X11737D01*
X13379Y2727D01*
X14926Y3367D01*
X16318Y4298D01*
X17502Y5482D01*
X18433Y6874D01*
X19073Y8421D01*
X19400Y10063D01*
Y10150D01*
D02*
G37*
G36*
X10150D02*
X2400D01*
Y10063D01*
X2727Y8421D01*
X3367Y6874D01*
X4298Y5482D01*
X5482Y4298D01*
X6874Y3367D01*
X8421Y2727D01*
X10063Y2400D01*
X10150D01*
Y10150D01*
D02*
G37*
%LPD*%
D14*
X86929Y161971D02*
X88929D01*
X69300Y179600D02*
Y225300D01*
X88929Y161971D02*
X89300Y161600D01*
X69300Y179600D02*
X86929Y161971D01*
X62900Y231700D02*
Y247100D01*
Y231700D02*
X69300Y225300D01*
X121100Y170800D02*
Y180600D01*
X86300Y194300D02*
X107400D01*
X121100Y180600D01*
X116900Y166600D02*
X121100Y170800D01*
X116900Y166600D02*
X122400Y161100D01*
X184000D01*
X195300Y149800D01*
X140400Y234400D02*
X168100D01*
X84000D02*
X140400D01*
Y247100D01*
X187800Y214700D02*
X195300D01*
X168100Y234400D02*
X187800Y214700D01*
X75300Y225700D02*
X84000Y234400D01*
X75300Y180403D02*
Y225700D01*
X89103Y166600D02*
X89300D01*
X75300Y180403D02*
X89103Y166600D01*
X81600Y199000D02*
Y205700D01*
Y199000D02*
X86300Y194300D01*
X72900Y247100D02*
X73570Y246430D01*
X111500Y166600D02*
X116900D01*
X106129Y161971D02*
X106500Y161600D01*
X189500Y135600D02*
X195300Y129800D01*
X100300Y141400D02*
X106100Y135600D01*
X189500D01*
X100300Y141400D02*
Y159200D01*
X98271Y161229D02*
X99297Y160203D01*
X100300Y159200D01*
X94671Y161229D02*
X98271D01*
X94300Y161600D02*
X94671Y161229D01*
X158020Y11400D02*
X158300D01*
D46*
X134800Y42300D02*
D03*
X118900D02*
D03*
D53*
X38100Y167600D02*
D03*
D55*
X148300Y11400D02*
D03*
D56*
X72900Y247100D02*
D03*
X62900D02*
D03*
X158300Y11400D02*
D03*
X168300D02*
D03*
X178300D02*
D03*
X140400Y247100D02*
D03*
D62*
X178300Y11400D02*
Y89500D01*
X164900Y102900D02*
X178300Y89500D01*
X151400Y58900D02*
X171200Y39100D01*
X168300Y11400D02*
X171200Y14300D01*
Y39100D01*
X151400Y58900D02*
Y70500D01*
X125000Y110800D02*
X125015Y110785D01*
Y107885D02*
Y110785D01*
X127400Y105500D02*
X139900D01*
X125015Y107885D02*
X127400Y105500D01*
X124681Y102700D02*
X136100D01*
X120000Y107381D02*
Y110800D01*
Y107381D02*
X124681Y102700D01*
X160300Y78700D02*
X162000Y77000D01*
Y58600D02*
Y77000D01*
Y58600D02*
X175500Y45100D01*
X148072Y102900D02*
X164900D01*
X151400Y70500D02*
X154100Y73200D01*
X157400Y58100D02*
X175400Y40100D01*
X157400Y58100D02*
Y81800D01*
X154100Y73200D02*
Y91300D01*
X139900Y105500D02*
X154100Y91300D01*
X136586Y114386D02*
X148072Y102900D01*
X121600Y100000D02*
X133200D01*
X144000Y15700D02*
Y89200D01*
X133200Y100000D02*
X144000Y89200D01*
X147300Y22120D02*
Y91500D01*
X136100Y102700D02*
X147300Y91500D01*
X115000Y106600D02*
X121600Y100000D01*
X147300Y22120D02*
X158020Y11400D01*
X144000Y15700D02*
X148300Y11400D01*
X115000Y106600D02*
Y110616D01*
D63*
X125000Y115800D02*
Y121600D01*
X120100Y122400D02*
Y122900D01*
X120000Y115800D02*
Y122300D01*
X120100Y122400D01*
D65*
X95500Y29000D02*
X134700D01*
X90200Y23700D02*
X95500Y29000D01*
X90200Y16400D02*
Y23700D01*
X10900Y10900D02*
Y11329D01*
D69*
X111500Y166600D02*
D03*
X106500Y161600D02*
D03*
X89300Y166600D02*
D03*
Y161600D02*
D03*
X94300D02*
D03*
X125000Y115800D02*
D03*
Y110800D02*
D03*
X120000Y115800D02*
D03*
Y110800D02*
D03*
X115000D02*
D03*
D71*
X195300Y214700D02*
D03*
Y149800D02*
D03*
Y129800D02*
D03*
Y89800D02*
D03*
D72*
X81600Y205700D02*
D03*
D74*
X70200Y14200D02*
D03*
D75*
X10900Y10900D02*
D03*
X199100D02*
D03*
D81*
X160300Y78700D02*
D03*
X175500Y45100D02*
D03*
X175400Y40100D02*
D03*
X157400Y81800D02*
D03*
X136586Y114386D02*
D03*
X74400Y23800D02*
D03*
D82*
X199206Y66514D02*
D03*
X134300Y63462D02*
D03*
D83*
X134700Y29000D02*
D03*
X90200Y16400D02*
D03*
D86*
X55500Y46500D02*
D03*
X49900Y124800D02*
D03*
D88*
X199100Y10900D02*
Y86000D01*
X163500Y121600D02*
X199100Y86000D01*
X127300Y121600D02*
X163500D01*
M02*
